<?xml version="1.0" encoding="UTF-8"?>
<svg width="190mm" height="190mm" version="1.1" viewBox="0 0 190 190" xmlns="http://www.w3.org/2000/svg">
 <defs>
  <filter id="filter1207" x="-.0216" y="-.043199" width="1.0432" height="1.0864" color-interpolation-filters="sRGB">
   <feGaussianBlur stdDeviation="0.9"/>
  </filter>
  <filter id="filter1211" x="-.0216" y="-.043199" width="1.0432" height="1.0864" color-interpolation-filters="sRGB">
   <feGaussianBlur stdDeviation="0.9"/>
  </filter>
  <filter id="filter1215" x="-.0216" y="-.043199" width="1.0432" height="1.0864" color-interpolation-filters="sRGB">
   <feGaussianBlur stdDeviation="0.9"/>
  </filter>
  <filter id="filter1219" x="-.012" y="-.012" width="1.024" height="1.024" color-interpolation-filters="sRGB">
   <feGaussianBlur stdDeviation="0.9"/>
  </filter>
 </defs>
 <circle cx="95" cy="96.42" r="90" fill-opacity=".2" filter="url(#filter1219)" stop-color="#000000" style="mix-blend-mode:normal"/>
 <circle cx="95" cy="91.42" r="90" fill="#ebebeb" stop-color="#000000"/>
 <path d="m94.92 148.92c-27.608 0-50-7.4666-50-16.667v-16.667c0-9.2 22.392-16.667 50-16.667 27.604 0 50 7.4667 50 16.667v16.667c0 9.2-22.396 16.667-50 16.667z" fill-opacity=".2" filter="url(#filter1215)" stroke-width=".13021" style="mix-blend-mode:normal"/>
 <path d="m94.982 143.92c-27.608 0-50-7.4666-50-16.667v-16.667c0-9.2 22.392-16.667 50-16.667 27.604 0 50 7.4667 50 16.667v16.667c0 9.2-22.396 16.667-50 16.667z" fill="#8a8b8b" stroke-width=".13021"/>
 <path d="m94.982 93.918c-27.552 0-50 7.4077-50 16.5s22.448 16.5 50 16.5 50-7.4077 50-16.5-22.448-16.5-50-16.5z" color="#000000" fill="#fff" fill-opacity=".15" stroke-width="1.1254" style="-inkscape-stroke:none"/>
 <path d="m94.92 118.92c-27.608 0-50-7.4666-50-16.667v-16.667c0-9.2 22.392-16.667 50-16.667 27.604 0 50 7.4667 50 16.667v16.667c0 9.2-22.396 16.667-50 16.667z" fill-opacity=".2" filter="url(#filter1211)" stroke-width=".13021" style="mix-blend-mode:normal"/>
 <path d="m94.919 113.92c-27.608 0-50-7.4666-50-16.667v-16.667c0-9.2 22.392-16.667 50-16.667 27.604 0 50 7.4667 50 16.667v16.667c0 9.2-22.396 16.667-50 16.667z" fill="#eeb248" stroke-width=".13021"/>
 <path d="m130.46 68.805c-3.2551-1.0741-6.8259-1.9693-10.712-2.6854-3.8355-0.7161-7.8347-1.253-11.998-1.6111-4.113-0.3581-8.3402-0.537-12.68-0.537-4.2897 0-8.5168 0.1789-12.68 0.537-4.113 0.3581-8.1122 0.895-11.998 1.6111-3.8355 0.7161-7.3807 1.6115-10.636 2.6857-3.2551 1.0742-5.98 2.248-8.1754 3.522-2.1448 1.2741-3.7725 2.5941-4.8827 3.9597-1.0598 1.3656-1.6019 2.7606-1.6272 4.1845 0.0252 1.424 0.58044 2.8146 1.6655 4.1719 1.085 1.374 2.712 2.6938 4.8821 3.9595 2.1701 1.2824 4.8826 2.4607 8.1377 3.5349s6.8128 1.965 10.674 2.6728c3.8607 0.7245 7.8612 1.2618 12 1.6116 4.1383 0.3664 8.3517 0.5494 12.641 0.5493 4.3402 1e-4 8.5666-0.1791 12.68-0.5371 4.1635-0.3581 8.1634-0.8952 11.999-1.6113 3.886-0.7162 7.456-1.6111 10.711-2.6853 3.2551-1.0742 5.9552-2.2484 8.1-3.5225 2.1953-1.274 3.8223-2.5938 4.8821-3.9594 1.1103-1.3657 1.653-2.7604 1.6278-4.1844 0.0252-1.4239-0.51617-2.8186-1.6265-4.1843-1.0598-1.3656-2.6881-2.6858-4.8834-3.9599-2.1449-1.274-4.8443-2.448-8.0994-3.5223zm-8.8568 1.1245-12.793 4.2218c-1.2616-0.4829-2.4484-0.9828-3.5587-1.499-1.1102-0.5163-2.1194-1.0575-3.0278-1.6238 1.3878-0.2082 2.8894-0.4123 4.5044-0.6121 1.615-0.1999 3.2674-0.3624 4.958-0.4873 1.7159-0.1332 3.4062-0.2078 5.0716-0.2245 1.6906-0.01 3.3065 0.067 4.8457 0.2249zm5.45 1.7985c0.47946 0.4913 0.69302 1.0201 0.64254 1.5863-0.0252 0.5579-0.21332 1.12-0.56659 1.6863-0.35326 0.5662-0.84506 1.1199-1.4759 1.6612-0.60558 0.533-1.2372 1.0242-1.8933 1.4738-1.7159-0.2998-3.3683-0.6369-4.958-1.0116-1.5645-0.3664-3.0784-0.7578-4.542-1.1741zm-16.843-4.3092c-1.8673 0.1333-3.6843 0.2997-5.4507 0.4995-1.7663 0.1999-3.52 0.4372-5.2611 0.712-0.25233-0.3331-0.40386-0.6745-0.45431-1.0243-0.0252-0.358 0.16338-0.6953 0.56722-1.0118 1.7916 0.058 3.5707 0.154 5.3371 0.2872 1.7916 0.1416 3.5459 0.3209 5.2618 0.5374zm24.451 8.0691c0.6308 0.5745 1.1481 1.1531 1.5518 1.7359 0.45418 0.5829 0.78207 1.1744 0.98393 1.7739-0.98411 0.1416-2.0194 0.1996-3.1044 0.1746-1.0598-0.017-2.0944-0.067-3.1037-0.1499 0.83268-0.5746 1.5518-1.1533 2.1574-1.7362s1.1111-1.1821 1.5149-1.7983zm-42.998-8.9434c-0.27755 0.5579-0.33959 1.1199-0.18818 1.6861 0.17658 0.5579 0.50317 1.1075 0.98258 1.6488-2.4224 0.4996-4.7678 1.0327-7.0388 1.5989-2.2458 0.5746-4.4423 1.1822-6.5871 1.8234l-10.787-3.5598c3.356-0.9243 7.0404-1.6569 11.053-2.1982 4.0121-0.5412 8.2007-0.8742 12.566-0.9992zm45.647 15.064c-0.37853 1.4406-1.3876 2.8229-3.0278 4.1469s-3.8608 2.5396-6.6618 3.6471l-10.787-3.5597c1.9429-0.7079 3.7848-1.4325 5.526-2.1736 1.7411-0.7411 3.3557-1.5153 4.8444-2.3231 1.6402 0.1583 3.307 0.2665 4.9976 0.3248 1.7159 0.067 3.418 0.046 5.1086-0.062zm-41.861-9.343c1.085 0.6745 2.2953 1.3153 3.6327 1.9232s2.7514 1.1995 4.2402 1.7741l-8.2136 2.7105-10.826-3.5726c1.7411-0.5246 3.5327-1.024 5.3747-1.4987 1.842-0.4746 3.7734-0.9201 5.7921-1.3365zm24.526 8.0937c-1.2617 0.6661-2.6117 1.3035-4.05 1.9114-1.4383 0.6078-2.9517 1.199-4.5413 1.7736l-10.825-3.5724 8.2136-2.7105c1.7411 0.4913 3.5327 0.9575 5.3747 1.3989 1.842 0.4413 3.7845 0.8409 5.8284 1.199zm-57.381-8.8183 10.787 3.5598c-1.9429 0.7078-3.7842 1.4327-5.5253 2.1738s-3.3563 1.5151-4.8451 2.3228c-1.6402-0.1582-3.3174-0.2621-5.0333-0.312-1.6906-0.058-3.3816-0.042-5.0723 0.05 0.37851-1.4406 1.3882-2.8231 3.0284-4.1471s3.8595-2.5396 6.6604-3.6472zm16.238 5.3585 10.826 3.5727-8.2506 2.7227c-1.7159-0.4996-3.4964-0.9704-5.3384-1.4117-1.842-0.4414-3.7838-0.8407-5.8277-1.1988 1.2616-0.6662 2.611-1.3033 4.0493-1.9112 1.4384-0.6079 2.9517-1.1991 4.5413-1.7737zm16.276 5.3712 10.825 3.5724c-1.7411 0.5246-3.5326 1.024-5.3747 1.4986-1.842 0.4747-3.7727 0.92-5.7914 1.3363-1.085-0.6745-2.296-1.3155-3.6333-1.9234-1.3374-0.6078-2.7626-1.195-4.2765-1.7612zm16.275 5.3709 10.787 3.5598c-3.356 0.9243-7.0391 1.6569-11.051 2.1981-4.0121 0.5413-8.2014 0.8745-12.567 0.9994 0.32803-0.5579 0.39136-1.1198 0.18958-1.686-0.17658-0.558-0.50517-1.1078-0.9846-1.6491 2.4729-0.4829 4.819-1.0157 7.0395-1.5986 2.2458-0.5746 4.4416-1.1824 6.5865-1.8236zm-35.427-2.648-12.793 4.2218c-0.47942-0.5079-0.70737-1.041-0.68216-1.5989 0.0504-0.5496 0.2647-1.1035 0.64322-1.6614 0.40372-0.5663 0.90926-1.1159 1.5149-1.6488 0.6056-0.533 1.2235-1.0283 1.8543-1.4863 1.7159 0.2998 3.3553 0.633 4.9198 0.9994s3.0797 0.7579 4.5433 1.1742zm5.45 1.7985c1.2616 0.483 2.4471 0.9828 3.5574 1.4991 1.1355 0.5246 2.1577 1.0697 3.0661 1.636-1.3626 0.2165-2.8635 0.429-4.5037 0.6372-1.615 0.1998-3.2805 0.358-4.9963 0.4746-1.7159 0.1166-3.4324 0.183-5.1482 0.1996-1.6906 0.01-3.2797-0.066-4.7685-0.2247zm-22.18-4.8714c-0.8327 0.5746-1.5518 1.1533-2.1574 1.7362s-1.1098 1.1825-1.5135 1.7987c-0.65609-0.5662-1.1995-1.1452-1.6285-1.7364-0.40374-0.5829-0.6944-1.1698-0.87102-1.761 0.95886-0.1333 1.9686-0.1915 3.0284-0.1748 1.085 0.01 2.1327 0.054 3.142 0.1373zm31.491 10.392c0.25233 0.333 0.40386 0.6745 0.45434 1.0242 0.0756 0.3581-0.1006 0.6999-0.52963 1.0247-1.8168-0.067-3.6208-0.171-5.4124-0.3125-1.7411-0.1416-3.4818-0.3164-5.2228-0.5246 1.8672-0.1332 3.683-0.3 5.4493-0.4999 1.7663-0.1998 3.52-0.4371 5.2612-0.7119z" fill="#fff" fill-opacity=".15" stroke-width="1.312"/>
 <path d="m94.92 88.92c-27.608 0-50-7.4666-50-16.667v-16.667c0-9.2 22.392-16.667 50-16.667 27.604 0 50 7.4667 50 16.667v16.667c0 9.2-22.396 16.667-50 16.667z" fill-opacity=".2" filter="url(#filter1207)" stroke-width=".13021" style="mix-blend-mode:normal"/>
 <path d="m94.922 83.922c-27.608 0-50-7.4667-50-16.667v-16.667c0-9.2 22.392-16.667 50-16.667 27.604 0 50 7.4667 50 16.667v16.667c0 9.2-22.396 16.667-50 16.667z" fill="#54a2cc" stroke-width=".13021"/>
 <path d="m65.709 56.705c0.01889-0.05556 0.04476-0.0627 0.09082-0.0254 0.09495 0.07699 0.05786-0.22596-0.055-0.44858-0.07714-0.15238-0.04429-0.22413 0.15751-0.34366 0.1486-0.08802 0.2817-0.26453 0.31888-0.4231 0.03508-0.1496 0.12098-0.2858 0.19082-0.30254 0.18422-0.04445 0.77906-0.01032 1.1499 0.06587 0.39274 0.0804 0.59272 0.06746 0.60751-0.04048 0.0063-0.04524 0.08128-0.07937 0.16732-0.07619 0.20818 0.0079 0.54423-0.34437 0.54063-0.56564-0.0032-0.20659 0.15067-0.38897 0.29212-0.34604 0.05492 0.01667 0.31899 0.02302 0.58674 0.01508 0.44143-0.01429 0.48944-0.02381 0.51466-0.10865 0.01579-0.05079-0.02103-0.12373-0.08067-0.16111-0.37619-0.23611-0.47805-0.36953-0.34665-0.45413 0.10383-0.06667 0.08653-0.14357-0.07444-0.3258-0.11621-0.13095-0.28937-0.26604-0.38586-0.3-0.09669-0.03413-0.15972-0.07064-0.14003-0.08214 0.01952-0.01111-0.0913-0.10032-0.2478-0.19786-0.17068-0.10691-0.2895-0.23096-0.29873-0.31191-0.0079-0.07381-0.13987-0.28215-0.29218-0.4627l-0.27654-0.32834 0.33008-0.37469c0.20718-0.23516 0.40655-0.3862 0.53545-0.40564 0.2817-0.04286 0.73317-0.29746 0.69786-0.39397-0.02492-0.06826 0.04619-0.08564 0.51642-0.12738 0.44794-0.03968 0.6091-0.03572 0.90208 0.02302 0.39909 0.08008 1.1703 0.06032 1.2543-0.03175 0.03429-0.0373 0.20966-0.0127 0.58766 0.0846 0.2964 0.07619 0.6281 0.15651 0.73706 0.17889 0.29968 0.06111 0.68214 0.21445 0.87652 0.35056 0.20806 0.14564 0.6116 0.2658 0.74069 0.22056 0.12877-0.04524 0.88501 0.09849 0.95184 0.18072 0.03016 0.0373 0.21577 0.0954 0.4129 0.12976 0.43553 0.07619 0.69806 0.01667 0.66537-0.1504-0.02587-0.13238 0.39838-0.22167 0.81533-0.17151 0.14353 0.01746 0.44203 0.01508 0.66337 0 0.47897-0.04206 0.57844-0.0079 0.6274 0.21873 0.09002 0.41604 0.28846 0.4839 0.99557 0.33985 0.28531-0.05794 0.39353-0.10675 0.3902-0.17548-0.0063-0.13706 0.28023-0.14706 0.38868-0.01349 0.04865 0.05953 0.13765 0.10413 0.19784 0.09881 0.06048-0.0079 0.13496 0.02143 0.1659 0.05953 0.08799 0.10833 0.26778 0.17349 0.43732 0.15849 0.10253-0.0087 0.11526-0.03968 0.03778-0.09056-0.06445-0.04206-0.21533-0.15548-0.33549-0.25135-0.21607-0.17254-0.21539-0.17397 0.05341-0.12841 0.20914 0.03572 0.27612 0.03413 0.29098-0.0079 0.01587-0.04286 0.04699-0.04524 0.16563-0.0119 0.08054 0.02222 0.19203 0.0246 0.24792 0.0079 0.05817-0.02063 0.12146-0.01111 0.14765 0.02063 0.07333 0.09032 0.32851 0.04127 0.50138-0.09706 0.20368-0.16262 0.61377-0.18238 1.1576-0.05556 0.43546 0.10135 0.45626 0.13064 0.07214 0.10095-0.21227-0.01667-0.253-0.0095-0.21634 0.03572 0.05143 0.06349-0.0373 0.07778-0.30931 0.04921-0.13368-0.01349-0.27099 0.01587-0.46892 0.10016-0.15402 0.06587-0.33081 0.12421-0.393 0.12968-0.06222 0.0079-0.14035 0.04841-0.17357 0.09548-0.04936 0.06984-0.09704 0.07984-0.25785 0.05556-0.13035-0.01984-0.2244-0.01429-0.27686 0.01508-0.12652 0.07222 0.11256 0.14667 0.56129 0.17373 0.29083 0.01746 0.46201 0.05556 0.57713 0.12929 0.10587 0.06746 0.2098 0.09318 0.29488 0.07302 0.07222-0.01746 0.28698-0.05556 0.47737-0.0858 0.27445-0.04286 0.38525-0.04206 0.53513 0.0079 0.16555 0.05159 0.15687 0.06508-0.06857 0.10651-0.14179 0.02619-0.22169 0.06508-0.17773 0.0873 0.13893 0.06984 0.39622 0.03333 0.64457-0.09032l0.24019-0.11976-0.30297-0.06191c-0.38185-0.07778-0.36108-0.1704 0.05738-0.25437 0.54132-0.10857 0.7653-0.11238 1.2911-0.02222 0.27897 0.04762 0.68418 0.0827 0.90049 0.07699 0.21634-0.0079 0.4321 0 0.47945 0.01667 0.04746 0.01508 0.21872 0.01508 0.38076 1.59e-4 0.23042-0.02063 0.25254-0.03095 0.10156-0.04683-0.26633-0.02857-0.10556-0.03889 0.27368-0.01825 0.17238 0.0095 0.3245 0.03095 0.33807 0.04762 0.01421 0.01667 0.0868 0.0254 0.16241 0.01826 0.23376-0.02064 1.0521 0.175 1.1292 0.27 0.03984 0.04921 0.02659 0.09334-0.0296 0.09826-0.06286 0.0079-0.02643 0.0508 0.09543 0.11738 0.1086 0.05953 0.24541 0.16762 0.30417 0.23992 0.18961 0.23342-0.30817 0.32254-0.71064 0.12722l-0.20696-0.1004-0.1448 0.11159c-0.07968 0.06111-0.11972 0.14159-0.08895 0.17818 0.04524 0.05476 0.06635 0.05556 0.11384 0.0079 0.0319-0.03413 0.02333-0.07222-0.01952-0.08556-0.0427-0.01349-0.04873-0.02698-0.01421-0.02936 0.03524 0 0.14542 0.03175 0.24459 0.07699 0.14876 0.06826 0.21163 0.07302 0.35632 0.02857 0.12622-0.03889 0.24557-0.04524 0.42382-0.02222 0.22052 0.02857 0.26602 0.01984 0.40896-0.07699 0.14051-0.09532 0.18376-0.10365 0.34222-0.06667 0.1788 0.04206 0.17323 0.04841-0.07206 0.07937-0.06825 0.0087-0.12844 0.03968-0.13384 0.06825-0.0063 0.03492 0.07421 0.04286 0.24365 0.02302 0.65706-0.07778 1.075-0.09341 1.0577-0.03968-0.01849 0.05873 0.32613 0.08778 0.46436 0.03968 0.04595-0.01587 0.09736-0.0119 0.11448 0.0087 0.07159 0.08802 0.24469 0.01032 0.1823-0.08175-0.04206-0.06191-0.02905-0.07778 0.03357-0.04206 0.05595 0.03254 0.14337 0.05556 0.19423 0.05079 0.05103-0.0079 0.248 0.03968 0.43785 0.09913 0.18978 0.05873 0.36574 0.09556 0.39085 0.08119 0.02516-0.01429-0.01976-0.0381-0.09824-0.05317-0.16356-0.03095-0.23526-0.20929-0.08906-0.22223 0.05294-0.0079 0.18999-0.06984 0.30482-0.14556 0.18546-0.12175 0.22284-0.13048 0.33409-0.07778 0.06889 0.03254 0.10893 0.08667 0.0881 0.12048-0.07183 0.12056-0.02206 0.28088 0.07627 0.24635 0.05246-0.01825 0.06286-0.07302 0.02349-0.12167-0.03937-0.04841-0.02238-0.0927 0.03794-0.09802 0.06048-0.0079 0.12527 0.0095 0.14449 0.03333 0.01921 0.02381 0.07929 0.0079 0.13288-0.04048 0.0964-0.0823 0.10222-0.08278 0.41093-0.03413 0.17214 0.02698 0.24174 0.02937 0.15448 0.0079-0.31308-0.08722-0.17884-0.23643 0.20057-0.22318 0.10448 0 0.12669-0.01111 0.06183-0.04048-0.06286-0.02857-7.86e-4 -0.07619 0.1615-0.125 0.1448-0.04365 0.32256-0.11635 0.39501-0.16214 0.07254-0.04603 0.1924-0.07699 0.26656-0.06984 0.07421 0.0079 0.14956-0.03413 0.16761-0.0931 0.02881-0.09262 0.06103-0.10214 0.2503-0.07302 0.11953 0.01825 0.32531 0.01825 0.45713 3.17e-4 0.26614-0.03651 0.31722-0.02619 0.54518 0.11302 0.12019 0.07302 0.11892 0.09254-0.0063 0.08159-0.09004-0.0079-0.11368 0-0.05286 0.0087 0.15845 0.03333 0.43886 0.01746 0.47991-0.02778 0.01945-0.02063 0.18003-0.05159 0.3574-0.06667 0.21166-0.01905 0.30747-0.04683 0.27889-0.08214-0.02397-0.02937 0.07484-0.0754 0.21911-0.10183 0.19907-0.03651 0.31735-0.03254 0.48832 0.01429 0.28154 0.07778 0.49585 0.06349 0.34633-0.02302-0.0681-0.03968-0.0581-0.06349 0.0246-0.06111 0.0749 0 0.19228-0.04445 0.26066-0.10349 0.0684-0.05873 0.0725-0.10238 0.01-0.09675-0.0632 0.0079-0.14019-0.02143-0.17152-0.05953-0.0622-0.07619 0.39285-0.28254 0.70326-0.31818 0.10729-0.0119 0.20196-0.03016 0.21032-0.03968 8e-3 -0.0095 0.0517-0.07302 0.0961-0.14111 0.0454-0.06905 0.16933-0.13143 0.28308-0.14159 0.23473-0.02064 0.31784-0.17302 0.17397-0.31834-0.11318-0.11421-0.13177-0.39008-0.0315-0.46477 0.36002-0.26792 0.42874-0.33287 0.39729-0.37556-0.0205-0.02714 6e-3 -0.08446 0.0598-0.1273 0.0866-0.07016 0.11748-0.07389 0.31025-0.03714 0.1178 0.02254 0.2957 0.03357 0.39548 0.02476 0.0998-0.0089 0.17335-0.0016 0.16331 0.01476-0.01 0.01691-0.0497 0.08587-0.0886 0.1533-0.039 0.06746-0.11115 0.13904-0.1608 0.1591-0.0525 0.02127-0.0127 0.02984 0.0948 0.02079 0.10178-0.0087 0.24139 0.01349 0.31045 0.04921 0.10458 0.05397 0.16687 0.05476 0.37284 0.0079 0.35914-0.08552 0.46839-0.08733 0.4574-0.0079-6e-3 0.04206 0.20123 0.13786 0.51611 0.23802 0.43216 0.13746 0.50645 0.17754 0.41707 0.22484-0.0719 0.0381-0.0587 0.0754 0.0383 0.11064 0.081 0.02936 0.13799 0.08738 0.12687 0.12945-0.0219 0.08302 0.39727 0.18857 0.62589 0.1577 0.37166-0.05 0.61393-0.04365 0.72121 0.01826 0.0648 0.0373 0.18016 0.05794 0.25609 0.04524 0.0779-0.0127 0.14655 0 0.15718 0.0381 0.01 0.03333 0.11002 0.0746 0.22139 0.09191 0.11162 0.01667 0.21498 0.04603 0.22983 0.06429 0.0142 0.01825 0.15748 0.06905 0.31668 0.1127 0.15927 0.04365 0.35185 0.11762 0.42782 0.16429 0.13528 0.08302 0.13416 0.08325-0.0537 0.01508-0.12178-0.04445-0.34288-0.06508-0.60618-0.05794-0.69244 0.01905-1.2796-0.01746-1.4656-0.09103-1.1134-0.44001-1.3962-0.52429-1.6763-0.49961-0.0232 0 0.10589 0.05159 0.28716 0.1104 0.32656 0.1058 0.32747 0.10683 0.11208 0.12588-0.12018 0.01032-0.22733 0.04762-0.23821 0.08175-0.0226 0.07064 0.399 0.2385 0.61109 0.2427 0.0918 0 0.14274 0.04048 0.14623 0.11151 3e-3 0.05953-0.033 0.10151-0.0793 0.09262-0.13479-0.02619-0.31872 0.08405-0.26059 0.15564 0.029 0.03571-0.031 0.12437-0.13351 0.19667-0.16969 0.11976-0.16398 0.15 0.0635 0.33683 0.13734 0.11294 0.2932 0.25818 0.34618 0.32286 0.10385 0.12667 0.13958 0.13254 0.34786 0.05635 0.0989-0.03571 0.0965-0.04603-8e-3 -0.0373-0.0793 0.0079-0.12577-0.0079-0.10341-0.03254 0.0257-0.02857 0.11082-0.02619 0.23204 0.0079 0.17836 0.04762 0.19221 0.04524 0.20319-0.03492 0.0127-0.09635 0.38819-0.14945 0.68262-0.09667 0.14242 0.0254 0.1337 0.01587-0.0429-0.04444-0.12289-0.04286-0.28357-0.08619-0.35704-0.09707-0.0737-0.01111-7.8e-4 -0.01984 0.16077-0.01905 0.1618 3.18e-4 0.38479 0.01429 0.49558 0.03175 0.11082 0.01667 0.40872 0.03413 0.66219 0.03809 0.27209 0 0.41764 0.02302 0.35531 0.04445-0.17694 0.06191 0.12019 0.14913 0.48169 0.14143 0.2149-0.0079 0.30035 0.0079 0.23074 0.03175-0.061 0.02143-0.0621 0.05397-3e-3 0.07222 0.22752 0.07063-0.063 0.04127-0.79636-0.0804-0.41915-0.06984-0.8016-0.1231-0.84985-0.11889-0.17364 0.01508-0.0111 0.09564 0.33407 0.16468 0.41084 0.08222 0.95446 0.38008 1.1636 0.63763 0.12066 0.14857 0.10783 0.20302-0.0715 0.305-0.16905 0.09627-0.19092 0.16119-0.0968 0.2881 0.0667 0.09008 0.11447 0.20135 0.10578 0.24723-0.0144 0.07222 0.0384 0.08167 0.4019 0.06984 0.4511-0.01508 0.90406 0.04206 0.96937 0.12278 0.0585 0.07222-0.23889 0.30445-0.40895 0.31953-0.079 0.0079-0.17073-0.02063-0.20356-0.06111-0.0329-0.04048-0.14115-0.07619-0.2404-0.07984-0.0994 0-0.16341-0.0254-0.14227-0.04841 0.0246-0.02698-0.0782-0.02222-0.28403 0.0127-0.27672 0.04762-0.33074 0.04524-0.38088-0.01667-0.0847-0.10429-0.45875-0.02302-0.59332 0.12873-0.11066 0.12492-0.25207 0.13262-0.34465 0.01905-0.0297-0.03651-0.0995-0.06191-0.15559-0.05714-0.11702 0.01032-0.28057 0.24397-0.22162 0.31651 0.0217 0.02698-0.0375 0.05556-0.13129 0.06349-0.094 0.0087-0.12545 0.02937-0.0699 0.04683 0.0556 0.01746 0.1876 0.01349 0.29326-0.0095 0.10728-0.02302 0.20597-0.02381 0.22359 0 0.0529 0.06508 0.23525 0.0254 0.24608-0.05397 8e-3 -0.06349 0.48256-0.18207 0.62228-0.15588 0.0258 0.0079-0.0161 0.06349-0.0924 0.1308-0.17824 0.15619-0.14352 0.27492 0.0756 0.25889 0.0913-0.0079 0.30468-0.0079 0.47363 0 0.16897 0.0087 0.40706 0.01825 0.52901 0.01984 0.151 0 0.22224 0.02778 0.22311 0.0804 7.9e-4 0.085 0.10844 0.09072 0.24443 0.0127 0.085-0.04841 0.16201 0.04683 0.33788 0.42008 0.0934 0.19865-0.10373 0.40691-0.64266 0.67882-0.29009 0.14643-0.56773 0.27119-0.61691 0.27723-0.0491 0.0079-0.1351 0.03413-0.19118 0.06191-0.0561 0.02778-0.16122 0.07857-0.2339 0.1131-0.1359 0.06429-0.0142 0.14389 0.13892 0.0904 0.0468-0.01667 0.10588-0.0079 0.13115 0.02698 0.0584 0.07222-0.24276 0.24651-0.41955 0.24302-0.22038 0-0.28422-0.06826-0.14654-0.14714 0.15274-0.0873 0.0196-0.1423-0.28098-0.11572-0.24205 0.02143-0.88755 0.3431-0.8304 0.41382 0.0409 0.05079 0.4252 0.07222 1.2309 0.06905 0.43407 0 0.58562 0.01905 0.85945 0.11778l0.33248 0.11992-0.28946 0.12842c-0.15924 0.07064-0.42112 0.19675-0.58198 0.28032-0.32562 0.16913-0.45818 0.19683-0.5284 0.1104-0.0353-0.04365-0.10985-0.04683-0.2945-0.0127-0.1529 0.02778-0.2824 0.03016-0.33915 0.0079-0.0664-0.02936-0.0829-0.02619-0.0594 0.01111 0.0259 0.04048-0.0259 0.04206-0.23344 0.0079-0.14654-0.0246-0.42065-0.03571-0.60952-0.02381-0.18909 0.01111-0.38386 0.01349-0.43325 0-0.202-0.03889-0.35592 0.0127-0.33351 0.11111 0.0127 0.05714 0.0185 0.14706 0.0127 0.19897-0.0111 0.08397 0.0142 0.08968 0.2185 0.05159 0.12655-0.02381 0.20838-0.03095 0.18178-0.01587-0.0663 0.0381 0.38941 0.13096 0.56492 0.1154 0.0782-0.0079 0.40318-0.01667 0.72239-0.02222 0.43314-0.0079 0.6157 0.0087 0.71972 0.0627 0.13861 0.07143 0.46832 0.12968 0.65654 0.11548 0.16178-0.0119 0.36145 0.06826 0.35258 0.14183-0.01 0.08572 0.3277 0.10381 0.49367 0.02619 0.0841-0.03889 0.23638-0.05476 0.51346-0.05318 0.32069 0 0.34607 0.0079 0.13621 0.02857-0.22811 0.02302-0.23969 0.0381-0.10211 0.13016 0.13512 0.09016 0.12036 0.11246-0.11224 0.16921-0.54123 0.13214-2.5138 0.13373-3.4916 0-0.0726-0.0095-0.45869-0.02937-0.85819-0.04365-1.2245-0.04365-1.2719-0.04683-1.2956-0.07619-0.0282-0.03492 1.1-0.12984 1.302-0.10968 0.35816 0.03572 1.5092 0.0079 2.1247-0.05476 0.62559-0.0619 0.6355-0.06429 0.13639-0.03413-0.44912 0.02778-0.62885 0.01587-1.0864-0.07143-0.30152-0.05714-0.53903-0.09214-0.52784-0.07699 0.0111 0.01508-0.0302 0.0127-0.0926-0.0079-0.0621-0.01825-0.27396-0.03571-0.47082-0.03889-0.26898-0.0079-0.37439-0.02857-0.42419-0.09437-0.0359-0.04841-0.12748-0.09524-0.20205-0.10429-0.0837-0.01032-0.0733-0.02302 0.0271-0.03254 0.1313-0.0127 0.12053-0.01984-0.0534-0.03571-0.23512-0.02143-0.27062-0.14278-0.0371-0.12722 0.0784 0.0079 0.0488-0.0079-0.0658-0.02381-0.1143-0.01825-0.37441-0.08524-0.57786-0.14921-0.20347-0.06349-0.38778-0.09818-0.40961-0.07619-0.0621 0.0627-0.42868 0.16357-0.67062 0.18492-0.16755 0.01508-0.25028-0.0079-0.34945-0.09516-0.0975-0.08603-0.17531-0.10778-0.3115-0.0873-0.12621 0.01905-0.17566 0.0087-0.16203-0.03413 0.0111-0.03492-0.039-0.05635-0.11734-0.04921-0.0753 0.0079-0.31095-0.02302-0.52367-0.06587-0.37087-0.0746-0.40904-0.07381-0.93041 0.0079-0.29903 0.04683-0.61591 0.0823-0.70417 0.07937-0.08831 0-0.25107 0.03333-0.36178 0.08135-0.21875 0.09445-1.4337 0.4412-1.5964 0.45556-0.05524 0.0079-0.10351 0.02698-0.10729 0.04921-0.0048 0.02222-0.19011 0.05873-0.41357 0.08159-0.38169 0.03889-0.40061 0.04841-0.31173 0.15778 0.05199 0.06429 0.03698 0.14318-0.03333 0.17596-0.07032 0.03254-0.11051 0.08095-0.08938 0.10706 0.02119 0.02619-0.05254 0.06667-0.16357 0.09008-0.1113 0.02381-0.17092 0.05238-0.13273 0.06429 0.0381 0.0119-0.01111 0.03095-0.11098 0.04206-0.09909 0.01111-0.27859 0.04127-0.39858 0.06667-0.24792 0.05238-0.65706-0.01826-0.82144-0.14183-0.05381-0.04048-0.18597-0.10389-0.29354-0.1408-0.68931-0.23635-1.195-0.61445-1.1252-0.8412 0.01841-0.05952-0.0079-0.11484-0.05762-0.12349-0.05-0.0087-0.09649 0.0079-0.10318 0.03413-0.02421 0.09746-0.61914 0.1096-0.95001 0.01905-0.18878-0.05159-0.27038-0.09468-0.20547-0.10889 0.06064-0.0127-0.0369-0.05318-0.22064-0.09191-0.18065-0.0373-0.41658-0.10365-0.52401-0.14675-0.13623-0.05476-0.48114-0.09183-1.1381-0.12294-1.1867-0.05635-2.1989-0.18842-2.2988-0.30008-0.04968-0.05476-0.18133-0.08548-0.40512-0.09294-0.68327-0.02302-1.3402-0.21873-1.456-0.43382-0.0477-0.08841-0.13892-0.12738-0.36032-0.15405-0.16317-0.01984-0.32404-0.01984-0.35762-4.76e-4 -0.03365 0.01905 0.0048 0.14222 0.084 0.27342 0.07968 0.13119 0.15353 0.2073 0.16475 0.16905 0.01817-0.06508 0.03238-0.06587 0.20653-0.0119 0.14971 0.04603 0.16191 0.06905 0.0619 0.11587-0.1018 0.04762-0.09102 0.06667 0.05802 0.10119 0.26658 0.0627 0.90938 0.08302 1.3561 0.04365 0.35857-0.03175 0.38232-0.02778 0.31131 0.04921-0.0646 0.06984-0.0254 0.09556 0.24945 0.16222 0.49168 0.11921 0.71767 0.22588 0.58063 0.27389-0.06238 0.02222-0.15545 0.03572-0.20663 0.03016-0.05135-0.0079-0.10891 0.0087-0.12844 0.02937-0.01952 0.02143-0.13495 0.03889-0.25669 0.03968-0.12179 2.38e-4 -0.23944 0.01984-0.26132 0.04445-0.02206 0.02381-0.10555 0.04286-0.18566 0.04048-0.08022 0-0.3733 0.0095-0.65152 0.0254-0.27823 0.01587-0.74289 0.01111-1.0326-0.01032-0.28966-0.02143-0.57049-0.02381-0.62408-0.0079-0.09522 0.03333-2.1959-0.09381-2.5965-0.15714-0.11129-0.01746-0.38439-0.04445-0.607-0.06032-0.48473-0.03333-0.53173-0.07619-0.36482-0.33096 0.1062-0.16199 0.08711-0.23929-0.11305-0.45794-0.18936-0.20683-0.21264-0.28223-0.10922-0.35254 0.08809-0.05953 0.08205-0.14865-0.01778-0.26802-0.08302-0.09818-0.11622-0.20286-0.07548-0.23246 0.09219-0.06667 0.02119-0.30889-0.0799-0.27342-0.04072 0.01429-0.13083 5.55e-4 -0.20026-0.03016-0.10426-0.04683-0.14432-0.03095-0.22938 0.08841-0.05659 0.07968-0.08367 0.17159-0.05984 0.20421 0.02317 0.03254-0.0127 0.08532-0.08097 0.11722-0.08129 0.0381-0.07334 0.09183 0.02222 0.15572 0.11589 0.07699 0.0992 0.1227-0.07938 0.21635-0.1783 0.09357-0.19507 0.13913-0.07959 0.21619 0.08379 0.05556 0.11416 0.14659 0.06992 0.21222-0.09241 0.13865-0.05841 0.19611 0.08605 0.14548 0.06976-0.0246 0.10049-0.01667 0.08799 0.02302-0.01111 0.03333 0.13194 0.15842 0.31524 0.27866 0.215 0.1404 0.302 0.22968 0.24432 0.25-0.16203 0.05714 0.20695 0.21246 0.56487 0.23834 0.19172 0.01349 0.37561 0.03651 0.4086 0.05 0.08033 0.03254 1.5557 0.20135 1.8397 0.21008 0.17092 0.0079 0.2049 0.02063 0.14257 0.06587-0.04508 0.03254-0.03468 0.06905 0.02349 0.08119 0.05786 0.0127 0.03159 0.01587-0.05849 0.0079-0.09014-0.0079-0.21126 0.0079-0.2693 0.03016-0.0581 0.0246-0.32385 0.06905-0.59073 0.0981-0.2669 0.02936-0.51014 0.06191-0.54055 0.07302-0.12099 0.04206-1.5187 0.06587-1.9829 0.03333-0.73438-0.05159-2.8679-0.09913-3.3831-0.0754-0.42496 0.01984-0.43797 0.02381-0.23704 0.0746 0.11701 0.02936 0.16281 0.04603 0.1021 0.03651-0.06079-0.0095-0.18521 0.02222-0.27643 0.07064-0.1186 0.0627-0.12606 0.11786-0.02651 0.19397 0.07659 0.05873 0.11098 0.10897 0.07635 0.11214-0.03484 0-0.12177 0.06349-0.19345 0.13468-0.17208 0.1704-0.45751 0.17143-1.5404 0.0079-0.45737-0.06984-1.0718-0.16262-1.3654-0.2058l-0.5338-0.07857 0.01627 0.11722c0.02603 0.18722-0.2234 0.20778-0.85493 0.06984-0.39254-0.08548-0.65283-0.11508-0.87374-0.09945-0.31894 0.02302-1.2689-0.10175-2.191-0.28675-0.74756-0.14992-1.7828-0.46358-2.4373-0.73826-0.33229-0.13952-0.80644-0.3281-1.0538-0.41913-0.51804-0.19072-0.8862-0.4235-0.84811-0.53636zm12.974-2.6011c0.0558 0.01746 0.20439 0.0127 0.32995-0.01032 0.3299-0.06032 0.70048 0.03333 0.90239 0.22818 0.28912 0.27929 0.91898 0.60302 1.2414 0.6381 0.16049 0.01746 0.35734 0.07302 0.43744 0.12278 0.25238 0.15746 0.53502 0.2054 0.95835 0.1623 0.41692-0.04207 1.0651-0.2054 1.023-0.25715-0.01421-0.01746-0.20917-0.06191-0.43333-0.09952-0.26377-0.04365-0.43569-0.10238-0.48742-0.16603-0.05326-0.06587-0.15289-0.09826-0.29903-0.09794-0.12938 2.38e-4 -0.27588-0.04048-0.35759-0.09897-0.07595-0.05476-0.20125-0.12881-0.27774-0.16468-0.10147-0.04762-0.09887-0.05397 0.0097-0.0246 0.11368 0.03095 0.1448 0.0095 0.13242-0.08929-0.0097-0.07143 0.02151-0.11135 0.06794-0.08881 0.04651 0.02222 0.13241 0.03651 0.19122 0.03175 0.05881-0.0079 0.07365-0.01984 0.03302-0.03254-0.04064-0.0127-0.02992-0.06032 0.02421-0.10651 0.06302-0.05397 0.11226-0.06587 0.13799-0.03413 0.0219 0.02698 0.06095 0.0373 0.08668 0.02222 0.07957-0.04524-0.31106-0.15683-0.49311-0.14072-0.10828 0.0095-0.16518-0.0079-0.15337-0.04444 0.01111-0.03254-0.02881-0.05556-0.08712-0.05079-0.10514 0.0095-0.10828 0.04603-0.01421 0.16254 0.03698 0.04603-0.02429 0.06111-0.25358 0.06587-0.16625 0-0.38339 0.01429-0.48253 0.02381-0.14988 0.01508-0.17922 0-0.17397-0.10143 0.0032-0.06587-0.03421-0.13238-0.08356-0.14778-0.04945-0.01508 0.0063-0.04603 0.12431-0.06826 0.11797-0.02222 0.20158-0.05556 0.18613-0.0746-0.04286-0.05238 0.16027-0.15199 0.38454-0.18786 0.15972-0.0254 0.18084-0.07381 0.1032-0.23834-0.09445-0.20032 0.02492-0.42643 0.23515-0.44501 0.05706-0.0079 0.06008-0.02302 0.0063-0.03968-0.35191-0.10945-0.70108 0.12341-0.70369 0.46913-7.78e-4 0.10659-0.0427 0.215-0.09305 0.24104-0.06524 0.03333-0.0867 0.02619-0.07452-0.0254 0.02516-0.10564-0.12877-0.13619-0.32882-0.06508-0.14019 0.04921-0.22228 0.05318-0.42999 0.01746-0.14131-0.02381-0.34454-0.03572-0.45177-0.02619-0.13273 0.0119-0.18857 0-0.17487-0.04603 0.01111-0.03492-0.0127-0.10254-0.05103-0.15072-0.03897-0.04841-0.02175-0.09191 0.03865-0.09722 0.0604-0.0079 0.14052 0.02698 0.1781 0.07143 0.08776 0.10405 0.54698 0.22024 0.67863 0.17175 0.05524-0.02064 0.1259-0.15262 0.15702-0.29405 0.03111-0.14143 0.11557-0.2973 0.18772-0.34635 0.24244-0.16484 0.22858-0.19754-0.11351-0.26794-0.2236-0.04603-0.36738-0.11167-0.43974-0.20072-0.08928-0.10992-0.15116-0.13064-0.36488-0.12206-0.1524 0.0079-0.36888-0.03016-0.5309-0.08889-0.305-0.11056-0.6281-0.16334-0.785-0.12826-0.26688 0.05953-0.86358-0.11675-1.0116-0.29889-0.12018-0.1481-0.32111-0.18207-0.40182-0.06826-0.08356 0.11802 0.07334 0.27659 0.41343 0.4181 0.16383 0.06826 0.53463 0.295 0.82406 0.50413 0.7649 0.55255 0.78775 0.57318 0.63806 0.57636-0.07318 0-0.22821 0.03333-0.34453 0.06984-0.15495 0.04921-0.21286 0.05556-0.21682 0.02222-0.0032-0.0246-0.08173-0.04683-0.17482-0.05-0.11764 0-0.13368 0.0119-0.0527 0.04841 0.06429 0.02937 0.06897 0.05714 0.01111 0.0627-0.05841 0.0079-0.02119 0.11429 0.08303 0.24246 0.10415 0.12826 0.15464 0.24532 0.11241 0.26016-0.08669 0.03016 0.24657 0.40246 0.40401 0.45143zm0.82017-1.4849c0.18538-0.01349 0.32514 0 0.35011 0.02857 0.05746 0.07064-0.48196 0.11413-0.58132 0.04683-0.05571-0.0381 0.0097-0.05873 0.2311-0.0754zm1.2711 1.573c0.05445 0.02698 0.18346 0.09437 0.28658 0.14929 0.17438 0.09262 0.17216 0.0958-0.03238 0.04365-0.12114-0.03095-0.24999-0.09794-0.28658-0.14929-0.0369-0.05159-0.02222-0.07143 0.03238-0.04365zm0.39186-0.0373c0.27141-0.05635 0.40305-0.05794 0.38645-0.0079-0.01111 0.03333-0.01436 0.06667-0.0063 0.0754 0.0063 0.0079-0.06183 0.02143-0.1521 0.02937-0.12892 0.01111-0.33292-0.07778-0.2274-0.09921zm-1.0847-1.5886c0.05905-0.02063 0.17-0.02619 0.24646-0.01111 0.09272 0.01746 0.10318 0.03889 0.03159 0.06429-0.05905 0.02063-0.17001 0.0254-0.24644 0.01111-0.09273-0.01746-0.1033-0.03889-0.03159-0.06429zm2.6671 2.3438c0.39206 0.06984 0.39953 0.10786 0.01579 0.07857-0.14399-0.01111-0.28315-0.04683-0.30966-0.07945-0.03905-0.04841 0.01635-0.04762 0.29441 0zm0.22176-0.6789c0.05191-0.0079 0.04627-0.03016-0.0127-0.05714-0.05905-0.02699-0.14956-0.04524-0.20168-0.04048-0.05191 0.0079-0.04619 0.03016 0.0127 0.05714 0.05905 0.02698 0.14972 0.04524 0.20168 0.04048zm0.85477 0.12683c0.40624 0.07381 0.71361 0.16357 0.90128 0.26366 0.32742 0.1746 0.86731 0.30866 1.1447 0.28413 0.26321-0.02302 0.25072-0.07064-0.0898-0.33889-0.25542-0.20135-0.34787-0.23945-0.66895-0.27564-0.41874-0.04683-0.46199-0.06826-0.3062-0.15088 0.15194-0.08048-0.07087-0.21278-0.36569-0.21723-0.29687-0.0079-1.1624 0.07461-1.2852 0.11794-0.21118 0.07381 0.07349 0.20865 0.66987 0.31683zm1.7249-0.03492c0.21795 0.05556 0.46452 0.05 0.4159-0.01032-0.01714-0.02063 0.03532-0.03175 0.11637-0.02381 0.09176 0.0087 0.10491 0 0.03468-0.02063-0.06214-0.01905-0.27785-0.04683-0.4795-0.06191-0.408-0.02936-0.44801 0.02302-0.08745 0.11564zm-1.3035-1.96c-0.06699 0.0381 0.0063 0.07381 0.28525 0.13818 0.20657 0.04762 0.3677 0.11143 0.35804 0.14175-0.0097 0.03175 0.07429 0.05556 0.19725 0.05635 0.26417 0 0.95676-0.07699 1.0874-0.1231 0.11687-0.04127 0.90977 0.0754 0.96335 0.14167 0.02111 0.02619 0.12003 0.05 0.21972 0.05318 0.27354 0.0095 0.16224-0.06111-0.24324-0.15476-0.19878-0.04603-0.3792-0.10516-0.40088-0.13183-0.02175-0.02699-0.09306-0.07619-0.15846-0.10913-0.09197-0.04683-0.08474-0.05079 0.03111-0.01984 0.12795 0.03492 0.20498 0.02778 0.52276-0.05079 0.45119-0.11119 0.48909-0.17842 0.09941-0.17643-0.39635 0-0.79636 0.06429-0.72426 0.11286 0.08656 0.05794-0.31478 0.1308-0.53648 0.09714-0.1121-0.01667-0.31463-0.0079-0.49648 0.02381-0.26561 0.04524-0.3824 0.0373-0.85946-0.05635-0.53682-0.10587-0.95517-0.14381-0.48816-0.04444 0.17281 0.0373 0.20988 0.06349 0.14306 0.10143zm1.4213 0.06429c0.09984 0 0.18657 0.0127 0.19294 0.02063 0.0063 0.0079-0.06262 0.02064-0.1529 0.02857-0.09046 0.0079-0.17727 0-0.19295-0.02063-0.01571-0.01905 0.05317-0.03254 0.15291-0.02857zm1.8645 3.2964c0.1467 0.05476 0.42374 0.1108 0.61579 0.1246 0.31485 0.02302 0.3615 0.01746 0.47431-0.05556 0.13764-0.08857 0.10783-0.18889-0.04056-0.13691-0.05127 0.01825-0.03254-0.04841 0.04349-0.14699 0.09639-0.12659 0.09133-0.22516-0.01683-0.3331l-0.15368-0.15326 0.4485-0.02778c0.89303-0.05556 0.33503-0.20786-0.59854-0.16334-0.40282 0.01905-0.48707 0.0373-0.57072 0.12095-0.05397 0.05397-0.04651 0.18175 0.01635 0.28373 0.06286 0.10199 0.08895 0.18635 0.05738 0.18754-0.17387 0.0079-0.55967 0.14619-0.54356 0.19691 7.85e-4 0 0.12114 0.04841 0.26775 0.10302zm-1.2603-2.9866c0.09047-0.0079 0.14464-0.03889 0.12035-0.06905-0.07659-0.09421-0.2678-0.04445-0.28353 0.07381-5e-4 0.0079 0.07262 0 0.16317-0.0079zm2.7311 2.7843c0.09047-0.0079 0.14544-0.03809 0.1221-0.06667-0.04905-0.06032-0.23878-0.08746-0.31365-0.04445-0.09586 0.05476 0.02627 0.12587 0.19163 0.11127zm-0.94342-3.2714c0.42247-0.0079 0.51517-0.04206 0.26341-0.10064-0.27859-0.06508-0.92342 0.01111-0.69484 0.08222 0.04175 0.0127 0.23601 0.02143 0.43141 0.01826zm6.587 0.8193c0.22303-0.05317 0.26224-0.24373 0.05754-0.27905-0.12146-0.02064-0.13068-0.0127-0.03754 0.03175 0.08379 0.04048 0.05841 0.0931-0.07794 0.16167-0.21657 0.10881-0.19188 0.14524 0.05778 0.0854zm3.4421-1.0471c0.05048-0.01746 0.07492-0.05159 0.0546-0.0754-0.02183-0.02619-0.06159-0.01746-0.09875 0.02064-0.07969 0.08159-0.06953 0.09413 0.04405 0.05397zm10.513 6.577c0.0604-0.0079 0.083-0.04206 0.0506-0.08206-0.0324-0.03968-0.10812-0.06825-0.1683-0.0627-0.0605 0.0079-0.0832 0.04206-0.0508 0.08206 0.0324 0.03968 0.10812 0.06826 0.16844 0.0627zm-6.5275-8.3255c0.0505-0.01746 0.0783-0.04841 0.0621-0.06826-0.0162-0.01984-0.0706-0.02143-0.12082 0-0.0505 0.01746-0.0782 0.04841-0.0619 0.06826 0.0162 0.01984 0.0706 0.02143 0.12065 0zm-42.195-4.5135 0.31458-0.20236-0.22399 0.18411c-0.19482 0.16014-0.38103 0.26834-0.39939 0.23208-0.0032-0.0063 0.13574-0.10253 0.3088-0.21384zm5.5584-0.0063c0.0048-0.02167 0.0016-0.08611-0.0063-0.14303-0.0079-0.05691 0.17114-0.23295 0.39772-0.39112 0.22654-0.15818 0.40425-0.29709 0.39482-0.30868-0.0095-0.01151 0.07445-0.08128 0.18663-0.15483 0.35464-0.23278 0.49758-0.44486 0.32677-0.48479-0.20353-0.04754 0.09653-0.57478 0.31618-0.5556 0.08209 0.0071 0.10384 0.0032 0.04825-0.0087-0.27307-0.05841 0.86461-0.80557 1.4932-0.98065 0.33319-0.09282 0.37082-0.19905 0.0427-0.12038-0.25355 0.06079-0.21265-0.03349 0.07667-0.17657 0.154-0.07619 0.59482-0.24969 0.97954-0.38554 0.38469-0.13586 0.6838-0.26623 0.66468-0.28975-0.03714-0.04571 0.30069-0.17156 0.99247-0.36958 0.236-0.06754 0.37876-0.11964 0.31729-0.11576-0.06159 0.0032-0.2348 0.04444-0.38518 0.08987-0.39358 0.11921-0.44371 0.08172-0.06714-0.05024 0.17514-0.06143 0.32344-0.12645 0.32946-0.14457 0.0063-0.01817 0.21501-0.10719 0.46446-0.19798 0.28169-0.10252 0.35704-0.14676 0.19891-0.11679-0.14002 0.02651-0.37135 0.06722-0.51411 0.09045-0.27858 0.04532-0.27117 0.04214 0.80842-0.34304 0.23801-0.08491 0.4309-0.15667 0.42863-0.15946-0.02349-0.02897-0.94049 0.11323-1.3994 0.21679-0.78089 0.1763-0.8135 0.173-0.20392-0.02048 0.82334-0.2614 3.0258-0.724 4.2778-0.8985 0.53274-0.07429 1.104-0.06302 1.0772 0.02111-0.01111 0.03262 0.04095 0.0546 0.11575 0.04865 0.07397-0.0063 0.06079 0.01381-0.02936 0.04373-0.09003 0.02992-0.12338 0.06706-0.07365 0.08248 0.0504 0.01564-7.86e-4 0.02476-0.1186 0.02087-0.16169-0.0056-0.18092 0.0056-0.0854 0.04881 0.06778 0.03087 0.07595 0.05135 0.01778 0.04572-0.16354-0.01619-0.35394 0.30447-0.19846 0.33411 0.08324 0.01587 0.0454 0.05714-0.10308 0.11196-0.34668 0.12814-0.51228 0.34131-0.3032 0.39019 0.12703 0.0296 0.13528 0.04984 0.03532 0.08562-0.09402 0.03365-0.09142 0.04349 0.0097 0.03508 0.10523-0.0089 0.11526 0.01317 0.04016 0.0883-0.13243 0.13273 0.21658 0.4873 0.54044 0.54902 0.20959 0.03992 0.35441 0.02873 1.5507-0.12014 1.2075-0.15028 1.6507-0.18181 1.8514-0.13177 0.04063 0.01016 0.31602 0.02754 0.61221 0.03857 0.29621 0.01111 0.70112 0.04024 0.89985 0.06476 0.19872 0.02445 0.62494 0.04199 0.94708 0.03913 0.66558-0.0063 0.88509 0.05452 0.62455 0.17288-0.20647 0.09383-0.20316 0.12845 0.01111 0.10959 0.3381-0.02992 0.33149 0.08646-0.01714 0.30061-0.20135 0.12371-0.47174 0.25748-0.60082 0.29727-0.13926 0.04286-0.17404 0.07357-0.08562 0.07532 0.08206 0.0016 0.1863 0.04619 0.23202 0.09907 0.06016 0.07008 0.20815 0.10916 0.54494 0.14434 0.5428 0.05675 0.7813 0.0296 0.83954-0.09562 0.02317-0.04984 0.12526-0.09812 0.22659-0.10708 0.10146-9e-3 0.26159-0.03484 0.35607-0.05746 0.11495-0.02754 0.15734-0.02532 0.12798 0.0071-0.03 0.03286 0.07651 0.03595 0.33559 0.0095 0.20875-0.02111 0.4747-0.02413 0.59122-0.0063 0.11653 0.01762 0.36242 0.0173 0.54648-7.93e-4 0.23913-0.02381 0.36531-0.01516 0.44234 0.02945 0.05937 0.03437 0.26691 0.06937 0.46152 0.07778 0.19462 0.0084 0.36549 0.02968 0.3797 0.04722s0.19181 0.01714 0.39466-5.24e-4c0.68226-0.06032 1.543-0.06191 2.0686-0.0032 0.41393 0.04572 0.66399 0.04611 1.2091 0.0016 0.5788-0.04683 0.87382-0.04357 1.8702 0.02135 1.3809 0.08995 2.2621 0.21363 2.1769 0.30549-0.09446 0.1018 0.10037 0.19221 0.77983 0.36157 0.35796 0.08925 0.66543 0.18026 0.68331 0.20228 0.05921 0.07294 0.84096 0.27723 1.0054 0.26268 0.1121-0.0099 0.12067-0.03143 0.02786-0.07032-0.07349-0.03087-0.26889-0.12268-0.43408-0.20409-0.16524-0.08139-0.33528-0.15363-0.378-0.16053-0.11575-0.01865-0.25606-0.13254-0.17279-0.1399 0.0396-0.0032 0.28683 0.03873 0.54905 0.09394 0.33816 0.07111 0.4552 0.11585 0.40251 0.15368-0.05254 0.0377 0.07484 0.08793 0.4358 0.1718 0.28055 0.06516 0.52149 0.13761 0.5354 0.16103 0.01659 0.02857-0.0048 0.02929-0.06683 0.0016-0.05064-0.02222-0.16311-0.03405-0.2502-0.02627-0.13368 0.01183-0.11685 0.02889 0.10971 0.11105 0.14735 0.05333 0.3696 0.18647 0.49379 0.29577 0.22122 0.19464 0.53459 0.30722 0.79192 0.28446 0.07119-0.0064 0.1486 0.0086 0.1723 0.03325 0.02341 0.02452 0.17762 0.17474 0.34208 0.33372 0.33489 0.32388 0.3053 0.44853-0.18715 0.78724-0.14242 0.09792-0.24991 0.22527-0.23894 0.28297 0.01111 0.0577-0.02087 0.10852-0.07032 0.1129-0.04968 4e-3 0.0269 0.05818 0.17049 0.11946 0.3061 0.13083 0.42801 0.25434 0.26529 0.26873-0.0668 0.0063-0.0485 0.08164 0.043 0.18046 0.0875 0.0936 0.14575 0.19968 0.13162 0.2355-0.0169 0.04159 0.0451 0.0677 0.1693 0.07206 0.10797 0.0032 0.17875 0.02587 0.15783 0.04897-0.0211 0.02325-5e-3 0.1048 0.0359 0.18138 0.0407 0.07659 0.0618 0.17111 0.0463 0.21005-0.0393 0.09943 0.34221 0.37419 0.58344 0.42015 0.11067 0.02103 0.24358 0.07738 0.29551 0.12518 0.0537 0.04992 0.14353 0.07508 0.20983 0.05921 0.13733-0.03294 0.8508 0.08322 0.77552 0.1263-0.0288 0.01643-0.15386 0.04024-0.2781 0.05318-0.16697 0.01691-0.13274 0.02413 0.12954 0.02667 0.19543 0.0016 0.42784-0.01167 0.51643-0.03048 0.18697-0.03929 1.4042 0.0223 1.5966 0.08071 0.0989 0.03 0.12211 0.02873 0.0954-0.0064-0.0194-0.025 0.0127-0.0496 0.0713-0.05476 0.0584-0.0056 0.0981 0.01619 0.0881 0.04738-0.0169 0.05246 0.40865 0.16641 1.0586 0.28377 0.1467 0.02651 0.21724 0.05262 0.15655 0.05794-0.061 0.0056-0.23844-0.01817-0.39477-0.05246-0.83827-0.18333-1.9279-0.29984-2.0659-0.22091-0.026 0.01492 0.0564 0.07143 0.18256 0.12581 0.20175 0.08671 0.21048 0.10675 0.0721 0.16355-0.0868 0.03563-0.11303 0.07865-0.0584 0.09563 0.0548 0.01698 0.0289 0.07865-0.0574 0.13702-0.19214 0.13017-0.53462 0.14946-0.96509 0.05437-0.30294-0.0669-0.63121-0.0381-0.39467 0.03468 0.19964 0.06143 0.26398 0.13578 0.20164 0.23204l-0.061 0.09309-0.32066-0.05683c-0.21178-0.03746-0.28595-0.06897-0.21854-0.0926 0.0678-0.02381 0.0584-0.04008-0.0282-0.04881-0.0718-0.0071-0.19338 0.05619-0.27022 0.14064-0.12798 0.14062-0.15592 0.14926-0.33257 0.10234-0.1061-0.02825-0.25264-0.03699-0.32567-0.01944-0.0729 0.01762-0.27811 0.0032-0.45565-0.03246-0.17747-0.03532-0.36698-0.0604-0.42096-0.05564-0.054 0.0048-0.1448-0.04881-0.20193-0.1191-0.05706-0.07024-0.30581-0.2136-0.55252-0.31851-0.24677-0.10491-0.46895-0.21568-0.4937-0.24614-0.02484-0.0304-0.10923-0.04968-0.18744-0.0427-0.19814 0.01754-0.8016-0.02008-0.82834-0.05159-0.0127-0.01429-0.09348-0.0088-0.18084 0.01214-0.12622 0.03024-0.15654 0.02087-0.14749-0.04611 0.0097-0.06865-0.01976-0.07675-0.15861-0.04341-0.11557 0.02762-0.15574 0.025-0.1251-0.0087 0.02611-0.02873-0.01905-0.04365-0.10749-0.03587-0.08378 0.0071-0.24343-0.01857-0.35474-0.0577-0.11147-0.03921-0.32841-0.08388-0.48248-0.09935-0.24792-0.02492-0.25908-0.02325-0.09704 0.01492 0.2165 0.05095 0.34116 0.29031 0.20536 0.39448-0.08432 0.06476-0.07175 0.06357 0.14161-0.01365 0.43271-0.15593 0.71514-0.01889 0.36938 0.17926-0.19153 0.10972-0.21548 0.11348-0.4781 0.07484-0.15195-0.02238-0.34732-0.08265-0.4339-0.13402-0.15226-0.09033-0.68219-0.14737-0.7041-0.07579-0.0063 0.01921-0.0746 0.04064-0.15258 0.04754-0.1034 9e-3 -0.16262-0.03302-0.21839-0.15494-0.04714-0.10309-0.14399-0.1833-0.25242-0.20858-0.09802-0.02286-0.1708-0.0777-0.16435-0.12383 0.01111-0.07802 0.02929-0.0808 0.32404-0.04873 0.17184 0.01873 0.47094 0.01794 0.6644-0.0016 0.19324-0.01976 0.4562-0.03706 0.58394-0.03897 0.1278-0.0016 0.16484-0.0056 0.0826-0.0071-0.08237-0.0016-0.16338-0.0204-0.18026-0.04119-0.01682-0.02079-0.12256-0.02048-0.23458 5.24e-4 -0.11225 0.02103-0.21601 0.02341-0.23056 0.0056-0.01421-0.0181-0.07889-0.02826-0.14272-0.02254-0.06397 0.0056-0.06881 0.025-0.01111 0.0431 0.06722 0.02087 0.0079 0.03635-0.16404 0.0427-0.14813 0.0056-0.27332-0.01079-0.27817-0.03611-0.01111-0.05849-0.53732-0.05746-0.76165 0.0016-0.16156 0.04246-0.15988 0.04445 0.03445 0.0427 0.11208-7.94e-4 0.21722 0.01429 0.23315 0.03389 0.01611 0.01968-0.01437 0.03127-0.06826 0.02603-0.27207-0.02698-0.50749 0.27787-0.35733 0.46274 0.07659 0.09421-0.05429 0.14579-0.31451 0.12399-0.17126-0.01429-0.17677-0.03064-0.04524-0.13198 0.13669-0.10536 0.12797-0.12498-0.09812-0.22164-0.13671-0.05826-0.34802-0.12117-0.47-0.13968-0.12192-0.01849-0.24584-0.06325-0.27524-0.09945-0.02937-0.03619-0.12081-0.07246-0.20307-0.08064-0.10071-0.0099-0.11051 0.0032-0.03056 0.03921 0.06548 0.02976 0.07119 0.05817 0.0127 0.06341-0.22204 0.0196 0.03333 0.17886 0.31159 0.19422 0.19293 0.01064 0.31739 0.05032 0.39935 0.12731 0.19637 0.1843 0.08571 0.24929-0.53409 0.31372-0.3157 0.03278-0.56352 0.04175-0.58062 0.02064-0.01635-0.02016-0.34814-0.05429-0.73722-0.07572-0.70137-0.03873-0.94588-0.07524-0.89287-0.1335 0.01587-0.01659-0.14193-0.02667-0.34911-0.02238-0.66855 0.01397-0.76172 0.0079-0.87779-0.05976-0.06286-0.03635-0.06699-0.0704-0.0079-0.07556 0.05817-0.0056 0.06222-0.02294 0.0097-0.03952-0.13655-0.04246 0.16579-0.06326 0.36537-0.02516 0.09047 0.0173 0.1883 0.0177 0.21744 7.93e-4 0.08022-0.04579-0.25546-0.11072-0.56437-0.1091-0.16842 7.94e-4 -0.32082-0.03064-0.39572-0.08166-0.08733-0.05953-0.07603-0.08148 0.04087-0.07746 0.0894 0.0032 0.14767-0.01262 0.12988-0.03437-0.01778-0.02214-0.09607-0.03698-0.17364-0.0331-0.07794 0.0032 0.04778-0.02087 0.27868-0.05476 0.31962-0.04698 0.49761-0.05151 0.74535-0.01889 0.23082 0.03032 0.42232 0.02754 0.65855-0.0099 0.41269-0.06532 0.61838-0.01397 0.29577 0.07373-0.15687 0.0427-0.2238 0.10426-0.1983 0.18257 0.04627 0.14209 0.21062 0.18687 0.3413 0.09302 0.1305-0.09371 0.31271-0.10287 0.31433-0.01587 7.78e-4 0.03936 0.1221 0.10276 0.26953 0.14079 0.23411 0.06032 0.27102 0.06056 0.2896 0.0016 0.0127-0.04024 0.10071-0.0658 0.21972-0.06397 0.15399 0.0024 0.1586-0.0016 0.02111-0.01889-0.10696-0.01317-0.17281-0.05373-0.16638-0.10206 0.0063-0.04405-0.0481-0.08601-0.12051-0.09318-0.08475-0.0084-0.09434-0.0504-0.02683-0.11795 0.08195-0.08214 0.14448-0.09883 0.28873-0.07691 0.13481 0.0204 0.17527 0.01706 0.151-0.01278-0.0181-0.02238-0.07032-0.03786-0.11606-0.03429-0.04572 0.0032-0.29615-0.02825-0.55662-0.0704-0.39852-0.06452-0.43215-0.07738-0.21225-0.08079 0.15687-0.0024 0.27997-0.02794 0.30764-0.06437 0.0827-0.10765 0.40578-0.05833 0.47053 0.07175 0.03254 0.06564 0.07151 0.09207 0.08778 0.05865 0.01579-0.03333 0.20092-0.16198 0.41182-0.28577 0.21091-0.1238 0.39343-0.28292 0.40562-0.35362 0.01913-0.11096-0.01706-0.13605-0.2641-0.18312-0.1575-0.03-0.29778-0.06881-0.31193-0.08621-0.01421-0.01738-0.19124-0.02825-0.39359-0.02389-0.20233 4e-3 -0.47443-0.01016-0.60468-0.0323-0.13034-0.02214-0.44254-0.03135-0.69405-0.02063-0.38953 0.01659-0.4798 0.0056-0.60968-0.07762-0.08391-0.05341-0.20765-0.08828-0.27478-0.07754-0.06722 0.01087-0.13083-0.0083-0.14114-0.0423-0.0196-0.065-0.34876-0.09595-0.49085-0.04611-0.11845 0.04159-0.04881 0.10196 0.23623 0.20443 0.31191 0.11218 0.3426 0.14954 0.13717 0.1677-0.25265 0.02238-0.19125 0.19676 0.09952 0.28242 0.13894 0.04095 0.3023 0.07 0.36334 0.0646 0.07421-0.0063 0.09219 0.01675 0.05365 0.07016-0.04087 0.05762-0.0079 0.08984 0.11922 0.11555 0.09673 0.0196 0.21923 0.07802 0.27266 0.12986 0.08571 0.0833 0.05198 0.10025-0.29232 0.14651-0.21411 0.02881-0.50197 0.04381-0.64011 0.03286-0.13795-0.01064-0.30381-0.01071-0.36871-1.11e-4 -0.06492 0.01064-0.18076-0.01794-0.25751-0.06349-0.14179-0.0841-0.53719-0.11638-0.70501-0.05754-0.05079 0.0177-0.04635 0.08906 0.0097 0.15838l0.10244 0.12601-0.37508-0.0654c-0.2063-0.03595-0.425-0.06111-0.486-0.05579-0.06095 0.0056-0.29593-0.02278-0.52209-0.06262-0.31088-0.0546-0.47359-0.06079-0.66698-0.02548-0.14068 0.02579-0.33969 0.04111-0.44228 0.03413-0.10254-0.0071-0.28508-0.01389-0.40569-0.01555-0.12067-0.0016-0.27115-0.0331-0.33449-0.06984-0.06341-0.03675-0.15177-0.05397-0.19626-0.03833-0.0446 0.01563-0.10696-0.0032-0.13845-0.04222-0.06754-0.0832-0.44046-0.10758-0.50808-0.03326-0.03659 0.04008-0.09337 0.04445-0.25792 0.01952-0.11622-0.01762-0.20143-0.02-0.18938-0.0056 0.0127 0.01484-0.06857 0.01317-0.17918-0.0032-0.25192-0.03825-0.33184-0.12585-0.13147-0.14356 0.08325-0.0071 0.20092-0.05706 0.26182-0.11041 0.06103-0.05341 0.1186-0.08031 0.12813-0.05984 0.04175 0.08967 0.10685 0.08803 0.34906-0.0089 0.14161-0.05667 0.28704-0.1056 0.32295-0.10876 0.03603-0.0032 0.13813 0.0838 0.22702 0.1933 0.18168 0.22367 0.33477 0.24134 0.4596 0.05302 0.05802-0.08764 0.24823-0.17076 0.61208-0.26752 0.29034-0.07714 0.5353-0.17154 0.54445-0.20966 0.0097-0.03817 0.0681-0.10876 0.1313-0.157 0.06318-0.04833 0.0032-0.03119-0.13416 0.03778-0.3129 0.1577-0.61307 0.20831-0.728 0.12276-0.19285-0.14353-0.27512-0.1578-0.5429-0.09401-0.32144 0.07659-0.37402 0.08114-0.32604 0.02841 0.02111-0.02318-0.0127-0.03746-0.07572-0.03206-0.0627 0.0056-0.11193 0.05238-0.1094 0.10406 0.0032 0.06008-0.05675 0.09186-0.16572 0.08809-0.24714-0.0087-0.2401-0.03135 0.08129-0.26353 0.15975-0.11535 0.2942-0.23044 0.29877-0.25573 4e-3 -0.02611 0.09919-0.04278 0.21792-0.03873 0.17403 0.0063 0.19981 0.02302 0.15194 0.10024-0.03167 0.05103 0.12289-0.01627 0.34379-0.14922 0.40442-0.24392 0.45708-0.35741 0.15338-0.33058-0.22648 0.02-0.26353-0.05095-0.05278-0.10126 0.36529-0.08726 0.68517-0.35007 0.58147-0.47773-0.02683-0.03317 0.02627-0.05159 0.13749-0.0477 0.26588 0.0093 0.18166-0.04167-0.218-0.13178-0.36646-0.08262-0.42078-0.14853-0.11368-0.13786 0.11796 4e-3 0.14511-9e-3 0.08002-0.03873-0.05873-0.02667 0.0097-0.08168 0.16938-0.1353 0.35871-0.12078 0.7551-0.39162 0.69017-0.47154-0.02881-0.03532-0.17072-0.08876-0.31555-0.11869-0.54121-0.11176-0.86922-0.29111-0.664-0.36303 0.13701-0.04818 1.0011 0.08275 1.1569 0.17515 0.16448 0.09749 0.59755 0.14151 0.71752 0.07294 0.05516-0.03151 0.17298-0.04159 0.36442-0.03111 0.17105 0.0094 0.4397-0.0104 0.67928-0.05016 0.21794-0.03611 0.44205-0.06619 0.49806-0.06667 0.05611-5.24e-4 0.05936-0.02016 0.0079-0.04381-0.10006-0.0454 0.05016-0.0596 1.1741-0.11149 0.7278-0.03357 1.5219-0.22418 1.426-0.34229-0.03365-0.04159-0.02397-0.13185 0.02175-0.20077 0.15401-0.23242-0.4119-0.49094-1.1278-0.51501-0.7343-0.02476-1.6961 0.1266-1.6934 0.26642 7.86e-4 0.07643-0.18142 0.12384-0.70706 0.18337-0.65794 0.07453-0.84692 0.04532-0.60452-0.09326 0.06627-0.03778 0.0883-0.10837 0.04889-0.15672-0.03929-0.04833-0.02778-0.09175 0.02556-0.09647 0.05333-0.0048 0.09617-0.04151 0.09541-0.08197-7.78e-4 -0.06841-0.055-0.0673-0.79155 0.01627-0.4346 0.04944-0.92422 0.09042-1.088 0.09129-0.27677 0.0016-0.30664-0.01198-0.42216-0.18921-0.11671-0.17903-0.14623-0.19223-0.4907-0.21392-0.45999-0.02913-0.78004 7.93e-4 -1.4562 0.1375-0.34366 0.06929-0.63114 0.10472-0.8035 0.09891-0.294-0.0099-0.69252 0.13551-0.72371 0.26405-0.0097 0.0377-0.21022 0.12236-0.44685 0.18831-0.23665 0.06587-0.46944 0.14806-0.51732 0.18244-0.04802 0.03437-0.16111 0.06905-0.25158 0.07706-0.13368 0.01167-0.14717 0.0016-0.07198-0.0519 0.11051-0.07937-0.02238-0.07135-0.29271 0.01754-0.10891 0.0358-0.15846 0.09228-0.11193 0.12705 0.05873 0.04381 0.03722 0.05587-0.07183 0.04008-0.20311-0.02929-1.033 0.06254-1.4738 0.16319-0.73319 0.16732-0.79028 0.18518-0.72675 0.22736 0.03603 0.02389-0.0032 0.04476-0.08561 0.04635-0.08302 0.0016-0.2378 0.03722-0.34399 0.07889-0.1061 0.04175-0.24396 0.08018-0.30614 0.08535-0.06222 0.0056-0.05206-0.01294 0.02286-0.04024 0.08206-0.02992 0.084-0.04524 0.0048-0.03865-0.07222 0.0063-0.1787 0.05397-0.23662 0.10653-0.09099 0.08253-0.16103 0.08464-0.19879 0.0063-0.01111-0.02373-1.2776 0.10513-1.7718 0.18033-0.17257 0.02627-0.52048 0.12506-0.77307 0.21958-0.25266 0.09452-0.66272 0.21671-0.91128 0.27154-0.44574 0.09829-1.4081 0.18951-1.6971 0.16084-0.08162-0.0079-0.27169 0.02238-0.42244 0.06778-0.15083 0.04532-0.31335 0.075-0.36129 0.0658-0.04818-0.0091-0.07198 0.0016-0.05389 0.02437 0.03571 0.04389-0.98406 0.44384-1.1746 0.46068-0.12844 0.01135-0.34302 0.11564-0.94112 0.45747-0.22737 0.12993-0.6297 0.31088-0.89414 0.4021-0.2644 0.09121-0.54474 0.22251-0.62298 0.29176-0.28346 0.25096-0.97779 0.20206-1.0595-0.0746-0.02603-0.08815-0.07159-0.23679-0.10145-0.33026-0.02976-0.09347-0.03516-0.19084-0.0127-0.21634 0.02333-0.02564-0.13226-0.0842-0.34556-0.13038-0.28061-0.06079-0.42858-0.12696-0.5356-0.23956-0.08098-0.08558-0.14401-0.17335-0.13941-0.1951zm10.333-5.5103c0.07032-0.03278 0.10458-0.08594 0.07627-0.11814-0.03603-0.04024-0.07762-0.02603-0.13494 0.0458-0.10686 0.13393-0.0977 0.14526 0.05873 0.07238zm5.0471 3.1756c0.11067 0.0032 0.16454-0.01452 0.1383-0.04691-0.02381-0.02913-0.11718-0.04659-0.20765-0.03865-0.09047 0.0079-0.15257 0.02913-0.13813 0.04691 0.01421 0.0177 0.10796 0.03516 0.20762 0.03865zm12.882 4.6467c0.04873-0.11106 0.01984-0.14649-0.08809-0.10857-0.05048 0.01754-0.05905 0.06746-0.01953 0.11068 0.06968 0.07579 0.07294 0.07572 0.10761-0.0016zm4.2597-3.9916c0.21664 0.0481 0.22694 0.04667 0.24968-0.03444 0.02524-0.08992-0.38955-0.23308-0.62242-0.2148-0.16899 0.01333 0.09003 0.18659 0.37274 0.24929zm-20.337 15.572c0.04087-0.01429 0.18454-0.01746 0.31928-0.0079 0.37032 0.02857 0.47506 0.0079 0.47016-0.09349-0.0063-0.1196 0.25841-0.12119 1.2044-0.0079 0.41059 0.04921 0.84144 0.0746 1.0168 0.05873 0.16734-0.01508 0.34392-0.01429 0.39231 4.76e-4 0.04841 0.01508 0.17534 0.01111 0.28202-0.0087 0.24059-0.04524 0.45855 0.05397 0.48149 0.21945 0.0127 0.09437-0.01921 0.11064-0.17295 0.0873-0.10395-0.01587-0.177-0.01429-0.16228 0.0079 0.01421 0.01825-0.05841 0.04206-0.16241 0.05318-0.10384 0.01111-0.59894 0.06905-1.0999 0.12889l-0.9108 0.10849-0.74361-0.1258c-0.63236-0.10698-0.76197-0.14572-0.8662-0.25889-0.06754-0.07302-0.08927-0.14476-0.04833-0.15905zm-10.007-17.72c0.26251-0.11004 1.1348-0.40282 1.2236-0.41068 0.10352-0.0091-0.6018 0.28362-0.70902 0.29435-0.05071 0.0056-0.21015 0.05643-0.35464 0.11425-0.30815 0.12318-0.45327 0.12506-0.15973 0.0016zm7.0664 8.6057c0.09498 0.01826 0.15226 0.04445 0.12765 0.05794-0.02484 0.01429-0.10244-5.56e-4 -0.17259-0.03254-0.10145-0.04603-0.09229-0.05159 0.04508-0.0254zm9.3223 10.048c0.06048-0.0079 0.12352 0.0079 0.14067 0.02857 0.01714 0.02143-0.02651 0.03254-0.0965 0.0254-0.07032-0.0079-0.13354-0.01984-0.14067-0.02857-0.0063-0.0087 0.03635-0.02063 0.0965-0.0254zm1.9156-2.537c0.16014 0.01111 0.2693 0.03333 0.24239 0.04841-0.02698 0.01508-0.15798 0.0079-0.2913-0.02063-0.23175-0.04683-0.22957-0.04762 0.04889-0.02778zm5.0301 4.5637c0.19733-0.01984 0.98993 0.02619 0.93906 0.05476-0.01841 0.01032-0.27608 0.0079-0.57272-0.0087-0.29658-0.01508-0.46145-0.03651-0.36632-0.04603zm-9.0438-11.827c0.04468-0.01587 0.15606-0.01111 0.24794 0.01032 0.09198 0.02143 0.25691 0.02222 0.36701 0 0.1378-0.02619 0.21492-0.01905 0.24765 0.02063 0.02619 0.03254 0.09166 0.05476 0.14559 0.05 0.18916-0.01667 0.30682 0.0877 0.18042 0.16-0.09037 0.05159-0.17122 0.06508-0.27585 0.04524-0.08141-0.01508-0.23801-0.01984-0.34804-0.01032-0.29094 0.02619-0.76485-0.20691-0.56453-0.27707zm-3.9212-6.164c0.09499 0.01786 0.15242 0.04413 0.12765 0.05825-0.02484 0.01405-0.10244-5.24e-4 -0.17244-0.03262-0.10145-0.04627-0.09219-0.05159 0.04508-0.02572zm0.4307 0.07175c0.11908 4e-3 0.19648 0.01889 0.17162 0.03302-0.02484 0.01413-0.12226 0.01087-0.21669-0.0071-0.13638-0.02627-0.12734-0.03151 0.04492-0.02579zm5.3874 6.2135c0.10179-0.0095 0.2287 0 0.28212 0.01349 0.12305 0.03809-0.02238 0.05079-0.27412 0.0246-0.16626-0.01746-0.16734-0.02302-0.0079-0.0373zm1.1433 0.28627c0.05675-0.0079 0.14701 0.0079 0.2003 0.02063 0.05357 0.01667 0.02024 0.0373-0.07389 0.04524-0.09412 0.0087-0.18415-7.94e-4 -0.20031-0.02063-0.01619-0.01984 0.01706-0.04048 0.07389-0.04524zm-4.9863-6.6743c0.13494-0.03238 0.14607-0.02762 0.06754 0.02873-0.10686 0.07675-0.16506 0.0889-0.20284 0.04246-0.01421-0.0177 0.04651-0.04976 0.13511-0.07103zm5.3605 6.3309c0.09046-0.0079 0.1773 0 0.19296 0.02063 0.01579 0.01905-0.0531 0.03254-0.1529 0.02857-0.09984 0-0.18657-0.0127-0.19294-0.02063-0.0063-0.0079 0.06262-0.02064 0.1529-0.02857zm-5.0904-6.4268c0.03222-0.01849 0.16171-0.04206 0.28782-0.05246 0.21173-0.01762 0.21668-0.01484 0.06381 0.03595-0.17788 0.05913-0.44837 0.07191-0.35172 0.01667zm5.6618 5.7152c0.04905-0.0373 0.22545-0.0754 0.39659-0.08587 0.17768-0.01032 0.2942-0.03651 0.27504-0.06111-0.02016-0.02619 0.02683-0.0254 0.11717 0 0.20898 0.0627 0.22346 0.09659 0.04746 0.11214-0.0827 0.0079-0.1267 0.04206-0.0979 0.07619 0.19572 0.23691 0.1866 0.26476-0.09305 0.28945-0.41759 0.0373-0.84207-0.18175-0.64534-0.33246zm-4.6905-5.9237c0.08734 0.0032 0.31208-0.05317 0.49988-0.12491 0.18781-0.07175 0.37108-0.12475 0.40726-0.11786 0.03619 0.0071 0.23926-0.02667 0.45133-0.07468 0.23317-0.05278 0.42185-0.07595 0.4775-0.05865 0.05071 0.01579-0.0097 0.03754-0.13386 0.04857-0.12415 0.01095-0.21174 0.03722-0.19462 0.05825 0.01706 0.02103-0.03897 0.03349-0.12445 0.02746-0.08573-0.0063-0.04698 0.0056 0.08637 0.02516 0.15368 0.02278 0.20651 0.04833 0.1451 0.06992-0.05341 0.01873-0.10394 0.02532-0.11256 0.01484-0.0079-0.01064-0.13638 0.01095-0.28397 0.04825-0.41593 0.10477-1.2868 0.1882-1.3356 0.12798-0.02222-0.02738 0.03095-0.04722 0.11795-0.04421zm4.8102 4.5182c0.1213-0.01079 0.29928-0.0473 0.39535-0.08126 0.13718-0.04857 0.2493-0.05706 0.52419-0.03992 0.1923 0.01206 0.41907 0.02016 0.50391 0.01826 0.08496-0.0024 0.25512 0.01238 0.3784 0.03183 0.12318 0.01952 0.31832 0.03778 0.43353 0.04095 0.28382 0.0071 0.84184 0.18868 0.83072 0.26981-4e-3 0.03603 0.05151 0.07143 0.12416 0.07873 0.07317 0.0071 0.11257-0.01222 0.08733-0.04318-0.02516-0.03103-0.0032-0.06024 0.05048-0.06492 0.16304-0.01445 0.44928 0.07079 0.40425 0.12033-0.02524 0.02762 0.01953 0.03627 0.10827 0.02119 0.08292-0.01405 0.41432 0.02452 0.73645 0.08576 0.71826 0.1366 1.0084 0.14553 1.2197 0.03746 0.13226-0.06762 0.19362-0.07572 0.36947-0.04897 0.40397 0.06127 0.56115 0.14556 0.48206 0.25837-0.055 0.07825-0.03794 0.10574 0.06699 0.10789 0.18218 0.0032 0.27296 0.25468 0.12798 0.35341-0.05873 0.03968-0.08206 0.08556-0.05246 0.10159 0.12526 0.06746-0.02119 0.28826-0.20455 0.30866-0.40586 0.04524-0.4527 0.05714-0.54509 0.13532-0.09014 0.07619-0.11352 0.07619-0.4741-0.0079-0.21572-0.05-0.5029-0.08-0.66606-0.06984-0.15765 0.0095-0.29796 0-0.31155-0.01349-0.01436-0.01667-0.06587-0.01587-0.11606 0-0.0504 0.01746-0.11623 0-0.14639-0.03333-0.03968-0.04762-0.06889-0.0508-0.10653-0.01111-0.08896 0.09365-0.94596 0.01508-1.0353-0.09476-0.0177-0.02222-0.07064-0.02619-0.11765-0.01032-0.04683 0.01667-0.12973 0.01587-0.18392-7.94e-4 -0.05429-0.01667-0.21357-0.02063-0.35389-0.0079-0.38112 0.03413-0.82588-0.15357-0.91827-0.38667-0.04683-0.11849-0.12114-0.18452-0.21797-0.19411-0.09618-0.0094-0.17503-0.07889-0.22879-0.20114-0.06659-0.15123-0.13686-0.20016-0.37138-0.2581-0.15918-0.03937-0.30746-0.09374-0.32954-0.12091-0.02206-0.02722-0.08174-0.0458-0.13226-0.04127-0.09574 0.0086-0.47525-0.12785-0.52429-0.18823-0.01579-0.01897 0.07127-0.04333 0.19276-0.05397zm2.3321 1.3455c0.09403-0.0079 0.12638-0.02857 0.07206-0.04603-0.05437-0.01667-0.13702-0.01746-0.18389-7.94e-4 -0.12685 0.04445-0.08076 0.06349 0.11193 0.04683zm-5.664-5.8194c0.12876-0.0097 0.1621-0.0032 0.08401 0.01603-0.07064 0.01738-0.16631 0.02452-0.21264 0.01555-0.04627-0.0088 0.01111-0.02302 0.12845-0.03175zm0.40024-0.15481c0.06397-0.0056 0.09876 0.0088 0.07762 0.03198-0.02111 0.02318-0.06016 0.04405-0.08679 0.04643-0.02651 0.0016-0.06159-0.01214-0.07762-0.03199-0.01611-0.02 0.02286-0.04079 0.08679-0.04643zm2.3503 2.9635c0.03365-0.01897 0.18874-0.04532 0.34503-0.05841 0.24929-0.02087 0.26392-0.01714 0.1194 0.03087-0.18103 0.06016-0.56182 0.08279-0.46432 0.02754zm-2.0151-3.1333c0.1653-0.07302 1.0443-0.1995 0.99279-0.14291-0.02286 0.02516 0.02397 0.02754 0.11511 0.0063 0.08474-0.02024 0.22811-0.02611 0.3188-0.01278 0.09078 0.01317 0.42866 0.0024 0.75104-0.02389 0.32241-0.02627 0.62787-0.04381 0.67887-0.03873 0.05111 0.0056 0.27269-0.03905 0.49266-0.09815 0.29092-0.0781 0.39533-0.09286 0.38306-0.05421-0.04714 0.14853-1.4321 0.31874-3.1821 0.3911-0.52412 0.02167-0.64544 0.01587-0.55011-0.02619zm0.17052 0.22208c0.07056 0.0071 0.13352 0.01984 0.14068 0.02873 0.0064 0.0088-0.03659 0.02032-0.09651 0.02564-0.06048 0.0056-0.12384-0.0079-0.14099-0.02873-0.01714-0.02103 0.02627-0.03262 0.09683-0.02572zm0.12639-0.50578c0.03365-0.01897 0.21397-0.04746 0.4004-0.06333 0.28701-0.02429 0.3137-0.0204 0.17429 0.02603-0.18173 0.0604-0.67262 0.09231-0.57479 0.03738zm7.9755 8.9088c0.06381-0.02222 0.15353-0.03333 0.19939-0.0246 0.12447 0.02381 0.0097 0.07222-0.16444 0.06825-0.12131 0-0.1283-0.01111-0.03492-0.04365zm-6.7236-8.5057c0.01905-0.0016 0.10955 0.01437 0.20112 0.03595 0.12701 0.0296 0.13575 0.04635 0.03659 0.07008-0.0773 0.01857-0.15861 4e-3 -0.20111-0.03587-0.03984-0.0369-0.05556-0.06841-0.03659-0.07008zm12.193 14.807c0.09574-0.02302 0.30551-0.0079 0.56024 0.04683 0.33735 0.06905 0.39118 0.09524 0.31408 0.15056-0.05571 0.03968-0.23221 0.0746-0.44016 0.08579-0.31666 0.01746-0.35767 0.0079-0.46721-0.11381-0.08108-0.08968-0.07032-0.14484 0.03302-0.1696zm-5.9913-7.7626c0.13416-0.07064 0.31051-0.13397 0.39193-0.14111 0.19516-0.01746 0.67722 0.09659 0.74701 0.17635 0.06183 0.07222-0.20832 0.11111-0.34816 0.05-0.0627-0.02698-0.13845-0.0079-0.23415 0.06508-0.08713 0.06429-0.18136 0.0927-0.24522 0.07302-0.05714-0.01746-0.05111-0.05079 0.01111-0.07302 0.07722-0.02778 7.86e-4 -0.03809-0.22578-0.03095l-0.34117 0.0095zm-5.6143-6.8465c0.05373-0.01889 0.12733-0.02849 0.16382-0.02159 0.03635 0.0071-7.94e-4 0.02905-0.08561 0.04897-0.17332 0.04159-0.2243 0.02365-0.07841-0.02746zm6.9389 8.058c0.0854-0.0079 0.16186-0.02699 0.1698-0.04445 0.0079-0.01667 0.18881-0.085 0.40187-0.15191 0.39728-0.1246 1.451-0.25492 1.3737-0.16984-0.02111 0.02302-0.17085 0.05397-0.33277 0.06905-0.35558 0.03254-1.0276 0.20945-1.1614 0.30588-0.05333 0.0381-0.07699 0.10437-0.05294 0.14659 0.06016 0.10532-0.09639 0.10984-0.3164 0.0087-0.24742-0.11318-0.26504-0.14857-0.08195-0.16476zm-2.649-5.3713c0.05048-0.01754 0.0992-0.02738 0.10891-0.02167 0.16284 0.0973 0.16702 0.1251 0.01817 0.11995-0.19807-0.0071-0.25723-0.0527-0.127-0.09832zm3.6556 4.4161c0.10545 0 0.15876 0.02064 0.11845 0.0373-0.04024 0.01667-0.09824 0.04841-0.12877 0.07064-0.03056 0.02222-0.08389 0.0079-0.11845-0.0373-0.04524-0.05556-0.0097-0.0754 0.12878-0.07064zm0.36809 0.0254c0.20926-0.05714 0.24365-0.05556 0.29661 0.0095 0.03778 0.04683 0.09887 0.06032 0.16544 0.03651 0.06611-0.02302 0.08884-0.01825 0.06063 0.0127-0.02484 0.02698-0.1048 0.04365-0.17816 0.03571-0.07333-0.0079-0.15479 0.01111-0.1817 0.04048-0.03587 0.03968-0.0938 0.0373-0.22402-0.0087-0.14752-0.05238-0.13781-0.07222 0.06119-0.12619zm-3.0707-3.8468c0.06048-0.0056 0.12352 0.0079 0.14067 0.02873 0.01706 0.02111-0.02643 0.03262-0.09651 0.02564-0.07032-0.0071-0.13368-0.01984-0.14082-0.02873-0.0063-0.0088 0.03651-0.02032 0.09672-0.02564zm4.1477 4.863c0.05278 0.02302 0.07429 0.05476 0.04714 0.06984-0.02659 0.01508-0.07 0-0.09618-0.04206-0.02818-0.04286-0.0097-0.05318 0.04833-0.02778zm-3.627-4.8695c0.08107-0.0377 0.14178-0.04603 0.16121-0.02214 0.03556 0.04373-0.13099 0.11314-0.2275 0.09476-0.03492-0.0063-0.0048-0.03945 0.06635-0.0727zm1.6671 1.9661c0.0063-0.06452-0.02786-0.18857-0.07429-0.2757-0.11082-0.20715-0.09133-0.21811 0.5019-0.28094 0.16018-0.01691 0.23469-0.04246 0.17676-0.06048-0.05818-0.0181-0.2498-0.0071-0.45647 0.02532-0.3143 0.04976-0.36365 0.04738-0.4184-0.02-0.05508-0.06754 7.94e-4 -0.08203 0.48614-0.12488 0.48705-0.0431 0.55524-0.03984 0.61113 0.02905 0.03468 0.04254 0.16617 0.09064 0.29219 0.10677 0.1262 0.01611 0.20314 0.04429 0.17127 0.06254-0.03199 0.01825-0.13685 0.02127-0.23338 0.0064-0.20322-0.03087-0.35424 0.01389-0.38185 0.11327-0.01436 0.05071 0.03603 0.06468 0.18564 0.05143 0.25654-0.02262 0.6476 0.15214 0.57377 0.2565-0.09909 0.13997-0.67516 0.3731-0.99089 0.40104-0.26877 0.02381-0.32104 0.01349-0.38269-0.07302-0.03841-0.05532-0.06659-0.15317-0.06079-0.21767zm1.2365-0.03072c0.02484-0.01413-0.0327-0.04032-0.12764-0.05825-0.13718-0.02587-0.14639-0.02064-0.04508 0.02571 0.07024 0.03206 0.14796 0.04675 0.17242 0.03254zm1.6993 1.9252c0.04913-0.05238 0.08055-0.05159 0.19103 0 0.07262 0.03572 0.29017 0.0896 0.48323 0.11992 0.26719 0.04206 0.32873 0.06826 0.25755 0.10857-0.07119 0.04048-0.14783 0.04286-0.32096 0.01032-0.12511-0.02381-0.29792-0.0373-0.38409-0.02937-0.17688 0.01587-0.31743-0.11548-0.22679-0.21159zm-1.7984-2.3636c0.13288-0.01175 0.36012 0.07699 0.29399 0.11479-0.02413 0.01373-0.12607-4e-3 -0.22725-0.03976-0.12749-0.04484-0.14796-0.06778-0.06746-0.07492zm-6.0702-7.6312c0.05476-0.01913 0.16588-0.02222 0.24707-0.0063 0.10417 0.01984 0.07683 0.03262-0.09283 0.0431-0.27366 0.01706-0.29346 0.01246-0.15447-0.03635zm5.916 7.2957c0.06048-0.0056 0.12876 0.01381 0.15194 0.04246 0.02333 0.02873 7.77e-4 0.06659-0.04905 0.08421-0.05048 0.01762-0.1186-0.0016-0.1518-0.04246-0.03333-0.04095-0.01111-0.07889 0.04889-0.08421zm0.302 0.11876c-0.0097-0.08322 0.01714-0.08568 0.35438-0.03238 0.35968 0.05683 0.37462 0.09403 0.04905 0.1228-0.30233 0.02667-0.39224 0.0063-0.40362-0.0904zm-0.20747-0.46092c0.05564-0.01952 0.21665-0.0056 0.35784 0.03071 0.23509 0.06056 0.24666 0.0731 0.13717 0.14861-0.06579 0.04532-0.17456 0.08734-0.24185 0.09329-0.16042 0.01421-0.38419-0.22671-0.2533-0.27261zm0.53465 0.67446c0.06381-0.0056 0.09877 0.0088 0.07762 0.03198-0.02111 0.02325 0.01421 0.03762 0.07762 0.03198 0.06381-0.0056 0.14432 0.02436 0.17864 0.06651 0.05206 0.06421 0.02937 0.07175-0.13861 0.04627-0.22988-0.03492-0.3696-0.16129-0.1953-0.1767zm7.8789 9.139c0.0474-0.01667 0.10523 0 0.12876 0.04445 0.0235 0.04127 3e-3 0.07778-0.0437 0.0823-0.12114 0.01111-0.18895-0.0904-0.0851-0.12683zm-7.2141-9.4628c0.357-0.03905 0.42725-0.03151 0.76574 0.0828 0.20513 0.06921 0.35992 0.13318 0.34435 0.14208-0.01579 0.0089-0.1486 0.03833-0.29547 0.06524-0.19533 0.03595-0.29842 0.03484-0.38337-0.0032-0.06825-0.03095-0.06381-0.04762 0.01111-0.04016 0.07 0.0071 0.0327-0.02532-0.08302-0.07159-0.17902-0.07167-0.22173-0.07445-0.28724-0.01865-0.06516 0.0554-0.10685 0.05183-0.27104-0.02373-0.18815-0.08655-0.18217-0.09052 0.19898-0.1323zm-7.7e-4 0.33017c0.08744-0.05 0.20565-0.04786 0.32368 0.0063 0.06349 0.02889 0.05706 0.04508-0.01587 0.03778-0.06952-0.0071-0.11257 0.0048-0.09532 0.02587 0.01706 0.02103-0.01833 0.0427-0.07841 0.0481-0.12337 0.01095-0.21653-0.07048-0.13449-0.11742zm7.8443 9.5247c0.12923-0.0095 0.16209 0 0.084 0.01587-0.0706 0.01746-0.16628 0.0246-0.21219 0.01587-0.0462-0.0087 0.0111-0.02302 0.12843-0.03175zm0.21178 0.05556c0.0605-0.0079 0.12383 0.0079 0.14097 0.02857 0.0172 0.02143-0.0263 0.03254-0.0968 0.0254-0.0703-0.0079-0.13351-0.01984-0.14066-0.02857-6e-3 -0.0087 0.0365-0.02063 0.0965-0.0254zm-4.0651-7.4616c0.06286-0.16921 0.53667-0.18945 0.51363-0.02222-0.0079 0.05238-0.09801 0.08278-0.28388 0.09389-0.15021 0.0087-0.27055 0.01508-0.26723 0.01429 0.0032-4.76e-4 0.02024-0.03968 0.03762-0.08643zm6.3367 7.7263c0.0905-0.0079 0.17726 7.94e-4 0.19293 0.02063 0.0157 0.01905-0.0531 0.03254-0.15291 0.02857-0.0998 0-0.18657-0.0127-0.19293-0.02063-6e-3 -0.0079 0.0625-0.02064 0.15289-0.02857zm0.45724 0.05635c0.0502-0.01746 0.10545-0.01508 0.1224 0.0079 0.0172 0.02063-0.0182 0.04286-0.0782 0.04841-0.0605 0.0079-0.11543 0-0.12257-0.0079-6e-3 -0.0087 0.0283-0.03016 0.0784-0.04841zm-6.2375-8.0414c0.10459-0.04841 0.13655-0.04921 0.17557-7.93e-4 0.02619 0.03254-0.02627 0.06508-0.11684 0.07302-0.09046 0.0079-0.16949 0.0087-0.17556 7.94e-4 -0.0063-0.0079 0.04651-0.04048 0.11669-0.07302zm0.28606 0.25643c0.17279-0.01984 0.20692-0.01349 0.1375 0.02619-0.0608 0.03492-0.13909 0.04365-0.22961 0.02619-0.09046-0.01746-0.05905-0.03492 0.0921-0.05238zm6.3392 7.828c0.0703 0.0079 0.13369 0.01984 0.14084 0.02857 6e-3 0.0087-0.0365 0.02064-0.0967 0.0254-0.0605 0.0079-0.12352-0.0079-0.14067-0.02857-0.0172-0.02064 0.0265-0.03254 0.0965-0.0254zm-5.3317-9.1684c0.0605-0.0079 0.13035 0.01587 0.15544 0.04683 0.0252 0.03095-0.0111 0.05079-0.082 0.04365-0.0703-0.0079-0.14004-0.02778-0.15527-0.04683-0.0159-0.01905 0.0217-0.0381 0.0817-0.04365zm8.808 9.0358c0.0905-0.0079 0.15353-0.02778 0.14003-0.04444-0.0273-0.03333 0.87882-0.20072 1.2824-0.23635 0.14432-0.0127 0.49122-0.0854 0.77074-0.16143 0.27949-0.07619 0.62696-0.15468 0.77211-0.17492 0.14511-0.01984 0.31261-0.0627 0.3721-0.09476 0.12384-0.06667 0.34193-0.09611 0.29045-0.03968-0.0342 0.0373 0.46956-0.04048 0.80176-0.1246 0.1021-0.02619 0.1837-0.02698 0.20316 0 0.0178 0.02222-0.0421 0.04683-0.13336 0.05476-0.0913 0.0079-0.2392 0.0373-0.32876 0.06508-0.28608 0.08921-1.5329 0.36651-2.026 0.45064-0.2622 0.04445-0.58853 0.10802-0.72524 0.14056-0.27922 0.06667-1.5466 0.22834-1.5693 0.2004-8e-3 -0.01032 0.0594-0.0246 0.14971-0.03254zm-9.4001-12.071c0.0375-0.0227 0.0652-0.07595 0.0618-0.11834-3e-3 -0.0508 0.0303-0.03802 0.1005 0.03738 0.0578 0.06294 0.0681 0.12779 0.0212 0.14421-0.11606 0.04071-0.26822-0.01175-0.18378-0.06318zm9.8819 11.627c0.0294-0.01667 0.13195-0.0373 0.22799-0.04445 0.14322-0.0119 0.14416 0 6e-3 0.04207-0.17139 0.05714-0.33151 0.05873-0.23362 0zm-7.1772-9.3049c0.0638 0.0063 0.11654 0.04627 0.11717 0.08891 7.9e-4 0.10659-0.0678 0.10313-0.1578-0.0079-0.0414-0.05095-0.0232-0.08745 0.0406-0.08114zm7.2345 8.8763c0.0345-0.04444 0.18646-0.08437 0.39013-0.1023 0.23953-0.02143 0.33333-0.0508 0.33232-0.10564-7.8e-4 -0.04206 0.14369-0.12484 0.32096-0.18453 0.17732-0.05953 0.32178-0.14072 0.32105-0.18008-7.7e-4 -0.03968 0.0927-0.1008 0.20753-0.13635 0.11479-0.03571 0.25469-0.12857 0.31067-0.20683 0.0561-0.07857 0.14386-0.14588 0.19512-0.1504 0.0514-0.0079 0.0142-0.03254-0.082-0.06191-0.14115-0.04365-0.14163-0.08627-7.8e-4 -0.21857 0.0952-0.09056 0.15733-0.18405 0.13811-0.20778-0.0194-0.02381 0.0306-0.04921 0.11099-0.05635 0.0928-0.0079 0.0666 0.06587-0.0705 0.20254-0.25486 0.25342-0.25207 0.26278 0.0864 0.28889 0.18312 0.01429 0.34648 4.76e-4 0.55445-0.04603 0.2259-0.0508 0.28321-0.05397 0.24585-0.01508-0.0268 0.02857-0.0471 0.05953-0.0452 0.07064 7.9e-4 0.01032-0.0111 0.05-0.0289 0.08786-0.0427 0.09056 0.27704 0.15468 0.54679 0.10976 0.20578-0.03413 0.2067-0.03333 0.0456 0.03968-0.0904 0.04127-0.14812 0.10429-0.12827 0.14032 0.0195 0.03571 0.01 0.10262-0.0214 0.1481-0.0317 0.04524-0.0142 0.11468 0.0398 0.15373 0.11732 0.08588-0.21372 0.2073-0.82326 0.30183-0.22959 0.03571-0.46007 0.08452-0.51212 0.10873-0.0521 0.02381-0.3037 0.08659-0.55913 0.13873-0.40046 0.08175-0.48836 0.08929-0.63771 0.05397-0.0952-0.02222-0.2277-0.02698-0.29442-0.01111-0.0667 0.01587-0.25076 0-0.40902-0.03016-0.21623-0.04445-0.2737-0.07699-0.23126-0.13191zm-7.495-10.01c0.0897-0.02151 0.23006-0.03214 0.31178-0.02373 0.0819 0.0086 0.18196 0.01278 0.22237 0.0096 0.0404-0.0032 0.1267 0.0056 0.19171 0.01897 0.0688 0.01445 0.0519 0.01905-0.04 0.01087-0.087-0.0079-0.14321 4e-3 -0.12494 0.02675 0.0206 0.02556-0.0671 0.03968-0.23358 0.03778-0.3856-4e-3 -0.51444-0.03579-0.32724-0.08065zm0.95859 0.82184c0.0605-0.0056 0.12367 0.0079 0.14083 0.02873 0.0172 0.02103-0.0263 0.03262-0.0967 0.02564-0.0703-0.0071-0.13352-0.01984-0.14068-0.02873-8e-3 -0.0088 0.0363-0.02032 0.0965-0.02564zm6.3792 6.5382c0.039-0.10802 0.19784-0.09318 0.41143 0.03809 0.17527 0.10794 0.0997 0.19476-0.16167 0.18564-0.2241-0.0079-0.30237-0.07778-0.24977-0.22405zm-1.1917-2.9977c0.23061-0.04365 0.42876-0.10992 0.44032-0.14627 0.0142-0.04683 0.0646-0.05794 0.16833-0.03809 0.097 0.01825 0.13019 0.05397 0.0965 0.10468-0.0279 0.04206-0.0127 0.0946 0.0342 0.11675 0.0467 0.02222-0.0218 0.09318-0.15209 0.1577-0.13036 0.06429-0.17481 0.11246-0.0989 0.10643 0.19795-0.01587 0.22962 0.05873 0.0322 0.07619-0.0904 0.0079-0.18508-0.0079-0.21031-0.03016-0.16499-0.15984-0.26244-0.2073-0.48223-0.23548-0.23041-0.02937-0.2183-0.0373 0.1714-0.11183zm2.5678 3.396c0.10923-0.02302 0.1578-0.05476 0.10827-0.06984-0.14177-0.04445-0.026-0.03968 0.28456 0.01032 0.18375 0.02937 0.30689 0.08286 0.34508 0.14953 0.0367 0.06508 0.12479 0.10413 0.23654 0.10492 0.13576 7.94e-4 0.13782 0 0.01-0.01905-0.11813-0.01429-0.0775-0.02857 0.13653-0.04921 0.40495-0.0381 0.6006-0.0754 0.66259-0.12818 0.0311-0.02619 0.0671-0.0246 0.0921 0.0079 0.0282 0.03333 0.12798 0.03333 0.3253 3.96e-4 0.15655-0.02619 0.37138-0.0381 0.47791-0.02619 0.15921 0.01746 0.16607 0.02381 0.0387 0.03492-0.19081 0.01746-0.0246 0.05317 0.20622 0.04444 0.0921 0 0.15512-0.02222 0.13971-0.04048-0.0158-0.01905 0.10729-0.01032 0.27198 0.01825 0.165 0.02857 0.33995 0.04921 0.38887 0.04445 0.0488 0 0.10892 0.01667 0.13322 0.04603 0.0243 0.03016-0.0359 0.06111-0.13385 0.06984-0.1448 0.0127-0.14463 0.02381 6.6e-4 0.05714 0.14862 0.03492 0.13132 0.05318-0.10274 0.10905-0.18227 0.04365-0.35071 0.06032-0.47834 0.04762-0.26753-0.02698-0.59607 0.12532-0.51441 0.23794l0.0627 0.08524-0.17034-0.0746c-0.19234-0.0846-0.0689-0.23548 0.26805-0.32746 0.10642-0.02936 0.16519-0.07143 0.13052-0.09437-0.0349-0.02302-0.0142-0.04603 0.0465-0.0508 0.0604-0.0079 0.0916-0.03175 0.0695-0.05873-0.0268-0.03333-0.12574-0.03572-0.2988-0.0079-0.17509 0.02778-0.29596 0.0246-0.37414-0.01111-0.0635-0.02857-0.18701-0.04603-0.27459-0.0381-0.0877 0.0079-0.12003 0.02619-0.0721 0.04127 0.0478 0.01508 0.0186 0.04365-0.0652 0.06349-0.0837 0.01984-0.13782 0.02063-0.12051 0 0.044-0.04841-0.32147-0.01349-0.44865 0.04206-0.0575 0.0254-0.16436 0.04048-0.23771 0.03254-0.17594-0.01746-0.12463 0.04127 0.0681 0.07778 0.0984 0.01905 0.11938 0.03968 0.0592 0.06111-0.124 0.04365-0.48281 0.02778-0.44004-0.01905 0.0189-0.02063-0.0553-0.03016-0.16496-0.02143-0.33036 0.02699-0.59238-0.03492-0.73184-0.17437-0.10417-0.10365-0.09-0.14048 0.0664-0.17349zm-1.4045-1.7003c0.0362-0.02381 0.0656-0.1227 0.0658-0.22056 9e-5 -0.09786 0.0981-0.23746 0.2178-0.31024 0.17553-0.10667 0.18627-0.14953 0.0556-0.22183-0.11605-0.06429-0.12272-0.09897-0.0233-0.12278 0.23239-0.05556-0.0164-0.26913-0.40859-0.35064-0.4101-0.08524-0.44293-0.195-0.0571-0.19056 0.32949 0 0.5774 0.04048 0.61923 0.0923 0.0185 0.02302 0.19257 0.0746 0.38684 0.11452 0.37106 0.07699 0.50399 0.15865 0.34767 0.21342-0.0511 0.01746-0.0525 0.04524-3e-3 0.06111 0.0498 0.01508 0.0506 0.03175 7.8e-4 0.03572-0.11637 0.01032-0.21895 0.20921-0.15147 0.29238 0.0376 0.04603-0.0339 0.07381-0.24625 0.09468-0.16461 0.01587-0.23084 0.03254-0.14734 0.03572 0.18775 0.0079 0.28031 0.10468 0.11384 0.11937-0.0668 0.0079-0.0694 0.03413-6e-3 0.06349 0.0925 0.04206 0.0571 0.05397-0.17682 0.05952-0.16091 0-0.30761 0.02381-0.32577 0.04365-0.0184 0.01984 0.0378 0.03016 0.12607 0.02222 0.17345-0.01508 0.35303 0.04921 0.44168 0.1581 0.0639 0.07857-0.0615 0.09905-0.43575 0.06984-0.19844-0.01508-0.27108-0.0079-0.3127 0.0373-0.0438 0.04603-0.0635 0.04603-0.10146 0-0.0259-0.03095-0.0179-0.0754 0.0184-0.09857zm-4.1939-5.4655c0.0568-0.0056 0.14655 4e-3 0.19923 0.02071 0.0551 0.01714 0.0159 0.02706-0.0916 0.02333-0.20952-0.0071-0.26531-0.03008-0.10762-0.04397zm6.4876 7.6892c0.0605-0.0079 0.12369 0.0079 0.14083 0.02857 0.0172 0.02063-0.0265 0.03254-0.0967 0.0254-0.0703-0.0079-0.13354-0.01984-0.14068-0.02857-6e-3 -0.0087 0.0364-0.02063 0.0965-0.0254zm-5.6394-7.353c0.042-0.01468 0.0952-0.0032 0.11797 0.02436 0.0229 0.0281-6e-3 0.04635-0.0652 0.04064-0.0585-0.0063-0.11162-0.01683-0.11781-0.02437-6e-3 -0.0079 0.0231-0.02587 0.0652-0.04056zm2.5245 2.9837c0.0565 0.03254 0.0943 0.08175 0.0851 0.10881-0.01 0.02698-0.0561 5.55e-4 -0.10255-0.05953-0.0471-0.05953-0.0379-0.08214 0.0185-0.04921zm2.0384 2.4669c0.052-0.01825 0.082-0.0079 0.0709 0.03016-0.0221 0.06905-0.0911 0.08754-0.13337 0.03572-0.0158-0.01905 0.0127-0.04841 0.0627-0.06587zm-4.211-5.282c0.0506 0.02222 0.0837 0.06294 0.0735 0.09049-0.01 0.02754-0.0517 0.0094-0.0921-0.04032-0.0406-0.04976-0.0322-0.0723 0.0185-0.05008zm8.3295 10.075c0.0638 0.0079 0.21918-0.01349 0.34525-0.04524l0.22923-0.05635-0.24832 0.01984c-0.40039 0.03175-0.43955-0.12048-0.0675-0.26294 0.1715-0.06587 0.27219-0.13175 0.22379-0.14683-0.0487-0.01508-0.039-0.02698 0.0206-0.02619 0.13209 7.94e-4 1.9796-0.66842 2.1544-0.78104 0.0684-0.04445 0.12384-0.13008 0.12273-0.19096-7.8e-4 -0.06111 0.0932-0.13635 0.20958-0.1677 0.11621-0.03095 0.19631-0.07619 0.17762-0.09881-0.0187-0.02302 0.0352-0.05873 0.11988-0.07857 0.0846-0.01984 0.10491-0.05238 0.0451-0.07064-0.0598-0.01905-0.0517-0.05397 0.0171-0.07778 0.0695-0.0246 0.11353-0.05953 0.0985-0.07857-0.049-0.06032 0.4563-0.29992 0.89794-0.42588 0.37484-0.10691 0.43206-0.1473 0.45056-0.31778 0.0165-0.15199-3e-3 -0.18365-0.0916-0.14278-0.17799 0.08302-0.18922-0.0079-0.0127-0.09794 0.10319-0.05238 0.18328-0.06746 0.23248-0.04286 0.0441 0.02222 0.13702 0 0.22541-0.0627 0.0829-0.05556 0.0989-0.08333 0.036-0.0627-0.0726 0.02381-0.10845 0.01905-0.0979-0.01429 0.01-0.02857 0.13528-0.08452 0.28006-0.12373 0.37778-0.10222 0.97763-0.42175 0.92144-0.49088-0.0303-0.0373 0.0184-0.05635 0.13369-0.05238 0.0998 0 0.20058 0.03016 0.22406 0.05873 0.0248 0.03016 0.0871 0.0373 0.14829 0.01587 0.0661-0.02302 0.089-0.01826 0.0606 0.0127-0.0248 0.02698-0.0982 0.04365-0.16389 0.0373-0.0655-0.0079-0.0918 0.02143-0.0585 0.0627s0.088 0.07222 0.12146 0.06905c0.1537-0.01349 1.1291-0.42 1.1797-0.49151 0.0314-0.04444 0.13274-0.07778 0.22713-0.0746 0.19628 0.0079 0.31832-0.12341 0.22426-0.23921-0.035-0.04286-0.22661-0.11611-0.4253-0.16191-0.19878-0.04603-0.38026-0.10651-0.40326-0.13484-0.0229-0.02857-0.1045-0.04683-0.18086-0.04206-0.31209 0.02143 0.28014-0.09437 0.67286-0.13159 0.29981-0.02857 0.47429-0.07143 0.59615-0.14794 0.11496-0.07222 0.34464-0.13183 0.68988-0.18 0.57559-0.08032 0.66962-0.11302 1.0209-0.35445 0.13401-0.09222 0.2695-0.16968 0.30094-0.17207 0.32451-0.0254 0.39775-0.04762 0.44218-0.13556 0.0283-0.05556 0.0968-0.10548 0.15242-0.1104 0.19369-0.01746 0.85668-0.35715 0.81081-0.4158-0.035-0.04444-0.0142-0.04921 0.081-0.02063 0.0699 0.02143 0.1902 0.02381 0.26738 0.0079 0.0771-0.01825 0.20041-0.0254 0.27389-0.01587 0.21589 0.02698 0.51714 0.17064 0.53213 0.25318 8e-3 0.04206 0.10017 0.19968 0.20583 0.35032 0.16208 0.23135 0.16293 0.32484 6e-3 0.6008-0.10224 0.17968-0.31102 0.42302-0.46383 0.54064-0.27919 0.21492-0.32293 0.31389-0.10728 0.24294 0.0673-0.02222 0.0887-0.02063 0.0513 0-0.0356 0.02222-0.10188 0.04445-0.14748 0.04841-0.0457 0.0079-0.29704 0.15008-0.55878 0.32461-0.26504 0.17667-0.63395 0.35921-0.83279 0.41199-0.20191 0.05318-0.47531 0.18984-0.62953 0.31381-0.14987 0.12056-0.28934 0.22064-0.30992 0.22246-0.0205 0-0.0256-0.05-0.0111-0.1146 0.0477-0.2135-0.11067-0.19199-0.27644 0.0373-0.13782 0.1908-0.2384 0.24476-0.65389 0.35048-0.272 0.06905-0.88064 0.3108-1.3644 0.54144-0.48033 0.22905-1.0717 0.51016-1.3141 0.62469-0.24243 0.11452-0.66764 0.32858-0.94486 0.47564-0.27726 0.14714-0.7673 0.3577-1.089 0.46786-0.32166 0.11024-0.78336 0.28366-1.026 0.38532-0.41547 0.17421-1.2046 0.40929-1.7319 0.5158-0.23256 0.04683-0.23424 0.04603-0.12559-0.0627 0.10812-0.10841 0.10544-0.10992-0.15831-0.08659-0.14749 0.0127-0.31534 0.01508-0.37275 0-0.12701-0.02381-0.16936-0.02222-0.86453 0.03254-0.3062 0.0246-0.56577 0.02698-0.58303 0.0079-0.0172-0.02143 0.0211-0.03333 0.0849-0.02698zm10.699-3.4069c0.0703-0.03254 0.11147-0.07778 0.0914-0.10008-0.0198-0.02222-0.0833 0-0.14052 0.04365-0.13353 0.10857-0.11304 0.13183 0.0489 0.05635zm-12.775 0.25897c0.24286-0.01905 0.43211-0.04683 0.42003-0.06191-0.0127-0.01508 0.0809-0.02698 0.20621-0.02778 0.18897-3.97e-4 0.21585 0.0127 0.15654 0.07699-0.0395 0.04286-0.11161 0.07381-0.16047 0.06905-0.0488-0.0079-0.0975 0.01825-0.10782 0.05079-0.0111 0.03254-0.0753 0.06429-0.14369 0.07064-0.0688 0.0079-0.11606-0.01587-0.10556-0.05 0.0159-0.04762-0.0162-0.05-0.14796-0.0087-0.12655 0.03889-0.21294 0.0381-0.35479-0.0079-0.25345-0.07778-0.26152-0.07381 0.23745-0.11326zm1.6675 1.7372c0.3225-0.09492 0.6075-0.16857 0.6333-0.16365 0.077 0.01508-0.66197 0.27691-0.81922 0.2908-0.0797 0.0079-0.18825 0.0373-0.2412 0.06826-0.0619 0.03572-0.10729 0.04127-0.12781 0.01587-0.0175-0.02143 0.23237-0.11643 0.5549-0.21135zm-1.1269-1.225c0.0639-0.0079 0.0988 0.0087 0.0776 0.03175-0.0212 0.02302-0.0602 0.04365-0.0867 0.04603-0.0265 0-0.0616-0.0119-0.0776-0.03175-0.0163-0.01984 0.0228-0.04127 0.0867-0.04603zm0.65045 0.52445c-0.0259-0.15802 0.0848-0.22643 0.58604-0.36207 0.26293-0.07143 0.57617-0.19016 0.69602-0.26445 0.11986-0.0746 0.2338-0.1154 0.25329-0.09135 0.041 0.0508-0.42403 0.30929-0.58077 0.3231-0.16366 0.01429-0.90152 0.31159-0.87001 0.35032 0.0595 0.07302 0.37961 0 0.59729-0.14088 0.12542-0.07984 0.23961-0.13088 0.25381-0.11341 0.0142 0.01746 0.0923 0 0.173-0.04365 0.0921-0.04683 0.21228-0.06905 0.32097-0.05794 0.13511 0.01349 0.1294 0.02619-0.0269 0.05953-0.11035 0.02302-0.26268 0.0823-0.33853 0.13111-0.15035 0.09691-0.17335 0.0954 0.62173 0.03889 0.12225-0.0087 0.24178 0.0079 0.26571 0.0381 0.024 0.02936-0.0446 0.05873-0.15243 0.06587-0.10781 0.0079-0.17789 0.03413-0.15575 0.06111 0.0306 0.0381-0.0313 0.04683-0.26193 0.03968-0.16613-0.0079-0.29322 0-0.28242 0.01587 0.0111 0.01429-0.0467 0.0079-0.1278-0.01825-0.10482-0.03175-0.17198-0.03095-0.23309 0-0.0612 0.03492 0.01 0.07381 0.24279 0.13341 0.18065 0.04603 0.27726 0.07619 0.21436 0.06587s-0.1687 0.0079-0.23522 0.0373c-0.094 0.04365-0.15192 0.04683-0.26074 0.0127-0.0768-0.02381-0.22782-0.03571-0.3354-0.02619-0.20558 0.01825-0.33339-0.07302-0.36398-0.25873zm1.5995 0.36096c0.20694-0.07064 0.55099-0.2004 0.76458-0.28842 0.21358-0.0881 0.39606-0.15072 0.40548-0.13905 0.0271 0.03333-0.32697 0.19191-0.7671 0.34342-0.334 0.115-0.36599 0.14008-0.1841 0.14468 0.25191 0.0079 0.17901 0.03889-0.2614 0.11683-0.29477 0.05238-0.30068 0.05079-0.13512-0.02143 0.13939-0.06111 0.13924-0.06826-7.4e-4 -0.0373-0.29135 0.06508-0.21789 0.01667 0.17838-0.11873zm1.3114-0.29484c0.0383-0.04921 0.18368-0.16278 0.32313-0.25159 0.1394-0.08889 0.22164-0.15881 0.18261-0.15532-0.039 0-0.0289-0.02381 0.0209-0.05953 0.0505-0.03651 0.14926-0.06032 0.21935-0.05318 0.0703 0.0079 0.15241-0.01349 0.18284-0.04603 0.0305-0.03254 0.0675-0.04206 0.0826-0.02222 0.0158 0.01984-0.21548 0.18873-0.51219 0.375-0.54459 0.34183-0.62583 0.37635-0.49905 0.2123zm-0.76409-1.1705c0.0854 0.0087 0.20653-0.0087 0.26933-0.03809 0.14814-0.06905 0.35672 0.01428 0.22469 0.08937-0.0666 0.0381-0.0343 0.04683 0.124 0.03254 0.16664-0.01429 0.15337-3.18e-4 -0.0595 0.06429-0.15035 0.04603-0.30577 0.07699-0.3454 0.06905-0.0397-0.0079-0.0142-0.01905 0.0559-0.0254 0.0703-0.0079 0.11384-0.02857 0.0967-0.04921-0.0172-0.02063-0.0723-0.02381-0.12258-0.0079-0.0503 0.01746-0.10426 0.01587-0.12001 0-0.0159-0.01984-0.085-0.06111-0.15353-0.09199-0.0871-0.03968-0.0779-0.05238 0.0302-0.04127zm0.74883 0.95184c0.0294-0.01667 0.1046-0.03492 0.16679-0.04048 0.0688-0.0079 0.076 0.01111 0.0184 0.04444-0.0523 0.03016-0.12733 0.04841-0.16679 0.04048-0.0395-0.0079-0.0478-0.02778-0.0185-0.04445zm-0.0658-0.5631c0.12066-0.0373 0.19828-0.04524 0.21722-0.02222 0.0162 0.01984-0.0552 0.0627-0.15846 0.09429-0.12066 0.0373-0.19828 0.04524-0.21723 0.02222-0.0162-0.01984 0.0553-0.0627 0.15847-0.09429zm-5e-3 -0.2323c0.094-0.0079 0.15354 0 0.13258 0.02698-0.0211 0.02302-0.085 0.04603-0.14162 0.05159-0.0567 0.0079-0.11639-0.0079-0.13258-0.02698-0.0163-0.01984 0.0477-0.04286 0.14162-0.05159zm0.61804-0.0627c0.39294-0.17865 0.69456-0.26619 0.73706-0.21381 0.0142 0.01825-0.0592 0.0508-0.164 0.07302-0.1046 0.02222-0.28673 0.09524-0.40437 0.16254-0.17771 0.10159-0.49265 0.19445-0.52488 0.15484-5e-3 -0.0079 0.1556-0.08516 0.35619-0.17643zm-0.0403-0.37683c0.085-0.03968 0.13766-0.04603 0.15917-0.01984 0.0176 0.02143 0.19708-0.05476 0.39857-0.16984 0.3015-0.17238 0.41861-0.20976 0.66121-0.21103 0.43978 0 0.65913-0.06508 0.68868-0.19754 0.0202-0.09008 4.6e-4 -0.10929-0.0827-0.08016-0.15575 0.05476-0.48526 0.08754-0.44605 0.04444 0.0182-0.01984 0.0932-0.0381 0.16703-0.04048 0.22088-0.0079 0.4757-0.09064 0.43454-0.14135-0.0211-0.02619 0.16562-0.13794 0.41503-0.24865 0.24943-0.11064 0.7572-0.36651 1.1284-0.5685s0.73969-0.37302 0.8189-0.38c0.19804-0.01746 0.4244-0.17215 0.29293-0.20016-0.0587-0.0127-0.0397-0.01667 0.0426-0.0095 0.0823 0.0079 0.16694-0.0079 0.18836-0.03016 0.0652-0.07143 0.23993-0.06508 0.21667 0.0079-0.0195 0.06111 0.01 0.05714 0.2554-0.03254 0.47115-0.17143 0.90367-0.38151 0.8689-0.42199-0.0182-0.02143-0.0612-0.01032-0.0952 0.0254-0.0343 0.03492-0.0779 0.04524-0.0968 0.02302-0.0544-0.0627 0.20968-0.16683 0.35167-0.13897 0.19446 0.0381-0.50896 0.56263-0.97573 0.72731-0.47499 0.16754-0.67676 0.33294-0.58258 0.47755 0.0722 0.11103-0.3167 0.43747-0.59011 0.49517-0.097 0.02063-0.29935 0.12698-0.44948 0.23659-0.27544 0.20111-0.45501 0.2473-0.34233 0.0881 0.1062-0.15008-0.42243-0.06191-0.90025 0.14953-0.23383 0.10365-0.59119 0.23921-0.79414 0.30127-0.20299 0.0619-0.29735 0.10722-0.20975 0.1004 0.11622-0.0087 0.11384 0.0079-8e-3 0.05635-0.18268 0.0746-0.50304 0.08484-0.43821 0.01349 0.0236-0.02619-3e-3 -0.02857-0.067-0.0079-0.0588 0.02063-0.0618 0.05159-6e-3 0.06905 0.0646 0.01984 8e-3 0.03016-0.15767 0.02778-0.14208 0-0.30557 0.01667-0.36305 0.04127-0.29581 0.12794-0.75546 0.14008-0.48221 0.0127zm1.6053 0.22881c0.069-0.05873 0.10985-0.06825 0.1386-0.03095 0.0562 0.07302-0.0507 0.17262-0.15241 0.14103-0.0464-0.01429-0.0403-0.06349 0.0142-0.10976zm0.0571-0.27842c0.0505-0.01746 0.10523-0.01508 0.12241 0.0079 0.0171 0.02063-0.0183 0.04286-0.0784 0.04841-0.0604 0.0079-0.11543 0-0.12257-0.0079-6e-3 -0.0087 0.0282-0.03016 0.0786-0.04841zm0.56013-0.26286c0.19363-0.01746 0.22318 0.06349 0.0381 0.10413-0.0652 0.01429-0.13939 0-0.16498-0.03175-0.0255-0.03175 0.0316-0.06429 0.12703-0.07222zm-7.8074-9.7446c0.0905-0.0081 0.18431 0.0099 0.20855 0.03984 0.0243 0.02984-0.03 0.06079-0.12035 0.06881-0.0904 8e-3 -0.18433-0.0099-0.20856-0.03968-0.0243-0.02984 0.03-0.06087 0.12033-0.06881zm10.641 7.4578c0.1647-0.15834 0.18945-0.24992 0.0955-0.35389l-0.12701-0.14016-0.17582 0.12064c-0.0968 0.06667-0.1882 0.1054-0.2033 0.08683-0.0142-0.01825 0.0297-0.06032 0.0995-0.09294 0.0698-0.03254 0.087-0.07143 0.0384-0.08667-0.0487-0.01508-0.0201-0.02857 0.0648-0.03016 0.0843 0 0.13051-0.01905 0.10277-0.03889-0.0276-0.01984 0.0429-0.04683 0.15686-0.06032 0.11447-0.0127 0.21982-0.0087 0.23498 0.0095 0.0158 0.01905-0.05 0.04048-0.14463 0.04921-0.15193 0.01349-0.14812 0.01984 0.0327 0.05476 0.29979 0.05714 0.2494 0.35199-0.0986 0.57652-0.33798 0.2181-0.36647 0.18318-0.0773-0.09468zm0.75583-0.95692c0.13018-0.04841 0.26445-0.08214 0.29844-0.0754 0.034 0.0079-0.0447 0.05079-0.17481 0.09921-0.13021 0.04841-0.26444 0.08214-0.29844 0.0754-0.034-0.0079 0.0447-0.05079 0.17481-0.09921zm0.34403-0.2827c0.0733-0.03413 0.14385-0.04921 0.15672-0.03333 0.0127 0.01587 0.12114-0.02222 0.24067-0.08445l0.21724-0.11326-0.079 0.10254c-0.13319 0.17254-0.25292 0.2254-0.46987 0.20722-0.18025-0.01508-0.1864-0.02222-0.0656-0.07857zm-1.9099-2.6619c0.12877-0.0097 0.16212-0.0032 0.084 0.01603-0.0706 0.01746-0.1663 0.02452-0.21264 0.01556-0.0463-0.0089 0.0111-0.0231 0.12845-0.03175zm2.3329 2.2928 0.19444-0.13357-0.14036 0.13849c-0.0772 0.07619-0.16156 0.14032-0.18761 0.14262-0.0821 0.0079-0.0661-0.01032 0.13352-0.14754zm0.32141-0.33548c0.13496-0.03254 0.14608-0.02778 0.0675 0.02857-0.10685 0.07699-0.16505 0.08889-0.20284 0.04206-0.0142-0.01746 0.0465-0.05 0.13526-0.07064zm0.0773 0.11127c0.1259-0.03016 0.13986-0.02143 0.0883 0.05556-0.0881 0.13151-0.10972 0.1381-0.17756 0.05476-0.0333-0.04127 6e-3 -0.09064 0.0893-0.1104zm0.21571-0.23738c0.0537-0.05476 0.0694-0.05556 0.11366 0 0.0282 0.03333 0.01 0.0754-0.04 0.0931-0.11557 0.04048-0.15448-0.0079-0.0735-0.09048zm3.5327 3.4662c0.20803-0.10627 0.47966-0.41683 0.44653-0.5104-0.0127-0.03651 0.0127-0.06508 0.0558-0.06349 0.0437 0 0.12828 0 0.18878-0.0079 0.39007-0.03413-0.0163 0.47469-0.50972 0.63842-0.33878 0.11238-0.44661 0.07857-0.18117-0.05714zm-2.5351-4.3594c0.01-0.02778 0.0884-0.05635 0.1739-0.06349 0.0854-0.0079 0.13464-0.03889 0.10955-0.06984-0.0252-0.03095-0.087-0.04206-0.13734-0.0246-0.0503 0.01746-0.10383 0.01667-0.11923 0-0.0308-0.0381 0.19567-0.10127 0.43869-0.12278 0.0856-0.0079 0.1695 0 0.18664 0.0246 0.0172 0.02143-0.0266 0.03254-0.097 0.0254-0.0706-0.0079-0.14115 0.02857-0.15703 0.07944-0.0162 0.0508-0.10812 0.13246-0.20484 0.18167-0.16969 0.08627-0.23208 0.07699-0.1932-0.02778zm-2.6802-3.7368c0.0528 0.02333 0.0743 0.05484 0.0472 0.07016-0.0266 0.01532-0.07-0.0032-0.0962-0.04246-0.0282-0.0427-0.01-0.05349 0.0486-0.0277zm3.9759 3.9811c0.1256-0.1604 0.24-0.27858 0.25439-0.26246 0.0506 0.05635-0.21492 0.46493-0.33946 0.52294-0.17631 0.08214-0.17151 0.06746 0.0851-0.26048zm-0.47906-0.69217c0.14036-0.03349 0.15623-0.0304 0.0779 0.01484-0.0543 0.03127-0.13367 0.05024-0.17655 0.04206-0.0427-0.0079 7.8e-4 -0.03373 0.0986-0.05691zm-1.513-1.9053c0.0451-0.04611 0.0971-0.01857 0.1885 0.09972 0.0961 0.12435 0.0897 0.14808-0.0268 0.09935-0.20476-0.08576-0.2354-0.12349-0.16169-0.19907zm0.39447 0.32394c0.01-0.16232 0.0847-0.16782 0.20873-0.01516 0.0675 0.08311 0.0468 0.12518-0.0666 0.13519-0.0905 8e-3 -0.16125 0.01262-0.15702 0.01063 5e-3 -0.0016 0.0111-0.06095 0.0144-0.13063zm0.34854-0.08657c0.0529 0.02333 0.0743 0.05484 0.0471 0.07016-0.0266 0.01532-0.07-0.0032-0.0962-0.04246-0.0282-0.0427-0.01-0.05349 0.0483-0.02762zm3.3018 0.69516c-6e-3 -0.06865 0.0305-0.1546 0.0811-0.19093 0.0505-0.03635 0.0465-0.08676-0.01-0.11204-0.0557-0.02532-0.0568-0.08213-7.8e-4 -0.12641 0.0607-0.04905 0.0266-0.17156-0.087-0.31416-0.13733-0.1732-0.14543-0.22605-0.0296-0.20396 0.0863 0.01635 0.19298 0.07587 0.23773 0.13221 0.0449 0.05627 0.1321 0.11536 0.19419 0.13122 0.33111 0.08472 0.63193 0.46158 0.34534 0.43324-0.0652-0.0063-0.0854 0.02897-0.0451 0.07873 0.0404 0.04976 0.0252 0.10737-0.0336 0.12799-0.0697 0.02445-0.10049 0.01651-0.088-0.02254 0.0111-0.03302-0.0383-0.07794-0.10845-0.0997-0.0893-0.0277-0.16806 0.02103-0.26295 0.16254-0.14146 0.21108-0.17477 0.21174-0.19296 0.0032zm0.92501 0.12152c0.0587-0.02064 0.0548-0.06746-8e-3 -0.10423-0.0633-0.03683-0.10718-0.09189-0.0978-0.12252 0.0369-0.11638 0.23532-0.02571 0.52208 0.23887 0.16355 0.15076 0.37392 0.34438 0.46739 0.43032 0.18466 0.16945 0.34602 0.56567 0.28369 0.69591-0.0212 0.04444-0.044 0.11445-0.0505 0.15548-0.0242 0.15437-0.13495 0.03968-0.32478-0.33675-0.17945-0.35572-0.45436-0.65594-0.77468-0.84596-0.0684-0.04056-0.0768-0.09048-0.0172-0.11114zm-1.056-2.1758c0.0639-0.0056 0.0988 0.0088 0.0776 0.03198-0.0211 0.02325-0.0602 0.04405-0.0869 0.04643-0.0265 0.0024-0.0616-0.01214-0.0776-0.03198-0.0162-0.01992 0.0229-0.0408 0.0867-0.04643z" fill="#fff" fill-opacity=".18" stroke-width=".065217"/>
 <path d="m94.922 33.921c-27.552 0-50 7.4077-50 16.5s22.448 16.5 50 16.5 50-7.4077 50-16.5-22.448-16.5-50-16.5zm0 3.4207c21.95 0 39.634 5.8359 39.634 13.079 0 7.2434-17.685 13.078-39.634 13.078-21.95 0-39.63-5.8346-39.63-13.078s17.681-13.079 39.63-13.079z" color="#000000" fill="#fff" fill-opacity=".15" stroke-width="1.1254" style="-inkscape-stroke:none"/>
</svg>
