<?xml version="1.0" encoding="UTF-8"?>
<svg width="830.22mm" height="118.08mm" version="1.1" viewBox="0 0 830.22 118.08" xmlns="http://www.w3.org/2000/svg">
 <rect x="1.3428e-5" y="5.4932e-6" width="830.22" height="118.08" rx="0" ry="0" fill="#ebebeb" stop-color="#000000"/>
 <path d="m605.01 84.04c-27.608 0-50-7.4666-50-16.667v-16.667c0-9.2 22.392-16.667 50-16.667 27.604 0 50 7.4667 50 16.667v16.667c0 9.2-22.396 16.667-50 16.667z" fill="#8a8b8b" stroke-width=".13021"/>
 <path d="m605.01 34.038c-27.552 0-50 7.4077-50 16.5s22.448 16.5 50 16.5 50-7.4077 50-16.5-22.448-16.5-50-16.5z" color="#000000" fill="#fff" fill-opacity=".5" stroke-width="1.1254" style="-inkscape-stroke:none"/>
 <path d="m323.14 84.038c-27.608 0-50-7.4666-50-16.667v-16.667c0-9.2 22.392-16.667 50-16.667 27.604 0 50 7.4667 50 16.667v16.667c0 9.2-22.396 16.667-50 16.667z" fill="#eeb248" stroke-width=".13021"/>
 <path d="m358.68 38.928c-3.2551-1.0741-6.8259-1.9693-10.712-2.6854-3.8355-0.7161-7.8347-1.253-11.998-1.6111-4.113-0.3581-8.3402-0.537-12.68-0.537-4.2897 0-8.5168 0.1789-12.68 0.537-4.113 0.3581-8.1122 0.895-11.998 1.6111-3.8355 0.7161-7.3807 1.6115-10.636 2.6857-3.2551 1.0742-5.98 2.248-8.1754 3.522-2.1448 1.2741-3.7725 2.5941-4.8827 3.9597-1.0598 1.3656-1.6019 2.7606-1.6272 4.1845 0.0252 1.424 0.58044 2.8146 1.6655 4.1719 1.085 1.374 2.712 2.6938 4.8821 3.9595 2.1701 1.2824 4.8826 2.4607 8.1377 3.5349s6.8128 1.965 10.674 2.6728c3.8607 0.7245 7.8612 1.2618 12 1.6116 4.1383 0.3664 8.3517 0.5494 12.641 0.5493 4.3402 1e-4 8.5666-0.1791 12.68-0.5371 4.1635-0.3581 8.1634-0.8952 11.999-1.6113 3.886-0.7162 7.456-1.6111 10.711-2.6853 3.2551-1.0742 5.9552-2.2484 8.1-3.5225 2.1953-1.274 3.8223-2.5938 4.8821-3.9594 1.1103-1.3657 1.653-2.7604 1.6278-4.1844 0.0252-1.4239-0.51617-2.8186-1.6265-4.1843-1.0598-1.3656-2.6881-2.6858-4.8834-3.9599-2.1449-1.274-4.8443-2.448-8.0994-3.5223zm-8.8568 1.1245-12.793 4.2218c-1.2616-0.4829-2.4484-0.9828-3.5587-1.499-1.1102-0.5163-2.1194-1.0575-3.0278-1.6238 1.3878-0.2082 2.8894-0.4123 4.5044-0.6121 1.615-0.1999 3.2674-0.3624 4.958-0.4873 1.7159-0.1332 3.4062-0.2078 5.0716-0.2245 1.6906-0.01 3.3065 0.067 4.8457 0.2249zm5.45 1.7985c0.47946 0.4913 0.69302 1.0201 0.64254 1.5863-0.0252 0.5579-0.21332 1.12-0.56659 1.6863-0.35326 0.5662-0.84506 1.1199-1.4759 1.6612-0.60558 0.533-1.2372 1.0242-1.8933 1.4738-1.7159-0.2998-3.3683-0.6369-4.958-1.0116-1.5645-0.3664-3.0784-0.7578-4.542-1.1741zm-16.843-4.3092c-1.8673 0.1333-3.6843 0.2997-5.4507 0.4995-1.7663 0.1999-3.52 0.4372-5.2611 0.712-0.25233-0.3331-0.40386-0.6745-0.45431-1.0243-0.0252-0.358 0.16338-0.6953 0.56722-1.0118 1.7916 0.058 3.5707 0.154 5.3371 0.2872 1.7916 0.1416 3.5459 0.3209 5.2618 0.5374zm24.451 8.0691c0.6308 0.5745 1.1481 1.1531 1.5518 1.7359 0.45418 0.5829 0.78207 1.1744 0.98393 1.7739-0.98411 0.1416-2.0194 0.1996-3.1044 0.1746-1.0598-0.017-2.0944-0.067-3.1037-0.1499 0.83268-0.5746 1.5518-1.1533 2.1574-1.7362s1.1111-1.1821 1.5149-1.7983zm-42.998-8.9434c-0.27755 0.5579-0.33959 1.1199-0.18818 1.6861 0.17658 0.5579 0.50317 1.1075 0.98258 1.6488-2.4224 0.4996-4.7678 1.0327-7.0388 1.5989-2.2458 0.5746-4.4423 1.1822-6.5871 1.8234l-10.787-3.5598c3.356-0.9243 7.0404-1.6569 11.053-2.1982 4.0121-0.5412 8.2007-0.8742 12.566-0.9992zm45.647 15.064c-0.37853 1.4406-1.3876 2.8229-3.0278 4.1469s-3.8608 2.5396-6.6618 3.6471l-10.787-3.5597c1.9429-0.7079 3.7848-1.4325 5.526-2.1736 1.7411-0.7411 3.3557-1.5153 4.8444-2.3231 1.6402 0.1583 3.307 0.2665 4.9976 0.3248 1.7159 0.067 3.418 0.046 5.1086-0.062zm-41.861-9.343c1.085 0.6745 2.2953 1.3153 3.6327 1.9232s2.7514 1.1995 4.2402 1.7741l-8.2136 2.7105-10.826-3.5726c1.7411-0.5246 3.5327-1.024 5.3747-1.4987 1.842-0.4746 3.7734-0.9201 5.7921-1.3365zm24.526 8.0937c-1.2617 0.6661-2.6117 1.3035-4.05 1.9114-1.4383 0.6078-2.9517 1.199-4.5413 1.7736l-10.825-3.5724 8.2136-2.7105c1.7411 0.4913 3.5327 0.9575 5.3747 1.3989 1.842 0.4413 3.7845 0.8409 5.8284 1.199zm-57.381-8.8183 10.787 3.5598c-1.9429 0.7078-3.7842 1.4327-5.5253 2.1738s-3.3563 1.5151-4.8451 2.3228c-1.6402-0.1582-3.3174-0.2621-5.0333-0.312-1.6906-0.058-3.3816-0.042-5.0723 0.05 0.37851-1.4406 1.3882-2.8231 3.0284-4.1471s3.8595-2.5396 6.6604-3.6472zm16.238 5.3585 10.826 3.5727-8.2506 2.7227c-1.7159-0.4996-3.4964-0.9704-5.3384-1.4117-1.842-0.4414-3.7838-0.8407-5.8277-1.1988 1.2616-0.6662 2.611-1.3033 4.0493-1.9112 1.4384-0.6079 2.9517-1.1991 4.5413-1.7737zm16.276 5.3712 10.825 3.5724c-1.7411 0.5246-3.5326 1.024-5.3747 1.4986-1.842 0.4747-3.7727 0.92-5.7914 1.3363-1.085-0.6745-2.296-1.3155-3.6333-1.9234-1.3374-0.6078-2.7626-1.195-4.2765-1.7612zm16.275 5.3709 10.787 3.5598c-3.356 0.9243-7.0391 1.6569-11.051 2.1981-4.0121 0.5413-8.2014 0.8745-12.567 0.9994 0.32803-0.5579 0.39136-1.1198 0.18958-1.686-0.17658-0.558-0.50517-1.1078-0.9846-1.6491 2.4729-0.4829 4.819-1.0157 7.0395-1.5986 2.2458-0.5746 4.4416-1.1824 6.5865-1.8236zm-35.427-2.648-12.793 4.2218c-0.47942-0.5079-0.70737-1.041-0.68216-1.5989 0.0504-0.5496 0.2647-1.1035 0.64322-1.6614 0.40372-0.5663 0.90926-1.1159 1.5149-1.6488 0.6056-0.533 1.2235-1.0283 1.8543-1.4863 1.7159 0.2998 3.3553 0.633 4.9198 0.9994s3.0797 0.7579 4.5433 1.1742zm5.45 1.7985c1.2616 0.483 2.4471 0.9828 3.5574 1.4991 1.1355 0.5246 2.1577 1.0697 3.0661 1.636-1.3626 0.2165-2.8635 0.429-4.5037 0.6372-1.615 0.1998-3.2805 0.358-4.9963 0.4746-1.7159 0.1166-3.4324 0.183-5.1482 0.1996-1.6906 0.01-3.2797-0.066-4.7685-0.2247zm-22.18-4.8714c-0.8327 0.5746-1.5518 1.1533-2.1574 1.7362s-1.1098 1.1825-1.5135 1.7987c-0.65609-0.5662-1.1995-1.1452-1.6285-1.7364-0.40374-0.5829-0.6944-1.1698-0.87102-1.761 0.95886-0.1333 1.9686-0.1915 3.0284-0.1748 1.085 0.01 2.1327 0.054 3.142 0.1373zm31.491 10.392c0.25233 0.333 0.40386 0.6745 0.45434 1.0242 0.0756 0.3581-0.1006 0.6999-0.52963 1.0247-1.8168-0.067-3.6208-0.171-5.4124-0.3125-1.7411-0.1416-3.4818-0.3164-5.2228-0.5246 1.8672-0.1332 3.683-0.3 5.4493-0.4999 1.7663-0.1998 3.52-0.4371 5.2612-0.7119z" fill="#fff" fill-opacity=".5" stroke-width="1.312"/>
 <path d="m84.04 84.04c-27.608 0-50-7.4667-50-16.667v-16.667c0-9.2 22.392-16.667 50-16.667 27.604 0 50 7.4667 50 16.667v16.667c0 9.2-22.396 16.667-50 16.667z" fill="#54a2cc" stroke-width=".13021"/>
 <path d="m54.83 56.83c0.0189-0.0556 0.0448-0.0627 0.0908-0.0254 0.095 0.077 0.0579-0.22596-0.055-0.44858-0.0771-0.15238-0.0443-0.22413 0.15751-0.34366 0.1486-0.088 0.2817-0.26453 0.31888-0.4231 0.0351-0.1496 0.12098-0.2858 0.19082-0.30254 0.18422-0.0444 0.77906-0.0103 1.1499 0.0659 0.39274 0.0804 0.59272 0.0675 0.60751-0.0405 6e-3 -0.0452 0.0813-0.0794 0.16732-0.0762 0.20818 8e-3 0.54423-0.34437 0.54063-0.56564-3e-3 -0.20659 0.15067-0.38897 0.29212-0.34604 0.0549 0.0167 0.31899 0.023 0.58674 0.0151 0.44143-0.0143 0.48944-0.0238 0.51466-0.10865 0.0158-0.0508-0.021-0.12373-0.0807-0.16111-0.37619-0.23611-0.47805-0.36953-0.34665-0.45413 0.10383-0.0667 0.0865-0.14357-0.0744-0.3258-0.11621-0.13095-0.28937-0.26604-0.38586-0.3-0.0967-0.0341-0.15972-0.0706-0.14003-0.0821 0.0195-0.0111-0.0913-0.10032-0.2478-0.19786-0.17068-0.10691-0.2895-0.23096-0.29873-0.31191-8e-3 -0.0738-0.13987-0.28215-0.29218-0.4627l-0.27654-0.32834 0.33008-0.37469c0.20718-0.23516 0.40655-0.3862 0.53545-0.40564 0.2817-0.0429 0.73317-0.29746 0.69786-0.39397-0.0249-0.0683 0.0462-0.0856 0.51642-0.12738 0.44794-0.0397 0.6091-0.0357 0.90208 0.023 0.39909 0.0801 1.1703 0.0603 1.2543-0.0317 0.0343-0.0373 0.20966-0.0127 0.58766 0.0846 0.2964 0.0762 0.6281 0.15651 0.73706 0.17889 0.29968 0.0611 0.68214 0.21445 0.87652 0.35056 0.20806 0.14564 0.6116 0.2658 0.74069 0.22056 0.12877-0.0452 0.88501 0.0985 0.95184 0.18072 0.0302 0.0373 0.21577 0.0954 0.4129 0.12976 0.43553 0.0762 0.69806 0.0167 0.66537-0.1504-0.0259-0.13238 0.39838-0.22167 0.81533-0.17151 0.14353 0.0175 0.44203 0.0151 0.66337 0 0.47897-0.0421 0.57844-8e-3 0.6274 0.21873 0.09 0.41604 0.28846 0.4839 0.99557 0.33985 0.28531-0.0579 0.39353-0.10675 0.3902-0.17548-6e-3 -0.13706 0.28023-0.14706 0.38868-0.0135 0.0487 0.0595 0.13765 0.10413 0.19784 0.0988 0.0605-8e-3 0.13496 0.0214 0.1659 0.0595 0.088 0.10833 0.26778 0.17349 0.43732 0.15849 0.10253-9e-3 0.11526-0.0397 0.0378-0.0906-0.0644-0.0421-0.21533-0.15548-0.33549-0.25135-0.21607-0.17254-0.21539-0.17397 0.0534-0.12841 0.20914 0.0357 0.27612 0.0341 0.29098-8e-3 0.0159-0.0429 0.047-0.0452 0.16563-0.0119 0.0805 0.0222 0.19203 0.0246 0.24792 8e-3 0.0582-0.0206 0.12146-0.0111 0.14765 0.0206 0.0733 0.0903 0.32851 0.0413 0.50138-0.0971 0.20368-0.16262 0.61377-0.18238 1.1576-0.0556 0.43546 0.10135 0.45626 0.13064 0.0721 0.10095-0.21227-0.0167-0.253-0.01-0.21634 0.0357 0.0514 0.0635-0.0373 0.0778-0.30931 0.0492-0.13368-0.0135-0.27099 0.0159-0.46892 0.10016-0.15402 0.0659-0.33081 0.12421-0.393 0.12968-0.0622 8e-3 -0.14035 0.0484-0.17357 0.0955-0.0494 0.0698-0.097 0.0798-0.25785 0.0556-0.13035-0.0198-0.2244-0.0143-0.27686 0.0151-0.12652 0.0722 0.11256 0.14667 0.56129 0.17373 0.29083 0.0175 0.46201 0.0556 0.57713 0.12929 0.10587 0.0675 0.2098 0.0932 0.29488 0.073 0.0722-0.0175 0.28698-0.0556 0.47737-0.0858 0.27445-0.0429 0.38525-0.0421 0.53513 8e-3 0.16555 0.0516 0.15687 0.0651-0.0686 0.10651-0.14179 0.0262-0.22169 0.0651-0.17773 0.0873 0.13893 0.0698 0.39622 0.0333 0.64457-0.0903l0.24019-0.11976-0.30297-0.0619c-0.38185-0.0778-0.36108-0.1704 0.0574-0.25437 0.54132-0.10857 0.7653-0.11238 1.2911-0.0222 0.27897 0.0476 0.68418 0.0827 0.90049 0.077 0.21634-8e-3 0.4321 0 0.47945 0.0167 0.0475 0.0151 0.21872 0.0151 0.38076 1.6e-4 0.23042-0.0206 0.25254-0.0309 0.10156-0.0468-0.26633-0.0286-0.10556-0.0389 0.27368-0.0182 0.17238 0.01 0.3245 0.031 0.33807 0.0476 0.0142 0.0167 0.0868 0.0254 0.16241 0.0183 0.23376-0.0206 1.0521 0.175 1.1292 0.27 0.0398 0.0492 0.0266 0.0933-0.0296 0.0983-0.0629 8e-3 -0.0264 0.0508 0.0954 0.11738 0.1086 0.0595 0.24541 0.16762 0.30417 0.23992 0.18961 0.23342-0.30817 0.32254-0.71064 0.12722l-0.20696-0.1004-0.1448 0.11159c-0.0797 0.0611-0.11972 0.14159-0.089 0.17818 0.0452 0.0548 0.0663 0.0556 0.11384 8e-3 0.0319-0.0341 0.0233-0.0722-0.0195-0.0856-0.0427-0.0135-0.0487-0.027-0.0142-0.0294 0.0352 0 0.14542 0.0317 0.24459 0.077 0.14876 0.0683 0.21163 0.073 0.35632 0.0286 0.12622-0.0389 0.24557-0.0452 0.42382-0.0222 0.22052 0.0286 0.26602 0.0198 0.40896-0.077 0.14051-0.0953 0.18376-0.10365 0.34222-0.0667 0.1788 0.0421 0.17323 0.0484-0.0721 0.0794-0.0683 9e-3 -0.12844 0.0397-0.13384 0.0683-6e-3 0.0349 0.0742 0.0429 0.24365 0.023 0.65706-0.0778 1.075-0.0934 1.0577-0.0397-0.0185 0.0587 0.32613 0.0878 0.46436 0.0397 0.046-0.0159 0.0974-0.0119 0.11448 9e-3 0.0716 0.088 0.24469 0.0103 0.1823-0.0817-0.0421-0.0619-0.0291-0.0778 0.0336-0.0421 0.0559 0.0325 0.14337 0.0556 0.19423 0.0508 0.051-8e-3 0.248 0.0397 0.43785 0.0991 0.18978 0.0587 0.36574 0.0956 0.39085 0.0812 0.0252-0.0143-0.0198-0.0381-0.0982-0.0532-0.16356-0.0309-0.23526-0.20929-0.0891-0.22223 0.0529-8e-3 0.18999-0.0698 0.30482-0.14556 0.18546-0.12175 0.22284-0.13048 0.33409-0.0778 0.0689 0.0325 0.10893 0.0867 0.0881 0.12048-0.0718 0.12056-0.0221 0.28088 0.0763 0.24635 0.0525-0.0183 0.0629-0.073 0.0235-0.12167-0.0394-0.0484-0.0224-0.0927 0.0379-0.098 0.0605-8e-3 0.12527 0.01 0.14449 0.0333 0.0192 0.0238 0.0793 8e-3 0.13288-0.0405 0.0964-0.0823 0.10222-0.0828 0.41093-0.0341 0.17214 0.027 0.24174 0.0294 0.15448 8e-3 -0.31308-0.0872-0.17884-0.23643 0.20057-0.22318 0.10448 0 0.12669-0.0111 0.0618-0.0405-0.0629-0.0286-7.9e-4 -0.0762 0.1615-0.125 0.1448-0.0436 0.32256-0.11635 0.39501-0.16214 0.0725-0.046 0.1924-0.077 0.26656-0.0698 0.0742 8e-3 0.14956-0.0341 0.16761-0.0931 0.0288-0.0926 0.061-0.10214 0.2503-0.073 0.11953 0.0183 0.32531 0.0183 0.45713 3.1e-4 0.26614-0.0365 0.31722-0.0262 0.54518 0.11302 0.12019 0.073 0.11892 0.0925-6e-3 0.0816-0.09-8e-3 -0.11368 0-0.0529 9e-3 0.15845 0.0333 0.43886 0.0175 0.47991-0.0278 0.0194-0.0206 0.18003-0.0516 0.3574-0.0667 0.21166-0.019 0.30747-0.0468 0.27889-0.0821-0.024-0.0294 0.0748-0.0754 0.21911-0.10183 0.19907-0.0365 0.31735-0.0325 0.48832 0.0143 0.28154 0.0778 0.49585 0.0635 0.34633-0.023-0.0681-0.0397-0.0581-0.0635 0.0246-0.0611 0.0749 0 0.19228-0.0445 0.26066-0.10349 0.0684-0.0587 0.0725-0.10238 0.01-0.0967-0.0632 8e-3 -0.14019-0.0214-0.17152-0.0595-0.0622-0.0762 0.39285-0.28254 0.70326-0.31818 0.10729-0.0119 0.20196-0.0302 0.21032-0.0397 8e-3 -0.01 0.0517-0.073 0.0961-0.14111 0.0454-0.0691 0.16933-0.13143 0.28308-0.14159 0.23473-0.0206 0.31784-0.17302 0.17397-0.31834-0.11318-0.11421-0.13177-0.39008-0.0315-0.46477 0.36002-0.26792 0.42874-0.33287 0.39729-0.37556-0.0205-0.0271 6e-3 -0.0845 0.0598-0.1273 0.0866-0.0702 0.11748-0.0739 0.31025-0.0371 0.1178 0.0225 0.2957 0.0336 0.39548 0.0248 0.0998-9e-3 0.17335-2e-3 0.16331 0.0148-0.01 0.0169-0.0497 0.0859-0.0886 0.1533-0.039 0.0675-0.11115 0.13904-0.1608 0.1591-0.0525 0.0213-0.0127 0.0298 0.0948 0.0208 0.10178-9e-3 0.24139 0.0135 0.31045 0.0492 0.10458 0.054 0.16687 0.0548 0.37284 8e-3 0.35914-0.0855 0.46839-0.0873 0.4574-8e-3 -6e-3 0.0421 0.20123 0.13786 0.51611 0.23802 0.43216 0.13746 0.50645 0.17754 0.41707 0.22484-0.0719 0.0381-0.0587 0.0754 0.0383 0.11064 0.081 0.0294 0.13799 0.0874 0.12687 0.12945-0.0219 0.083 0.39727 0.18857 0.62589 0.1577 0.37166-0.05 0.61393-0.0436 0.72121 0.0183 0.0648 0.0373 0.18016 0.0579 0.25609 0.0452 0.0779-0.0127 0.14655 0 0.15718 0.0381 0.01 0.0333 0.11002 0.0746 0.22139 0.0919 0.11162 0.0167 0.21498 0.046 0.22983 0.0643 0.0142 0.0182 0.15748 0.0691 0.31668 0.1127 0.15927 0.0436 0.35185 0.11762 0.42782 0.16429 0.13528 0.083 0.13416 0.0832-0.0537 0.0151-0.12178-0.0444-0.34288-0.0651-0.60618-0.0579-0.69244 0.0191-1.2796-0.0175-1.4656-0.091-1.1134-0.44001-1.3962-0.52429-1.6763-0.49961-0.0232 0 0.10589 0.0516 0.28716 0.1104 0.32656 0.1058 0.32747 0.10683 0.11208 0.12588-0.12018 0.0103-0.22733 0.0476-0.23821 0.0817-0.0226 0.0706 0.399 0.2385 0.61109 0.2427 0.0918 0 0.14274 0.0405 0.14623 0.11151 3e-3 0.0595-0.033 0.10151-0.0793 0.0926-0.13479-0.0262-0.31872 0.084-0.26059 0.15564 0.029 0.0357-0.031 0.12437-0.13351 0.19667-0.16969 0.11976-0.16398 0.15 0.0635 0.33683 0.13734 0.11294 0.2932 0.25818 0.34618 0.32286 0.10385 0.12667 0.13958 0.13254 0.34786 0.0563 0.0989-0.0357 0.0965-0.046-8e-3 -0.0373-0.0793 8e-3 -0.12577-8e-3 -0.10341-0.0325 0.0257-0.0286 0.11082-0.0262 0.23204 8e-3 0.17836 0.0476 0.19221 0.0452 0.20319-0.0349 0.0127-0.0964 0.38819-0.14945 0.68262-0.0967 0.14242 0.0254 0.1337 0.0159-0.0429-0.0444-0.12289-0.0429-0.28357-0.0862-0.35704-0.0971-0.0737-0.0111-7.8e-4 -0.0198 0.16077-0.019 0.1618 3.2e-4 0.38479 0.0143 0.49558 0.0317 0.11082 0.0167 0.40872 0.0341 0.66219 0.0381 0.27209 0 0.41764 0.023 0.35531 0.0445-0.17694 0.0619 0.12019 0.14913 0.48169 0.14143 0.2149-8e-3 0.30035 8e-3 0.23074 0.0317-0.061 0.0214-0.0621 0.054-3e-3 0.0722 0.22752 0.0706-0.063 0.0413-0.79636-0.0804-0.41915-0.0698-0.8016-0.1231-0.84985-0.11889-0.17364 0.0151-0.0111 0.0956 0.33407 0.16468 0.41084 0.0822 0.95446 0.38008 1.1636 0.63763 0.12066 0.14857 0.10783 0.20302-0.0715 0.305-0.16905 0.0963-0.19092 0.16119-0.0968 0.2881 0.0667 0.0901 0.11447 0.20135 0.10578 0.24723-0.0144 0.0722 0.0384 0.0817 0.4019 0.0698 0.4511-0.0151 0.90406 0.0421 0.96937 0.12278 0.0585 0.0722-0.23889 0.30445-0.40895 0.31953-0.079 8e-3 -0.17073-0.0206-0.20356-0.0611-0.0329-0.0405-0.14115-0.0762-0.2404-0.0798-0.0994 0-0.16341-0.0254-0.14227-0.0484 0.0246-0.027-0.0782-0.0222-0.28403 0.0127-0.27672 0.0476-0.33074 0.0452-0.38088-0.0167-0.0847-0.10429-0.45875-0.023-0.59332 0.12873-0.11066 0.12492-0.25207 0.13262-0.34465 0.0191-0.0297-0.0365-0.0995-0.0619-0.15559-0.0571-0.11702 0.0103-0.28057 0.24397-0.22162 0.31651 0.0217 0.027-0.0375 0.0556-0.13129 0.0635-0.094 9e-3 -0.12545 0.0294-0.0699 0.0468 0.0556 0.0175 0.1876 0.0135 0.29326-0.01 0.10728-0.023 0.20597-0.0238 0.22359 0 0.0529 0.0651 0.23525 0.0254 0.24608-0.054 8e-3 -0.0635 0.48256-0.18207 0.62228-0.15588 0.0258 8e-3 -0.0161 0.0635-0.0924 0.1308-0.17824 0.15619-0.14352 0.27492 0.0756 0.25889 0.0913-8e-3 0.30468-8e-3 0.47363 0 0.16897 9e-3 0.40706 0.0182 0.52901 0.0198 0.151 0 0.22224 0.0278 0.22311 0.0804 7.9e-4 0.085 0.10844 0.0907 0.24443 0.0127 0.085-0.0484 0.16201 0.0468 0.33788 0.42008 0.0934 0.19865-0.10373 0.40691-0.64266 0.67882-0.29009 0.14643-0.56773 0.27119-0.61691 0.27723-0.0491 8e-3 -0.1351 0.0341-0.19118 0.0619-0.0561 0.0278-0.16122 0.0786-0.2339 0.1131-0.1359 0.0643-0.0142 0.14389 0.13892 0.0904 0.0468-0.0167 0.10588-8e-3 0.13115 0.027 0.0584 0.0722-0.24276 0.24651-0.41955 0.24302-0.22038 0-0.28422-0.0683-0.14654-0.14714 0.15274-0.0873 0.0196-0.1423-0.28098-0.11572-0.24205 0.0214-0.88755 0.3431-0.8304 0.41382 0.0409 0.0508 0.4252 0.0722 1.2309 0.0691 0.43407 0 0.58562 0.019 0.85945 0.11778l0.33248 0.11992-0.28946 0.12842c-0.15924 0.0706-0.42112 0.19675-0.58198 0.28032-0.32562 0.16913-0.45818 0.19683-0.5284 0.1104-0.0353-0.0437-0.10985-0.0468-0.2945-0.0127-0.1529 0.0278-0.2824 0.0302-0.33915 8e-3 -0.0664-0.0294-0.0829-0.0262-0.0594 0.0111 0.0259 0.0405-0.0259 0.0421-0.23344 8e-3 -0.14654-0.0246-0.42065-0.0357-0.60952-0.0238-0.18909 0.0111-0.38386 0.0135-0.43325 0-0.202-0.0389-0.35592 0.0127-0.33351 0.11111 0.0127 0.0571 0.0185 0.14706 0.0127 0.19897-0.0111 0.084 0.0142 0.0897 0.2185 0.0516 0.12655-0.0238 0.20838-0.031 0.18178-0.0159-0.0663 0.0381 0.38941 0.13096 0.56492 0.1154 0.0782-8e-3 0.40318-0.0167 0.72239-0.0222 0.43314-8e-3 0.6157 9e-3 0.71972 0.0627 0.13861 0.0714 0.46832 0.12968 0.65654 0.11548 0.16178-0.0119 0.36145 0.0683 0.35258 0.14183-0.01 0.0857 0.3277 0.10381 0.49367 0.0262 0.0841-0.0389 0.23638-0.0548 0.51346-0.0532 0.32069 0 0.34607 8e-3 0.13621 0.0286-0.22811 0.023-0.23969 0.0381-0.10211 0.13016 0.13512 0.0902 0.12036 0.11246-0.11224 0.16921-0.54123 0.13214-2.5138 0.13373-3.4916 0-0.0726-9e-3 -0.45869-0.0294-0.85819-0.0436-1.2245-0.0437-1.2719-0.0468-1.2956-0.0762-0.0282-0.0349 1.1-0.12984 1.302-0.10968 0.35816 0.0357 1.5092 8e-3 2.1247-0.0548 0.62559-0.0619 0.6355-0.0643 0.13639-0.0341-0.44912 0.0278-0.62885 0.0159-1.0864-0.0714-0.30152-0.0571-0.53903-0.0921-0.52784-0.077 0.0111 0.0151-0.0302 0.0127-0.0926-8e-3 -0.0621-0.0182-0.27396-0.0357-0.47082-0.0389-0.26898-8e-3 -0.37439-0.0286-0.42419-0.0944-0.0359-0.0484-0.12748-0.0952-0.20205-0.10429-0.0837-0.0103-0.0733-0.023 0.0271-0.0325 0.1313-0.0127 0.12053-0.0198-0.0534-0.0357-0.23512-0.0214-0.27062-0.14278-0.0371-0.12722 0.0784 8e-3 0.0488-8e-3 -0.0658-0.0238-0.1143-0.0182-0.37441-0.0852-0.57786-0.14921-0.20347-0.0635-0.38778-0.0982-0.40961-0.0762-0.0621 0.0627-0.42868 0.16357-0.67062 0.18492-0.16755 0.0151-0.25028-8e-3 -0.34945-0.0952-0.0975-0.086-0.17531-0.10778-0.3115-0.0873-0.12621 0.019-0.17566 9e-3 -0.16203-0.0341 0.0111-0.0349-0.039-0.0564-0.11734-0.0492-0.0753 8e-3 -0.31095-0.023-0.52367-0.0659-0.37087-0.0746-0.40904-0.0738-0.93041 8e-3 -0.29903 0.0468-0.61591 0.0823-0.70417 0.0794-0.0883 0-0.25107 0.0333-0.36178 0.0813-0.21875 0.0944-1.4337 0.4412-1.5964 0.45556-0.0552 8e-3 -0.10351 0.027-0.10729 0.0492-5e-3 0.0222-0.19011 0.0587-0.41357 0.0816-0.38169 0.0389-0.40061 0.0484-0.31173 0.15778 0.052 0.0643 0.037 0.14318-0.0333 0.17596-0.0703 0.0325-0.11051 0.081-0.0894 0.10706 0.0212 0.0262-0.0525 0.0667-0.16357 0.0901-0.1113 0.0238-0.17092 0.0524-0.13273 0.0643 0.0381 0.0119-0.0111 0.0309-0.11098 0.0421-0.0991 0.0111-0.27859 0.0413-0.39858 0.0667-0.24792 0.0524-0.65706-0.0183-0.82144-0.14183-0.0538-0.0405-0.18597-0.10389-0.29354-0.1408-0.68931-0.23635-1.195-0.61445-1.1252-0.8412 0.0184-0.0595-8e-3 -0.11484-0.0576-0.12349-0.05-9e-3 -0.0965 8e-3 -0.10318 0.0341-0.0242 0.0975-0.61914 0.1096-0.95001 0.0191-0.18878-0.0516-0.27038-0.0947-0.20547-0.10889 0.0606-0.0127-0.0369-0.0532-0.22064-0.0919-0.18065-0.0373-0.41658-0.10365-0.52401-0.14675-0.13623-0.0548-0.48114-0.0918-1.1381-0.12294-1.1867-0.0564-2.1989-0.18842-2.2988-0.30008-0.0497-0.0548-0.18133-0.0855-0.40512-0.0929-0.68327-0.023-1.3402-0.21873-1.456-0.43382-0.0477-0.0884-0.13892-0.12738-0.36032-0.15405-0.16317-0.0198-0.32404-0.0198-0.35762-4.7e-4 -0.0336 0.019 5e-3 0.14222 0.084 0.27342 0.0797 0.13119 0.15353 0.2073 0.16475 0.16905 0.0182-0.0651 0.0324-0.0659 0.20653-0.0119 0.14971 0.046 0.16191 0.0691 0.0619 0.11587-0.1018 0.0476-0.091 0.0667 0.058 0.10119 0.26658 0.0627 0.90938 0.083 1.3561 0.0437 0.35857-0.0318 0.38232-0.0278 0.31131 0.0492-0.0646 0.0698-0.0254 0.0956 0.24945 0.16222 0.49168 0.11921 0.71767 0.22588 0.58063 0.27389-0.0624 0.0222-0.15545 0.0357-0.20663 0.0302-0.0513-8e-3 -0.10891 9e-3 -0.12844 0.0294-0.0195 0.0214-0.13495 0.0389-0.25669 0.0397-0.12179 2.4e-4 -0.23944 0.0198-0.26132 0.0444-0.0221 0.0238-0.10555 0.0429-0.18566 0.0405-0.0802 0-0.3733 0.01-0.65152 0.0254-0.27823 0.0159-0.74289 0.0111-1.0326-0.0103-0.28966-0.0214-0.57049-0.0238-0.62408-8e-3 -0.0952 0.0333-2.1959-0.0938-2.5965-0.15714-0.11129-0.0175-0.38439-0.0445-0.607-0.0603-0.48473-0.0333-0.53173-0.0762-0.36482-0.33096 0.1062-0.16199 0.0871-0.23929-0.11305-0.45794-0.18936-0.20683-0.21264-0.28223-0.10922-0.35254 0.0881-0.0595 0.082-0.14865-0.0178-0.26802-0.083-0.0982-0.11622-0.20286-0.0755-0.23246 0.0922-0.0667 0.0212-0.30889-0.0799-0.27342-0.0407 0.0143-0.13083 5.5e-4 -0.20026-0.0302-0.10426-0.0468-0.14432-0.0309-0.22938 0.0884-0.0566 0.0797-0.0837 0.17159-0.0598 0.20421 0.0232 0.0325-0.0127 0.0853-0.081 0.11722-0.0813 0.0381-0.0733 0.0918 0.0222 0.15572 0.11589 0.077 0.0992 0.1227-0.0794 0.21635-0.1783 0.0936-0.19507 0.13913-0.0796 0.21619 0.0838 0.0556 0.11416 0.14659 0.0699 0.21222-0.0924 0.13865-0.0584 0.19611 0.0861 0.14548 0.0698-0.0246 0.10049-0.0167 0.088 0.023-0.0111 0.0333 0.13194 0.15842 0.31524 0.27866 0.215 0.1404 0.302 0.22968 0.24432 0.25-0.16203 0.0571 0.20695 0.21246 0.56487 0.23834 0.19172 0.0135 0.37561 0.0365 0.4086 0.05 0.0803 0.0325 1.5557 0.20135 1.8397 0.21008 0.17092 8e-3 0.2049 0.0206 0.14257 0.0659-0.0451 0.0325-0.0347 0.0691 0.0235 0.0812 0.0579 0.0127 0.0316 0.0159-0.0585 8e-3 -0.0901-8e-3 -0.21126 8e-3 -0.2693 0.0302-0.0581 0.0246-0.32385 0.0691-0.59073 0.0981-0.2669 0.0294-0.51014 0.0619-0.54055 0.073-0.12099 0.0421-1.5187 0.0659-1.9829 0.0333-0.73438-0.0516-2.8679-0.0991-3.3831-0.0754-0.42496 0.0198-0.43797 0.0238-0.23704 0.0746 0.11701 0.0294 0.16281 0.046 0.1021 0.0365-0.0608-0.01-0.18521 0.0222-0.27643 0.0706-0.1186 0.0627-0.12606 0.11786-0.0265 0.19397 0.0766 0.0587 0.11098 0.10897 0.0764 0.11214-0.0348 0-0.12177 0.0635-0.19345 0.13468-0.17208 0.1704-0.45751 0.17143-1.5404 8e-3 -0.45737-0.0698-1.0718-0.16262-1.3654-0.2058l-0.5338-0.0786 0.0163 0.11722c0.026 0.18722-0.2234 0.20778-0.85493 0.0698-0.39254-0.0855-0.65283-0.11508-0.87374-0.0994-0.31894 0.023-1.2689-0.10175-2.191-0.28675-0.74756-0.14992-1.7828-0.46358-2.4373-0.73826-0.33229-0.13952-0.80644-0.3281-1.0538-0.41913-0.51804-0.19072-0.8862-0.4235-0.84811-0.53636zm12.974-2.6011c0.0558 0.0175 0.20439 0.0127 0.32995-0.0103 0.3299-0.0603 0.70048 0.0333 0.90239 0.22818 0.28912 0.27929 0.91898 0.60302 1.2414 0.6381 0.16049 0.0175 0.35734 0.073 0.43744 0.12278 0.25238 0.15746 0.53502 0.2054 0.95835 0.1623 0.41692-0.0421 1.0651-0.2054 1.023-0.25715-0.0142-0.0175-0.20917-0.0619-0.43333-0.0995-0.26377-0.0436-0.43569-0.10238-0.48742-0.16603-0.0533-0.0659-0.15289-0.0983-0.29903-0.0979-0.12938 2.4e-4 -0.27588-0.0405-0.35759-0.099-0.076-0.0548-0.20125-0.12881-0.27774-0.16468-0.10147-0.0476-0.0989-0.054 0.01-0.0246 0.11368 0.031 0.1448 0.01 0.13242-0.0893-0.01-0.0714 0.0215-0.11135 0.0679-0.0888 0.0465 0.0222 0.13241 0.0365 0.19122 0.0318 0.0588-8e-3 0.0737-0.0198 0.033-0.0325-0.0406-0.0127-0.0299-0.0603 0.0242-0.10651 0.063-0.054 0.11226-0.0659 0.13799-0.0341 0.0219 0.027 0.0609 0.0373 0.0867 0.0222 0.0796-0.0452-0.31106-0.15683-0.49311-0.14072-0.10828 0.01-0.16518-8e-3 -0.15337-0.0444 0.0111-0.0325-0.0288-0.0556-0.0871-0.0508-0.10514 0.01-0.10828 0.046-0.0142 0.16254 0.037 0.046-0.0243 0.0611-0.25358 0.0659-0.16625 0-0.38339 0.0143-0.48253 0.0238-0.14988 0.0151-0.17922 0-0.17397-0.10143 3e-3 -0.0659-0.0342-0.13238-0.0836-0.14778-0.0495-0.0151 6e-3 -0.046 0.12431-0.0683 0.11797-0.0222 0.20158-0.0556 0.18613-0.0746-0.0429-0.0524 0.16027-0.15199 0.38454-0.18786 0.15972-0.0254 0.18084-0.0738 0.1032-0.23834-0.0944-0.20032 0.0249-0.42643 0.23515-0.44501 0.0571-8e-3 0.0601-0.023 6e-3 -0.0397-0.35191-0.10945-0.70108 0.12341-0.70369 0.46913-7.8e-4 0.10659-0.0427 0.215-0.0931 0.24104-0.0652 0.0333-0.0867 0.0262-0.0745-0.0254 0.0252-0.10564-0.12877-0.13619-0.32882-0.0651-0.14019 0.0492-0.22228 0.0532-0.42999 0.0175-0.14131-0.0238-0.34454-0.0357-0.45177-0.0262-0.13273 0.0119-0.18857 0-0.17487-0.046 0.0111-0.0349-0.0127-0.10254-0.051-0.15072-0.039-0.0484-0.0217-0.0919 0.0386-0.0972 0.0604-8e-3 0.14052 0.027 0.1781 0.0714 0.0878 0.10405 0.54698 0.22024 0.67863 0.17175 0.0552-0.0206 0.1259-0.15262 0.15702-0.29405 0.0311-0.14143 0.11557-0.2973 0.18772-0.34635 0.24244-0.16484 0.22858-0.19754-0.11351-0.26794-0.2236-0.046-0.36738-0.11167-0.43974-0.20072-0.0893-0.10992-0.15116-0.13064-0.36488-0.12206-0.1524 8e-3 -0.36888-0.0302-0.5309-0.0889-0.305-0.11056-0.6281-0.16334-0.785-0.12826-0.26688 0.0595-0.86358-0.11675-1.0116-0.29889-0.12018-0.1481-0.32111-0.18207-0.40182-0.0683-0.0836 0.11802 0.0733 0.27659 0.41343 0.4181 0.16383 0.0683 0.53463 0.295 0.82406 0.50413 0.7649 0.55255 0.78775 0.57318 0.63806 0.57636-0.0732 0-0.22821 0.0333-0.34453 0.0698-0.15495 0.0492-0.21286 0.0556-0.21682 0.0222-3e-3 -0.0246-0.0817-0.0468-0.17482-0.05-0.11764 0-0.13368 0.0119-0.0527 0.0484 0.0643 0.0294 0.069 0.0571 0.0111 0.0627-0.0584 8e-3 -0.0212 0.11429 0.083 0.24246 0.10415 0.12826 0.15464 0.24532 0.11241 0.26016-0.0867 0.0302 0.24657 0.40246 0.40401 0.45143zm0.82017-1.4849c0.18538-0.0135 0.32514 0 0.35011 0.0286 0.0575 0.0706-0.48196 0.11413-0.58132 0.0468-0.0557-0.0381 0.01-0.0587 0.2311-0.0754zm1.2711 1.573c0.0545 0.027 0.18346 0.0944 0.28658 0.14929 0.17438 0.0926 0.17216 0.0958-0.0324 0.0436-0.12114-0.0309-0.24999-0.0979-0.28658-0.14929-0.0369-0.0516-0.0222-0.0714 0.0324-0.0437zm0.39186-0.0373c0.27141-0.0564 0.40305-0.0579 0.38645-8e-3 -0.0111 0.0333-0.0144 0.0667-6e-3 0.0754 6e-3 8e-3 -0.0618 0.0214-0.1521 0.0294-0.12892 0.0111-0.33292-0.0778-0.2274-0.0992zm-1.0847-1.5886c0.0591-0.0206 0.17-0.0262 0.24646-0.0111 0.0927 0.0175 0.10318 0.0389 0.0316 0.0643-0.0591 0.0206-0.17001 0.0254-0.24644 0.0111-0.0927-0.0175-0.1033-0.0389-0.0316-0.0643zm2.6671 2.3438c0.39206 0.0698 0.39953 0.10786 0.0158 0.0786-0.14399-0.0111-0.28315-0.0468-0.30966-0.0795-0.0391-0.0484 0.0163-0.0476 0.29441 0zm0.22176-0.6789c0.0519-8e-3 0.0463-0.0302-0.0127-0.0571-0.059-0.027-0.14956-0.0452-0.20168-0.0405-0.0519 8e-3 -0.0462 0.0302 0.0127 0.0571 0.059 0.027 0.14972 0.0452 0.20168 0.0405zm0.85477 0.12683c0.40624 0.0738 0.71361 0.16357 0.90128 0.26366 0.32742 0.1746 0.86731 0.30866 1.1447 0.28413 0.26321-0.023 0.25072-0.0706-0.0898-0.33889-0.25542-0.20135-0.34787-0.23945-0.66895-0.27564-0.41874-0.0468-0.46199-0.0683-0.3062-0.15088 0.15194-0.0805-0.0709-0.21278-0.36569-0.21723-0.29687-8e-3 -1.1624 0.0746-1.2852 0.11794-0.21118 0.0738 0.0735 0.20865 0.66987 0.31683zm1.7249-0.0349c0.21795 0.0556 0.46452 0.05 0.4159-0.0103-0.0171-0.0206 0.0353-0.0317 0.11637-0.0238 0.0918 9e-3 0.10491 0 0.0347-0.0206-0.0621-0.0191-0.27785-0.0468-0.4795-0.0619-0.408-0.0294-0.44801 0.023-0.0875 0.11564zm-1.3035-1.96c-0.067 0.0381 6e-3 0.0738 0.28525 0.13818 0.20657 0.0476 0.3677 0.11143 0.35804 0.14175-0.01 0.0318 0.0743 0.0556 0.19725 0.0564 0.26417 0 0.95676-0.077 1.0874-0.1231 0.11687-0.0413 0.90977 0.0754 0.96335 0.14167 0.0211 0.0262 0.12003 0.05 0.21972 0.0532 0.27354 9e-3 0.16224-0.0611-0.24324-0.15476-0.19878-0.046-0.3792-0.10516-0.40088-0.13183-0.0217-0.027-0.0931-0.0762-0.15846-0.10913-0.092-0.0468-0.0847-0.0508 0.0311-0.0198 0.12795 0.0349 0.20498 0.0278 0.52276-0.0508 0.45119-0.11119 0.48909-0.17842 0.0994-0.17643-0.39635 0-0.79636 0.0643-0.72426 0.11286 0.0866 0.0579-0.31478 0.1308-0.53648 0.0971-0.1121-0.0167-0.31463-8e-3 -0.49648 0.0238-0.26561 0.0452-0.3824 0.0373-0.85946-0.0564-0.53682-0.10587-0.95517-0.14381-0.48816-0.0444 0.17281 0.0373 0.20988 0.0635 0.14306 0.10143zm1.4213 0.0643c0.0998 0 0.18657 0.0127 0.19294 0.0206 6e-3 8e-3 -0.0626 0.0206-0.1529 0.0286-0.0905 8e-3 -0.17727 0-0.19295-0.0206-0.0157-0.019 0.0532-0.0325 0.15291-0.0286zm1.8645 3.2964c0.1467 0.0548 0.42374 0.1108 0.61579 0.1246 0.31485 0.023 0.3615 0.0175 0.47431-0.0556 0.13764-0.0886 0.10783-0.18889-0.0406-0.13691-0.0513 0.0182-0.0325-0.0484 0.0435-0.14699 0.0964-0.12659 0.0913-0.22516-0.0168-0.3331l-0.15368-0.15326 0.4485-0.0278c0.89303-0.0556 0.33503-0.20786-0.59854-0.16334-0.40282 0.019-0.48707 0.0373-0.57072 0.12095-0.054 0.054-0.0465 0.18175 0.0163 0.28373 0.0629 0.10199 0.089 0.18635 0.0574 0.18754-0.17387 8e-3 -0.55967 0.14619-0.54356 0.19691 7.8e-4 0 0.12114 0.0484 0.26775 0.10302zm-1.2603-2.9866c0.0905-8e-3 0.14464-0.0389 0.12035-0.0691-0.0766-0.0942-0.2678-0.0445-0.28353 0.0738-5e-4 8e-3 0.0726 0 0.16317-8e-3zm2.7311 2.7843c0.0905-8e-3 0.14544-0.0381 0.1221-0.0667-0.0491-0.0603-0.23878-0.0875-0.31365-0.0445-0.0959 0.0548 0.0263 0.12587 0.19163 0.11127zm-0.94342-3.2714c0.42247-8e-3 0.51517-0.0421 0.26341-0.10064-0.27859-0.0651-0.92342 0.0111-0.69484 0.0822 0.0417 0.0127 0.23601 0.0214 0.43141 0.0183zm6.587 0.8193c0.22303-0.0532 0.26224-0.24373 0.0575-0.27905-0.12146-0.0206-0.13068-0.0127-0.0375 0.0317 0.0838 0.0405 0.0584 0.0931-0.0779 0.16167-0.21657 0.10881-0.19188 0.14524 0.0578 0.0854zm3.4421-1.0471c0.0505-0.0175 0.0749-0.0516 0.0546-0.0754-0.0218-0.0262-0.0616-0.0175-0.0988 0.0206-0.0797 0.0816-0.0695 0.0941 0.044 0.054zm10.513 6.577c0.0604-8e-3 0.083-0.0421 0.0506-0.0821-0.0324-0.0397-0.10812-0.0683-0.1683-0.0627-0.0605 8e-3 -0.0832 0.0421-0.0508 0.0821 0.0324 0.0397 0.10812 0.0683 0.16844 0.0627zm-6.5275-8.3255c0.0505-0.0175 0.0783-0.0484 0.0621-0.0683-0.0162-0.0198-0.0706-0.0214-0.12082 0-0.0505 0.0175-0.0782 0.0484-0.0619 0.0683 0.0162 0.0198 0.0706 0.0214 0.12065 0zm-42.195-4.5135 0.31458-0.20236-0.22399 0.18411c-0.19482 0.16014-0.38103 0.26834-0.39939 0.23208-3e-3 -6e-3 0.13574-0.10253 0.3088-0.21384zm5.5584-6e-3c5e-3 -0.0217 2e-3 -0.0861-6e-3 -0.14303-8e-3 -0.0569 0.17114-0.23295 0.39772-0.39112 0.22654-0.15818 0.40425-0.29709 0.39482-0.30868-0.01-0.0115 0.0745-0.0813 0.18663-0.15483 0.35464-0.23278 0.49758-0.44486 0.32677-0.48479-0.20353-0.0475 0.0965-0.57478 0.31618-0.5556 0.0821 7e-3 0.10384 3e-3 0.0483-9e-3 -0.27307-0.0584 0.86461-0.80557 1.4932-0.98065 0.33319-0.0928 0.37082-0.19905 0.0427-0.12038-0.25355 0.0608-0.21265-0.0335 0.0767-0.17657 0.154-0.0762 0.59482-0.24969 0.97954-0.38554 0.38469-0.13586 0.6838-0.26623 0.66468-0.28975-0.0371-0.0457 0.30069-0.17156 0.99247-0.36958 0.236-0.0675 0.37876-0.11964 0.31729-0.11576-0.0616 3e-3 -0.2348 0.0444-0.38518 0.0899-0.39358 0.11921-0.44371 0.0817-0.0671-0.0502 0.17514-0.0614 0.32344-0.12645 0.32946-0.14457 6e-3 -0.0182 0.21501-0.10719 0.46446-0.19798 0.28169-0.10252 0.35704-0.14676 0.19891-0.11679-0.14002 0.0265-0.37135 0.0672-0.51411 0.0905-0.27858 0.0453-0.27117 0.0421 0.80842-0.34304 0.23801-0.0849 0.4309-0.15667 0.42863-0.15946-0.0235-0.029-0.94049 0.11323-1.3994 0.21679-0.78089 0.1763-0.8135 0.173-0.20392-0.0205 0.82334-0.2614 3.0258-0.724 4.2778-0.8985 0.53274-0.0743 1.104-0.063 1.0772 0.0211-0.0111 0.0326 0.041 0.0546 0.11575 0.0487 0.074-6e-3 0.0608 0.0138-0.0294 0.0437-0.09 0.0299-0.12338 0.0671-0.0737 0.0825 0.0504 0.0156-7.9e-4 0.0248-0.1186 0.0209-0.16169-6e-3 -0.18092 6e-3 -0.0854 0.0488 0.0678 0.0309 0.076 0.0513 0.0178 0.0457-0.16354-0.0162-0.35394 0.30447-0.19846 0.33411 0.0832 0.0159 0.0454 0.0571-0.10308 0.11196-0.34668 0.12814-0.51228 0.34131-0.3032 0.39019 0.12703 0.0296 0.13528 0.0498 0.0353 0.0856-0.094 0.0336-0.0914 0.0435 0.01 0.0351 0.10523-9e-3 0.11526 0.0132 0.0402 0.0883-0.13243 0.13273 0.21658 0.4873 0.54044 0.54902 0.20959 0.0399 0.35441 0.0287 1.5507-0.12014 1.2075-0.15028 1.6507-0.18181 1.8514-0.13177 0.0406 0.0102 0.31602 0.0275 0.61221 0.0386 0.29621 0.0111 0.70112 0.0402 0.89985 0.0648 0.19872 0.0245 0.62494 0.042 0.94708 0.0391 0.66558-6e-3 0.88509 0.0545 0.62455 0.17288-0.20647 0.0938-0.20316 0.12845 0.0111 0.10959 0.3381-0.0299 0.33149 0.0865-0.0171 0.30061-0.20135 0.12371-0.47174 0.25748-0.60082 0.29727-0.13926 0.0429-0.17404 0.0736-0.0856 0.0753 0.0821 2e-3 0.1863 0.0462 0.23202 0.0991 0.0602 0.0701 0.20815 0.10916 0.54494 0.14434 0.5428 0.0568 0.7813 0.0296 0.83954-0.0956 0.0232-0.0498 0.12526-0.0981 0.22659-0.10708 0.10146-9e-3 0.26159-0.0348 0.35607-0.0575 0.11495-0.0275 0.15734-0.0253 0.12798 7e-3 -0.03 0.0329 0.0765 0.0359 0.33559 0.01 0.20875-0.0211 0.4747-0.0241 0.59122-6e-3 0.11653 0.0176 0.36242 0.0173 0.54648-7.9e-4 0.23913-0.0238 0.36531-0.0152 0.44234 0.0294 0.0594 0.0344 0.26691 0.0694 0.46152 0.0778 0.19462 8e-3 0.36549 0.0297 0.3797 0.0472 0.0142 0.0175 0.19181 0.0171 0.39466-5.3e-4 0.68226-0.0603 1.543-0.0619 2.0686-3e-3 0.41393 0.0457 0.66399 0.0461 1.2091 2e-3 0.5788-0.0468 0.87382-0.0436 1.8702 0.0214 1.3809 0.0899 2.2621 0.21363 2.1769 0.30549-0.0945 0.1018 0.10037 0.19221 0.77983 0.36157 0.35796 0.0893 0.66543 0.18026 0.68331 0.20228 0.0592 0.0729 0.84096 0.27723 1.0054 0.26268 0.1121-0.01 0.12067-0.0314 0.0279-0.0703-0.0735-0.0309-0.26889-0.12268-0.43408-0.20409-0.16524-0.0814-0.33528-0.15363-0.378-0.16053-0.11575-0.0187-0.25606-0.13254-0.17279-0.1399 0.0396-3e-3 0.28683 0.0387 0.54905 0.0939 0.33816 0.0711 0.4552 0.11585 0.40251 0.15368-0.0525 0.0377 0.0748 0.0879 0.4358 0.1718 0.28055 0.0652 0.52149 0.13761 0.5354 0.16103 0.0166 0.0286-5e-3 0.0293-0.0668 2e-3 -0.0506-0.0222-0.16311-0.0341-0.2502-0.0263-0.13368 0.0118-0.11685 0.0289 0.10971 0.11105 0.14735 0.0533 0.3696 0.18647 0.49379 0.29577 0.22122 0.19464 0.53459 0.30722 0.79192 0.28446 0.0712-6e-3 0.1486 9e-3 0.1723 0.0332 0.0234 0.0245 0.17762 0.17474 0.34208 0.33372 0.33489 0.32388 0.3053 0.44853-0.18715 0.78724-0.14242 0.0979-0.24991 0.22527-0.23894 0.28297 0.0111 0.0577-0.0209 0.10852-0.0703 0.1129-0.0497 4e-3 0.0269 0.0582 0.17049 0.11946 0.3061 0.13083 0.42801 0.25434 0.26529 0.26873-0.0668 6e-3 -0.0485 0.0816 0.043 0.18046 0.0875 0.0936 0.14575 0.19968 0.13162 0.2355-0.0169 0.0416 0.0451 0.0677 0.1693 0.0721 0.10797 3e-3 0.17875 0.0259 0.15783 0.049-0.0211 0.0233-5e-3 0.1048 0.0359 0.18138 0.0407 0.0766 0.0618 0.17111 0.0463 0.21005-0.0393 0.0994 0.34221 0.37419 0.58344 0.42015 0.11067 0.021 0.24358 0.0774 0.29551 0.12518 0.0537 0.0499 0.14353 0.0751 0.20983 0.0592 0.13733-0.0329 0.8508 0.0832 0.77552 0.1263-0.0288 0.0164-0.15386 0.0402-0.2781 0.0532-0.16697 0.0169-0.13274 0.0241 0.12954 0.0267 0.19543 2e-3 0.42784-0.0117 0.51643-0.0305 0.18697-0.0393 1.4042 0.0223 1.5966 0.0807 0.0989 0.03 0.12211 0.0287 0.0954-6e-3 -0.0194-0.025 0.0127-0.0496 0.0713-0.0548 0.0584-6e-3 0.0981 0.0162 0.0881 0.0474-0.0169 0.0525 0.40865 0.16641 1.0586 0.28377 0.1467 0.0265 0.21724 0.0526 0.15655 0.0579-0.061 6e-3 -0.23844-0.0182-0.39477-0.0525-0.83827-0.18333-1.9279-0.29984-2.0659-0.22091-0.026 0.0149 0.0564 0.0714 0.18256 0.12581 0.20175 0.0867 0.21048 0.10675 0.0721 0.16355-0.0868 0.0356-0.11303 0.0787-0.0584 0.0956 0.0548 0.017 0.0289 0.0787-0.0574 0.13702-0.19214 0.13017-0.53462 0.14946-0.96509 0.0544-0.30294-0.0669-0.63121-0.0381-0.39467 0.0347 0.19964 0.0614 0.26398 0.13578 0.20164 0.23204l-0.061 0.0931-0.32066-0.0568c-0.21178-0.0375-0.28595-0.069-0.21854-0.0926 0.0678-0.0238 0.0584-0.0401-0.0282-0.0488-0.0718-7e-3 -0.19338 0.0562-0.27022 0.14064-0.12798 0.14062-0.15592 0.14926-0.33257 0.10234-0.1061-0.0283-0.25264-0.037-0.32567-0.0194-0.0729 0.0176-0.27811 3e-3 -0.45565-0.0325-0.17747-0.0353-0.36698-0.0604-0.42096-0.0556-0.054 5e-3 -0.1448-0.0488-0.20193-0.1191-0.0571-0.0702-0.30581-0.2136-0.55252-0.31851-0.24677-0.10491-0.46895-0.21568-0.4937-0.24614-0.0248-0.0304-0.10923-0.0497-0.18744-0.0427-0.19814 0.0175-0.8016-0.0201-0.82834-0.0516-0.0127-0.0143-0.0935-9e-3 -0.18084 0.0121-0.12622 0.0302-0.15654 0.0209-0.14749-0.0461 0.01-0.0686-0.0198-0.0768-0.15861-0.0434-0.11557 0.0276-0.15574 0.025-0.1251-9e-3 0.0261-0.0287-0.019-0.0436-0.10749-0.0359-0.0838 7e-3 -0.24343-0.0186-0.35474-0.0577-0.11147-0.0392-0.32841-0.0839-0.48248-0.0993-0.24792-0.0249-0.25908-0.0233-0.097 0.0149 0.2165 0.051 0.34116 0.29031 0.20536 0.39448-0.0843 0.0648-0.0718 0.0636 0.14161-0.0137 0.43271-0.15593 0.71514-0.0189 0.36938 0.17926-0.19153 0.10972-0.21548 0.11348-0.4781 0.0748-0.15195-0.0224-0.34732-0.0827-0.4339-0.13402-0.15226-0.0903-0.68219-0.14737-0.7041-0.0758-6e-3 0.0192-0.0746 0.0406-0.15258 0.0475-0.1034 9e-3 -0.16262-0.033-0.21839-0.15494-0.0471-0.10309-0.14399-0.1833-0.25242-0.20858-0.098-0.0229-0.1708-0.0777-0.16435-0.12383 0.0111-0.078 0.0293-0.0808 0.32404-0.0487 0.17184 0.0187 0.47094 0.0179 0.6644-2e-3 0.19324-0.0198 0.4562-0.0371 0.58394-0.039 0.1278-2e-3 0.16484-6e-3 0.0826-7e-3 -0.0824-2e-3 -0.16338-0.0204-0.18026-0.0412-0.0168-0.0208-0.12256-0.0205-0.23458 5.3e-4 -0.11225 0.021-0.21601 0.0234-0.23056 6e-3 -0.0142-0.0181-0.0789-0.0283-0.14272-0.0225-0.064 6e-3 -0.0688 0.025-0.0111 0.0431 0.0672 0.0209 8e-3 0.0363-0.16404 0.0427-0.14813 6e-3 -0.27332-0.0108-0.27817-0.0361-0.0111-0.0585-0.53732-0.0575-0.76165 2e-3 -0.16156 0.0425-0.15988 0.0445 0.0344 0.0427 0.11208-8e-4 0.21722 0.0143 0.23315 0.0339 0.0161 0.0197-0.0144 0.0313-0.0683 0.026-0.27207-0.027-0.50749 0.27787-0.35733 0.46274 0.0766 0.0942-0.0543 0.14579-0.31451 0.12399-0.17126-0.0143-0.17677-0.0306-0.0452-0.13198 0.13669-0.10536 0.12797-0.12498-0.0981-0.22164-0.13671-0.0583-0.34802-0.12117-0.47-0.13968-0.12192-0.0185-0.24584-0.0633-0.27524-0.0995s-0.12081-0.0725-0.20307-0.0806c-0.10071-0.01-0.11051 3e-3 -0.0306 0.0392 0.0655 0.0298 0.0712 0.0582 0.0127 0.0634-0.22204 0.0196 0.0333 0.17886 0.31159 0.19422 0.19293 0.0106 0.31739 0.0503 0.39935 0.12731 0.19637 0.1843 0.0857 0.24929-0.53409 0.31372-0.3157 0.0328-0.56352 0.0418-0.58062 0.0206-0.0163-0.0202-0.34814-0.0543-0.73722-0.0757-0.70137-0.0387-0.94588-0.0752-0.89287-0.1335 0.0159-0.0166-0.14193-0.0267-0.34911-0.0224-0.66855 0.014-0.76172 8e-3 -0.87779-0.0598-0.0629-0.0363-0.067-0.0704-8e-3 -0.0756 0.0582-6e-3 0.0622-0.0229 0.01-0.0395-0.13655-0.0425 0.16579-0.0633 0.36537-0.0252 0.0905 0.0173 0.1883 0.0177 0.21744 7.9e-4 0.0802-0.0458-0.25546-0.11072-0.56437-0.1091-0.16842 7.9e-4 -0.32082-0.0306-0.39572-0.0817-0.0873-0.0595-0.076-0.0815 0.0409-0.0775 0.0894 3e-3 0.14767-0.0126 0.12988-0.0344-0.0178-0.0221-0.0961-0.037-0.17364-0.0331-0.0779 3e-3 0.0478-0.0209 0.27868-0.0548 0.31962-0.047 0.49761-0.0515 0.74535-0.0189 0.23082 0.0303 0.42232 0.0275 0.65855-0.01 0.41269-0.0653 0.61838-0.014 0.29577 0.0737-0.15687 0.0427-0.2238 0.10426-0.1983 0.18257 0.0463 0.14209 0.21062 0.18687 0.3413 0.093 0.1305-0.0937 0.31271-0.10287 0.31433-0.0159 7.7e-4 0.0394 0.1221 0.10276 0.26953 0.14079 0.23411 0.0603 0.27102 0.0606 0.2896 2e-3 0.0127-0.0402 0.10071-0.0658 0.21972-0.064 0.15399 2e-3 0.1586-2e-3 0.0211-0.0189-0.10696-0.0132-0.17281-0.0537-0.16638-0.10206 6e-3 -0.044-0.0481-0.086-0.12051-0.0932-0.0848-8e-3 -0.0943-0.0504-0.0268-0.11795 0.0819-0.0821 0.14448-0.0988 0.28873-0.0769 0.13481 0.0204 0.17527 0.0171 0.151-0.0128-0.0181-0.0224-0.0703-0.0379-0.11606-0.0343-0.0457 3e-3 -0.29615-0.0283-0.55662-0.0704-0.39852-0.0645-0.43215-0.0774-0.21225-0.0808 0.15687-2e-3 0.27997-0.0279 0.30764-0.0644 0.0827-0.10765 0.40578-0.0583 0.47053 0.0718 0.0325 0.0656 0.0715 0.0921 0.0878 0.0587 0.0158-0.0333 0.20092-0.16198 0.41182-0.28577 0.21091-0.1238 0.39343-0.28292 0.40562-0.35362 0.0191-0.11096-0.0171-0.13605-0.2641-0.18312-0.1575-0.03-0.29778-0.0688-0.31193-0.0862-0.0142-0.0174-0.19124-0.0282-0.39359-0.0239-0.20233 4e-3 -0.47443-0.0102-0.60468-0.0323-0.13034-0.0221-0.44254-0.0314-0.69405-0.0206-0.38953 0.0166-0.4798 6e-3 -0.60968-0.0776-0.0839-0.0534-0.20765-0.0883-0.27478-0.0775-0.0672 0.0109-0.13083-8e-3 -0.14114-0.0423-0.0196-0.065-0.34876-0.096-0.49085-0.0461-0.11845 0.0416-0.0488 0.10196 0.23623 0.20443 0.31191 0.11218 0.3426 0.14954 0.13717 0.1677-0.25265 0.0224-0.19125 0.19676 0.0995 0.28242 0.13894 0.0409 0.3023 0.07 0.36334 0.0646 0.0742-6e-3 0.0922 0.0168 0.0537 0.0702-0.0409 0.0576-8e-3 0.0898 0.11922 0.11555 0.0967 0.0196 0.21923 0.078 0.27266 0.12986 0.0857 0.0833 0.052 0.10025-0.29232 0.14651-0.21411 0.0288-0.50197 0.0438-0.64011 0.0329-0.13795-0.0106-0.30381-0.0107-0.36871-1.1e-4 -0.0649 0.0106-0.18076-0.0179-0.25751-0.0635-0.14179-0.0841-0.53719-0.11638-0.70501-0.0575-0.0508 0.0177-0.0464 0.0891 0.01 0.15838l0.10244 0.12601-0.37508-0.0654c-0.2063-0.036-0.425-0.0611-0.486-0.0558-0.061 6e-3 -0.29593-0.0228-0.52209-0.0626-0.31088-0.0546-0.47359-0.0608-0.66698-0.0255-0.14068 0.0258-0.33969 0.0411-0.44228 0.0341-0.10254-7e-3 -0.28508-0.0139-0.40569-0.0156-0.12067-2e-3 -0.27115-0.0331-0.33449-0.0698-0.0634-0.0367-0.15177-0.054-0.19626-0.0383-0.0446 0.0156-0.10696-3e-3 -0.13845-0.0422-0.0675-0.0832-0.44046-0.10758-0.50808-0.0333-0.0366 0.0401-0.0934 0.0445-0.25792 0.0195-0.11622-0.0176-0.20143-0.02-0.18938-6e-3 0.0127 0.0148-0.0686 0.0132-0.17918-3e-3 -0.25192-0.0383-0.33184-0.12585-0.13147-0.14356 0.0832-7e-3 0.20092-0.0571 0.26182-0.11041 0.061-0.0534 0.1186-0.0803 0.12813-0.0598 0.0418 0.0897 0.10685 0.088 0.34906-9e-3 0.14161-0.0567 0.28704-0.1056 0.32295-0.10876 0.036-3e-3 0.13813 0.0838 0.22702 0.1933 0.18168 0.22367 0.33477 0.24134 0.4596 0.053 0.058-0.0876 0.24823-0.17076 0.61208-0.26752 0.29034-0.0771 0.5353-0.17154 0.54445-0.20966 0.01-0.0382 0.0681-0.10876 0.1313-0.157 0.0632-0.0483 3e-3 -0.0312-0.13416 0.0378-0.3129 0.1577-0.61307 0.20831-0.728 0.12276-0.19285-0.14353-0.27512-0.1578-0.5429-0.094-0.32144 0.0766-0.37402 0.0811-0.32604 0.0284 0.0211-0.0232-0.0127-0.0375-0.0757-0.0321-0.0627 6e-3 -0.11193 0.0524-0.1094 0.10406 3e-3 0.0601-0.0567 0.0919-0.16572 0.0881-0.24714-9e-3 -0.2401-0.0314 0.0813-0.26353 0.15975-0.11535 0.2942-0.23044 0.29877-0.25573 4e-3 -0.0261 0.0992-0.0428 0.21792-0.0387 0.17403 6e-3 0.19981 0.023 0.15194 0.10024-0.0317 0.051 0.12289-0.0163 0.34379-0.14922 0.40442-0.24392 0.45708-0.35741 0.15338-0.33058-0.22648 0.02-0.26353-0.051-0.0528-0.10126 0.36529-0.0873 0.68517-0.35007 0.58147-0.47773-0.0268-0.0332 0.0263-0.0516 0.13749-0.0477 0.26588 9e-3 0.18166-0.0417-0.218-0.13178-0.36646-0.0826-0.42078-0.14853-0.11368-0.13786 0.11796 4e-3 0.14511-9e-3 0.08-0.0387-0.0587-0.0267 0.01-0.0817 0.16938-0.1353 0.35871-0.12078 0.7551-0.39162 0.69017-0.47154-0.0288-0.0353-0.17072-0.0888-0.31555-0.11869-0.54121-0.11176-0.86922-0.29111-0.664-0.36303 0.13701-0.0482 1.0011 0.0828 1.1569 0.17515 0.16448 0.0975 0.59755 0.14151 0.71752 0.0729 0.0552-0.0315 0.17298-0.0416 0.36442-0.0311 0.17105 9e-3 0.4397-0.0104 0.67928-0.0502 0.21794-0.0361 0.44205-0.0662 0.49806-0.0667 0.0561-5.3e-4 0.0594-0.0202 8e-3 -0.0438-0.10006-0.0454 0.0502-0.0596 1.1741-0.11149 0.7278-0.0336 1.5219-0.22418 1.426-0.34229-0.0336-0.0416-0.024-0.13185 0.0217-0.20077 0.15401-0.23242-0.4119-0.49094-1.1278-0.51501-0.7343-0.0248-1.6961 0.1266-1.6934 0.26642 7.8e-4 0.0764-0.18142 0.12384-0.70706 0.18337-0.65794 0.0745-0.84692 0.0453-0.60452-0.0933 0.0663-0.0378 0.0883-0.10837 0.0489-0.15672-0.0393-0.0483-0.0278-0.0918 0.0256-0.0965 0.0533-5e-3 0.0962-0.0415 0.0954-0.082-7.8e-4 -0.0684-0.055-0.0673-0.79155 0.0163-0.4346 0.0494-0.92422 0.0904-1.088 0.0913-0.27677 2e-3 -0.30664-0.012-0.42216-0.18921-0.11671-0.17903-0.14623-0.19223-0.4907-0.21392-0.45999-0.0291-0.78004 7.9e-4 -1.4562 0.1375-0.34366 0.0693-0.63114 0.10472-0.8035 0.0989-0.294-0.01-0.69252 0.13551-0.72371 0.26405-0.01 0.0377-0.21022 0.12236-0.44685 0.18831-0.23665 0.0659-0.46944 0.14806-0.51732 0.18244-0.048 0.0344-0.16111 0.0691-0.25158 0.0771-0.13368 0.0117-0.14717 2e-3 -0.072-0.0519 0.11051-0.0794-0.0224-0.0713-0.29271 0.0175-0.10891 0.0358-0.15846 0.0923-0.11193 0.12705 0.0587 0.0438 0.0372 0.0559-0.0718 0.0401-0.20311-0.0293-1.033 0.0625-1.4738 0.16319-0.73319 0.16732-0.79028 0.18518-0.72675 0.22736 0.036 0.0239-3e-3 0.0448-0.0856 0.0464-0.083 2e-3 -0.2378 0.0372-0.34399 0.0789-0.1061 0.0417-0.24396 0.0802-0.30614 0.0853-0.0622 6e-3 -0.0521-0.0129 0.0229-0.0402 0.0821-0.0299 0.084-0.0452 5e-3 -0.0387-0.0722 6e-3 -0.1787 0.054-0.23662 0.10653-0.091 0.0825-0.16103 0.0846-0.19879 6e-3 -0.0111-0.0237-1.2776 0.10513-1.7718 0.18033-0.17257 0.0263-0.52048 0.12506-0.77307 0.21958-0.25266 0.0945-0.66272 0.21671-0.91128 0.27154-0.44574 0.0983-1.4081 0.18951-1.6971 0.16084-0.0816-8e-3 -0.27169 0.0224-0.42244 0.0678-0.15083 0.0453-0.31335 0.075-0.36129 0.0658-0.0482-9e-3 -0.072 2e-3 -0.0539 0.0244 0.0357 0.0439-0.98406 0.44384-1.1746 0.46068-0.12844 0.0113-0.34302 0.11564-0.94112 0.45747-0.22737 0.12993-0.6297 0.31088-0.89414 0.4021-0.2644 0.0912-0.54474 0.22251-0.62298 0.29176-0.28346 0.25096-0.97779 0.20206-1.0595-0.0746-0.026-0.0881-0.0716-0.23679-0.10145-0.33026-0.0298-0.0935-0.0352-0.19084-0.0127-0.21634 0.0233-0.0256-0.13226-0.0842-0.34556-0.13038-0.28061-0.0608-0.42858-0.12696-0.5356-0.23956-0.081-0.0856-0.14401-0.17335-0.13941-0.1951zm10.333-5.5103c0.0703-0.0328 0.10458-0.0859 0.0763-0.11814-0.036-0.0402-0.0776-0.026-0.13494 0.0458-0.10686 0.13393-0.0977 0.14526 0.0587 0.0724zm5.0471 3.1756c0.11067 3e-3 0.16454-0.0145 0.1383-0.0469-0.0238-0.0291-0.11718-0.0466-0.20765-0.0386-0.0905 8e-3 -0.15257 0.0291-0.13813 0.0469 0.0142 0.0177 0.10796 0.0352 0.20762 0.0387zm12.882 4.6467c0.0487-0.11106 0.0198-0.14649-0.0881-0.10857-0.0505 0.0175-0.059 0.0675-0.0195 0.11068 0.0697 0.0758 0.0729 0.0757 0.10761-2e-3zm4.2597-3.9916c0.21664 0.0481 0.22694 0.0467 0.24968-0.0344 0.0252-0.0899-0.38955-0.23308-0.62242-0.2148-0.16899 0.0133 0.09 0.18659 0.37274 0.24929zm-20.337 15.572c0.0409-0.0143 0.18454-0.0175 0.31928-8e-3 0.37032 0.0286 0.47506 8e-3 0.47016-0.0935-6e-3 -0.1196 0.25841-0.12119 1.2044-8e-3 0.41059 0.0492 0.84144 0.0746 1.0168 0.0587 0.16734-0.0151 0.34392-0.0143 0.39231 4.7e-4 0.0484 0.0151 0.17534 0.0111 0.28202-9e-3 0.24059-0.0452 0.45855 0.054 0.48149 0.21945 0.0127 0.0944-0.0192 0.11064-0.17295 0.0873-0.10395-0.0159-0.177-0.0143-0.16228 8e-3 0.0142 0.0182-0.0584 0.0421-0.16241 0.0532-0.10384 0.0111-0.59894 0.0691-1.0999 0.12889l-0.9108 0.10849-0.74361-0.1258c-0.63236-0.10698-0.76197-0.14572-0.8662-0.25889-0.0675-0.073-0.0893-0.14476-0.0483-0.15905zm-10.007-17.72c0.26251-0.11004 1.1348-0.40282 1.2236-0.41068 0.10352-9e-3 -0.6018 0.28362-0.70902 0.29435-0.0507 6e-3 -0.21015 0.0564-0.35464 0.11425-0.30815 0.12318-0.45327 0.12506-0.15973 2e-3zm7.0664 8.6057c0.095 0.0183 0.15226 0.0445 0.12765 0.0579-0.0248 0.0143-0.10244-5.6e-4 -0.17259-0.0325-0.10145-0.046-0.0923-0.0516 0.0451-0.0254zm9.3223 10.048c0.0605-8e-3 0.12352 8e-3 0.14067 0.0286 0.0171 0.0214-0.0265 0.0325-0.0965 0.0254-0.0703-8e-3 -0.13354-0.0198-0.14067-0.0286-6e-3 -9e-3 0.0363-0.0206 0.0965-0.0254zm1.9156-2.537c0.16014 0.0111 0.2693 0.0333 0.24239 0.0484-0.027 0.0151-0.15798 8e-3 -0.2913-0.0206-0.23175-0.0468-0.22957-0.0476 0.0489-0.0278zm5.0301 4.5637c0.19733-0.0198 0.98993 0.0262 0.93906 0.0548-0.0184 0.0103-0.27608 8e-3 -0.57272-9e-3 -0.29658-0.0151-0.46145-0.0365-0.36632-0.046zm-9.0438-11.827c0.0447-0.0159 0.15606-0.0111 0.24794 0.0103 0.092 0.0214 0.25691 0.0222 0.36701 0 0.1378-0.0262 0.21492-0.0191 0.24765 0.0206 0.0262 0.0325 0.0917 0.0548 0.14559 0.05 0.18916-0.0167 0.30682 0.0877 0.18042 0.16-0.0904 0.0516-0.17122 0.0651-0.27585 0.0452-0.0814-0.0151-0.23801-0.0198-0.34804-0.0103-0.29094 0.0262-0.76485-0.20691-0.56453-0.27707zm-3.9212-6.164c0.095 0.0179 0.15242 0.0441 0.12765 0.0583-0.0248 0.014-0.10244-5.3e-4 -0.17244-0.0326-0.10145-0.0463-0.0922-0.0516 0.0451-0.0257zm0.4307 0.0717c0.11908 4e-3 0.19648 0.0189 0.17162 0.033-0.0248 0.0141-0.12226 0.0109-0.21669-7e-3 -0.13638-0.0263-0.12734-0.0315 0.0449-0.0258zm5.3874 6.2135c0.10179-0.01 0.2287 0 0.28212 0.0135 0.12305 0.0381-0.0224 0.0508-0.27412 0.0246-0.16626-0.0175-0.16734-0.023-8e-3 -0.0373zm1.1433 0.28627c0.0567-8e-3 0.14701 8e-3 0.2003 0.0206 0.0536 0.0167 0.0202 0.0373-0.0739 0.0452-0.0941 9e-3 -0.18415-8e-4 -0.20031-0.0206-0.0162-0.0198 0.0171-0.0405 0.0739-0.0452zm-4.9863-6.6743c0.13494-0.0324 0.14607-0.0276 0.0675 0.0287-0.10686 0.0767-0.16506 0.0889-0.20284 0.0425-0.0142-0.0177 0.0465-0.0498 0.13511-0.071zm5.3605 6.3309c0.0905-8e-3 0.1773 0 0.19296 0.0206 0.0158 0.0191-0.0531 0.0325-0.1529 0.0286-0.0998 0-0.18657-0.0127-0.19294-0.0206-6e-3 -8e-3 0.0626-0.0206 0.1529-0.0286zm-5.0904-6.4268c0.0322-0.0185 0.16171-0.0421 0.28782-0.0525 0.21173-0.0176 0.21668-0.0148 0.0638 0.0359-0.17788 0.0591-0.44837 0.0719-0.35172 0.0167zm5.6618 5.7152c0.0491-0.0373 0.22545-0.0754 0.39659-0.0859 0.17768-0.0103 0.2942-0.0365 0.27504-0.0611-0.0202-0.0262 0.0268-0.0254 0.11717 0 0.20898 0.0627 0.22346 0.0966 0.0475 0.11214-0.0827 8e-3 -0.1267 0.0421-0.0979 0.0762 0.19572 0.23691 0.1866 0.26476-0.093 0.28945-0.41759 0.0373-0.84207-0.18175-0.64534-0.33246zm-4.6905-5.9237c0.0873 3e-3 0.31208-0.0532 0.49988-0.12491 0.18781-0.0717 0.37108-0.12475 0.40726-0.11786 0.0362 7e-3 0.23926-0.0267 0.45133-0.0747 0.23317-0.0528 0.42185-0.076 0.4775-0.0587 0.0507 0.0158-0.01 0.0375-0.13386 0.0486-0.12415 0.011-0.21174 0.0372-0.19462 0.0583 0.0171 0.021-0.039 0.0335-0.12445 0.0275-0.0857-6e-3 -0.047 6e-3 0.0864 0.0252 0.15368 0.0228 0.20651 0.0483 0.1451 0.0699-0.0534 0.0187-0.10394 0.0253-0.11256 0.0148-8e-3 -0.0106-0.13638 0.0109-0.28397 0.0482-0.41593 0.10477-1.2868 0.1882-1.3356 0.12798-0.0222-0.0274 0.031-0.0472 0.11795-0.0442zm4.8102 4.5182c0.1213-0.0108 0.29928-0.0473 0.39535-0.0813 0.13718-0.0486 0.2493-0.0571 0.52419-0.0399 0.1923 0.0121 0.41907 0.0202 0.50391 0.0183 0.085-2e-3 0.25512 0.0124 0.3784 0.0318 0.12318 0.0195 0.31832 0.0378 0.43353 0.041 0.28382 7e-3 0.84184 0.18868 0.83072 0.26981-4e-3 0.036 0.0515 0.0714 0.12416 0.0787 0.0732 7e-3 0.11257-0.0122 0.0873-0.0432-0.0252-0.031-3e-3 -0.0602 0.0505-0.0649 0.16304-0.0145 0.44928 0.0708 0.40425 0.12033-0.0252 0.0276 0.0195 0.0363 0.10827 0.0212 0.0829-0.014 0.41432 0.0245 0.73645 0.0858 0.71826 0.1366 1.0084 0.14553 1.2197 0.0375 0.13226-0.0676 0.19362-0.0757 0.36947-0.049 0.40397 0.0613 0.56115 0.14556 0.48206 0.25837-0.055 0.0782-0.0379 0.10574 0.067 0.10789 0.18218 3e-3 0.27296 0.25468 0.12798 0.35341-0.0587 0.0397-0.0821 0.0856-0.0525 0.10159 0.12526 0.0675-0.0212 0.28826-0.20455 0.30866-0.40586 0.0452-0.4527 0.0571-0.54509 0.13532-0.0901 0.0762-0.11352 0.0762-0.4741-8e-3 -0.21572-0.05-0.5029-0.08-0.66606-0.0698-0.15765 0.01-0.29796 0-0.31155-0.0135-0.0144-0.0167-0.0659-0.0159-0.11606 0-0.0504 0.0175-0.11623 0-0.14639-0.0333-0.0397-0.0476-0.0689-0.0508-0.10653-0.0111-0.089 0.0936-0.94596 0.0151-1.0353-0.0948-0.0177-0.0222-0.0706-0.0262-0.11765-0.0103-0.0468 0.0167-0.12973 0.0159-0.18392-8e-4 -0.0543-0.0167-0.21357-0.0206-0.35389-8e-3 -0.38112 0.0341-0.82588-0.15357-0.91827-0.38667-0.0468-0.11849-0.12114-0.18452-0.21797-0.19411-0.0962-9e-3 -0.17503-0.0789-0.22879-0.20114-0.0666-0.15123-0.13686-0.20016-0.37138-0.2581-0.15918-0.0394-0.30746-0.0937-0.32954-0.12091-0.0221-0.0272-0.0817-0.0458-0.13226-0.0413-0.0957 9e-3 -0.47525-0.12785-0.52429-0.18823-0.0158-0.019 0.0713-0.0433 0.19276-0.054zm2.3321 1.3455c0.094-8e-3 0.12638-0.0286 0.0721-0.046-0.0544-0.0167-0.13702-0.0175-0.18389-8e-4 -0.12685 0.0445-0.0808 0.0635 0.11193 0.0468zm-5.664-5.8194c0.12876-0.01 0.1621-3e-3 0.084 0.016-0.0706 0.0174-0.16631 0.0245-0.21264 0.0156-0.0463-9e-3 0.0111-0.023 0.12845-0.0318zm0.40024-0.15481c0.064-6e-3 0.0988 9e-3 0.0776 0.032-0.0211 0.0232-0.0602 0.044-0.0868 0.0464-0.0265 2e-3 -0.0616-0.0121-0.0776-0.032-0.0161-0.02 0.0229-0.0408 0.0868-0.0464zm2.3503 2.9635c0.0336-0.019 0.18874-0.0453 0.34503-0.0584 0.24929-0.0209 0.26392-0.0171 0.1194 0.0309-0.18103 0.0602-0.56182 0.0828-0.46432 0.0275zm-2.0151-3.1333c0.1653-0.073 1.0443-0.1995 0.99279-0.14291-0.0229 0.0252 0.024 0.0275 0.11511 6e-3 0.0847-0.0202 0.22811-0.0261 0.3188-0.0128 0.0908 0.0132 0.42866 2e-3 0.75104-0.0239 0.32241-0.0263 0.62787-0.0438 0.67887-0.0387 0.0511 6e-3 0.27269-0.0391 0.49266-0.0982 0.29092-0.0781 0.39533-0.0929 0.38306-0.0542-0.0471 0.14853-1.4321 0.31874-3.1821 0.3911-0.52412 0.0217-0.64544 0.0159-0.55011-0.0262zm0.17052 0.22208c0.0706 7e-3 0.13352 0.0198 0.14068 0.0287 6e-3 9e-3 -0.0366 0.0203-0.0965 0.0256-0.0605 6e-3 -0.12384-8e-3 -0.14099-0.0287-0.0171-0.021 0.0263-0.0326 0.0968-0.0257zm0.12639-0.50578c0.0336-0.019 0.21397-0.0475 0.4004-0.0633 0.28701-0.0243 0.3137-0.0204 0.17429 0.026-0.18173 0.0604-0.67262 0.0923-0.57479 0.0374zm7.9755 8.9088c0.0638-0.0222 0.15353-0.0333 0.19939-0.0246 0.12447 0.0238 0.01 0.0722-0.16444 0.0683-0.12131 0-0.1283-0.0111-0.0349-0.0437zm-6.7236-8.5057c0.019-2e-3 0.10955 0.0144 0.20112 0.0359 0.12701 0.0296 0.13575 0.0463 0.0366 0.0701-0.0773 0.0186-0.15861 4e-3 -0.20111-0.0359-0.0398-0.0369-0.0556-0.0684-0.0366-0.0701zm12.193 14.807c0.0957-0.023 0.30551-8e-3 0.56024 0.0468 0.33735 0.0691 0.39118 0.0952 0.31408 0.15056-0.0557 0.0397-0.23221 0.0746-0.44016 0.0858-0.31666 0.0175-0.35767 8e-3 -0.46721-0.11381-0.0811-0.0897-0.0703-0.14484 0.033-0.1696zm-5.9913-7.7626c0.13416-0.0706 0.31051-0.13397 0.39193-0.14111 0.19516-0.0175 0.67722 0.0966 0.74701 0.17635 0.0618 0.0722-0.20832 0.11111-0.34816 0.05-0.0627-0.027-0.13845-8e-3 -0.23415 0.0651-0.0871 0.0643-0.18136 0.0927-0.24522 0.073-0.0571-0.0175-0.0511-0.0508 0.0111-0.073 0.0772-0.0278 7.8e-4 -0.0381-0.22578-0.0309l-0.34117 0.01zm-5.6143-6.8465c0.0537-0.0189 0.12733-0.0285 0.16382-0.0216 0.0363 7e-3 -8e-4 0.0291-0.0856 0.049-0.17332 0.0416-0.2243 0.0236-0.0784-0.0275zm6.9389 8.058c0.0854-8e-3 0.16186-0.027 0.1698-0.0445 8e-3 -0.0167 0.18881-0.085 0.40187-0.15191 0.39728-0.1246 1.451-0.25492 1.3737-0.16984-0.0211 0.023-0.17085 0.054-0.33277 0.069-0.35558 0.0325-1.0276 0.20945-1.1614 0.30588-0.0533 0.0381-0.077 0.10437-0.0529 0.14659 0.0602 0.10532-0.0964 0.10984-0.3164 9e-3 -0.24742-0.11318-0.26504-0.14857-0.082-0.16476zm-2.649-5.3713c0.0505-0.0175 0.0992-0.0274 0.10891-0.0217 0.16284 0.0973 0.16702 0.1251 0.0182 0.11995-0.19807-7e-3 -0.25723-0.0527-0.127-0.0983zm3.6556 4.4161c0.10545 0 0.15876 0.0206 0.11845 0.0373-0.0402 0.0167-0.0982 0.0484-0.12877 0.0706-0.0306 0.0222-0.0839 8e-3 -0.11845-0.0373-0.0452-0.0556-0.01-0.0754 0.12878-0.0706zm0.36809 0.0254c0.20926-0.0571 0.24365-0.0556 0.29661 0.01 0.0378 0.0468 0.0989 0.0603 0.16544 0.0365 0.0661-0.023 0.0888-0.0182 0.0606 0.0127-0.0248 0.027-0.1048 0.0437-0.17816 0.0357-0.0733-8e-3 -0.15479 0.0111-0.1817 0.0405-0.0359 0.0397-0.0938 0.0373-0.22402-9e-3 -0.14752-0.0524-0.13781-0.0722 0.0612-0.12619zm-3.0707-3.8468c0.0605-6e-3 0.12352 8e-3 0.14067 0.0287 0.0171 0.0211-0.0264 0.0326-0.0965 0.0256-0.0703-7e-3 -0.13368-0.0198-0.14082-0.0287-6e-3 -9e-3 0.0365-0.0203 0.0967-0.0256zm4.1477 4.863c0.0528 0.023 0.0743 0.0548 0.0471 0.0698-0.0266 0.0151-0.07 0-0.0962-0.0421-0.0282-0.0429-0.01-0.0532 0.0483-0.0278zm-3.627-4.8695c0.0811-0.0377 0.14178-0.046 0.16121-0.0221 0.0356 0.0437-0.13099 0.11314-0.2275 0.0948-0.0349-6e-3 -5e-3 -0.0395 0.0663-0.0727zm1.6671 1.9661c6e-3 -0.0645-0.0279-0.18857-0.0743-0.2757-0.11082-0.20715-0.0913-0.21811 0.5019-0.28094 0.16018-0.0169 0.23469-0.0425 0.17676-0.0605-0.0582-0.0181-0.2498-7e-3 -0.45647 0.0253-0.3143 0.0498-0.36365 0.0474-0.4184-0.02-0.0551-0.0675 7.9e-4 -0.082 0.48614-0.12488 0.48705-0.0431 0.55524-0.0398 0.61113 0.0291 0.0347 0.0425 0.16617 0.0906 0.29219 0.10677 0.1262 0.0161 0.20314 0.0443 0.17127 0.0625-0.032 0.0182-0.13685 0.0213-0.23338 6e-3 -0.20322-0.0309-0.35424 0.0139-0.38185 0.11327-0.0144 0.0507 0.036 0.0647 0.18564 0.0514 0.25654-0.0226 0.6476 0.15214 0.57377 0.2565-0.0991 0.13997-0.67516 0.3731-0.99089 0.40104-0.26877 0.0238-0.32104 0.0135-0.38269-0.073-0.0384-0.0553-0.0666-0.15317-0.0608-0.21767zm1.2365-0.0307c0.0248-0.0141-0.0327-0.0403-0.12764-0.0582-0.13718-0.0259-0.14639-0.0206-0.0451 0.0257 0.0702 0.0321 0.14796 0.0468 0.17242 0.0325zm1.6993 1.9252c0.0491-0.0524 0.0805-0.0516 0.19103 0 0.0726 0.0357 0.29017 0.0896 0.48323 0.11992 0.26719 0.0421 0.32873 0.0683 0.25755 0.10857-0.0712 0.0405-0.14783 0.0429-0.32096 0.0103-0.12511-0.0238-0.29792-0.0373-0.38409-0.0294-0.17688 0.0159-0.31743-0.11548-0.22679-0.21159zm-1.7984-2.3636c0.13288-0.0118 0.36012 0.077 0.29399 0.11479-0.0241 0.0137-0.12607-4e-3 -0.22725-0.0398-0.12749-0.0448-0.14796-0.0678-0.0675-0.0749zm-6.0702-7.6312c0.0548-0.0191 0.16588-0.0222 0.24707-6e-3 0.10417 0.0198 0.0768 0.0326-0.0928 0.0431-0.27366 0.0171-0.29346 0.0125-0.15447-0.0363zm5.916 7.2957c0.0605-6e-3 0.12876 0.0138 0.15194 0.0425 0.0233 0.0287 7.7e-4 0.0666-0.049 0.0842-0.0505 0.0176-0.1186-2e-3 -0.1518-0.0425-0.0333-0.041-0.0111-0.0789 0.0489-0.0842zm0.302 0.11876c-0.01-0.0832 0.0171-0.0857 0.35438-0.0324 0.35968 0.0568 0.37462 0.094 0.049 0.1228-0.30233 0.0267-0.39224 6e-3 -0.40362-0.0904zm-0.20747-0.46092c0.0556-0.0195 0.21665-6e-3 0.35784 0.0307 0.23509 0.0606 0.24666 0.0731 0.13717 0.14861-0.0658 0.0453-0.17456 0.0873-0.24185 0.0933-0.16042 0.0142-0.38419-0.22671-0.2533-0.27261zm0.53465 0.67446c0.0638-6e-3 0.0988 9e-3 0.0776 0.032-0.0211 0.0232 0.0142 0.0376 0.0776 0.032 0.0638-6e-3 0.14432 0.0244 0.17864 0.0665 0.0521 0.0642 0.0294 0.0718-0.13861 0.0463-0.22988-0.0349-0.3696-0.16129-0.1953-0.1767zm7.8789 9.139c0.0474-0.0167 0.10523 0 0.12876 0.0444 0.0235 0.0413 3e-3 0.0778-0.0437 0.0823-0.12114 0.0111-0.18895-0.0904-0.0851-0.12683zm-7.2141-9.4628c0.357-0.0391 0.42725-0.0315 0.76574 0.0828 0.20513 0.0692 0.35992 0.13318 0.34435 0.14208-0.0158 9e-3 -0.1486 0.0383-0.29547 0.0652-0.19533 0.036-0.29842 0.0348-0.38337-3e-3 -0.0683-0.0309-0.0638-0.0476 0.0111-0.0402 0.07 7e-3 0.0327-0.0253-0.083-0.0716-0.17902-0.0717-0.22173-0.0745-0.28724-0.0187-0.0652 0.0554-0.10685 0.0518-0.27104-0.0237-0.18815-0.0865-0.18217-0.0905 0.19898-0.1323zm-7.7e-4 0.33017c0.0874-0.05 0.20565-0.0479 0.32368 6e-3 0.0635 0.0289 0.0571 0.0451-0.0159 0.0378-0.0695-7e-3 -0.11257 5e-3 -0.0953 0.0259 0.0171 0.021-0.0183 0.0427-0.0784 0.0481-0.12337 0.011-0.21653-0.0705-0.13449-0.11742zm7.8443 9.5247c0.12923-0.01 0.16209 0 0.084 0.0159-0.0706 0.0175-0.16628 0.0246-0.21219 0.0159-0.0462-9e-3 0.0111-0.023 0.12843-0.0318zm0.21178 0.0556c0.0605-8e-3 0.12383 8e-3 0.14097 0.0286 0.0172 0.0214-0.0263 0.0325-0.0968 0.0254-0.0703-8e-3 -0.13351-0.0198-0.14066-0.0286-6e-3 -9e-3 0.0365-0.0206 0.0965-0.0254zm-4.0651-7.4616c0.0629-0.16921 0.53667-0.18945 0.51363-0.0222-8e-3 0.0524-0.098 0.0828-0.28388 0.0939-0.15021 9e-3 -0.27055 0.0151-0.26723 0.0143 3e-3 -4.8e-4 0.0202-0.0397 0.0376-0.0864zm6.3367 7.7263c0.0905-8e-3 0.17726 7.9e-4 0.19293 0.0206 0.0157 0.019-0.0531 0.0325-0.15291 0.0286-0.0998 0-0.18657-0.0127-0.19293-0.0206-6e-3 -8e-3 0.0625-0.0206 0.15289-0.0286zm0.45724 0.0564c0.0502-0.0175 0.10545-0.0151 0.1224 8e-3 0.0172 0.0206-0.0182 0.0429-0.0782 0.0484-0.0605 8e-3 -0.11543 0-0.12257-8e-3 -6e-3 -9e-3 0.0283-0.0302 0.0784-0.0484zm-6.2375-8.0414c0.10459-0.0484 0.13655-0.0492 0.17557-7.9e-4 0.0262 0.0325-0.0263 0.0651-0.11684 0.073-0.0905 8e-3 -0.16949 9e-3 -0.17556 7.9e-4 -6e-3 -8e-3 0.0465-0.0405 0.11669-0.073zm0.28606 0.25643c0.17279-0.0198 0.20692-0.0135 0.1375 0.0262-0.0608 0.0349-0.13909 0.0437-0.22961 0.0262-0.0905-0.0175-0.059-0.0349 0.0921-0.0524zm6.3392 7.828c0.0703 8e-3 0.13369 0.0198 0.14084 0.0286 6e-3 9e-3 -0.0365 0.0206-0.0967 0.0254-0.0605 8e-3 -0.12352-8e-3 -0.14067-0.0286-0.0172-0.0206 0.0265-0.0325 0.0965-0.0254zm-5.3317-9.1684c0.0605-8e-3 0.13035 0.0159 0.15544 0.0468 0.0252 0.031-0.0111 0.0508-0.082 0.0437-0.0703-8e-3 -0.14004-0.0278-0.15527-0.0468-0.0159-0.0191 0.0217-0.0381 0.0817-0.0437zm8.808 9.0358c0.0905-8e-3 0.15353-0.0278 0.14003-0.0444-0.0273-0.0333 0.87882-0.20072 1.2824-0.23635 0.14432-0.0127 0.49122-0.0854 0.77074-0.16143 0.27949-0.0762 0.62696-0.15468 0.77211-0.17492 0.14511-0.0198 0.31261-0.0627 0.3721-0.0948 0.12384-0.0667 0.34193-0.0961 0.29045-0.0397-0.0342 0.0373 0.46956-0.0405 0.80176-0.1246 0.1021-0.0262 0.1837-0.027 0.20316 0 0.0178 0.0222-0.0421 0.0468-0.13336 0.0548-0.0913 8e-3 -0.2392 0.0373-0.32876 0.0651-0.28608 0.0892-1.5329 0.36651-2.026 0.45064-0.2622 0.0445-0.58853 0.10802-0.72524 0.14056-0.27922 0.0667-1.5466 0.22834-1.5693 0.2004-8e-3 -0.0103 0.0594-0.0246 0.14971-0.0325zm-9.4001-12.071c0.0375-0.0227 0.0652-0.076 0.0618-0.11834-3e-3 -0.0508 0.0303-0.038 0.1005 0.0374 0.0578 0.0629 0.0681 0.12779 0.0212 0.14421-0.11606 0.0407-0.26822-0.0118-0.18378-0.0632zm9.8819 11.627c0.0294-0.0167 0.13195-0.0373 0.22799-0.0445 0.14322-0.0119 0.14416 0 6e-3 0.0421-0.17139 0.0571-0.33151 0.0587-0.23362 0zm-7.1772-9.3049c0.0638 6e-3 0.11654 0.0463 0.11717 0.0889 7.9e-4 0.10659-0.0678 0.10313-0.1578-8e-3 -0.0414-0.051-0.0232-0.0874 0.0406-0.0811zm7.2345 8.8763c0.0345-0.0444 0.18646-0.0844 0.39013-0.1023 0.23953-0.0214 0.33333-0.0508 0.33232-0.10564-7.8e-4 -0.0421 0.14369-0.12484 0.32096-0.18453 0.17732-0.0595 0.32178-0.14072 0.32105-0.18008-7.7e-4 -0.0397 0.0927-0.1008 0.20753-0.13635 0.11479-0.0357 0.25469-0.12857 0.31067-0.20683 0.0561-0.0786 0.14386-0.14588 0.19512-0.1504 0.0514-8e-3 0.0142-0.0325-0.082-0.0619-0.14115-0.0437-0.14163-0.0863-7.8e-4 -0.21857 0.0952-0.0906 0.15733-0.18405 0.13811-0.20778-0.0194-0.0238 0.0306-0.0492 0.11099-0.0564 0.0928-8e-3 0.0666 0.0659-0.0705 0.20254-0.25486 0.25342-0.25207 0.26278 0.0864 0.28889 0.18312 0.0143 0.34648 4.7e-4 0.55445-0.046 0.2259-0.0508 0.28321-0.054 0.24585-0.0151-0.0268 0.0286-0.0471 0.0595-0.0452 0.0706 7.9e-4 0.0103-0.0111 0.05-0.0289 0.0879-0.0427 0.0906 0.27704 0.15468 0.54679 0.10976 0.20578-0.0341 0.2067-0.0333 0.0456 0.0397-0.0904 0.0413-0.14812 0.10429-0.12827 0.14032 0.0195 0.0357 0.01 0.10262-0.0214 0.1481-0.0317 0.0452-0.0142 0.11468 0.0398 0.15373 0.11732 0.0859-0.21372 0.2073-0.82326 0.30183-0.22959 0.0357-0.46007 0.0845-0.51212 0.10873-0.0521 0.0238-0.3037 0.0866-0.55913 0.13873-0.40046 0.0817-0.48836 0.0893-0.63771 0.054-0.0952-0.0222-0.2277-0.027-0.29442-0.0111-0.0667 0.0159-0.25076 0-0.40902-0.0302-0.21623-0.0444-0.2737-0.077-0.23126-0.13191zm-7.495-10.01c0.0897-0.0215 0.23006-0.0321 0.31178-0.0237 0.0819 9e-3 0.18196 0.0128 0.22237 0.01 0.0404-3e-3 0.1267 6e-3 0.19171 0.019 0.0688 0.0145 0.0519 0.019-0.04 0.0109-0.087-8e-3 -0.14321 4e-3 -0.12494 0.0267 0.0206 0.0256-0.0671 0.0397-0.23358 0.0378-0.3856-4e-3 -0.51444-0.0358-0.32724-0.0806zm0.95859 0.82184c0.0605-6e-3 0.12367 8e-3 0.14083 0.0287 0.0172 0.021-0.0263 0.0326-0.0967 0.0256-0.0703-7e-3 -0.13352-0.0198-0.14068-0.0287-8e-3 -9e-3 0.0363-0.0203 0.0965-0.0256zm6.3792 6.5382c0.039-0.10802 0.19784-0.0932 0.41143 0.0381 0.17527 0.10794 0.0997 0.19476-0.16167 0.18564-0.2241-8e-3 -0.30237-0.0778-0.24977-0.22405zm-1.1917-2.9977c0.23061-0.0437 0.42876-0.10992 0.44032-0.14627 0.0142-0.0468 0.0646-0.0579 0.16833-0.0381 0.097 0.0182 0.13019 0.054 0.0965 0.10468-0.0279 0.0421-0.0127 0.0946 0.0342 0.11675 0.0467 0.0222-0.0218 0.0932-0.15209 0.1577-0.13036 0.0643-0.17481 0.11246-0.0989 0.10643 0.19795-0.0159 0.22962 0.0587 0.0322 0.0762-0.0904 8e-3 -0.18508-8e-3 -0.21031-0.0302-0.16499-0.15984-0.26244-0.2073-0.48223-0.23548-0.23041-0.0294-0.2183-0.0373 0.1714-0.11183zm2.5678 3.396c0.10923-0.023 0.1578-0.0548 0.10827-0.0698-0.14177-0.0445-0.026-0.0397 0.28456 0.0103 0.18375 0.0294 0.30689 0.0829 0.34508 0.14953 0.0367 0.0651 0.12479 0.10413 0.23654 0.10492 0.13576 7.9e-4 0.13782 0 0.01-0.019-0.11813-0.0143-0.0775-0.0286 0.13653-0.0492 0.40495-0.0381 0.6006-0.0754 0.66259-0.12818 0.0311-0.0262 0.0671-0.0246 0.0921 8e-3 0.0282 0.0333 0.12798 0.0333 0.3253 3.9e-4 0.15655-0.0262 0.37138-0.0381 0.47791-0.0262 0.15921 0.0175 0.16607 0.0238 0.0387 0.0349-0.19081 0.0175-0.0246 0.0532 0.20622 0.0444 0.0921 0 0.15512-0.0222 0.13971-0.0405-0.0158-0.0191 0.10729-0.0103 0.27198 0.0182 0.165 0.0286 0.33995 0.0492 0.38887 0.0444 0.0488 0 0.10892 0.0167 0.13322 0.046 0.0243 0.0302-0.0359 0.0611-0.13385 0.0698-0.1448 0.0127-0.14463 0.0238 6.6e-4 0.0571 0.14862 0.0349 0.13132 0.0532-0.10274 0.10905-0.18227 0.0437-0.35071 0.0603-0.47834 0.0476-0.26753-0.027-0.59607 0.12532-0.51441 0.23794l0.0627 0.0852-0.17034-0.0746c-0.19234-0.0846-0.0689-0.23548 0.26805-0.32746 0.10642-0.0294 0.16519-0.0714 0.13052-0.0944-0.0349-0.023-0.0142-0.046 0.0465-0.0508 0.0604-8e-3 0.0916-0.0318 0.0695-0.0587-0.0268-0.0333-0.12574-0.0357-0.2988-8e-3 -0.17509 0.0278-0.29596 0.0246-0.37414-0.0111-0.0635-0.0286-0.18701-0.046-0.27459-0.0381-0.0877 8e-3 -0.12003 0.0262-0.0721 0.0413 0.0478 0.0151 0.0186 0.0436-0.0652 0.0635-0.0837 0.0198-0.13782 0.0206-0.12051 0 0.044-0.0484-0.32147-0.0135-0.44865 0.0421-0.0575 0.0254-0.16436 0.0405-0.23771 0.0325-0.17594-0.0175-0.12463 0.0413 0.0681 0.0778 0.0984 0.019 0.11938 0.0397 0.0592 0.0611-0.124 0.0437-0.48281 0.0278-0.44004-0.019 0.0189-0.0206-0.0553-0.0302-0.16496-0.0214-0.33036 0.027-0.59238-0.0349-0.73184-0.17437-0.10417-0.10365-0.09-0.14048 0.0664-0.17349zm-1.4045-1.7003c0.0362-0.0238 0.0656-0.1227 0.0658-0.22056 9e-5 -0.0979 0.0981-0.23746 0.2178-0.31024 0.17553-0.10667 0.18627-0.14953 0.0556-0.22183-0.11605-0.0643-0.12272-0.099-0.0233-0.12278 0.23239-0.0556-0.0164-0.26913-0.40859-0.35064-0.4101-0.0852-0.44293-0.195-0.0571-0.19056 0.32949 0 0.5774 0.0405 0.61923 0.0923 0.0185 0.023 0.19257 0.0746 0.38684 0.11452 0.37106 0.077 0.50399 0.15865 0.34767 0.21342-0.0511 0.0175-0.0525 0.0452-3e-3 0.0611 0.0498 0.0151 0.0506 0.0317 7.8e-4 0.0357-0.11637 0.0103-0.21895 0.20921-0.15147 0.29238 0.0376 0.046-0.0339 0.0738-0.24625 0.0947-0.16461 0.0159-0.23084 0.0325-0.14734 0.0357 0.18775 8e-3 0.28031 0.10468 0.11384 0.11937-0.0668 8e-3 -0.0694 0.0341-6e-3 0.0635 0.0925 0.0421 0.0571 0.054-0.17682 0.0595-0.16091 0-0.30761 0.0238-0.32577 0.0436-0.0184 0.0198 0.0378 0.0302 0.12607 0.0222 0.17345-0.0151 0.35303 0.0492 0.44168 0.1581 0.0639 0.0786-0.0615 0.0991-0.43575 0.0698-0.19844-0.0151-0.27108-8e-3 -0.3127 0.0373-0.0438 0.046-0.0635 0.046-0.10146 0-0.0259-0.031-0.0179-0.0754 0.0184-0.0986zm-4.1939-5.4655c0.0568-6e-3 0.14655 4e-3 0.19923 0.0207 0.0551 0.0171 0.0159 0.0271-0.0916 0.0233-0.20952-7e-3 -0.26531-0.0301-0.10762-0.044zm6.4876 7.6892c0.0605-8e-3 0.12369 8e-3 0.14083 0.0286 0.0172 0.0206-0.0265 0.0325-0.0967 0.0254-0.0703-8e-3 -0.13354-0.0198-0.14068-0.0286-6e-3 -9e-3 0.0364-0.0206 0.0965-0.0254zm-5.6394-7.353c0.042-0.0147 0.0952-3e-3 0.11797 0.0244 0.0229 0.0281-6e-3 0.0463-0.0652 0.0406-0.0585-6e-3 -0.11162-0.0168-0.11781-0.0244-6e-3 -8e-3 0.0231-0.0259 0.0652-0.0406zm2.5245 2.9837c0.0565 0.0325 0.0943 0.0817 0.0851 0.10881-0.01 0.027-0.0561 5.5e-4 -0.10255-0.0595-0.0471-0.0595-0.0379-0.0821 0.0185-0.0492zm2.0384 2.4669c0.052-0.0182 0.082-8e-3 0.0709 0.0302-0.0221 0.0691-0.0911 0.0875-0.13337 0.0357-0.0158-0.019 0.0127-0.0484 0.0627-0.0659zm-4.211-5.282c0.0506 0.0222 0.0837 0.0629 0.0735 0.0905-0.01 0.0275-0.0517 9e-3 -0.0921-0.0403-0.0406-0.0498-0.0322-0.0723 0.0185-0.0501zm8.3295 10.075c0.0638 8e-3 0.21918-0.0135 0.34525-0.0452l0.22923-0.0564-0.24832 0.0198c-0.40039 0.0317-0.43955-0.12048-0.0675-0.26294 0.1715-0.0659 0.27219-0.13175 0.22379-0.14683-0.0487-0.0151-0.039-0.027 0.0206-0.0262 0.13209 7.9e-4 1.9796-0.66842 2.1544-0.78104 0.0684-0.0445 0.12384-0.13008 0.12273-0.19096-7.8e-4 -0.0611 0.0932-0.13635 0.20958-0.1677 0.11621-0.0309 0.19631-0.0762 0.17762-0.0988-0.0187-0.023 0.0352-0.0587 0.11988-0.0786 0.0846-0.0198 0.10491-0.0524 0.0451-0.0706-0.0598-0.019-0.0517-0.054 0.0171-0.0778 0.0695-0.0246 0.11353-0.0595 0.0985-0.0786-0.049-0.0603 0.4563-0.29992 0.89794-0.42588 0.37484-0.10691 0.43206-0.1473 0.45056-0.31778 0.0165-0.15199-3e-3 -0.18365-0.0916-0.14278-0.17799 0.083-0.18922-8e-3 -0.0127-0.0979 0.10319-0.0524 0.18328-0.0675 0.23248-0.0429 0.0441 0.0222 0.13702 0 0.22541-0.0627 0.0829-0.0556 0.0989-0.0833 0.036-0.0627-0.0726 0.0238-0.10845 0.019-0.0979-0.0143 0.01-0.0286 0.13528-0.0845 0.28006-0.12373 0.37778-0.10222 0.97763-0.42175 0.92144-0.49088-0.0303-0.0373 0.0184-0.0564 0.13369-0.0524 0.0998 0 0.20058 0.0302 0.22406 0.0587 0.0248 0.0302 0.0871 0.0373 0.14829 0.0159 0.0661-0.023 0.089-0.0183 0.0606 0.0127-0.0248 0.027-0.0982 0.0436-0.16389 0.0373-0.0655-8e-3 -0.0918 0.0214-0.0585 0.0627s0.088 0.0722 0.12146 0.0691c0.1537-0.0135 1.1291-0.42 1.1797-0.49151 0.0314-0.0444 0.13274-0.0778 0.22713-0.0746 0.19628 8e-3 0.31832-0.12341 0.22426-0.23921-0.035-0.0429-0.22661-0.11611-0.4253-0.16191-0.19878-0.046-0.38026-0.10651-0.40326-0.13484-0.0229-0.0286-0.1045-0.0468-0.18086-0.0421-0.31209 0.0214 0.28014-0.0944 0.67286-0.13159 0.29981-0.0286 0.47429-0.0714 0.59615-0.14794 0.11496-0.0722 0.34464-0.13183 0.68988-0.18 0.57559-0.0803 0.66962-0.11302 1.0209-0.35445 0.13401-0.0922 0.2695-0.16968 0.30094-0.17207 0.32451-0.0254 0.39775-0.0476 0.44218-0.13556 0.0283-0.0556 0.0968-0.10548 0.15242-0.1104 0.19369-0.0175 0.85668-0.35715 0.81081-0.4158-0.035-0.0444-0.0142-0.0492 0.081-0.0206 0.0699 0.0214 0.1902 0.0238 0.26738 8e-3 0.0771-0.0182 0.20041-0.0254 0.27389-0.0159 0.21589 0.027 0.51714 0.17064 0.53213 0.25318 8e-3 0.0421 0.10017 0.19968 0.20583 0.35032 0.16208 0.23135 0.16293 0.32484 6e-3 0.6008-0.10224 0.17968-0.31102 0.42302-0.46383 0.54064-0.27919 0.21492-0.32293 0.31389-0.10728 0.24294 0.0673-0.0222 0.0887-0.0206 0.0513 0-0.0356 0.0222-0.10188 0.0445-0.14748 0.0484-0.0457 8e-3 -0.29704 0.15008-0.55878 0.32461-0.26504 0.17667-0.63395 0.35921-0.83279 0.41199-0.20191 0.0532-0.47531 0.18984-0.62953 0.31381-0.14987 0.12056-0.28934 0.22064-0.30992 0.22246-0.0205 0-0.0256-0.05-0.0111-0.1146 0.0477-0.2135-0.11067-0.19199-0.27644 0.0373-0.13782 0.1908-0.2384 0.24476-0.65389 0.35048-0.272 0.0691-0.88064 0.3108-1.3644 0.54144-0.48033 0.22905-1.0717 0.51016-1.3141 0.62469-0.24243 0.11452-0.66764 0.32858-0.94486 0.47564-0.27726 0.14714-0.7673 0.3577-1.089 0.46786-0.32166 0.11024-0.78336 0.28366-1.026 0.38532-0.41547 0.17421-1.2046 0.40929-1.7319 0.5158-0.23256 0.0468-0.23424 0.046-0.12559-0.0627 0.10812-0.10841 0.10544-0.10992-0.15831-0.0866-0.14749 0.0127-0.31534 0.0151-0.37275 0-0.12701-0.0238-0.16936-0.0222-0.86453 0.0325-0.3062 0.0246-0.56577 0.027-0.58303 8e-3 -0.0172-0.0214 0.0211-0.0333 0.0849-0.027zm10.699-3.4069c0.0703-0.0325 0.11147-0.0778 0.0914-0.10008-0.0198-0.0222-0.0833 0-0.14052 0.0437-0.13353 0.10857-0.11304 0.13183 0.0489 0.0564zm-12.775 0.25897c0.24286-0.0191 0.43211-0.0468 0.42003-0.0619-0.0127-0.0151 0.0809-0.027 0.20621-0.0278 0.18897-4e-4 0.21585 0.0127 0.15654 0.077-0.0395 0.0429-0.11161 0.0738-0.16047 0.0691-0.0488-8e-3 -0.0975 0.0182-0.10782 0.0508-0.0111 0.0325-0.0753 0.0643-0.14369 0.0706-0.0688 8e-3 -0.11606-0.0159-0.10556-0.05 0.0159-0.0476-0.0162-0.05-0.14796-9e-3 -0.12655 0.0389-0.21294 0.0381-0.35479-8e-3 -0.25345-0.0778-0.26152-0.0738 0.23745-0.11326zm1.6675 1.7372c0.3225-0.0949 0.6075-0.16857 0.6333-0.16365 0.077 0.0151-0.66197 0.27691-0.81922 0.2908-0.0797 8e-3 -0.18825 0.0373-0.2412 0.0683-0.0619 0.0357-0.10729 0.0413-0.12781 0.0159-0.0175-0.0214 0.23237-0.11643 0.5549-0.21135zm-1.1269-1.225c0.0639-8e-3 0.0988 9e-3 0.0776 0.0318-0.0212 0.023-0.0602 0.0436-0.0867 0.046-0.0265 0-0.0616-0.0119-0.0776-0.0318-0.0163-0.0198 0.0228-0.0413 0.0867-0.046zm0.65045 0.52445c-0.0259-0.15802 0.0848-0.22643 0.58604-0.36207 0.26293-0.0714 0.57617-0.19016 0.69602-0.26445 0.11986-0.0746 0.2338-0.1154 0.25329-0.0914 0.041 0.0508-0.42403 0.30929-0.58077 0.3231-0.16366 0.0143-0.90152 0.31159-0.87001 0.35032 0.0595 0.073 0.37961 0 0.59729-0.14088 0.12542-0.0798 0.23961-0.13088 0.25381-0.11341 0.0142 0.0175 0.0923 0 0.173-0.0437 0.0921-0.0468 0.21228-0.0691 0.32097-0.0579 0.13511 0.0135 0.1294 0.0262-0.0269 0.0595-0.11035 0.023-0.26268 0.0823-0.33853 0.13111-0.15035 0.0969-0.17335 0.0954 0.62173 0.0389 0.12225-9e-3 0.24178 8e-3 0.26571 0.0381 0.024 0.0294-0.0446 0.0587-0.15243 0.0659-0.10781 8e-3 -0.17789 0.0341-0.15575 0.0611 0.0306 0.0381-0.0313 0.0468-0.26193 0.0397-0.16613-8e-3 -0.29322 0-0.28242 0.0159 0.0111 0.0143-0.0467 8e-3 -0.1278-0.0182-0.10482-0.0318-0.17198-0.031-0.23309 0-0.0612 0.0349 0.01 0.0738 0.24279 0.13341 0.18065 0.046 0.27726 0.0762 0.21436 0.0659s-0.1687 8e-3 -0.23522 0.0373c-0.094 0.0436-0.15192 0.0468-0.26074 0.0127-0.0768-0.0238-0.22782-0.0357-0.3354-0.0262-0.20558 0.0182-0.33339-0.073-0.36398-0.25873zm1.5995 0.36096c0.20694-0.0706 0.55099-0.2004 0.76458-0.28842 0.21358-0.0881 0.39606-0.15072 0.40548-0.13905 0.0271 0.0333-0.32697 0.19191-0.7671 0.34342-0.334 0.115-0.36599 0.14008-0.1841 0.14468 0.25191 8e-3 0.17901 0.0389-0.2614 0.11683-0.29477 0.0524-0.30068 0.0508-0.13512-0.0214 0.13939-0.0611 0.13924-0.0683-7.4e-4 -0.0373-0.29135 0.0651-0.21789 0.0167 0.17838-0.11873zm1.3114-0.29484c0.0383-0.0492 0.18368-0.16278 0.32313-0.25159 0.1394-0.0889 0.22164-0.15881 0.18261-0.15532-0.039 0-0.0289-0.0238 0.0209-0.0595 0.0505-0.0365 0.14926-0.0603 0.21935-0.0532 0.0703 8e-3 0.15241-0.0135 0.18284-0.046 0.0305-0.0325 0.0675-0.0421 0.0826-0.0222 0.0158 0.0198-0.21548 0.18873-0.51219 0.375-0.54459 0.34183-0.62583 0.37635-0.49905 0.2123zm-0.76409-1.1705c0.0854 9e-3 0.20653-9e-3 0.26933-0.0381 0.14814-0.069 0.35672 0.0143 0.22469 0.0894-0.0666 0.0381-0.0343 0.0468 0.124 0.0325 0.16664-0.0143 0.15337-3.2e-4 -0.0595 0.0643-0.15035 0.046-0.30577 0.077-0.3454 0.0691-0.0397-8e-3 -0.0142-0.019 0.0559-0.0254 0.0703-8e-3 0.11384-0.0286 0.0967-0.0492-0.0172-0.0206-0.0723-0.0238-0.12258-8e-3 -0.0503 0.0175-0.10426 0.0159-0.12001 0-0.0159-0.0198-0.085-0.0611-0.15353-0.092-0.0871-0.0397-0.0779-0.0524 0.0302-0.0413zm0.74883 0.95184c0.0294-0.0167 0.1046-0.0349 0.16679-0.0405 0.0688-8e-3 0.076 0.0111 0.0184 0.0444-0.0523 0.0302-0.12733 0.0484-0.16679 0.0405-0.0395-8e-3 -0.0478-0.0278-0.0185-0.0445zm-0.0658-0.5631c0.12066-0.0373 0.19828-0.0452 0.21722-0.0222 0.0162 0.0198-0.0552 0.0627-0.15846 0.0943-0.12066 0.0373-0.19828 0.0452-0.21723 0.0222-0.0162-0.0198 0.0553-0.0627 0.15847-0.0943zm-5e-3 -0.2323c0.094-8e-3 0.15354 0 0.13258 0.027-0.0211 0.023-0.085 0.046-0.14162 0.0516-0.0567 8e-3 -0.11639-8e-3 -0.13258-0.027-0.0163-0.0198 0.0477-0.0429 0.14162-0.0516zm0.61804-0.0627c0.39294-0.17865 0.69456-0.26619 0.73706-0.21381 0.0142 0.0182-0.0592 0.0508-0.164 0.073-0.1046 0.0222-0.28673 0.0952-0.40437 0.16254-0.17771 0.10159-0.49265 0.19445-0.52488 0.15484-5e-3 -8e-3 0.1556-0.0852 0.35619-0.17643zm-0.0403-0.37683c0.085-0.0397 0.13766-0.046 0.15917-0.0198 0.0176 0.0214 0.19708-0.0548 0.39857-0.16984 0.3015-0.17238 0.41861-0.20976 0.66121-0.21103 0.43978 0 0.65913-0.0651 0.68868-0.19754 0.0202-0.0901 4.6e-4 -0.10929-0.0827-0.0802-0.15575 0.0548-0.48526 0.0875-0.44605 0.0444 0.0182-0.0198 0.0932-0.0381 0.16703-0.0405 0.22088-8e-3 0.4757-0.0906 0.43454-0.14135-0.0211-0.0262 0.16562-0.13794 0.41503-0.24865 0.24943-0.11064 0.7572-0.36651 1.1284-0.5685s0.73969-0.37302 0.8189-0.38c0.19804-0.0175 0.4244-0.17215 0.29293-0.20016-0.0587-0.0127-0.0397-0.0167 0.0426-0.01 0.0823 8e-3 0.16694-8e-3 0.18836-0.0302 0.0652-0.0714 0.23993-0.0651 0.21667 8e-3 -0.0195 0.0611 0.01 0.0571 0.2554-0.0325 0.47115-0.17143 0.90367-0.38151 0.8689-0.42199-0.0182-0.0214-0.0612-0.0103-0.0952 0.0254-0.0343 0.0349-0.0779 0.0452-0.0968 0.023-0.0544-0.0627 0.20968-0.16683 0.35167-0.13897 0.19446 0.0381-0.50896 0.56263-0.97573 0.72731-0.47499 0.16754-0.67676 0.33294-0.58258 0.47755 0.0722 0.11103-0.3167 0.43747-0.59011 0.49517-0.097 0.0206-0.29935 0.12698-0.44948 0.23659-0.27544 0.20111-0.45501 0.2473-0.34233 0.0881 0.1062-0.15008-0.42243-0.0619-0.90025 0.14953-0.23383 0.10365-0.59119 0.23921-0.79414 0.30127-0.20299 0.0619-0.29735 0.10722-0.20975 0.1004 0.11622-9e-3 0.11384 8e-3 -8e-3 0.0564-0.18268 0.0746-0.50304 0.0848-0.43821 0.0135 0.0236-0.0262-3e-3 -0.0286-0.067-8e-3 -0.0588 0.0206-0.0618 0.0516-6e-3 0.0691 0.0646 0.0198 8e-3 0.0302-0.15767 0.0278-0.14208 0-0.30557 0.0167-0.36305 0.0413-0.29581 0.12794-0.75546 0.14008-0.48221 0.0127zm1.6053 0.22881c0.069-0.0587 0.10985-0.0683 0.1386-0.0309 0.0562 0.073-0.0507 0.17262-0.15241 0.14103-0.0464-0.0143-0.0403-0.0635 0.0142-0.10976zm0.0571-0.27842c0.0505-0.0175 0.10523-0.0151 0.12241 8e-3 0.0171 0.0206-0.0183 0.0429-0.0784 0.0484-0.0604 8e-3 -0.11543 0-0.12257-8e-3 -6e-3 -9e-3 0.0282-0.0302 0.0786-0.0484zm0.56013-0.26286c0.19363-0.0175 0.22318 0.0635 0.0381 0.10413-0.0652 0.0143-0.13939 0-0.16498-0.0317-0.0255-0.0318 0.0316-0.0643 0.12703-0.0722zm-7.8074-9.7446c0.0905-8e-3 0.18431 0.01 0.20855 0.0398 0.0243 0.0298-0.03 0.0608-0.12035 0.0688-0.0904 8e-3 -0.18433-0.01-0.20856-0.0397-0.0243-0.0298 0.03-0.0609 0.12033-0.0688zm10.641 7.4578c0.1647-0.15834 0.18945-0.24992 0.0955-0.35389l-0.12701-0.14016-0.17582 0.12064c-0.0968 0.0667-0.1882 0.1054-0.2033 0.0868-0.0142-0.0182 0.0297-0.0603 0.0995-0.0929 0.0698-0.0325 0.087-0.0714 0.0384-0.0867-0.0487-0.0151-0.0201-0.0286 0.0648-0.0302 0.0843 0 0.13051-0.019 0.10277-0.0389-0.0276-0.0198 0.0429-0.0468 0.15686-0.0603 0.11447-0.0127 0.21982-9e-3 0.23498 0.01 0.0158 0.0191-0.05 0.0405-0.14463 0.0492-0.15193 0.0135-0.14812 0.0198 0.0327 0.0548 0.29979 0.0571 0.2494 0.35199-0.0986 0.57652-0.33798 0.2181-0.36647 0.18318-0.0773-0.0947zm0.75583-0.95692c0.13018-0.0484 0.26445-0.0821 0.29844-0.0754 0.034 8e-3 -0.0447 0.0508-0.17481 0.0992-0.13021 0.0484-0.26444 0.0821-0.29844 0.0754-0.034-8e-3 0.0447-0.0508 0.17481-0.0992zm0.34403-0.2827c0.0733-0.0341 0.14385-0.0492 0.15672-0.0333 0.0127 0.0159 0.12114-0.0222 0.24067-0.0845l0.21724-0.11326-0.079 0.10254c-0.13319 0.17254-0.25292 0.2254-0.46987 0.20722-0.18025-0.0151-0.1864-0.0222-0.0656-0.0786zm-1.9099-2.6619c0.12877-0.01 0.16212-3e-3 0.084 0.016-0.0706 0.0175-0.1663 0.0245-0.21264 0.0156-0.0463-9e-3 0.0111-0.0231 0.12845-0.0318zm2.3329 2.2928 0.19444-0.13357-0.14036 0.13849c-0.0772 0.0762-0.16156 0.14032-0.18761 0.14262-0.0821 8e-3 -0.0661-0.0103 0.13352-0.14754zm0.32141-0.33548c0.13496-0.0325 0.14608-0.0278 0.0675 0.0286-0.10685 0.077-0.16505 0.0889-0.20284 0.0421-0.0142-0.0175 0.0465-0.05 0.13526-0.0706zm0.0773 0.11127c0.1259-0.0302 0.13986-0.0214 0.0883 0.0556-0.0881 0.13151-0.10972 0.1381-0.17756 0.0548-0.0333-0.0413 6e-3 -0.0906 0.0893-0.1104zm0.21571-0.23738c0.0537-0.0548 0.0694-0.0556 0.11366 0 0.0282 0.0333 0.01 0.0754-0.04 0.0931-0.11557 0.0405-0.15448-8e-3 -0.0735-0.0905zm3.5327 3.4662c0.20803-0.10627 0.47966-0.41683 0.44653-0.5104-0.0127-0.0365 0.0127-0.0651 0.0558-0.0635 0.0437 0 0.12828 0 0.18878-8e-3 0.39007-0.0341-0.0163 0.47469-0.50972 0.63842-0.33878 0.11238-0.44661 0.0786-0.18117-0.0571zm-2.5351-4.3594c0.01-0.0278 0.0884-0.0564 0.1739-0.0635 0.0854-8e-3 0.13464-0.0389 0.10955-0.0698-0.0252-0.031-0.087-0.0421-0.13734-0.0246-0.0503 0.0175-0.10383 0.0167-0.11923 0-0.0308-0.0381 0.19567-0.10127 0.43869-0.12278 0.0856-8e-3 0.1695 0 0.18664 0.0246 0.0172 0.0214-0.0266 0.0325-0.097 0.0254-0.0706-8e-3 -0.14115 0.0286-0.15703 0.0794-0.0162 0.0508-0.10812 0.13246-0.20484 0.18167-0.16969 0.0863-0.23208 0.077-0.1932-0.0278zm-2.6802-3.7368c0.0528 0.0233 0.0743 0.0548 0.0472 0.0702-0.0266 0.0153-0.07-3e-3 -0.0962-0.0425-0.0282-0.0427-0.01-0.0535 0.0486-0.0277zm3.9759 3.9811c0.1256-0.1604 0.24-0.27858 0.25439-0.26246 0.0506 0.0563-0.21492 0.46493-0.33946 0.52294-0.17631 0.0821-0.17151 0.0675 0.0851-0.26048zm-0.47906-0.69217c0.14036-0.0335 0.15623-0.0304 0.0779 0.0148-0.0543 0.0313-0.13367 0.0502-0.17655 0.0421-0.0427-8e-3 7.8e-4 -0.0337 0.0986-0.0569zm-1.513-1.9053c0.0451-0.0461 0.0971-0.0186 0.1885 0.0997 0.0961 0.12435 0.0897 0.14808-0.0268 0.0994-0.20476-0.0858-0.2354-0.12349-0.16169-0.19907zm0.39447 0.32394c0.01-0.16232 0.0847-0.16782 0.20873-0.0152 0.0675 0.0831 0.0468 0.12518-0.0666 0.13519-0.0905 8e-3 -0.16125 0.0126-0.15702 0.0106 5e-3 -2e-3 0.0111-0.0609 0.0144-0.13063zm0.34854-0.0866c0.0529 0.0233 0.0743 0.0548 0.0471 0.0702-0.0266 0.0153-0.07-3e-3 -0.0962-0.0425-0.0282-0.0427-0.01-0.0535 0.0483-0.0276zm3.3018 0.69516c-6e-3 -0.0686 0.0305-0.1546 0.0811-0.19093 0.0505-0.0363 0.0465-0.0868-0.01-0.11204-0.0557-0.0253-0.0568-0.0821-7.8e-4 -0.12641 0.0607-0.049 0.0266-0.17156-0.087-0.31416-0.13733-0.1732-0.14543-0.22605-0.0296-0.20396 0.0863 0.0163 0.19298 0.0759 0.23773 0.13221 0.0449 0.0563 0.1321 0.11536 0.19419 0.13122 0.33111 0.0847 0.63193 0.46158 0.34534 0.43324-0.0652-6e-3 -0.0854 0.029-0.0451 0.0787 0.0404 0.0498 0.0252 0.10737-0.0336 0.12799-0.0697 0.0245-0.10049 0.0165-0.088-0.0225 0.0111-0.033-0.0383-0.0779-0.10845-0.0997-0.0893-0.0277-0.16806 0.021-0.26295 0.16254-0.14146 0.21108-0.17477 0.21174-0.19296 3e-3zm0.92501 0.12152c0.0587-0.0206 0.0548-0.0675-8e-3 -0.10423-0.0633-0.0368-0.10718-0.0919-0.0978-0.12252 0.0369-0.11638 0.23532-0.0257 0.52208 0.23887 0.16355 0.15076 0.37392 0.34438 0.46739 0.43032 0.18466 0.16945 0.34602 0.56567 0.28369 0.69591-0.0212 0.0444-0.044 0.11445-0.0505 0.15548-0.0242 0.15437-0.13495 0.0397-0.32478-0.33675-0.17945-0.35572-0.45436-0.65594-0.77468-0.84596-0.0684-0.0406-0.0768-0.0905-0.0172-0.11114zm-1.056-2.1758c0.0639-6e-3 0.0988 9e-3 0.0776 0.032-0.0211 0.0233-0.0602 0.0441-0.0869 0.0464-0.0265 2e-3 -0.0616-0.0121-0.0776-0.032-0.0162-0.0199 0.0229-0.0408 0.0867-0.0464z" fill="#fff" fill-opacity=".5" stroke-width=".065217"/>
 <path d="m84.04 34.04c-27.552 0-50 7.4077-50 16.5s22.448 16.5 50 16.5 50-7.4077 50-16.5-22.448-16.5-50-16.5zm0 3.4207c21.95 0 39.634 5.8359 39.634 13.079 0 7.2434-17.685 13.078-39.634 13.078-21.95 0-39.63-5.8346-39.63-13.078s17.681-13.079 39.63-13.079z" color="#000000" fill="#fff" fill-opacity=".5" stroke-width="1.1254" style="-inkscape-stroke:none"/>
 <g fill="none" stroke="#4d4d4d" stroke-width="2">
  <path d="m605.01 84.04c-27.608 0-50-7.4666-50-16.667v-16.667c0-9.2 22.392-16.667 50-16.667 27.604 0 50 7.4667 50 16.667v16.667c0 9.2-22.396 16.667-50 16.667z"/>
  <path d="m323.14 84.038c-27.608 0-50-7.4666-50-16.667v-16.667c0-9.2 22.392-16.667 50-16.667 27.604 0 50 7.4667 50 16.667v16.667c0 9.2-22.396 16.667-50 16.667z"/>
  <path d="m84.04 84.04c-27.608 0-50-7.4667-50-16.667v-16.667c0-9.2 22.392-16.667 50-16.667 27.604 0 50 7.4667 50 16.667v16.667c0 9.2-22.396 16.667-50 16.667z"/>
 </g>
 <g transform="translate(311.58,-243.49)" fill="#4d4d4d" fill-opacity=".76971" font-family="FreeSans" font-size="34.739px" stroke-width=".18093">
  <text x="-167.12091" y="314.48953" style="line-height:1.25" xml:space="preserve"><tspan x="-167.12091" y="314.48953" fill="#4d4d4d" fill-opacity=".76971" font-family="'Liberation Sans Narrow'" font-size="34.739px" font-weight="bold" stroke-width=".18093">ACCESS</tspan></text>
  <text x="70.941429" y="314.48953" style="line-height:1.25" xml:space="preserve"><tspan x="70.941429" y="314.48953" fill="#4d4d4d" fill-opacity=".76971" font-family="'Liberation Sans Narrow'" font-size="34.739px" font-weight="bold" stroke-width=".18093">INTEGRATE</tspan></text>
  <text x="353.85181" y="314.48105" style="line-height:1.25" xml:space="preserve"><tspan x="353.85181" y="314.48105" fill="#4d4d4d" fill-opacity=".76971" font-family="'Liberation Sans Narrow'" font-size="34.739px" font-weight="bold" stroke-width=".18093">ANALYZE</tspan></text>
 </g>
</svg>
