<?xml version="1.0" encoding="UTF-8" standalone="no"?>
<svg
   width="64mm"
   height="64mm"
   version="1.1"
   viewBox="0 0 64 64"
   id="svg936"
   sodipodi:docname="osgs-logo-64.svg"
   inkscape:version="1.1.1 (3bf5ae0d25, 2021-09-20)"
   xmlns:inkscape="http://www.inkscape.org/namespaces/inkscape"
   xmlns:sodipodi="http://sodipodi.sourceforge.net/DTD/sodipodi-0.dtd"
   xmlns="http://www.w3.org/2000/svg"
   xmlns:svg="http://www.w3.org/2000/svg">
  <sodipodi:namedview
     id="namedview938"
     pagecolor="#ffffff"
     bordercolor="#666666"
     borderopacity="1.0"
     inkscape:pageshadow="2"
     inkscape:pageopacity="0.0"
     inkscape:pagecheckerboard="0"
     inkscape:document-units="mm"
     showgrid="false"
     inkscape:zoom="1.1530263"
     inkscape:cx="359.05512"
     inkscape:cy="359.05512"
     inkscape:window-width="1920"
     inkscape:window-height="1043"
     inkscape:window-x="0"
     inkscape:window-y="0"
     inkscape:window-maximized="1"
     inkscape:current-layer="svg936" />
  <defs
     id="defs910">
    <filter
       id="filter1207"
       x="-0.021599999"
       y="-0.043199135"
       width="1.0432"
       height="1.0863983"
       color-interpolation-filters="sRGB">
      <feGaussianBlur
         stdDeviation="0.9"
         id="feGaussianBlur898" />
    </filter>
    <filter
       id="filter1211"
       x="-0.021599999"
       y="-0.043199135"
       width="1.0432"
       height="1.0863983"
       color-interpolation-filters="sRGB">
      <feGaussianBlur
         stdDeviation="0.9"
         id="feGaussianBlur901" />
    </filter>
    <filter
       id="filter1215"
       x="-0.021599999"
       y="-0.043199135"
       width="1.0432"
       height="1.0863983"
       color-interpolation-filters="sRGB">
      <feGaussianBlur
         stdDeviation="0.9"
         id="feGaussianBlur904" />
    </filter>
    <filter
       id="filter1219"
       x="-0.012"
       y="-0.012"
       width="1.024"
       height="1.024"
       color-interpolation-filters="sRGB">
      <feGaussianBlur
         stdDeviation="0.9"
         id="feGaussianBlur907" />
    </filter>
  </defs>
  <circle
     cx="95"
     cy="96.419998"
     r="90"
     fill-opacity="0.2"
     filter="url(#filter1219)"
     stop-color="#000000"
     style="mix-blend-mode:normal"
     id="circle912"
     transform="matrix(0.3163847,0,0,0.3163847,1.9414674,2.0290658)" />
  <circle
     cx="31.998014"
     cy="30.952955"
     fill="#ebebeb"
     stop-color="#000000"
     id="circle914"
     r="28.474623"
     style="stroke-width:0.316385" />
  <path
     d="m 94.92,148.92 c -27.608,0 -50,-7.4666 -50,-16.667 v -16.667 c 0,-9.2 22.392,-16.667 50,-16.667 27.604,0 50,7.4667 50,16.667 v 16.667 c 0,9.2 -22.396,16.667 -50,16.667 z"
     fill-opacity="0.2"
     filter="url(#filter1215)"
     stroke-width="0.13021"
     style="mix-blend-mode:normal"
     id="path916"
     transform="matrix(0.3163847,0,0,0.3163847,1.9414674,2.0290658)" />
  <path
     d="m 31.992319,47.563152 c -8.734749,0 -15.819235,-2.362318 -15.819235,-5.273183 v -5.273184 c 0,-2.910739 7.084486,-5.273184 15.819235,-5.273184 8.733483,0 15.819235,2.36235 15.819235,5.273184 v 5.273184 c 0,2.910739 -7.085752,5.273183 -15.819235,5.273183 z"
     fill="#8a8b8b"
     stroke-width="0.0411965"
     id="path918" />
  <path
     d="m 31.992319,31.743285 c -8.717031,0 -15.819235,2.343683 -15.819235,5.220347 0,2.876665 7.102204,5.220348 15.819235,5.220348 8.717031,0 15.819235,-2.343683 15.819235,-5.220348 0,-2.876664 -7.102204,-5.220347 -15.819235,-5.220347 z"
     color="#000000"
     fill="#ffffff"
     fill-opacity="0.15"
     stroke-width="0.356059"
     style="-inkscape-stroke:none"
     id="path920" />
  <path
     d="m 94.92,118.92 c -27.608,0 -50,-7.4666 -50,-16.667 V 85.586 c 0,-9.2 22.392,-16.667 50,-16.667 27.604,0 50,7.4667 50,16.667 v 16.667 c 0,9.2 -22.396,16.667 -50,16.667 z"
     fill-opacity="0.2"
     filter="url(#filter1211)"
     stroke-width="0.13021"
     style="mix-blend-mode:normal"
     id="path922"
     transform="matrix(0.3163847,0,0,0.3163847,1.9414674,2.0290658)" />
  <path
     d="m 31.972387,38.071611 c -8.734749,0 -15.819235,-2.362318 -15.819235,-5.273183 v -5.273184 c 0,-2.910739 7.084486,-5.273184 15.819235,-5.273184 8.733483,0 15.819235,2.36235 15.819235,5.273184 v 5.273184 c 0,2.910739 -7.085752,5.273183 -15.819235,5.273183 z"
     fill="#eeb248"
     stroke-width="0.0411965"
     id="path924" />
  <path
     d="m 43.217015,23.797916 c -1.029864,-0.339829 -2.15961,-0.623057 -3.389113,-0.84962 -1.213493,-0.226563 -2.478779,-0.39643 -3.795983,-0.509727 -1.301291,-0.113298 -2.638712,-0.169899 -4.011758,-0.169899 -1.357196,0 -2.694585,0.0566 -4.011758,0.169899 -1.30129,0.113297 -2.566576,0.283164 -3.795984,0.509727 -1.213493,0.226563 -2.33514,0.509854 -3.365067,0.849715 -1.029864,0.33986 -1.891981,0.711232 -2.586572,1.114307 -0.678582,0.403105 -1.193561,0.820733 -1.544812,1.252788 -0.335304,0.432055 -0.506816,0.873412 -0.514821,1.323912 0.008,0.450532 0.183643,0.890496 0.526939,1.319925 0.343277,0.434713 0.858035,0.852277 1.544622,1.252725 0.686586,0.405732 1.54478,0.778528 2.574644,1.118389 1.029863,0.33986 2.155465,0.621696 3.37709,0.845633 1.221466,0.22922 2.487163,0.399214 3.796616,0.509885 1.309295,0.115924 2.64235,0.173822 3.999419,0.17379 1.373173,3.2e-5 2.710341,-0.05666 4.011758,-0.16993 1.317268,-0.113297 2.582775,-0.283227 3.7963,-0.509791 1.229471,-0.226594 2.358964,-0.509727 3.388797,-0.849587 1.029863,-0.339861 1.884134,-0.71136 2.562716,-1.114466 0.694559,-0.403074 1.209317,-0.820638 1.544621,-1.252693 0.351282,-0.432087 0.522984,-0.873348 0.515011,-1.32388 0.008,-0.4505 -0.163308,-0.891762 -0.514599,-1.323849 -0.335305,-0.432055 -0.850474,-0.849746 -1.545033,-1.252851 -0.678614,-0.403075 -1.532663,-0.77451 -2.562527,-1.114402 z m -2.802156,0.355774 -4.047509,1.335713 c -0.399151,-0.152782 -0.774636,-0.310943 -1.125918,-0.47426 -0.351251,-0.16335 -0.670546,-0.334577 -0.95795,-0.513746 0.439079,-0.06587 0.914162,-0.130445 1.425123,-0.193659 0.510962,-0.06324 1.033756,-0.114658 1.568636,-0.154174 0.542884,-0.04214 1.077669,-0.06574 1.604576,-0.07103 0.53488,-0.0032 1.046126,0.0212 1.533106,0.07115 z m 1.724297,0.569018 c 0.151694,0.15544 0.219261,0.322744 0.20329,0.501881 -0.008,0.176511 -0.06749,0.354351 -0.179261,0.53352 -0.111766,0.179137 -0.267364,0.354319 -0.466952,0.525578 -0.191596,0.168633 -0.391431,0.324041 -0.599011,0.466288 -0.542885,-0.09485 -1.065679,-0.201506 -1.568635,-0.320055 -0.494984,-0.115923 -0.973959,-0.239756 -1.43702,-0.371467 z m -5.328868,-1.363365 c -0.590785,0.04217 -1.165656,0.09482 -1.724518,0.158034 -0.55883,0.06325 -1.113674,0.138324 -1.664531,0.225266 -0.07983,-0.105387 -0.127775,-0.213401 -0.143737,-0.324073 -0.008,-0.113265 0.05169,-0.219982 0.17946,-0.320118 0.566835,0.01835 1.129715,0.04872 1.688577,0.09087 0.566834,0.0448 1.121868,0.101528 1.664753,0.170025 z m 7.735923,2.55294 c 0.199575,0.181763 0.363241,0.364823 0.490965,0.549212 0.143696,0.184421 0.247435,0.371562 0.311301,0.561235 -0.311357,0.0448 -0.638907,0.06315 -0.982185,0.05524 -0.335304,-0.0054 -0.662636,-0.0212 -0.981963,-0.04743 0.263447,-0.181795 0.490966,-0.364887 0.682568,-0.549307 0.191603,-0.184421 0.351535,-0.373999 0.479292,-0.568955 z m -13.60391,-2.829555 c -0.08781,0.176511 -0.107441,0.354319 -0.05954,0.533456 0.05587,0.176511 0.159195,0.350396 0.310873,0.521655 -0.76641,0.158066 -1.508459,0.326731 -2.226968,0.505868 -0.710537,0.181795 -1.405476,0.37403 -2.084058,0.576896 l -3.412842,-1.126266 c 1.061787,-0.292435 2.227475,-0.524218 3.497,-0.695477 1.269368,-0.171228 2.594576,-0.276584 3.975691,-0.316132 z m 14.442013,4.766019 c -0.119761,0.455784 -0.439016,0.893123 -0.95795,1.312016 -0.518934,0.418893 -1.221498,0.80349 -2.107691,1.153887 l -3.412842,-1.126235 c 0.614704,-0.223969 1.197453,-0.453221 1.748342,-0.687694 0.550857,-0.234473 1.061692,-0.479418 1.532694,-0.734993 0.518934,0.05008 1.046284,0.08432 1.581164,0.102762 0.542884,0.0212 1.081403,0.01455 1.616283,-0.01962 z m -13.24418,-2.955982 c 0.343277,0.213401 0.726198,0.416141 1.149331,0.608471 0.423132,0.19233 0.8705,0.379503 1.341534,0.561298 l -2.598657,0.857561 -3.425181,-1.130316 c 0.550857,-0.165976 1.117692,-0.323978 1.700473,-0.474166 0.58278,-0.150156 1.193846,-0.291105 1.832531,-0.422848 z m 7.759651,2.560723 c -0.399183,0.210744 -0.826302,0.412407 -1.281358,0.604737 -0.455056,0.192299 -0.933873,0.379346 -1.436798,0.56114 l -3.424864,-1.130252 2.598657,-0.857561 c 0.550858,0.15544 1.117692,0.302938 1.700473,0.442591 0.582781,0.13962 1.197358,0.266047 1.844017,0.379345 z m -18.15447,-2.789975 3.412841,1.126266 c -0.614704,0.223937 -1.197263,0.453284 -1.74812,0.687757 -0.550857,0.234473 -1.061882,0.479354 -1.532916,0.734898 -0.518934,-0.05005 -1.049574,-0.08292 -1.592459,-0.09871 -0.53488,-0.01835 -1.069886,-0.01329 -1.604798,0.01582 0.119755,-0.455783 0.439205,-0.893185 0.95814,-1.312078 0.518934,-0.418894 1.221086,-0.803491 2.107248,-1.153919 z m 5.137454,1.695347 3.425181,1.130348 -2.610364,0.86142 c -0.542884,-0.158066 -1.106207,-0.307019 -1.688988,-0.44664 -0.58278,-0.139652 -1.197136,-0.265985 -1.843795,-0.379282 0.399151,-0.210776 0.826081,-0.412344 1.281137,-0.604674 0.455088,-0.192331 0.933873,-0.379377 1.436798,-0.561172 z m 5.149478,1.699365 3.424864,1.130253 c -0.550857,0.165976 -1.117661,0.323978 -1.700473,0.474134 -0.58278,0.150188 -1.193624,0.291074 -1.83231,0.422785 -0.343278,-0.213401 -0.726419,-0.416204 -1.149521,-0.608534 -0.423133,-0.192299 -0.874044,-0.37808 -1.353019,-0.557217 z m 5.149161,1.699271 3.412841,1.126266 c -1.061787,0.292435 -2.227063,0.524218 -3.496367,0.695446 -1.269367,0.171259 -2.594797,0.276678 -3.976006,0.316194 0.103783,-0.176511 0.12382,-0.354287 0.05998,-0.533424 -0.05587,-0.176543 -0.159828,-0.350491 -0.311513,-0.52175 0.782388,-0.152782 1.524658,-0.321352 2.227191,-0.505773 0.710536,-0.181794 1.405254,-0.374093 2.083867,-0.576959 z m -11.208561,-0.837787 -4.04751,1.335713 c -0.151681,-0.160691 -0.223801,-0.329356 -0.215825,-0.505867 0.01595,-0.173885 0.08375,-0.349131 0.203505,-0.525642 0.127731,-0.179168 0.287676,-0.353053 0.479292,-0.521655 0.191602,-0.168633 0.387096,-0.325338 0.586672,-0.470242 0.542884,0.09485 1.061565,0.200271 1.556549,0.316194 0.494984,0.115924 0.97437,0.239788 1.437431,0.371499 z m 1.724297,0.569018 c 0.39915,0.152814 0.774225,0.310943 1.125506,0.474293 0.359255,0.165975 0.682664,0.338436 0.970068,0.517605 -0.431106,0.0685 -0.905968,0.135729 -1.424902,0.2016 -0.510961,0.06321 -1.0379,0.113266 -1.580753,0.150156 -0.542885,0.03689 -1.085959,0.0579 -1.628812,0.06315 -0.53488,0.0032 -1.037647,-0.02088 -1.50868,-0.07109 z m -7.017413,-1.541236 c -0.263454,0.181794 -0.490966,0.364886 -0.682568,0.549307 -0.191603,0.184421 -0.351124,0.374125 -0.478849,0.569081 -0.207577,-0.179137 -0.379503,-0.362324 -0.515232,-0.54937 -0.127737,-0.184421 -0.219698,-0.370107 -0.275578,-0.557154 0.303369,-0.04217 0.622835,-0.06059 0.95814,-0.0553 0.343277,0.0032 0.674753,0.01708 0.994081,0.04344 z m 9.96327,3.28787 c 0.07983,0.105356 0.127776,0.213401 0.143747,0.324041 0.02392,0.113297 -0.03183,0.221438 -0.167567,0.324199 -0.574808,-0.0212 -1.145566,-0.0541 -1.712401,-0.09887 -0.550857,-0.0448 -1.101588,-0.100104 -1.652414,-0.165975 0.590754,-0.04214 1.165245,-0.09492 1.724075,-0.158161 0.558831,-0.06321 1.113675,-0.138292 1.664564,-0.225234 z"
     fill="#ffffff"
     fill-opacity="0.15"
     stroke-width="0.415097"
     id="path926" />
  <path
     d="m 94.92,88.92 c -27.608,0 -50,-7.4666 -50,-16.667 V 55.586 c 0,-9.2 22.392,-16.667 50,-16.667 27.604,0 50,7.4667 50,16.667 v 16.667 c 0,9.2 -22.396,16.667 -50,16.667 z"
     fill-opacity="0.2"
     filter="url(#filter1207)"
     stroke-width="0.13021"
     style="mix-blend-mode:normal"
     id="path928"
     transform="matrix(0.3163847,0,0,0.3163847,1.9414674,2.0290658)" />
  <path
     d="m 31.973336,28.580703 c -8.734749,0 -15.819235,-2.362349 -15.819235,-5.273184 v -5.273183 c 0,-2.91074 7.084486,-5.273184 15.819235,-5.273184 8.733483,0 15.819235,2.362349 15.819235,5.273184 v 5.273183 c 0,2.91074 -7.085752,5.273184 -15.819235,5.273184 z"
     fill="#54a2cc"
     stroke-width="0.0411965"
     id="path930" />
  <path
     d="m 22.73079,19.969661 c 0.006,-0.01758 0.01416,-0.01984 0.02873,-0.008 0.03004,0.02436 0.01831,-0.07149 -0.0174,-0.141924 -0.02441,-0.04821 -0.01401,-0.07091 0.04983,-0.108729 0.04702,-0.02785 0.08913,-0.08369 0.100889,-0.133862 0.0111,-0.04733 0.03828,-0.09042 0.06037,-0.09572 0.05828,-0.01406 0.246482,-0.0033 0.36381,0.02084 0.124257,0.02544 0.187528,0.02134 0.192207,-0.01281 0.002,-0.01431 0.02572,-0.02511 0.05294,-0.02411 0.06586,0.0025 0.172186,-0.108953 0.171047,-0.17896 -10e-4,-0.06536 0.04767,-0.123064 0.09242,-0.109481 0.01738,0.0053 0.100924,0.0073 0.185636,0.0048 0.139661,-0.0045 0.154851,-0.0075 0.16283,-0.03438 0.005,-0.01607 -0.0067,-0.03915 -0.02552,-0.05097 -0.11902,-0.0747 -0.151247,-0.116914 -0.109674,-0.14368 0.03285,-0.02109 0.02738,-0.04542 -0.02355,-0.103078 -0.03677,-0.04143 -0.09155,-0.08417 -0.12208,-0.09492 -0.03059,-0.0108 -0.05053,-0.02235 -0.0443,-0.02599 0.0062,-0.0035 -0.02889,-0.03174 -0.0784,-0.0626 -0.054,-0.03383 -0.09159,-0.07307 -0.09451,-0.09868 -0.0025,-0.02335 -0.04425,-0.08927 -0.09244,-0.146391 l -0.08749,-0.103882 0.104433,-0.118546 c 0.06555,-0.0744 0.128626,-0.122188 0.169408,-0.128338 0.08913,-0.01356 0.231964,-0.09411 0.220792,-0.124646 -0.0079,-0.0216 0.01461,-0.02709 0.163387,-0.0403 0.141722,-0.01255 0.19271,-0.0113 0.285405,0.0073 0.126266,0.02534 0.370265,0.01908 0.396841,-0.01004 0.01085,-0.0118 0.06633,-0.004 0.185927,0.02677 0.09378,0.02411 0.198721,0.04952 0.233194,0.0566 0.09481,0.01933 0.215819,0.06785 0.277318,0.110912 0.06583,0.04608 0.193501,0.0841 0.234343,0.06978 0.04074,-0.01431 0.280003,0.03116 0.301147,0.05718 0.0095,0.0118 0.06827,0.03018 0.130636,0.04105 0.137795,0.0241 0.220855,0.0053 0.210512,-0.04759 -0.0082,-0.04188 0.126042,-0.07013 0.257958,-0.05426 0.04541,0.0055 0.139852,0.0048 0.209881,0 0.151538,-0.01331 0.183009,-0.0025 0.198499,0.0692 0.02848,0.131629 0.09126,0.153099 0.314983,0.107523 0.09027,-0.01833 0.124507,-0.03377 0.123454,-0.05552 -0.002,-0.04336 0.08866,-0.04653 0.122972,-0.0043 0.01539,0.01883 0.04355,0.03295 0.06259,0.03126 0.01913,-0.0025 0.0427,0.0068 0.05249,0.01883 0.02784,0.03427 0.08472,0.05489 0.138361,0.05014 0.03244,-0.0028 0.03647,-0.01255 0.01195,-0.02865 -0.02039,-0.01331 -0.06813,-0.04919 -0.106144,-0.07952 -0.06836,-0.05459 -0.06815,-0.05504 0.0169,-0.04063 0.06617,0.0113 0.08736,0.0108 0.09206,-0.0025 0.005,-0.01356 0.01487,-0.01431 0.0524,-0.0038 0.02548,0.007 0.06076,0.0078 0.07844,0.0025 0.0184,-0.0065 0.03843,-0.0035 0.04671,0.0065 0.0232,0.02858 0.103936,0.01306 0.158629,-0.03071 0.06444,-0.05145 0.194188,-0.0577 0.366247,-0.01758 0.137773,0.03207 0.144354,0.04133 0.02282,0.03194 -0.06716,-0.0053 -0.08004,-0.003 -0.06845,0.0113 0.01627,0.02009 -0.0118,0.02461 -0.09786,0.01557 -0.04229,-0.0043 -0.08574,0.005 -0.148359,0.03169 -0.04873,0.02084 -0.104663,0.0393 -0.124339,0.04103 -0.01968,0.0025 -0.0444,0.01532 -0.05492,0.03021 -0.01562,0.0221 -0.0307,0.02526 -0.08158,0.01758 -0.04124,-0.0063 -0.071,-0.0045 -0.08759,0.0048 -0.04003,0.02285 0.03561,0.0464 0.177584,0.05496 0.09201,0.0055 0.146173,0.01758 0.182595,0.04091 0.0335,0.02134 0.06638,0.02948 0.0933,0.0231 0.02285,-0.0055 0.0908,-0.01758 0.151033,-0.02715 0.08683,-0.01356 0.121887,-0.01331 0.169307,0.0025 0.05238,0.01632 0.04963,0.02059 -0.02169,0.0337 -0.04486,0.0083 -0.07014,0.02059 -0.05623,0.02762 0.04396,0.0221 0.125358,0.01054 0.203932,-0.02858 l 0.07599,-0.03789 -0.09586,-0.01959 c -0.120812,-0.02461 -0.11424,-0.05391 0.01815,-0.08048 0.171265,-0.03435 0.242129,-0.03556 0.408484,-0.007 0.08826,0.01507 0.216464,0.02616 0.284901,0.02436 0.06845,-0.0025 0.13671,0 0.151691,0.0053 0.01502,0.0048 0.0692,0.0048 0.120467,5e-5 0.0729,-0.0065 0.0799,-0.0098 0.03213,-0.01482 -0.08426,-0.009 -0.0334,-0.01231 0.08659,-0.0058 0.05454,0.003 0.102667,0.0098 0.10696,0.01507 0.0045,0.0053 0.02746,0.008 0.05138,0.0058 0.07396,-0.0065 0.332868,0.05537 0.357262,0.08542 0.01261,0.01557 0.0084,0.02953 -0.0094,0.03109 -0.01989,0.0025 -0.0084,0.01607 0.03019,0.03714 0.03436,0.01884 0.07764,0.05303 0.09624,0.07591 0.05999,0.07385 -0.0975,0.102047 -0.224836,0.04025 l -0.06548,-0.03177 -0.04581,0.03531 c -0.02521,0.01933 -0.03788,0.0448 -0.02814,0.05637 0.01431,0.01733 0.02099,0.01758 0.03602,0.0025 0.01009,-0.0108 0.0074,-0.02285 -0.0062,-0.02707 -0.01351,-0.0043 -0.01542,-0.0085 -0.0045,-0.0093 0.01115,0 0.04601,0.01005 0.07738,0.02436 0.04706,0.0216 0.06696,0.0231 0.112734,0.009 0.03993,-0.0123 0.07769,-0.01431 0.13409,-0.007 0.06977,0.009 0.08416,0.0063 0.129389,-0.02436 0.04445,-0.03016 0.05814,-0.03279 0.108273,-0.02109 0.05657,0.01331 0.05481,0.01532 -0.0228,0.02511 -0.02159,0.0028 -0.04064,0.01255 -0.04234,0.02159 -0.002,0.01105 0.02348,0.01356 0.07709,0.0073 0.207884,-0.02461 0.340114,-0.02955 0.334641,-0.01255 -0.0059,0.01858 0.103182,0.02777 0.146916,0.01255 0.01454,-0.005 0.0308,-0.0038 0.03622,0.0028 0.02265,0.02785 0.07742,0.0033 0.05768,-0.02586 -0.01331,-0.01959 -0.0092,-0.02461 0.01062,-0.01331 0.0177,0.0103 0.04536,0.01758 0.06145,0.01607 0.01615,-0.0025 0.07846,0.01255 0.138529,0.03136 0.06004,0.01858 0.115715,0.03023 0.123659,0.02569 0.008,-0.0045 -0.0063,-0.01205 -0.03108,-0.01682 -0.05175,-0.0098 -0.07443,-0.06622 -0.02818,-0.07031 0.01675,-0.0025 0.06011,-0.0221 0.09644,-0.04605 0.05868,-0.03852 0.0705,-0.04128 0.1057,-0.02461 0.0218,0.0103 0.03446,0.02742 0.02787,0.03812 -0.02273,0.03814 -0.007,0.08887 0.02413,0.07794 0.0166,-0.0058 0.01989,-0.0231 0.0074,-0.0385 -0.01246,-0.01532 -0.0071,-0.02933 0.012,-0.03101 0.01913,-0.0025 0.03963,0.003 0.04571,0.01055 0.0061,0.0075 0.02509,0.0025 0.04204,-0.01281 0.0305,-0.02604 0.03234,-0.02619 0.130012,-0.0108 0.05446,0.0085 0.07648,0.0093 0.04888,0.0025 -0.09905,-0.0276 -0.05658,-0.0748 0.06346,-0.07061 0.03306,0 0.04008,-0.0035 0.01956,-0.01281 -0.01989,-0.009 -2.48e-4,-0.0241 0.0511,-0.03955 0.04581,-0.01381 0.102053,-0.03681 0.124975,-0.0513 0.02295,-0.01456 0.06087,-0.02436 0.08434,-0.0221 0.02348,0.0025 0.04732,-0.0108 0.05303,-0.02946 0.0091,-0.0293 0.01931,-0.03232 0.07919,-0.0231 0.03782,0.0058 0.102923,0.0058 0.144629,1.01e-4 0.0842,-0.01155 0.100364,-0.0083 0.172487,0.03576 0.03803,0.0231 0.03762,0.02928 -0.002,0.02581 -0.02849,-0.0025 -0.03597,0 -0.01672,0.0028 0.05013,0.01055 0.138848,0.0055 0.151836,-0.0088 0.0062,-0.0065 0.05696,-0.01632 0.113076,-0.02109 0.06697,-0.006 0.09728,-0.01482 0.08824,-0.02599 -0.0076,-0.0093 0.02368,-0.02386 0.06932,-0.03222 0.06298,-0.01155 0.100405,-0.01029 0.154497,0.0045 0.08908,0.02461 0.15688,0.02009 0.109574,-0.0073 -0.02155,-0.01255 -0.01838,-0.02009 0.0078,-0.01933 0.0237,0 0.06083,-0.01406 0.08247,-0.03274 0.02164,-0.01858 0.02294,-0.03239 0.0032,-0.03061 -0.02,0.0025 -0.04435,-0.0068 -0.05427,-0.01883 -0.01968,-0.02411 0.124292,-0.08939 0.222501,-0.100668 0.03394,-0.0038 0.0639,-0.0095 0.06654,-0.01255 0.0025,-0.003 0.01636,-0.0231 0.0304,-0.04464 0.01436,-0.02185 0.05357,-0.04158 0.08956,-0.0448 0.07426,-0.0065 0.100559,-0.05474 0.05504,-0.100718 -0.03581,-0.03613 -0.04169,-0.123415 -0.01,-0.147046 0.113905,-0.08477 0.135647,-0.105315 0.125696,-0.118821 -0.0065,-0.0086 0.0019,-0.02672 0.01892,-0.04028 0.0274,-0.0222 0.03717,-0.02338 0.09816,-0.01175 0.03727,0.0071 0.09355,0.01062 0.125123,0.0078 0.03158,-0.0028 0.05485,-5.06e-4 0.05167,0.0047 -0.0032,0.0053 -0.01572,0.02717 -0.02803,0.0485 -0.01234,0.02134 -0.03517,0.04399 -0.05087,0.05034 -0.01661,0.0067 -0.004,0.0094 0.02999,0.0066 0.0322,-0.0028 0.07637,0.0043 0.09822,0.01557 0.03309,0.01708 0.05279,0.01733 0.117961,0.0025 0.113626,-0.02706 0.148191,-0.02763 0.144714,-0.0025 -0.0019,0.01331 0.06367,0.04362 0.163289,0.07531 0.136729,0.04349 0.160233,0.05617 0.131955,0.07114 -0.02275,0.01205 -0.01857,0.02386 0.01212,0.035 0.02563,0.0093 0.04366,0.02765 0.04014,0.04096 -0.0069,0.02627 0.12569,0.05966 0.198022,0.04989 0.117588,-0.01582 0.194238,-0.01381 0.22818,0.0058 0.0205,0.0118 0.057,0.01833 0.08102,0.01431 0.02465,-0.004 0.04637,0 0.04973,0.01206 0.0032,0.01055 0.03481,0.0236 0.07005,0.02908 0.03531,0.0053 0.06802,0.01456 0.07271,0.02034 0.0045,0.0058 0.04982,0.02185 0.100193,0.03566 0.05039,0.01381 0.11132,0.03721 0.135356,0.05198 0.0428,0.02627 0.04245,0.02634 -0.01699,0.0048 -0.03853,-0.01406 -0.108482,-0.02059 -0.191786,-0.01833 -0.219078,0.006 -0.404846,-0.0055 -0.463694,-0.0288 -0.352262,-0.139213 -0.441736,-0.165878 -0.530355,-0.158069 -0.0073,0 0.0335,0.01632 0.09085,0.03493 0.103318,0.03347 0.103606,0.0338 0.03546,0.03983 -0.03802,0.0033 -0.07192,0.01507 -0.07537,0.02586 -0.0072,0.02235 0.126238,0.07546 0.19334,0.07679 0.02904,0 0.04516,0.01281 0.04626,0.03528 9.49e-4,0.01883 -0.01044,0.03212 -0.02509,0.0293 -0.04265,-0.0083 -0.100838,0.02659 -0.08245,0.04924 0.0092,0.0113 -0.0098,0.03935 -0.04224,0.06222 -0.05369,0.03789 -0.05188,0.04746 0.02009,0.106568 0.04345,0.03573 0.09276,0.08168 0.109526,0.102148 0.03286,0.04008 0.04416,0.04193 0.110057,0.01783 0.03129,-0.0113 0.03053,-0.01456 -0.0025,-0.0118 -0.02509,0.0025 -0.03979,-0.0025 -0.03272,-0.0103 0.0081,-0.009 0.03506,-0.0083 0.07341,0.0025 0.05643,0.01507 0.06081,0.01431 0.06429,-0.01105 0.004,-0.03048 0.122817,-0.04728 0.21597,-0.03058 0.04506,0.008 0.0423,0.005 -0.01357,-0.01406 -0.03888,-0.01356 -0.08972,-0.02727 -0.112962,-0.03071 -0.02332,-0.0035 -2.46e-4,-0.0063 0.05087,-0.006 0.05119,10e-5 0.121741,0.0045 0.156794,0.01004 0.03506,0.0053 0.129312,0.0108 0.209506,0.01205 0.08609,0 0.132135,0.0073 0.112415,0.01406 -0.05598,0.01959 0.03803,0.04718 0.152399,0.04475 0.06799,-0.0025 0.09503,0.0025 0.073,0.01005 -0.0193,0.0068 -0.01965,0.01707 -9.49e-4,0.02285 0.07198,0.02235 -0.01993,0.01306 -0.251956,-0.02544 -0.132613,-0.0221 -0.253614,-0.03895 -0.26888,-0.03761 -0.05494,0.0048 -0.0035,0.03026 0.105695,0.0521 0.129983,0.02601 0.301976,0.120251 0.368145,0.201736 0.03818,0.04701 0.03412,0.06423 -0.02262,0.0965 -0.05348,0.03046 -0.0604,0.051 -0.03063,0.09115 0.0211,0.0285 0.03622,0.0637 0.03347,0.07822 -0.0046,0.02285 0.01215,0.02584 0.127155,0.0221 0.142721,-0.0048 0.28603,0.01331 0.306693,0.03885 0.01851,0.02285 -0.07558,0.09632 -0.129385,0.101094 -0.02499,0.0025 -0.05402,-0.0065 -0.0644,-0.01933 -0.01041,-0.01281 -0.04466,-0.0241 -0.07606,-0.02526 -0.03145,0 -0.0517,-0.008 -0.04501,-0.01532 0.0078,-0.0085 -0.02474,-0.007 -0.08986,0.004 -0.08755,0.01507 -0.104641,0.01431 -0.120505,-0.0053 -0.0268,-0.033 -0.145141,-0.0073 -0.187717,0.04073 -0.03501,0.03952 -0.07975,0.04196 -0.109042,0.006 -0.0094,-0.01155 -0.03148,-0.01959 -0.04923,-0.01808 -0.03702,0.0033 -0.08877,0.07719 -0.07012,0.100139 0.0069,0.0085 -0.01187,0.01758 -0.04154,0.02009 -0.02974,0.0028 -0.03969,0.0093 -0.02212,0.01482 0.01759,0.0055 0.05935,0.0043 0.09278,-0.003 0.03394,-0.0073 0.06517,-0.0075 0.07074,0 0.01674,0.02059 0.07443,0.008 0.07786,-0.01708 0.0025,-0.02009 0.152674,-0.0576 0.196879,-0.04932 0.0082,0.0025 -0.0051,0.02009 -0.02923,0.04138 -0.05639,0.04942 -0.04541,0.08698 0.02392,0.08191 0.02889,-0.0025 0.0964,-0.0025 0.149849,0 0.05346,0.0028 0.128788,0.0058 0.167371,0.0063 0.04777,0 0.07031,0.0088 0.07059,0.02544 2.5e-4,0.02689 0.03431,0.0287 0.07733,0.004 0.02689,-0.01532 0.05126,0.01482 0.1069,0.132907 0.02955,0.06285 -0.03282,0.12874 -0.203328,0.214768 -0.09178,0.04633 -0.179621,0.0858 -0.195181,0.08771 -0.01553,0.0025 -0.04274,0.0108 -0.06049,0.01959 -0.01775,0.0088 -0.05101,0.02486 -0.074,0.03578 -0.043,0.02034 -0.0045,0.04552 0.04395,0.0286 0.01481,-0.0053 0.0335,-0.0025 0.04149,0.0085 0.01848,0.02285 -0.07681,0.07799 -0.132739,0.07689 -0.06972,0 -0.08992,-0.0216 -0.04636,-0.04655 0.04832,-0.02762 0.0062,-0.04502 -0.0889,-0.03661 -0.07658,0.0068 -0.280807,0.108551 -0.262726,0.130926 0.01294,0.01607 0.134527,0.02285 0.389438,0.02185 0.137333,0 0.185281,0.006 0.271917,0.03726 l 0.105192,0.03794 -0.09158,0.04063 c -0.05038,0.02235 -0.133236,0.06225 -0.18413,0.08869 -0.103021,0.05351 -0.144961,0.06227 -0.167177,0.03493 -0.01117,-0.01381 -0.03475,-0.01482 -0.09318,-0.004 -0.04838,0.0088 -0.08935,0.0095 -0.107301,0.0025 -0.02101,-0.0093 -0.02623,-0.0083 -0.01879,0.0035 0.0082,0.01281 -0.0082,0.01331 -0.07386,0.0025 -0.04636,-0.0078 -0.133087,-0.0113 -0.192842,-0.0075 -0.05983,0.0035 -0.121448,0.0043 -0.137074,0 -0.06391,-0.0123 -0.112608,0.004 -0.105517,0.03515 0.004,0.01808 0.0059,0.04653 0.004,0.06295 -0.0035,0.02657 0.0045,0.02837 0.06913,0.01632 0.04004,-0.0075 0.06593,-0.0098 0.05751,-0.005 -0.02098,0.01205 0.123203,0.04143 0.178732,0.03651 0.02474,-0.0025 0.12756,-0.0053 0.228553,-0.007 0.137039,-0.0025 0.194798,0.0028 0.227709,0.01984 0.04385,0.0226 0.148169,0.04103 0.207719,0.03654 0.05118,-0.0038 0.114357,0.0216 0.111551,0.04487 -0.0032,0.02712 0.103679,0.03284 0.156189,0.0083 0.02661,-0.01231 0.07479,-0.01733 0.162451,-0.01683 0.101462,0 0.109492,0.0025 0.04309,0.009 -0.07217,0.0073 -0.07583,0.01206 -0.03231,0.04118 0.04275,0.02853 0.03808,0.03558 -0.03551,0.05354 -0.171237,0.04181 -0.795328,0.04231 -1.104689,0 -0.02297,-0.003 -0.145122,-0.0093 -0.271518,-0.01381 -0.387413,-0.01381 -0.40241,-0.01482 -0.409908,-0.0241 -0.0089,-0.01105 0.348023,-0.04108 0.411933,-0.0347 0.113316,0.0113 0.477488,0.0025 0.672222,-0.01732 0.197928,-0.01958 0.201063,-0.02034 0.04315,-0.0108 -0.142095,0.0088 -0.198958,0.005 -0.34372,-0.0226 -0.0954,-0.01808 -0.170541,-0.02915 -0.167001,-0.02436 0.0035,0.0048 -0.0096,0.004 -0.0293,-0.0025 -0.01965,-0.0058 -0.08668,-0.0113 -0.14896,-0.0123 -0.0851,-0.0025 -0.118451,-0.009 -0.134207,-0.02986 -0.01136,-0.01532 -0.04033,-0.03013 -0.06393,-0.033 -0.02648,-0.0033 -0.02319,-0.0073 0.0086,-0.01029 0.04154,-0.004 0.03813,-0.0063 -0.01689,-0.0113 -0.07439,-0.0068 -0.08562,-0.04517 -0.01174,-0.04025 0.02481,0.0025 0.01544,-0.0025 -0.02082,-0.0075 -0.03616,-0.0058 -0.118457,-0.02697 -0.182826,-0.04721 -0.06437,-0.02009 -0.122688,-0.03106 -0.129594,-0.0241 -0.01965,0.01984 -0.135628,0.05175 -0.212174,0.05851 -0.05301,0.0048 -0.07919,-0.0025 -0.110561,-0.03011 -0.03085,-0.02722 -0.05547,-0.0341 -0.09855,-0.02762 -0.03993,0.006 -0.05558,0.0028 -0.05126,-0.0108 0.0035,-0.01105 -0.01234,-0.01783 -0.03713,-0.01557 -0.02382,0.0025 -0.09838,-0.0073 -0.165681,-0.02084 -0.117338,-0.0236 -0.129414,-0.02335 -0.294368,0.0025 -0.09461,0.01482 -0.194864,0.02604 -0.222788,0.02511 -0.02794,0 -0.07944,0.01055 -0.114462,0.02574 -0.06921,0.02988 -0.453601,0.139589 -0.505076,0.144133 -0.01748,0.0025 -0.03275,0.0085 -0.03395,0.01557 -0.0015,0.007 -0.06015,0.01858 -0.130848,0.02581 -0.12076,0.0123 -0.126746,0.01532 -0.09863,0.04992 0.01645,0.02034 0.0117,0.0453 -0.01055,0.05567 -0.02225,0.0103 -0.03496,0.02561 -0.02828,0.03387 0.0067,0.0083 -0.01662,0.02109 -0.05175,0.0285 -0.03521,0.0075 -0.05408,0.01657 -0.04199,0.02034 0.01206,0.0038 -0.0035,0.0098 -0.03511,0.01331 -0.03135,0.0035 -0.08814,0.01306 -0.126105,0.02109 -0.07844,0.01657 -0.207883,-0.0058 -0.259891,-0.04487 -0.01702,-0.01281 -0.05884,-0.03287 -0.09287,-0.04455 -0.218087,-0.07478 -0.37808,-0.194402 -0.355996,-0.266143 0.0058,-0.01883 -0.0025,-0.03633 -0.01823,-0.03907 -0.01582,-0.0028 -0.03053,0.0025 -0.03265,0.0108 -0.0077,0.03083 -0.195886,0.03468 -0.300568,0.006 -0.05973,-0.01632 -0.08554,-0.02996 -0.06501,-0.03445 0.01919,-0.004 -0.01168,-0.01683 -0.06981,-0.02908 -0.05716,-0.0118 -0.1318,-0.03279 -0.165789,-0.04643 -0.0431,-0.01732 -0.152225,-0.02905 -0.360077,-0.0389 -0.375454,-0.01783 -0.695699,-0.05961 -0.727305,-0.09494 -0.01572,-0.01732 -0.05737,-0.02705 -0.128174,-0.02941 -0.216176,-0.0073 -0.424019,-0.0692 -0.460656,-0.137254 -0.01509,-0.02797 -0.04395,-0.0403 -0.114,-0.04874 -0.05163,-0.0063 -0.102521,-0.0063 -0.113146,-1.51e-4 -0.01065,0.006 0.0015,0.045 0.02658,0.08651 0.02521,0.04151 0.04857,0.06559 0.05212,0.05348 0.0057,-0.02059 0.01024,-0.02084 0.06534,-0.0038 0.04737,0.01456 0.05123,0.02185 0.01958,0.03666 -0.03221,0.01507 -0.0288,0.02109 0.01836,0.03202 0.08434,0.01984 0.287714,0.02627 0.429049,0.01381 0.113446,-0.01005 0.12096,-0.0088 0.09849,0.01557 -0.02044,0.0221 -0.008,0.03023 0.07892,0.05132 0.15556,0.03772 0.22706,0.07146 0.183702,0.08666 -0.01974,0.007 -0.04918,0.0113 -0.06537,0.0095 -0.01625,-0.0025 -0.03446,0.0028 -0.04064,0.0093 -0.0062,0.0068 -0.0427,0.0123 -0.08121,0.01255 -0.03853,7.5e-5 -0.07576,0.0063 -0.08268,0.01406 -0.007,0.0075 -0.03339,0.01356 -0.05874,0.01281 -0.02538,0 -0.118106,0.003 -0.206131,0.008 -0.08803,0.005 -0.235039,0.0035 -0.326699,-0.0033 -0.09164,-0.0068 -0.180494,-0.0075 -0.197449,-0.0025 -0.03013,0.01055 -0.694749,-0.02968 -0.821493,-0.04972 -0.03521,-0.0055 -0.121615,-0.01406 -0.192045,-0.01909 -0.153362,-0.01055 -0.168232,-0.02411 -0.115424,-0.10471 0.0336,-0.05125 0.02756,-0.07571 -0.03577,-0.144886 -0.05991,-0.06544 -0.06728,-0.08929 -0.03456,-0.111538 0.02787,-0.01883 0.02596,-0.04703 -0.0056,-0.0848 -0.02627,-0.03106 -0.03677,-0.06418 -0.02388,-0.07355 0.02917,-0.02109 0.0067,-0.09773 -0.02528,-0.08651 -0.01288,0.0045 -0.04139,1.76e-4 -0.06336,-0.0095 -0.03299,-0.01482 -0.04566,-0.0098 -0.07257,0.02797 -0.0179,0.02521 -0.02647,0.05429 -0.01893,0.06461 0.0073,0.01029 -0.004,0.02699 -0.02562,0.03709 -0.02572,0.01205 -0.0232,0.02905 0.007,0.04927 0.03667,0.02436 0.03139,0.03882 -0.02511,0.06845 -0.05641,0.0296 -0.06172,0.04402 -0.02518,0.0684 0.02651,0.01758 0.03612,0.04638 0.02212,0.06714 -0.02924,0.04387 -0.01848,0.06205 0.02723,0.04603 0.02207,-0.0078 0.03179,-0.0053 0.02784,0.0073 -0.0035,0.01055 0.04174,0.05012 0.09974,0.08816 0.06802,0.04442 0.09555,0.07267 0.0773,0.0791 -0.05126,0.01808 0.06548,0.06722 0.178716,0.07541 0.06066,0.0043 0.118838,0.01155 0.129275,0.01582 0.02541,0.0103 0.4922,0.0637 0.582053,0.06647 0.05408,0.0025 0.06483,0.0065 0.04511,0.02084 -0.01426,0.01029 -0.01097,0.02185 0.0074,0.02569 0.01831,0.004 0.01,0.005 -0.0185,0.0025 -0.02852,-0.0025 -0.06684,0.0025 -0.0852,0.0095 -0.01838,0.0078 -0.102461,0.02185 -0.186898,0.03104 -0.08444,0.0093 -0.1614,0.01959 -0.171021,0.0231 -0.03828,0.01331 -0.480494,0.02084 -0.62736,0.01055 -0.232346,-0.01632 -0.907359,-0.03136 -1.070361,-0.02386 -0.134451,0.0063 -0.138567,0.0075 -0.075,0.0236 0.03702,0.0093 0.05151,0.01456 0.0323,0.01155 -0.01923,-0.003 -0.0586,0.007 -0.08746,0.02235 -0.03752,0.01984 -0.03988,0.03729 -0.0084,0.06137 0.02423,0.01858 0.03511,0.03448 0.02416,0.03548 -0.01102,0 -0.03853,0.02009 -0.06121,0.04261 -0.05444,0.05391 -0.144749,0.05424 -0.487359,0.0025 -0.144705,-0.0221 -0.339101,-0.05145 -0.431992,-0.06511 l -0.168886,-0.02486 0.0051,0.03709 c 0.0082,0.05923 -0.07068,0.06574 -0.270487,0.0221 -0.124194,-0.02705 -0.206545,-0.03641 -0.276438,-0.03147 -0.100908,0.0073 -0.40146,-0.03219 -0.693199,-0.09072 -0.236516,-0.04743 -0.56405,-0.14667 -0.771124,-0.233574 -0.105132,-0.04414 -0.255145,-0.103806 -0.333406,-0.132607 -0.1639,-0.06034 -0.28038,-0.133989 -0.268329,-0.169696 z m 4.104775,-0.822948 c 0.01765,0.0055 0.06467,0.004 0.104391,-0.0033 0.104375,-0.01909 0.221621,0.01055 0.285502,0.07219 0.09147,0.08836 0.290751,0.190786 0.39276,0.201885 0.05078,0.0055 0.113057,0.0231 0.1384,0.03885 0.07985,0.04982 0.169272,0.06499 0.303207,0.05135 0.131907,-0.01331 0.336981,-0.06499 0.323661,-0.08136 -0.0045,-0.0055 -0.06618,-0.01959 -0.137099,-0.03149 -0.08345,-0.01381 -0.137845,-0.03239 -0.154212,-0.05253 -0.01685,-0.02084 -0.04837,-0.03109 -0.09461,-0.03099 -0.04093,7.5e-5 -0.08729,-0.01281 -0.113136,-0.03131 -0.02403,-0.01733 -0.06367,-0.04075 -0.08787,-0.0521 -0.0321,-0.01507 -0.03128,-0.01707 0.0031,-0.0078 0.03597,0.0098 0.04581,0.003 0.0419,-0.02825 -0.0031,-0.0226 0.0068,-0.03523 0.0215,-0.0281 0.01471,0.007 0.04189,0.01155 0.0605,0.01005 0.01861,-0.0025 0.0233,-0.0063 0.01045,-0.01029 -0.01286,-0.004 -0.0095,-0.01908 0.0077,-0.0337 0.01994,-0.01708 0.03552,-0.02084 0.04366,-0.0108 0.0069,0.0085 0.01928,0.0118 0.02743,0.007 0.02517,-0.01431 -0.09842,-0.04962 -0.156013,-0.04452 -0.03426,0.003 -0.05226,-0.0025 -0.04852,-0.01406 0.0035,-0.0103 -0.0091,-0.01758 -0.02756,-0.01607 -0.03327,0.003 -0.03426,0.01456 -0.0045,0.05142 0.0117,0.01456 -0.0077,0.01933 -0.08023,0.02084 -0.0526,0 -0.121299,0.0045 -0.152665,0.0075 -0.04742,0.0048 -0.0567,0 -0.05504,-0.03209 10e-4,-0.02084 -0.01082,-0.04188 -0.02644,-0.04676 -0.01564,-0.0048 0.002,-0.01456 0.03933,-0.0216 0.03732,-0.007 0.06378,-0.01758 0.05889,-0.0236 -0.01356,-0.01657 0.05071,-0.04809 0.121663,-0.05944 0.05053,-0.008 0.05721,-0.02335 0.03265,-0.07541 -0.02988,-0.06338 0.0079,-0.134915 0.0744,-0.140794 0.01805,-0.0025 0.01901,-0.0073 0.002,-0.01255 -0.111339,-0.03463 -0.221811,0.03905 -0.222637,0.148425 -2.46e-4,0.03372 -0.01351,0.06802 -0.02944,0.07626 -0.02064,0.01055 -0.02743,0.0083 -0.02358,-0.008 0.008,-0.03342 -0.04074,-0.04309 -0.104033,-0.02059 -0.04435,0.01557 -0.07033,0.01683 -0.136043,0.0055 -0.04471,-0.0075 -0.109007,-0.0113 -0.142933,-0.0083 -0.04199,0.0038 -0.05966,0 -0.05533,-0.01456 0.0035,-0.01105 -0.004,-0.03244 -0.01614,-0.04769 -0.01233,-0.01532 -0.0069,-0.02908 0.01223,-0.03076 0.01911,-0.0025 0.04446,0.0085 0.05635,0.0226 0.02777,0.03292 0.173056,0.06968 0.214708,0.05434 0.01748,-0.0065 0.03983,-0.04829 0.04968,-0.09303 0.0098,-0.04475 0.03656,-0.09406 0.05939,-0.10958 0.0767,-0.05215 0.07232,-0.0625 -0.03591,-0.08477 -0.07074,-0.01456 -0.116233,-0.03533 -0.139127,-0.0635 -0.02825,-0.03478 -0.04782,-0.04133 -0.115442,-0.03862 -0.04822,0.0025 -0.116708,-0.0095 -0.167969,-0.02812 -0.0965,-0.03498 -0.198721,-0.05168 -0.248362,-0.04058 -0.08444,0.01883 -0.273224,-0.03694 -0.320055,-0.09456 -0.03802,-0.04686 -0.101594,-0.0576 -0.127129,-0.0216 -0.02644,0.03734 0.0232,0.08751 0.130802,0.13228 0.05183,0.0216 0.169149,0.09333 0.26072,0.1595 0.242003,0.174818 0.249232,0.181345 0.201873,0.182351 -0.02315,0 -0.0722,0.01055 -0.109004,0.0221 -0.04902,0.01557 -0.06735,0.01758 -0.0686,0.007 -0.001,-0.0078 -0.02586,-0.01482 -0.05531,-0.01582 -0.03722,0 -0.04229,0.0038 -0.01667,0.01532 0.02034,0.0093 0.02182,0.01808 0.0035,0.01984 -0.01848,0.0025 -0.0067,0.03616 0.02627,0.07671 0.03295,0.04058 0.04893,0.07762 0.03556,0.08231 -0.02743,0.0095 0.07801,0.127332 0.127822,0.142825 z m 0.259489,-0.4698 c 0.05865,-0.0043 0.102869,0 0.110769,0.009 0.01818,0.02235 -0.152484,0.03611 -0.18392,0.01482 -0.01763,-0.01205 0.0031,-0.01858 0.07312,-0.02386 z m 0.402157,0.497673 c 0.01723,0.0085 0.05804,0.02986 0.09067,0.04723 0.05517,0.0293 0.05447,0.03031 -0.01024,0.01381 -0.03833,-0.0098 -0.07909,-0.03099 -0.09067,-0.04723 -0.01168,-0.01632 -0.007,-0.0226 0.01025,-0.01381 z m 0.123978,-0.0118 c 0.08587,-0.01783 0.127519,-0.01833 0.122267,-0.0025 -0.0035,0.01055 -0.0045,0.02109 -0.002,0.02386 0.002,0.0025 -0.01956,0.0068 -0.04812,0.0093 -0.04079,0.0035 -0.105331,-0.02461 -0.07195,-0.03139 z m -0.343182,-0.502609 c 0.01868,-0.0065 0.05379,-0.0083 0.07798,-0.0035 0.02934,0.0055 0.03264,0.0123 0.01,0.02034 -0.01868,0.0065 -0.05379,0.008 -0.07797,0.0035 -0.02934,-0.0055 -0.03268,-0.01231 -0.01,-0.02034 z m 0.843829,0.741543 c 0.124042,0.0221 0.126405,0.03412 0.005,0.02486 -0.04556,-0.0035 -0.08958,-0.01482 -0.09797,-0.02514 -0.01236,-0.01532 0.0052,-0.01507 0.09315,0 z m 0.07016,-0.214794 c 0.01642,-0.0025 0.01464,-0.0095 -0.004,-0.01808 -0.01868,-0.0085 -0.04732,-0.01431 -0.06381,-0.01281 -0.01642,0.0025 -0.01461,0.0095 0.004,0.01808 0.01868,0.0085 0.04737,0.01431 0.06381,0.01281 z m 0.270436,0.04013 c 0.128528,0.02335 0.225775,0.05175 0.285151,0.08342 0.103591,0.05524 0.274404,0.09765 0.362166,0.08989 0.08328,-0.0073 0.07932,-0.02235 -0.02841,-0.10722 -0.08081,-0.0637 -0.110061,-0.07576 -0.211645,-0.08721 -0.132483,-0.01482 -0.146167,-0.0216 -0.09688,-0.04774 0.04807,-0.02546 -0.02242,-0.06732 -0.115699,-0.06873 -0.09393,-0.0025 -0.367766,0.02361 -0.406618,0.03732 -0.06681,0.02335 0.02325,0.06601 0.211937,0.10024 z m 0.545732,-0.01105 c 0.06896,0.01758 0.146967,0.01582 0.131584,-0.0033 -0.0054,-0.0065 0.01118,-0.01005 0.03682,-0.0075 0.02903,0.0028 0.03319,0 0.01097,-0.0065 -0.01966,-0.006 -0.08791,-0.01482 -0.151706,-0.01959 -0.129085,-0.0093 -0.141744,0.0073 -0.02767,0.03659 z m -0.412408,-0.620114 c -0.02119,0.01205 0.002,0.02335 0.09025,0.04372 0.06536,0.01507 0.116335,0.03525 0.113278,0.04485 -0.0031,0.01005 0.02351,0.01758 0.06241,0.01783 0.08358,0 0.302705,-0.02436 0.344037,-0.03895 0.03698,-0.01306 0.287837,0.02386 0.304789,0.04482 0.0067,0.0083 0.03798,0.01582 0.06952,0.01683 0.08654,0.003 0.05133,-0.01933 -0.07696,-0.04896 -0.06289,-0.01456 -0.119973,-0.03327 -0.126832,-0.04171 -0.0069,-0.0085 -0.02944,-0.02411 -0.05014,-0.03453 -0.0291,-0.01482 -0.02681,-0.01607 0.0098,-0.0063 0.04048,0.01105 0.06485,0.0088 0.165393,-0.01607 0.14275,-0.03518 0.154741,-0.05645 0.03145,-0.05582 -0.125399,0 -0.251956,0.02034 -0.229145,0.03571 0.02739,0.01833 -0.09959,0.04138 -0.169734,0.03073 -0.03547,-0.0053 -0.09954,-0.0025 -0.157078,0.0075 -0.08404,0.01431 -0.120986,0.0118 -0.27192,-0.01783 -0.169842,-0.03349 -0.302202,-0.0455 -0.154447,-0.01406 0.05467,0.0118 0.0664,0.02009 0.04526,0.03209 z m 0.449678,0.02034 c 0.03159,0 0.05903,0.004 0.06104,0.0065 0.002,0.0025 -0.01981,0.0065 -0.04838,0.009 -0.02862,0.0025 -0.05609,0 -0.06105,-0.0065 -0.005,-0.006 0.01682,-0.01029 0.04838,-0.009 z m 0.589899,1.042931 c 0.04641,0.01732 0.134065,0.03505 0.194827,0.03942 0.09961,0.0073 0.114373,0.0055 0.150064,-0.01758 0.04355,-0.02802 0.03412,-0.05976 -0.01283,-0.04332 -0.01622,0.0058 -0.0103,-0.01532 0.01376,-0.04651 0.0305,-0.04005 0.0289,-0.07124 -0.0053,-0.105387 l -0.04862,-0.04849 0.141899,-0.0088 c 0.282541,-0.01758 0.105998,-0.06576 -0.189369,-0.05168 -0.127446,0.006 -0.154101,0.0118 -0.180567,0.03827 -0.01708,0.01708 -0.01472,0.0575 0.0052,0.08977 0.01989,0.03227 0.02814,0.05896 0.01815,0.05933 -0.05501,0.0025 -0.177071,0.04625 -0.171974,0.0623 2.48e-4,0 0.03833,0.01532 0.08471,0.03259 z m -0.398739,-0.944915 c 0.02862,-0.0025 0.04576,-0.0123 0.03808,-0.02185 -0.02423,-0.02981 -0.08473,-0.01406 -0.0897,0.02335 -1.58e-4,0.0025 0.02298,0 0.05162,-0.0025 z m 0.864078,0.88091 c 0.02862,-0.0025 0.04601,-0.01205 0.03863,-0.02109 -0.01552,-0.01908 -0.07555,-0.02767 -0.09923,-0.01406 -0.03033,0.01732 0.0083,0.03982 0.06063,0.0352 z M 29.80219,18.560135 c 0.133663,-0.0025 0.162992,-0.01331 0.08334,-0.03184 -0.08814,-0.02059 -0.292156,0.0035 -0.219837,0.02601 0.01321,0.004 0.07467,0.0068 0.136492,0.0058 z m 2.084026,0.259214 c 0.07056,-0.01682 0.08297,-0.07711 0.0182,-0.08829 -0.03843,-0.0065 -0.04134,-0.004 -0.01188,0.01005 0.02651,0.01281 0.01848,0.02946 -0.02466,0.05115 -0.06852,0.03443 -0.06071,0.04595 0.01828,0.02702 z m 1.089028,-0.331286 c 0.01597,-0.0055 0.0237,-0.01632 0.01727,-0.02385 -0.0069,-0.0083 -0.01949,-0.0055 -0.03124,0.0065 -0.02521,0.02581 -0.022,0.02978 0.01394,0.01708 z m 3.326152,2.080862 c 0.01911,-0.0025 0.02626,-0.01331 0.01601,-0.02596 -0.01025,-0.01256 -0.03421,-0.02159 -0.05325,-0.01984 -0.01914,0.0025 -0.02632,0.01331 -0.01607,0.02596 0.01025,0.01255 0.03421,0.0216 0.05329,0.01984 z m -2.065201,-2.634061 c 0.01598,-0.0055 0.02477,-0.01532 0.01965,-0.0216 -0.0051,-0.0063 -0.02234,-0.0068 -0.03823,0 -0.01598,0.0055 -0.02474,0.01532 -0.01958,0.0216 0.0051,0.0063 0.02234,0.0068 0.03817,0 z m -13.349852,-1.428002 0.09953,-0.06402 -0.07087,0.05825 c -0.06164,0.05067 -0.120552,0.0849 -0.126361,0.07343 -10e-4,-0.002 0.04295,-0.03244 0.0977,-0.06766 z m 1.758592,-0.002 c 0.0015,-0.0069 5.07e-4,-0.02724 -0.002,-0.04525 -0.0025,-0.01801 0.05415,-0.0737 0.125833,-0.123744 0.07167,-0.05005 0.127898,-0.09399 0.124915,-0.09766 -0.003,-0.0036 0.02356,-0.02572 0.05905,-0.04899 0.112202,-0.07365 0.157426,-0.140747 0.103385,-0.15338 -0.06439,-0.01504 0.03054,-0.181851 0.100034,-0.175783 0.02597,0.0022 0.03285,0.001 0.01527,-0.0028 -0.08639,-0.01848 0.273549,-0.25487 0.472425,-0.310262 0.105417,-0.02937 0.117322,-0.06298 0.01351,-0.03809 -0.08022,0.01923 -0.06728,-0.0106 0.02426,-0.05586 0.04872,-0.02411 0.188192,-0.079 0.309912,-0.121979 0.12171,-0.04298 0.216344,-0.08423 0.210294,-0.09167 -0.01175,-0.01446 0.09513,-0.05428 0.314003,-0.11693 0.07467,-0.02137 0.119833,-0.03785 0.100385,-0.03662 -0.01949,10e-4 -0.07429,0.01406 -0.121865,0.02843 -0.124522,0.03772 -0.140383,0.02585 -0.02124,-0.0159 0.05541,-0.01944 0.102332,-0.04001 0.104236,-0.04574 0.002,-0.0057 0.06803,-0.03391 0.146948,-0.06264 0.08912,-0.03243 0.112962,-0.04643 0.06293,-0.03695 -0.0443,0.0084 -0.117489,0.02127 -0.162656,0.02862 -0.08814,0.01434 -0.08579,0.01333 0.255772,-0.108533 0.0753,-0.02686 0.13633,-0.04957 0.135612,-0.05045 -0.0074,-0.0092 -0.297557,0.03582 -0.442749,0.06859 -0.247062,0.05578 -0.257379,0.05473 -0.06452,-0.0065 0.260492,-0.0827 0.957316,-0.229063 1.35343,-0.284272 0.168551,-0.0235 0.349289,-0.01994 0.34081,0.0067 -0.0035,0.01032 0.01296,0.01727 0.03662,0.01539 0.0234,-0.002 0.01923,0.0044 -0.0093,0.01384 -0.02848,0.0095 -0.03903,0.02122 -0.0233,0.02609 0.01595,0.0049 -2.48e-4,0.0078 -0.03752,0.0066 -0.05116,-0.0018 -0.05724,0.0018 -0.02702,0.01544 0.02144,0.0098 0.02403,0.01625 0.0056,0.01447 -0.05174,-0.0051 -0.111981,0.09633 -0.06279,0.105707 0.02634,0.005 0.01436,0.01808 -0.03261,0.03542 -0.109685,0.04054 -0.162078,0.107985 -0.09593,0.12345 0.04019,0.0094 0.0428,0.01577 0.01118,0.02709 -0.02975,0.01065 -0.02892,0.01376 0.0031,0.0111 0.03329,-0.0028 0.03647,0.0042 0.01271,0.02794 -0.0419,0.04199 0.06852,0.154175 0.170987,0.173702 0.06631,0.01263 0.11213,0.0091 0.490618,-0.03801 0.382035,-0.04755 0.522256,-0.05752 0.585755,-0.04169 0.01285,0.0032 0.09998,0.0087 0.193694,0.0122 0.09372,0.0035 0.221823,0.01273 0.284698,0.02049 0.06287,0.0077 0.197722,0.01328 0.299642,0.01238 0.210579,-0.002 0.280029,0.01725 0.197598,0.0547 -0.06532,0.02969 -0.06428,0.04064 0.0035,0.03467 0.10697,-0.0095 0.104879,0.02735 -0.0054,0.09511 -0.0637,0.03914 -0.149251,0.08146 -0.19009,0.09405 -0.04406,0.01356 -0.05506,0.02328 -0.02709,0.02383 0.02596,5.06e-4 0.05894,0.01461 0.07341,0.03134 0.01903,0.02217 0.06586,0.03454 0.17241,0.04567 0.171734,0.01796 0.247192,0.0094 0.265618,-0.03025 0.0073,-0.01577 0.03963,-0.03104 0.07169,-0.03388 0.0321,-0.0028 0.08276,-0.01102 0.112655,-0.01818 0.03637,-0.0087 0.04978,-0.008 0.04049,0.0022 -0.0095,0.0104 0.02421,0.01137 0.106175,0.003 0.06605,-0.0067 0.150188,-0.0076 0.187053,-0.002 0.03687,0.0056 0.114664,0.0055 0.172898,-2.51e-4 0.07566,-0.0075 0.115579,-0.0048 0.13995,0.0093 0.01878,0.01087 0.08445,0.02195 0.146018,0.02461 0.06157,0.0027 0.115635,0.0094 0.120131,0.01494 0.0045,0.0055 0.06069,0.0054 0.124864,-1.66e-4 0.215857,-0.01908 0.488182,-0.01959 0.654474,-10e-4 0.130961,0.01446 0.210076,0.01459 0.38254,5.06e-4 0.183124,-0.01482 0.276464,-0.01378 0.591703,0.0068 0.436896,0.02846 0.715694,0.06759 0.688738,0.09665 -0.02989,0.03221 0.03175,0.06081 0.246726,0.114395 0.113253,0.02824 0.210532,0.05703 0.216189,0.064 0.01873,0.02308 0.266067,0.08771 0.318093,0.08311 0.03547,-0.0031 0.03818,-0.0099 0.0088,-0.02225 -0.02325,-0.0098 -0.08507,-0.03881 -0.137337,-0.06457 -0.05228,-0.02575 -0.106077,-0.04861 -0.119593,-0.05079 -0.03662,-0.0059 -0.08101,-0.04193 -0.05467,-0.04426 0.01253,-10e-4 0.09075,0.01225 0.173711,0.02972 0.106989,0.0225 0.144018,0.03665 0.127348,0.04862 -0.01662,0.01193 0.02368,0.02782 0.13788,0.05436 0.08876,0.02062 0.164992,0.04354 0.169393,0.05095 0.0052,0.009 -0.0015,0.0093 -0.02114,5.06e-4 -0.01602,-0.007 -0.05161,-0.01077 -0.07916,-0.0083 -0.04229,0.0037 -0.03697,0.0091 0.03471,0.03514 0.04662,0.01687 0.116936,0.059 0.156227,0.09358 0.06999,0.06158 0.169137,0.0972 0.250552,0.09 0.02252,-0.002 0.04701,0.0027 0.05451,0.01052 0.0074,0.0078 0.0562,0.05529 0.108229,0.105584 0.105954,0.102471 0.09659,0.141908 -0.05921,0.249071 -0.04506,0.03098 -0.07907,0.07127 -0.0756,0.08953 0.0035,0.01826 -0.0066,0.03434 -0.02225,0.03572 -0.01572,0.0013 0.0085,0.01841 0.05394,0.0378 0.09685,0.04139 0.135415,0.08047 0.08393,0.08502 -0.02113,0.002 -0.01534,0.02583 0.0136,0.05709 0.02768,0.02961 0.04611,0.06318 0.04164,0.07451 -0.0053,0.01316 0.01427,0.02142 0.05356,0.0228 0.03416,0.001 0.05655,0.0082 0.04993,0.01549 -0.0067,0.0074 -0.0016,0.03316 0.01136,0.05739 0.01288,0.02423 0.01955,0.05414 0.01465,0.06646 -0.01243,0.03146 0.10827,0.118388 0.184592,0.132929 0.03501,0.0067 0.07706,0.02448 0.09349,0.0396 0.01699,0.01579 0.04541,0.02375 0.06639,0.01873 0.04345,-0.01042 0.26918,0.02633 0.245362,0.03996 -0.0091,0.0052 -0.04868,0.01273 -0.08799,0.01683 -0.05283,0.0054 -0.042,0.0076 0.04098,0.0084 0.06183,5.07e-4 0.135362,-0.0037 0.163391,-0.0096 0.05915,-0.01243 0.444267,0.0071 0.505139,0.02554 0.03129,0.0095 0.03863,0.0091 0.03018,-0.002 -0.0061,-0.0079 0.004,-0.01569 0.02256,-0.01733 0.01848,-0.0018 0.03104,0.0051 0.02787,0.01499 -0.0053,0.0166 0.129291,0.05265 0.334925,0.08978 0.04641,0.0084 0.06873,0.01665 0.04953,0.01833 -0.0193,0.0018 -0.07544,-0.0057 -0.124899,-0.0166 -0.265216,-0.058 -0.609958,-0.09486 -0.653619,-0.06989 -0.0082,0.0047 0.01784,0.0226 0.05776,0.03981 0.06383,0.02743 0.06659,0.03377 0.02281,0.05175 -0.02746,0.01127 -0.03576,0.02488 -0.01848,0.03026 0.01734,0.0054 0.0091,0.02488 -0.01816,0.04335 -0.06079,0.04118 -0.169146,0.04729 -0.30534,0.0172 -0.09585,-0.02117 -0.199705,-0.01205 -0.124867,0.01097 0.06316,0.01944 0.08352,0.04296 0.0638,0.07341 l -0.0193,0.02945 -0.101452,-0.01798 c -0.067,-0.01185 -0.09047,-0.02182 -0.06914,-0.0293 0.02145,-0.0075 0.01848,-0.01268 -0.0089,-0.01544 -0.02272,-0.0022 -0.06118,0.01778 -0.08549,0.0445 -0.04049,0.04449 -0.04933,0.04722 -0.10522,0.03238 -0.03357,-0.0089 -0.07993,-0.0117 -0.103037,-0.0062 -0.02307,0.0056 -0.08799,0.001 -0.144161,-0.01027 -0.05615,-0.01117 -0.116107,-0.01911 -0.133185,-0.0176 -0.01709,0.0015 -0.04581,-0.01544 -0.06389,-0.03768 -0.01805,-0.02222 -0.09675,-0.06758 -0.174809,-0.100771 -0.07807,-0.03319 -0.148368,-0.06824 -0.156199,-0.07787 -0.0079,-0.0096 -0.03456,-0.01572 -0.0593,-0.01351 -0.06269,0.0055 -0.253614,-0.0064 -0.262074,-0.01632 -0.004,-0.0045 -0.02958,-0.0028 -0.05721,0.0038 -0.03993,0.0096 -0.04953,0.0066 -0.04666,-0.01459 0.0031,-0.02172 -0.0063,-0.02428 -0.05018,-0.01373 -0.03657,0.0087 -0.04927,0.0079 -0.03958,-0.0028 0.0083,-0.0091 -0.006,-0.01381 -0.03401,-0.01135 -0.02651,0.0022 -0.07702,-0.0059 -0.112235,-0.01826 -0.03527,-0.01241 -0.103903,-0.02654 -0.152649,-0.03143 -0.07844,-0.0079 -0.08197,-0.0074 -0.0307,0.0047 0.0685,0.01612 0.107938,0.09185 0.06497,0.124807 -0.02668,0.02049 -0.0227,0.02011 0.0448,-0.0043 0.136903,-0.04933 0.22626,-0.006 0.116866,0.05672 -0.0606,0.03471 -0.06817,0.0359 -0.151263,0.02368 -0.04807,-0.0071 -0.109887,-0.02615 -0.137279,-0.0424 -0.04817,-0.02858 -0.215835,-0.04663 -0.222767,-0.02398 -0.002,0.0061 -0.0236,0.01286 -0.04827,0.01504 -0.03271,0.0028 -0.05145,-0.01045 -0.0691,-0.04902 -0.01491,-0.03262 -0.04556,-0.05799 -0.07986,-0.06599 -0.03101,-0.0072 -0.05404,-0.02458 -0.052,-0.03918 0.0035,-0.02468 0.0093,-0.02556 0.102521,-0.01542 0.05437,0.0059 0.148999,0.0057 0.210206,-5.06e-4 0.06114,-0.0063 0.144335,-0.01173 0.18475,-0.01233 0.04043,-5.06e-4 0.05215,-0.0018 0.02613,-0.0022 -0.02606,-5.07e-4 -0.05169,-0.0065 -0.05703,-0.01303 -0.0053,-0.0066 -0.03878,-0.0065 -0.07422,1.66e-4 -0.03551,0.0067 -0.06834,0.0074 -0.07295,0.0018 -0.0045,-0.0057 -0.02496,-0.0089 -0.04515,-0.0071 -0.02024,0.0018 -0.02177,0.0079 -0.0035,0.01364 0.02127,0.0066 0.0025,0.0115 -0.0519,0.01351 -0.04687,0.0018 -0.08647,-0.0034 -0.08801,-0.01142 -0.0035,-0.01851 -0.17,-0.01818 -0.240975,5.06e-4 -0.05111,0.01343 -0.05058,0.01406 0.0109,0.01351 0.03546,-2.51e-4 0.06872,0.0045 0.07376,0.01072 0.0051,0.0062 -0.0045,0.0099 -0.0216,0.0082 -0.08608,-0.0085 -0.160562,0.08791 -0.113054,0.146404 0.02423,0.02981 -0.01718,0.04612 -0.09951,0.03923 -0.05418,-0.0045 -0.05593,-0.0097 -0.01431,-0.04176 0.04325,-0.03333 0.04049,-0.03954 -0.03104,-0.07012 -0.04325,-0.01843 -0.110108,-0.03834 -0.148701,-0.04419 -0.03857,-0.0058 -0.07778,-0.02001 -0.08708,-0.03147 -0.0093,-0.01145 -0.03822,-0.02293 -0.06425,-0.02551 -0.03186,-0.0031 -0.03496,10e-4 -0.0097,0.01241 0.02072,0.0094 0.02252,0.0184 0.004,0.02006 -0.07025,0.0062 0.01055,0.05659 0.09858,0.06145 0.06104,0.0034 0.100417,0.01592 0.126348,0.04028 0.06213,0.05831 0.02712,0.07887 -0.168978,0.09926 -0.09988,0.01037 -0.178289,0.01321 -0.183699,0.0065 -0.0052,-0.0064 -0.110146,-0.01718 -0.233245,-0.02396 -0.221903,-0.01225 -0.299262,-0.0238 -0.282491,-0.04224 0.005,-0.0052 -0.0449,-0.0084 -0.110453,-0.0071 -0.211519,0.0044 -0.240996,0.0025 -0.277719,-0.01891 -0.01989,-0.0115 -0.0212,-0.02227 -0.0025,-0.02391 0.0184,-0.0018 0.01969,-0.0073 0.0031,-0.0125 -0.0432,-0.01343 0.05245,-0.02001 0.115598,-0.008 0.02862,0.0055 0.05957,0.0056 0.06879,2.51e-4 0.02538,-0.01449 -0.08082,-0.03503 -0.178558,-0.03452 -0.05328,2.51e-4 -0.101502,-0.0097 -0.125199,-0.02584 -0.02763,-0.01883 -0.02406,-0.02578 0.01293,-0.02451 0.02829,0.001 0.04672,-0.004 0.04109,-0.01087 -0.0056,-0.007 -0.0304,-0.0117 -0.05494,-0.01047 -0.02466,0.001 0.01512,-0.0066 0.08817,-0.01732 0.101123,-0.01486 0.157437,-0.0163 0.235818,-0.006 0.07303,0.0096 0.133615,0.0087 0.208355,-0.0031 0.130569,-0.02067 0.195646,-0.0044 0.09358,0.02333 -0.04963,0.01351 -0.07081,0.03299 -0.06274,0.05776 0.01464,0.04496 0.06664,0.05912 0.107982,0.02943 0.04129,-0.02965 0.09894,-0.03255 0.09945,-0.005 2.46e-4,0.01245 0.03863,0.03251 0.08528,0.04454 0.07407,0.01909 0.08575,0.01916 0.09162,5.06e-4 0.004,-0.01273 0.03186,-0.02082 0.06952,-0.02024 0.04872,7.6e-4 0.05018,-5.06e-4 0.0067,-0.006 -0.03384,-0.0042 -0.05467,-0.017 -0.05264,-0.03229 0.002,-0.01394 -0.01522,-0.02721 -0.03813,-0.02948 -0.02681,-0.0027 -0.02985,-0.01595 -0.0085,-0.03732 0.02593,-0.02599 0.04571,-0.03127 0.09135,-0.02433 0.04265,0.0065 0.05545,0.0054 0.04777,-0.004 -0.0057,-0.0071 -0.02225,-0.01198 -0.03672,-0.01085 -0.01447,10e-4 -0.0937,-0.0089 -0.176106,-0.02227 -0.126085,-0.02041 -0.136725,-0.02448 -0.06715,-0.02556 0.04963,-7.6e-4 0.08858,-0.0088 0.09733,-0.02037 0.02616,-0.03406 0.128383,-0.01846 0.148869,0.0227 0.01029,0.02077 0.02262,0.02913 0.02777,0.01856 0.005,-0.01055 0.06357,-0.05125 0.130294,-0.09041 0.06673,-0.03917 0.124475,-0.08951 0.128331,-0.11188 0.0061,-0.03511 -0.0054,-0.04304 -0.08356,-0.05794 -0.04983,-0.0095 -0.09421,-0.02177 -0.09869,-0.02727 -0.0045,-0.0055 -0.0605,-0.0089 -0.124525,-0.0076 -0.06402,0.0013 -0.150103,-0.0032 -0.191312,-0.01022 -0.04124,-0.007 -0.140013,-0.0099 -0.219587,-0.0065 -0.123241,0.0052 -0.151801,0.0018 -0.192893,-0.02456 -0.02655,-0.0169 -0.0657,-0.02793 -0.08694,-0.02453 -0.02127,0.0034 -0.04139,-0.0026 -0.04465,-0.01338 -0.0062,-0.02056 -0.110342,-0.03036 -0.155297,-0.01459 -0.03748,0.01316 -0.01544,0.03226 0.07474,0.06468 0.09868,0.03549 0.108394,0.04731 0.0434,0.05306 -0.07993,0.0071 -0.06051,0.06225 0.03149,0.08935 0.04396,0.01296 0.09564,0.02215 0.114956,0.02044 0.02348,-0.002 0.02917,0.0053 0.01697,0.0222 -0.01293,0.01823 -0.0025,0.02842 0.03772,0.03656 0.0306,0.0062 0.06936,0.02468 0.08627,0.04109 0.02712,0.02635 0.01645,0.03172 -0.09248,0.04635 -0.06774,0.0091 -0.158816,0.01386 -0.202521,0.0104 -0.04365,-0.0034 -0.09612,-0.0034 -0.116654,-3.6e-5 -0.02054,0.0034 -0.05719,-0.0057 -0.08147,-0.02009 -0.04486,-0.02661 -0.169958,-0.03682 -0.223054,-0.0182 -0.01607,0.0056 -0.01466,0.02818 0.0031,0.05011 l 0.03241,0.03987 -0.118669,-0.02069 c -0.06527,-0.01137 -0.134464,-0.01933 -0.153763,-0.01765 -0.01928,0.0018 -0.09363,-0.0072 -0.165181,-0.01981 -0.09836,-0.01727 -0.149837,-0.01923 -0.211023,-0.0081 -0.04451,0.0082 -0.107472,0.01301 -0.13993,0.0108 -0.03244,-0.0022 -0.09019,-0.0044 -0.128354,-0.0049 -0.03818,-5.06e-4 -0.08579,-0.01047 -0.105828,-0.0221 -0.02006,-0.01163 -0.04802,-0.01707 -0.06209,-0.01213 -0.01411,0.0049 -0.03384,-10e-4 -0.0438,-0.01336 -0.02137,-0.02632 -0.139355,-0.03404 -0.160749,-0.01052 -0.01158,0.01268 -0.02954,0.01406 -0.0816,0.0062 -0.03677,-0.0056 -0.06373,-0.0063 -0.05992,-0.0018 0.004,0.0047 -0.02169,0.0042 -0.05669,-0.001 -0.0797,-0.0121 -0.10499,-0.03982 -0.0416,-0.04542 0.02634,-0.0022 0.06357,-0.01805 0.08284,-0.03493 0.01931,-0.0169 0.03752,-0.02541 0.04054,-0.01893 0.01321,0.02837 0.03381,0.02785 0.110437,-0.0028 0.0448,-0.01793 0.09081,-0.03341 0.102176,-0.03441 0.0114,-0.001 0.0437,0.02651 0.07183,0.06116 0.05748,0.07076 0.105916,0.07636 0.14541,0.01677 0.01836,-0.02773 0.07854,-0.05403 0.193653,-0.08464 0.09186,-0.02441 0.169361,-0.05427 0.172256,-0.06633 0.0031,-0.01208 0.02155,-0.03441 0.04154,-0.04967 0.01999,-0.01529 0.001,-0.0099 -0.04245,0.01195 -0.099,0.04989 -0.193966,0.06591 -0.230328,0.03884 -0.06102,-0.04541 -0.08704,-0.04993 -0.171765,-0.02974 -0.101699,0.02423 -0.118335,0.02567 -0.103154,0.009 0.0067,-0.0073 -0.004,-0.01185 -0.02396,-0.01014 -0.01984,0.0018 -0.03541,0.01657 -0.03461,0.03292 0.001,0.01901 -0.01795,0.02906 -0.05243,0.02787 -0.07819,-0.0028 -0.07596,-0.0099 0.02572,-0.08338 0.05054,-0.03649 0.09308,-0.07291 0.09453,-0.08091 0.0013,-0.0083 0.03138,-0.01353 0.06895,-0.01225 0.05506,0.002 0.06322,0.0073 0.04807,0.03172 -0.01002,0.01614 0.03888,-0.0051 0.10877,-0.04721 0.127953,-0.07717 0.144613,-0.113079 0.04853,-0.10459 -0.07165,0.0063 -0.08338,-0.01612 -0.0167,-0.03204 0.115572,-0.02761 0.216777,-0.110756 0.183968,-0.151146 -0.0085,-0.01049 0.0083,-0.01632 0.0435,-0.01509 0.08412,0.0029 0.05748,-0.01318 -0.06897,-0.04169 -0.115943,-0.02614 -0.133129,-0.04699 -0.03597,-0.04362 0.03732,0.0013 0.04591,-0.0028 0.02532,-0.01225 -0.01858,-0.0084 0.0031,-0.02584 0.05359,-0.04281 0.113491,-0.03821 0.238902,-0.123903 0.21836,-0.149188 -0.0091,-0.01117 -0.05401,-0.02808 -0.09984,-0.03755 -0.17123,-0.03536 -0.275008,-0.0921 -0.210079,-0.114857 0.04335,-0.01524 0.316733,0.02618 0.366025,0.05541 0.05204,0.03084 0.189056,0.04477 0.227013,0.02308 0.01745,-0.01 0.05473,-0.01316 0.115297,-0.0098 0.05412,0.003 0.139114,-0.0033 0.214913,-0.01587 0.06895,-0.01142 0.139858,-0.02094 0.157579,-0.02109 0.01775,-1.66e-4 0.01878,-0.0064 0.0025,-0.01386 -0.03166,-0.01436 0.01587,-0.01886 0.371468,-0.03527 0.230265,-0.01062 0.481506,-0.07093 0.451164,-0.108295 -0.01065,-0.01316 -0.0076,-0.04171 0.0069,-0.06352 0.04873,-0.07353 -0.130319,-0.155326 -0.356819,-0.162942 -0.232321,-0.0078 -0.53662,0.04006 -0.535766,0.08429 2.49e-4,0.02418 -0.0574,0.03918 -0.223703,0.05801 -0.208162,0.02358 -0.267952,0.01434 -0.191261,-0.02951 0.02097,-0.01195 0.02794,-0.03429 0.01547,-0.04958 -0.01243,-0.01529 -0.0088,-0.02903 0.0081,-0.03052 0.01687,-0.0015 0.03043,-0.01313 0.03019,-0.02594 -2.46e-4,-0.02164 -0.0174,-0.02129 -0.250434,0.0051 -0.137501,0.01564 -0.292409,0.02861 -0.344226,0.02888 -0.08757,5.06e-4 -0.09702,-0.0038 -0.133565,-0.05986 -0.03693,-0.05664 -0.04626,-0.06082 -0.15525,-0.06768 -0.145534,-0.0092 -0.246793,2.51e-4 -0.46072,0.0435 -0.108729,0.02192 -0.199683,0.03313 -0.254215,0.03129 -0.09302,-0.0031 -0.219103,0.04287 -0.228971,0.08354 -0.0031,0.01193 -0.06651,0.03871 -0.141376,0.05958 -0.07487,0.02084 -0.148524,0.04684 -0.163672,0.05772 -0.01519,0.01087 -0.05097,0.02185 -0.0796,0.02438 -0.04229,0.0037 -0.04656,5.06e-4 -0.02277,-0.01642 0.03496,-0.02511 -0.0071,-0.02257 -0.09261,0.0056 -0.03446,0.01133 -0.05013,0.0292 -0.03541,0.0402 0.01858,0.01386 0.01178,0.01768 -0.02273,0.01268 -0.06426,-0.0093 -0.326825,0.01979 -0.466287,0.05163 -0.23197,0.05294 -0.250033,0.05859 -0.229933,0.07193 0.0114,0.0076 -0.001,0.01416 -0.02709,0.01467 -0.02627,5.06e-4 -0.07524,0.01178 -0.108833,0.02496 -0.03357,0.01321 -0.07719,0.02537 -0.09686,0.027 -0.01968,0.0018 -0.01647,-0.0041 0.0072,-0.01273 0.02596,-0.0095 0.02658,-0.01431 0.0015,-0.01223 -0.02285,0.002 -0.05654,0.01708 -0.07486,0.0337 -0.02879,0.02611 -0.05095,0.02678 -0.0629,0.002 -0.0035,-0.0075 -0.404213,0.03326 -0.56057,0.05705 -0.0546,0.0083 -0.164672,0.03957 -0.244588,0.06947 -0.07994,0.02991 -0.209674,0.06856 -0.288315,0.08591 -0.141025,0.0311 -0.445501,0.05996 -0.536936,0.05089 -0.02582,-0.0025 -0.08596,0.0071 -0.133654,0.02144 -0.04772,0.01434 -0.09914,0.02373 -0.114306,0.02082 -0.01524,-0.0029 -0.02277,5.06e-4 -0.01705,0.0077 0.0113,0.01389 -0.311342,0.140424 -0.371626,0.145752 -0.04064,0.0036 -0.108526,0.03659 -0.297756,0.144736 -0.07194,0.04111 -0.199227,0.09836 -0.282892,0.127218 -0.08365,0.02886 -0.172347,0.0704 -0.197101,0.09231 -0.08968,0.0794 -0.309358,0.06393 -0.33521,-0.0236 -0.0082,-0.02789 -0.02265,-0.07492 -0.0321,-0.10449 -0.0094,-0.02957 -0.01112,-0.06038 -0.004,-0.06845 0.0074,-0.0081 -0.04185,-0.02664 -0.10933,-0.04125 -0.08878,-0.01923 -0.135596,-0.04017 -0.169456,-0.07579 -0.02562,-0.02708 -0.04556,-0.05485 -0.04411,-0.06173 z m 3.269204,-1.743375 c 0.02225,-0.01037 0.03309,-0.02719 0.02413,-0.03738 -0.0114,-0.01273 -0.02456,-0.0082 -0.04269,0.01449 -0.03381,0.04237 -0.03091,0.04596 0.01858,0.0229 z m 1.596825,1.004711 c 0.03501,0.001 0.05206,-0.0046 0.04376,-0.01484 -0.0075,-0.0092 -0.03707,-0.01474 -0.0657,-0.01223 -0.02862,0.0025 -0.04827,0.0092 -0.0437,0.01484 0.0045,0.0056 0.03416,0.01112 0.06569,0.01223 z m 4.075667,1.470145 c 0.01542,-0.03514 0.0063,-0.04635 -0.02787,-0.03435 -0.01597,0.0055 -0.01868,0.02134 -0.0062,0.03502 0.02205,0.02398 0.02308,0.02396 0.03405,-5.07e-4 z m 1.347704,-1.262881 c 0.06854,0.01522 0.0718,0.01477 0.079,-0.0109 0.008,-0.02845 -0.123247,-0.07374 -0.196924,-0.06796 -0.05347,0.0042 0.02848,0.05903 0.117929,0.07887 z m -6.434315,4.926743 c 0.01293,-0.0045 0.05839,-0.0055 0.101015,-0.0025 0.117164,0.009 0.150302,0.0025 0.148751,-0.02958 -0.002,-0.03784 0.08176,-0.03834 0.381054,-0.0025 0.129905,0.01557 0.266219,0.0236 0.3217,0.01858 0.05294,-0.0048 0.108811,-0.0045 0.124121,1.51e-4 0.01532,0.0048 0.05547,0.0035 0.08923,-0.0028 0.07612,-0.01431 0.145078,0.01708 0.152336,0.06943 0.004,0.02986 -0.0061,0.035 -0.05472,0.02762 -0.03289,-0.005 -0.056,-0.0045 -0.05134,0.0025 0.0045,0.0058 -0.01848,0.01331 -0.05138,0.01682 -0.03285,0.0035 -0.189495,0.02185 -0.347991,0.04078 l -0.288163,0.03432 -0.235267,-0.0398 c -0.200069,-0.03385 -0.241076,-0.0461 -0.274053,-0.08191 -0.02137,-0.0231 -0.02824,-0.0458 -0.01529,-0.05032 z m -3.166062,-5.606337 c 0.08305,-0.03482 0.359033,-0.127446 0.387128,-0.129933 0.03275,-0.0029 -0.1904,0.08973 -0.224323,0.09313 -0.01604,0.0018 -0.06649,0.01785 -0.112202,0.03615 -0.09749,0.03897 -0.143408,0.03957 -0.05054,5.06e-4 z m 2.235701,2.722711 c 0.03005,0.0058 0.04817,0.01406 0.04039,0.01833 -0.0079,0.0045 -0.03241,-1.76e-4 -0.0546,-0.01029 -0.0321,-0.01456 -0.0292,-0.01632 0.01426,-0.008 z m 2.949433,3.179034 c 0.01913,-0.0025 0.03908,0.0025 0.04451,0.009 0.0054,0.0068 -0.0084,0.01029 -0.03053,0.008 -0.02225,-0.0025 -0.04225,-0.0063 -0.04451,-0.009 -0.002,-0.0028 0.0115,-0.0065 0.03053,-0.008 z m 0.606067,-0.802668 c 0.05066,0.0035 0.0852,0.01055 0.07669,0.01532 -0.0085,0.0048 -0.04998,0.0025 -0.09216,-0.0065 -0.07332,-0.01482 -0.07263,-0.01507 0.01547,-0.0088 z m 1.591446,1.443885 c 0.06243,-0.0063 0.313199,0.0083 0.297104,0.01732 -0.0058,0.0033 -0.08735,0.0025 -0.181199,-0.0028 -0.09383,-0.0048 -0.145996,-0.01155 -0.115898,-0.01456 z m -2.86132,-3.741882 c 0.01414,-0.005 0.04938,-0.0035 0.07845,0.0033 0.0291,0.0068 0.08128,0.007 0.116116,0 0.0436,-0.0083 0.068,-0.006 0.07835,0.0065 0.0083,0.01029 0.029,0.01732 0.04606,0.01582 0.05985,-0.0053 0.09707,0.02775 0.05708,0.05062 -0.02859,0.01632 -0.05417,0.02059 -0.08727,0.01431 -0.02576,-0.0048 -0.0753,-0.0063 -0.110115,-0.0033 -0.09205,0.0083 -0.241987,-0.06546 -0.178609,-0.08766 z m -1.240607,-1.950195 c 0.03005,0.0057 0.04822,0.01396 0.04039,0.01843 -0.0079,0.0044 -0.03241,-1.66e-4 -0.05456,-0.01032 -0.0321,-0.01464 -0.02917,-0.01632 0.01426,-0.0081 z m 0.136266,0.0227 c 0.03768,0.0013 0.06216,0.006 0.0543,0.01045 -0.0079,0.0045 -0.03868,0.0034 -0.06856,-0.0022 -0.04315,-0.0083 -0.04029,-0.01 0.01421,-0.0082 z m 1.704491,1.965857 c 0.0322,-0.003 0.07236,0 0.08926,0.0043 0.03893,0.01205 -0.0071,0.01607 -0.08673,0.0078 -0.0526,-0.0055 -0.05294,-0.0073 -0.0025,-0.0118 z m 0.361723,0.09057 c 0.01796,-0.0025 0.04651,0.0025 0.06337,0.0065 0.01695,0.0053 0.0064,0.0118 -0.02338,0.01431 -0.02978,0.0028 -0.05826,-2.51e-4 -0.06338,-0.0065 -0.0051,-0.0063 0.0054,-0.01281 0.02338,-0.01431 z m -1.577589,-2.111646 c 0.04269,-0.01024 0.04621,-0.0087 0.02137,0.0091 -0.03381,0.02428 -0.05222,0.02813 -0.06418,0.01343 -0.0045,-0.0056 0.01471,-0.01574 0.04275,-0.02247 z m 1.69598,2.003 c 0.02862,-0.0025 0.05609,0 0.06105,0.0065 0.005,0.006 -0.0168,0.0103 -0.04838,0.009 -0.03159,0 -0.05903,-0.004 -0.06104,-0.0065 -0.002,-0.0025 0.01981,-0.0065 0.04838,-0.009 z m -1.610524,-2.033342 c 0.01019,-0.0059 0.05116,-0.01331 0.09106,-0.0166 0.06699,-0.0056 0.06855,-0.0047 0.02019,0.01137 -0.05628,0.01871 -0.141858,0.02275 -0.111279,0.0053 z m 1.791306,1.808202 c 0.01552,-0.0118 0.07133,-0.02386 0.125475,-0.02717 0.05622,-0.0033 0.09308,-0.01155 0.08702,-0.01933 -0.0064,-0.0083 0.0085,-0.008 0.03707,0 0.06612,0.01984 0.0707,0.03056 0.01502,0.03548 -0.02617,0.0025 -0.04009,0.01331 -0.03097,0.02411 0.06192,0.07495 0.05904,0.08377 -0.02944,0.09158 -0.132119,0.0118 -0.266418,-0.0575 -0.204176,-0.105185 z m -1.484002,-1.87416 c 0.02763,10e-4 0.09874,-0.01682 0.158154,-0.03952 0.05942,-0.0227 0.117404,-0.03947 0.128851,-0.03729 0.01145,0.0022 0.0757,-0.0084 0.142794,-0.02363 0.07377,-0.0167 0.133467,-0.02403 0.151074,-0.01856 0.01604,0.005 -0.0031,0.01188 -0.04235,0.01537 -0.03928,0.0035 -0.06699,0.01178 -0.06157,0.01843 0.0054,0.0067 -0.01233,0.0106 -0.03937,0.0087 -0.02712,-0.002 -0.01486,0.0018 0.02733,0.008 0.04862,0.0072 0.06534,0.01529 0.04591,0.02212 -0.0169,0.0059 -0.03289,0.008 -0.03561,0.0047 -0.0025,-0.0034 -0.04315,0.0035 -0.08984,0.01527 -0.131594,0.03315 -0.407124,0.05954 -0.422563,0.04049 -0.007,-0.0087 0.0098,-0.01494 0.03732,-0.01399 z m 1.521874,1.429489 c 0.03838,-0.0034 0.09469,-0.01497 0.125082,-0.02571 0.0434,-0.01537 0.07888,-0.01805 0.165846,-0.01263 0.06084,0.0038 0.132587,0.0064 0.159429,0.0058 0.02688,-7.59e-4 0.08072,0.0039 0.11972,0.01007 0.03897,0.0062 0.100712,0.01195 0.137163,0.01296 0.0898,0.0022 0.266345,0.0597 0.262827,0.08536 -0.0013,0.0114 0.0163,0.0226 0.03928,0.02491 0.02315,0.0022 0.03562,-0.0039 0.02763,-0.01366 -0.008,-0.0098 -10e-4,-0.01906 0.01597,-0.02054 0.05158,-0.0046 0.142145,0.0224 0.127899,0.03807 -0.008,0.0087 0.0062,0.01147 0.03425,0.0067 0.02623,-0.0044 0.131084,0.0078 0.233001,0.02713 0.227247,0.04322 0.319042,0.04604 0.385894,0.01185 0.04185,-0.02139 0.06126,-0.02396 0.116895,-0.01549 0.12781,0.01938 0.177539,0.04605 0.152517,0.08174 -0.0174,0.02476 -0.012,0.03345 0.02119,0.03413 0.05764,0.001 0.08636,0.08058 0.04049,0.111813 -0.01858,0.01255 -0.02596,0.02707 -0.0166,0.03214 0.03963,0.02134 -0.0067,0.0912 -0.06472,0.09765 -0.128408,0.01431 -0.143227,0.01808 -0.172458,0.04281 -0.02852,0.0241 -0.03592,0.0241 -0.149998,-0.0025 -0.06825,-0.01582 -0.15911,-0.02531 -0.210731,-0.0221 -0.04988,0.003 -0.09427,0 -0.09857,-0.0043 -0.0045,-0.0053 -0.02084,-0.005 -0.03672,0 -0.01594,0.0055 -0.03677,0 -0.04631,-0.01055 -0.01255,-0.01507 -0.0218,-0.01607 -0.0337,-0.0035 -0.02815,0.02963 -0.299287,0.0048 -0.327553,-0.02998 -0.0056,-0.007 -0.02235,-0.0083 -0.03722,-0.0033 -0.01482,0.0053 -0.04105,0.005 -0.05819,-2.51e-4 -0.01718,-0.0053 -0.06757,-0.0065 -0.111965,-0.0025 -0.120581,0.0108 -0.261296,-0.04859 -0.290527,-0.122337 -0.01482,-0.03749 -0.03833,-0.05838 -0.06896,-0.06141 -0.03043,-0.003 -0.05538,-0.02496 -0.07239,-0.06364 -0.02107,-0.04785 -0.0433,-0.06333 -0.117499,-0.08166 -0.05036,-0.01246 -0.09727,-0.02966 -0.104261,-0.03825 -0.007,-0.0086 -0.02586,-0.01449 -0.04185,-0.01306 -0.03029,0.0027 -0.150362,-0.04045 -0.165877,-0.05955 -0.005,-0.006 0.02255,-0.01371 0.06099,-0.01707 z m 0.73784,0.425696 c 0.02975,-0.0025 0.03998,-0.009 0.0228,-0.01456 -0.0172,-0.0053 -0.04335,-0.0055 -0.05818,-2.51e-4 -0.04013,0.01406 -0.02555,0.02009 0.03541,0.01482 z M 28.10004,16.02995 c 0.04074,-0.0031 0.05129,-0.001 0.02658,0.0051 -0.02235,0.0055 -0.05262,0.0078 -0.06728,0.0049 -0.01464,-0.0028 0.0035,-0.0073 0.04064,-0.01004 z m 0.12663,-0.04898 c 0.02024,-0.0018 0.03125,0.0028 0.02456,0.01012 -0.0067,0.0073 -0.01903,0.01394 -0.02746,0.01469 -0.0084,5.06e-4 -0.01949,-0.0038 -0.02456,-0.01012 -0.0051,-0.0063 0.0072,-0.0129 0.02746,-0.01469 z m 0.743599,0.937607 c 0.01065,-0.006 0.05972,-0.01434 0.109162,-0.01848 0.07887,-0.0066 0.0835,-0.0054 0.03778,0.0098 -0.05728,0.01903 -0.177751,0.02619 -0.146904,0.0087 z m -0.637547,-0.991329 c 0.0523,-0.0231 0.330401,-0.06312 0.314104,-0.04521 -0.0072,0.008 0.0076,0.0087 0.03642,0.002 0.02681,-0.0064 0.07217,-0.0083 0.100863,-0.004 0.02872,0.0042 0.135622,7.59e-4 0.237618,-0.0076 0.102006,-0.0083 0.198648,-0.01386 0.214784,-0.01225 0.01617,0.0018 0.08628,-0.01235 0.15587,-0.03105 0.09204,-0.02471 0.125077,-0.02938 0.121195,-0.01715 -0.01491,0.04699 -0.453095,0.100845 -1.006768,0.123738 -0.165824,0.0069 -0.204208,0.005 -0.174047,-0.0083 z m 0.05395,0.07026 c 0.02232,0.0022 0.04224,0.0063 0.04451,0.0091 0.002,0.0028 -0.01158,0.0064 -0.03053,0.0081 -0.01913,0.0018 -0.03918,-0.0025 -0.04461,-0.0091 -0.0054,-0.0067 0.0083,-0.01032 0.03064,-0.0081 z m 0.03999,-0.160021 c 0.01065,-0.006 0.0677,-0.01502 0.126681,-0.02004 0.0908,-0.0077 0.09925,-0.0065 0.05514,0.0082 -0.0575,0.01911 -0.212806,0.0292 -0.181854,0.01183 z m 2.523326,2.818608 c 0.02019,-0.007 0.04857,-0.01055 0.06308,-0.0078 0.03938,0.0075 0.0031,0.02285 -0.05203,0.02159 -0.03838,0 -0.04059,-0.0035 -0.01105,-0.01381 z m -2.127244,-2.691073 c 0.006,-5.07e-4 0.03466,0.0045 0.06363,0.01137 0.04019,0.0094 0.04295,0.01466 0.01158,0.02217 -0.02446,0.0059 -0.05018,0.0013 -0.06363,-0.01135 -0.01261,-0.01167 -0.01758,-0.02164 -0.01158,-0.02217 z m 3.857679,4.684708 c 0.03029,-0.0073 0.09666,-0.0025 0.177251,0.01482 0.106733,0.02185 0.123764,0.03013 0.09937,0.04763 -0.01763,0.01255 -0.07347,0.0236 -0.13926,0.02714 -0.100186,0.0055 -0.113161,0.0025 -0.147818,-0.03601 -0.02565,-0.02837 -0.02225,-0.04582 0.01045,-0.05366 z m -1.895556,-2.455968 c 0.04245,-0.02235 0.09824,-0.04239 0.124001,-0.04464 0.06175,-0.0055 0.214262,0.03056 0.236342,0.05579 0.01956,0.02285 -0.06591,0.03515 -0.110152,0.01582 -0.01984,-0.0085 -0.0438,-0.0025 -0.07408,0.02059 -0.02757,0.02034 -0.05738,0.02933 -0.07758,0.0231 -0.01808,-0.0055 -0.01617,-0.01607 0.0035,-0.0231 0.02443,-0.0088 2.48e-4,-0.01205 -0.07143,-0.0098 l -0.107941,0.003 z m -1.776278,-2.166128 c 0.017,-0.006 0.04029,-0.009 0.05183,-0.0068 0.0115,0.0022 -2.51e-4,0.0092 -0.02709,0.01549 -0.05484,0.01316 -0.07097,0.0075 -0.02481,-0.0087 z m 2.195361,2.549428 c 0.02702,-0.0025 0.05121,-0.0085 0.05372,-0.01406 0.0025,-0.0053 0.05974,-0.02689 0.127146,-0.04806 0.125693,-0.03942 0.459074,-0.08065 0.434618,-0.05373 -0.0067,0.0073 -0.05406,0.01707 -0.105284,0.02185 -0.1125,0.0103 -0.325117,0.06627 -0.367449,0.09678 -0.01687,0.01205 -0.02436,0.03302 -0.01675,0.04638 0.01903,0.03332 -0.0305,0.03475 -0.100104,0.0028 -0.07828,-0.03581 -0.08385,-0.04701 -0.02593,-0.05213 z m -0.838103,-1.699397 c 0.01597,-0.0055 0.03139,-0.0087 0.03446,-0.0069 0.05152,0.03078 0.05284,0.03958 0.0057,0.03795 -0.06267,-0.0022 -0.08138,-0.01667 -0.04018,-0.03111 z m 1.156576,1.397186 c 0.03336,0 0.05023,0.0065 0.03748,0.0118 -0.01273,0.0053 -0.03108,0.01532 -0.04074,0.02235 -0.0097,0.007 -0.02654,0.0025 -0.03748,-0.0118 -0.01431,-0.01758 -0.0031,-0.02386 0.04074,-0.02235 z m 0.116458,0.008 c 0.06621,-0.01808 0.07709,-0.01758 0.09384,0.003 0.01195,0.01482 0.03128,0.01909 0.05234,0.01155 0.02092,-0.0073 0.02811,-0.0058 0.01918,0.004 -0.0079,0.0085 -0.03316,0.01381 -0.05637,0.0113 -0.0232,-0.0025 -0.04897,0.0035 -0.05749,0.01281 -0.01135,0.01255 -0.02968,0.0118 -0.07088,-0.0028 -0.04667,-0.01657 -0.0436,-0.02285 0.01936,-0.03992 z m -0.971522,-1.217069 c 0.01914,-0.0018 0.03908,0.0025 0.04451,0.0091 0.0054,0.0067 -0.0084,0.01032 -0.03054,0.0081 -0.02225,-0.0022 -0.04229,-0.0063 -0.04455,-0.0091 -0.002,-0.0028 0.01155,-0.0064 0.0306,-0.0081 z m 1.312269,1.538579 c 0.0167,0.0073 0.0235,0.01732 0.01491,0.0221 -0.0084,0.0048 -0.02215,0 -0.03043,-0.01331 -0.0089,-0.01356 -0.0031,-0.01683 0.01529,-0.0088 z M 30.8321,17.063725 c 0.02565,-0.01193 0.04486,-0.01456 0.051,-0.007 0.01125,0.01384 -0.04144,0.0358 -0.07198,0.02998 -0.01105,-0.002 -0.0015,-0.01248 0.02099,-0.023 z m 0.527445,0.622044 c 0.002,-0.02041 -0.0088,-0.05966 -0.0235,-0.08723 -0.03506,-0.06554 -0.02889,-0.06901 0.158793,-0.08888 0.05068,-0.0053 0.07425,-0.01343 0.05593,-0.01914 -0.01841,-0.0057 -0.07903,-0.0022 -0.144421,0.008 -0.09944,0.01574 -0.115053,0.01499 -0.132375,-0.0063 -0.01743,-0.02137 2.51e-4,-0.02595 0.153807,-0.03951 0.154096,-0.01364 0.17567,-0.0126 0.193353,0.0092 0.01097,0.01346 0.05257,0.02868 0.09244,0.03378 0.03993,0.0051 0.06427,0.01401 0.05419,0.01979 -0.01012,0.0058 -0.0433,0.0067 -0.07384,0.002 -0.06429,-0.0098 -0.112076,0.0044 -0.120811,0.03584 -0.0045,0.01604 0.0114,0.02046 0.05873,0.01627 0.08116,-0.0072 0.20489,0.04813 0.181532,0.08115 -0.03135,0.04428 -0.213611,0.118043 -0.313503,0.126883 -0.08504,0.0075 -0.101572,0.0043 -0.121077,-0.0231 -0.01215,-0.0175 -0.02107,-0.04846 -0.01923,-0.06887 z m 0.39121,-0.0097 c 0.0079,-0.0045 -0.01035,-0.01276 -0.04038,-0.01843 -0.0434,-0.0082 -0.04632,-0.0065 -0.01426,0.0081 0.02222,0.01014 0.04681,0.01479 0.05455,0.01029 z m 0.537632,0.609104 c 0.01554,-0.01657 0.02549,-0.01632 0.06044,0 0.02298,0.0113 0.09181,0.02835 0.152887,0.03794 0.08454,0.01331 0.104005,0.0216 0.08149,0.03435 -0.02252,0.01281 -0.04677,0.01356 -0.101547,0.0033 -0.03958,-0.0075 -0.09426,-0.0118 -0.12152,-0.0093 -0.05596,0.005 -0.10043,-0.03654 -0.07175,-0.06694 z m -0.568986,-0.747807 c 0.04204,-0.0037 0.113937,0.02436 0.09301,0.03632 -0.0076,0.0043 -0.03989,-0.0013 -0.0719,-0.01258 -0.04034,-0.01419 -0.04681,-0.02144 -0.02134,-0.0237 z m -1.920518,-2.414395 c 0.01732,-0.0061 0.05248,-0.007 0.07817,-0.002 0.03296,0.0063 0.02431,0.01032 -0.02937,0.01364 -0.08658,0.0054 -0.09285,0.0039 -0.04887,-0.0115 z m 1.871732,2.308248 c 0.01914,-0.0018 0.04074,0.0044 0.04807,0.01343 0.0074,0.0091 2.46e-4,0.02107 -0.01552,0.02664 -0.01597,0.0056 -0.03752,-5.06e-4 -0.04803,-0.01343 -0.01055,-0.01296 -0.0035,-0.02496 0.01547,-0.02664 z m 0.09555,0.03757 c -0.0031,-0.02633 0.0054,-0.02711 0.11212,-0.01025 0.113797,0.01798 0.118524,0.02975 0.01552,0.03885 -0.09565,0.0084 -0.124099,0.002 -0.127699,-0.0286 z m -0.06564,-0.145828 c 0.0176,-0.0062 0.06855,-0.0018 0.113216,0.0097 0.07438,0.01916 0.07804,0.02313 0.0434,0.04702 -0.02081,0.01434 -0.05523,0.02763 -0.07652,0.02951 -0.05075,0.0045 -0.121551,-0.07173 -0.08014,-0.08625 z m 0.169156,0.213389 c 0.02019,-0.0018 0.03125,0.0028 0.02456,0.01012 -0.0067,0.0074 0.0045,0.0119 0.02456,0.01012 0.02019,-0.0018 0.04566,0.0077 0.05652,0.02104 0.01647,0.02032 0.0093,0.0227 -0.04385,0.01464 -0.07273,-0.01105 -0.116936,-0.05103 -0.06179,-0.0559 z m 2.492763,2.891439 c 0.015,-0.0053 0.03329,0 0.04074,0.01406 0.0074,0.01306 9.49e-4,0.02461 -0.01383,0.02604 -0.03833,0.0035 -0.05978,-0.0286 -0.02692,-0.04013 z m -2.282431,-2.993885 c 0.112949,-0.01235 0.135175,-0.01 0.242269,0.0262 0.0649,0.0219 0.113873,0.04214 0.108947,0.04495 -0.005,0.0028 -0.04702,0.01213 -0.09348,0.02064 -0.0618,0.01137 -0.09441,0.01102 -0.121292,-0.001 -0.02159,-0.0098 -0.02019,-0.01507 0.0035,-0.01271 0.02215,0.0022 0.01035,-0.008 -0.02627,-0.02265 -0.05664,-0.02267 -0.07015,-0.02355 -0.09088,-0.0059 -0.02061,0.01753 -0.0338,0.0164 -0.08575,-0.0075 -0.05953,-0.02738 -0.05764,-0.02864 0.06295,-0.04186 z m -2.44e-4,0.104461 c 0.02767,-0.01582 0.06507,-0.01514 0.102408,0.002 0.02009,0.0091 0.01805,0.01426 -0.005,0.01195 -0.022,-0.0022 -0.03562,0.0015 -0.03016,0.0082 0.0054,0.0067 -0.0058,0.01351 -0.02481,0.01522 -0.03903,0.0035 -0.06851,-0.0223 -0.04255,-0.03715 z m 2.481817,3.013469 c 0.04089,-0.003 0.05128,0 0.02658,0.005 -0.02234,0.0055 -0.05261,0.0078 -0.06713,0.005 -0.01462,-0.0028 0.0035,-0.0073 0.04063,-0.01005 z m 0.067,0.01758 c 0.01914,-0.0025 0.03918,0.0025 0.0446,0.009 0.0054,0.0068 -0.0083,0.01029 -0.03063,0.008 -0.02224,-0.0025 -0.04224,-0.0063 -0.0445,-0.009 -0.0019,-0.0028 0.01155,-0.0065 0.03053,-0.008 z M 33.34245,18.208678 c 0.01989,-0.05354 0.169795,-0.05994 0.162505,-0.007 -0.0025,0.01657 -0.03101,0.02619 -0.08981,0.02971 -0.04752,0.0028 -0.0856,0.0048 -0.08455,0.0045 10e-4,-1.51e-4 0.0064,-0.01255 0.0119,-0.02735 z m 2.004835,2.444483 c 0.02863,-0.0025 0.05608,2.51e-4 0.06104,0.0065 0.005,0.006 -0.0168,0.01029 -0.04838,0.009 -0.03158,0 -0.05903,-0.004 -0.06104,-0.0065 -0.0019,-0.0025 0.01977,-0.0065 0.04837,-0.009 z m 0.144664,0.01783 c 0.01588,-0.0055 0.03336,-0.0048 0.03873,0.0025 0.0054,0.0065 -0.0058,0.01356 -0.02474,0.01532 -0.01914,0.0025 -0.03652,0 -0.03878,-0.0025 -0.0019,-0.0028 0.009,-0.0095 0.0248,-0.01532 z M 33.5185,18.126815 c 0.03309,-0.01532 0.0432,-0.01557 0.05555,-2.51e-4 0.0083,0.01029 -0.0083,0.02059 -0.03697,0.0231 -0.02862,0.0025 -0.05362,0.0028 -0.05555,2.51e-4 -0.002,-0.0025 0.01472,-0.01281 0.03692,-0.0231 z m 0.09051,0.08113 c 0.05467,-0.0063 0.06547,-0.0043 0.0435,0.0083 -0.01924,0.01105 -0.04401,0.01381 -0.07265,0.0083 -0.02862,-0.0055 -0.01868,-0.01105 0.02914,-0.01657 z m 2.005625,2.476659 c 0.02224,0.0025 0.0423,0.0063 0.04456,0.009 0.0019,0.0028 -0.01155,0.0065 -0.03059,0.008 -0.01914,0.0025 -0.03908,-0.0025 -0.04451,-0.009 -0.0054,-0.0065 0.0084,-0.01029 0.03053,-0.008 z m -1.686868,-2.900741 c 0.01914,-0.0025 0.04124,0.005 0.04918,0.01482 0.008,0.0098 -0.0035,0.01607 -0.02594,0.01381 -0.02224,-0.0025 -0.04431,-0.0088 -0.04913,-0.01482 -0.005,-0.006 0.0069,-0.01206 0.02585,-0.01381 z m 2.786717,2.858788 c 0.02863,-0.0025 0.04857,-0.0088 0.0443,-0.01406 -0.0086,-0.01055 0.278045,-0.0635 0.405732,-0.07478 0.04566,-0.004 0.155414,-0.02702 0.24385,-0.05107 0.08843,-0.02411 0.198361,-0.04894 0.244284,-0.05534 0.04591,-0.0063 0.0989,-0.01984 0.117727,-0.02998 0.03918,-0.02109 0.108181,-0.03041 0.09189,-0.01255 -0.01082,0.0118 0.148561,-0.01281 0.253664,-0.03942 0.0323,-0.0083 0.05812,-0.0085 0.06428,0 0.0056,0.007 -0.01332,0.01482 -0.04219,0.01733 -0.02889,0.0025 -0.07568,0.0118 -0.104015,0.02059 -0.09051,0.02822 -0.484986,0.115958 -0.640995,0.142576 -0.08296,0.01406 -0.186202,0.03417 -0.229455,0.04447 -0.08834,0.02109 -0.489321,0.07224 -0.496503,0.0634 -0.0025,-0.0033 0.01879,-0.0078 0.04737,-0.01029 z M 33.74043,16.823595 c 0.01186,-0.0072 0.02063,-0.02403 0.01955,-0.03744 -9.49e-4,-0.01607 0.0096,-0.01203 0.0318,0.01183 0.01829,0.01991 0.02155,0.04043 0.0067,0.04563 -0.03672,0.01288 -0.08486,-0.0037 -0.05814,-0.01999 z m 3.126482,3.678605 c 0.0093,-0.0053 0.04175,-0.0118 0.07213,-0.01406 0.04531,-0.0038 0.04561,0 0.0019,0.01331 -0.05423,0.01808 -0.104885,0.01858 -0.07391,0 z m -2.270756,-2.943928 c 0.02018,0.002 0.03687,0.01464 0.03707,0.02813 2.5e-4,0.03372 -0.02145,0.03263 -0.04993,-0.0025 -0.0131,-0.01612 -0.0073,-0.02767 0.01284,-0.02567 z m 2.288885,2.808325 c 0.01091,-0.01406 0.05899,-0.02669 0.123431,-0.03237 0.07578,-0.0068 0.10546,-0.01607 0.105141,-0.03342 -2.47e-4,-0.01331 0.04546,-0.0395 0.101547,-0.05838 0.0561,-0.01883 0.101806,-0.04452 0.101575,-0.05698 -2.44e-4,-0.01255 0.02933,-0.03189 0.06566,-0.04314 0.03632,-0.0113 0.08058,-0.04068 0.09829,-0.06544 0.01775,-0.02486 0.04552,-0.04615 0.06173,-0.04758 0.01626,-0.0025 0.0045,-0.01029 -0.02594,-0.01959 -0.04466,-0.01381 -0.04481,-0.02729 -2.47e-4,-0.06915 0.03012,-0.02865 0.04978,-0.05823 0.0437,-0.06574 -0.0061,-0.0075 0.0097,-0.01557 0.03512,-0.01783 0.02936,-0.0025 0.02107,0.02084 -0.02231,0.06408 -0.08063,0.08018 -0.07975,0.08314 0.02734,0.0914 0.05794,0.0045 0.109621,1.5e-4 0.17542,-0.01456 0.07147,-0.01607 0.0896,-0.01708 0.07778,-0.0048 -0.0085,0.009 -0.0149,0.01884 -0.0143,0.02235 2.5e-4,0.0033 -0.0035,0.01582 -0.0091,0.0278 -0.01351,0.02865 0.08765,0.04894 0.172996,0.03473 0.0651,-0.0108 0.0654,-0.01055 0.01443,0.01255 -0.0286,0.01306 -0.04686,0.033 -0.04058,0.0444 0.0062,0.0113 0.0032,0.03247 -0.0068,0.04686 -0.01003,0.01431 -0.0045,0.03628 0.01259,0.04864 0.03712,0.02717 -0.06762,0.06559 -0.260467,0.09549 -0.07264,0.0113 -0.145559,0.02674 -0.162027,0.0344 -0.01648,0.0075 -0.09609,0.0274 -0.1769,0.04389 -0.1267,0.02586 -0.15451,0.02825 -0.201762,0.01707 -0.03012,-0.007 -0.07204,-0.0085 -0.09315,-0.0035 -0.0211,0.005 -0.07934,0 -0.129408,-0.0095 -0.06841,-0.01406 -0.08659,-0.02436 -0.07317,-0.04173 z m -2.371304,-3.167011 c 0.02838,-0.0068 0.07279,-0.01017 0.09864,-0.0075 0.02591,0.0027 0.05757,0.004 0.07035,0.003 0.01278,-0.001 0.04009,0.0018 0.06065,0.006 0.02177,0.0046 0.01642,0.006 -0.01266,0.0034 -0.02753,-0.0025 -0.04531,0.0013 -0.03953,0.0085 0.0065,0.0081 -0.02123,0.01255 -0.0739,0.01195 -0.121998,-0.0013 -0.162761,-0.01132 -0.103534,-0.02552 z m 0.303284,0.260018 c 0.01914,-0.0018 0.03913,0.0025 0.04456,0.0091 0.0054,0.0067 -0.0083,0.01032 -0.03059,0.0081 -0.02224,-0.0022 -0.04224,-0.0063 -0.04451,-0.0091 -0.0025,-0.0028 0.01148,-0.0064 0.03053,-0.0081 z m 2.018281,2.068586 c 0.01234,-0.03418 0.06259,-0.02948 0.13017,0.01205 0.05545,0.03415 0.03154,0.06162 -0.05115,0.05873 -0.0709,-0.0025 -0.09566,-0.02461 -0.07902,-0.07089 z m -0.377036,-0.948426 c 0.07296,-0.01381 0.135653,-0.03478 0.139311,-0.04628 0.0045,-0.01482 0.02044,-0.01833 0.05326,-0.01205 0.03069,0.0058 0.04119,0.01707 0.03053,0.03312 -0.0088,0.01331 -0.004,0.02993 0.01082,0.03694 0.01478,0.007 -0.0069,0.02948 -0.04812,0.04989 -0.04124,0.02034 -0.05531,0.03558 -0.03129,0.03367 0.06263,-0.005 0.07265,0.01858 0.01019,0.02411 -0.0286,0.0025 -0.05856,-0.0025 -0.06654,-0.0095 -0.0522,-0.05057 -0.08303,-0.06559 -0.15257,-0.0745 -0.0729,-0.0093 -0.06907,-0.0118 0.05423,-0.03538 z m 0.812413,1.074442 c 0.03456,-0.0073 0.04993,-0.01732 0.03426,-0.0221 -0.04485,-0.01406 -0.0082,-0.01255 0.09003,0.0033 0.05814,0.0093 0.09709,0.02622 0.109178,0.04731 0.01161,0.02059 0.03948,0.03295 0.07484,0.03319 0.04295,2.51e-4 0.0436,0 0.0032,-0.006 -0.03737,-0.0045 -0.02452,-0.009 0.0432,-0.01557 0.12812,-0.01206 0.19002,-0.02386 0.209633,-0.04055 0.0098,-0.0083 0.02123,-0.0078 0.02914,0.0025 0.0089,0.01055 0.04049,0.01055 0.10292,1.25e-4 0.04953,-0.0083 0.117499,-0.01205 0.151203,-0.0083 0.05037,0.0055 0.05254,0.0075 0.01224,0.01105 -0.06037,0.0055 -0.0078,0.01682 0.06524,0.01406 0.02914,0 0.04908,-0.007 0.0442,-0.01281 -0.005,-0.006 0.03395,-0.0033 0.08605,0.0058 0.0522,0.009 0.107555,0.01557 0.123032,0.01406 0.01544,0 0.03446,0.0053 0.04215,0.01456 0.0077,0.0095 -0.01136,0.01933 -0.04235,0.0221 -0.04581,0.004 -0.04576,0.0075 2.09e-4,0.01808 0.04702,0.01105 0.04155,0.01683 -0.03251,0.0345 -0.05767,0.01381 -0.110959,0.01908 -0.151339,0.01507 -0.08464,-0.0085 -0.188587,0.03965 -0.162752,0.07528 l 0.01984,0.02697 -0.05389,-0.0236 c -0.06085,-0.02677 -0.0218,-0.0745 0.08481,-0.103603 0.03367,-0.0093 0.05226,-0.0226 0.04129,-0.02986 -0.01104,-0.0073 -0.0045,-0.01456 0.01471,-0.01607 0.01911,-0.0025 0.02898,-0.01004 0.02199,-0.01858 -0.0085,-0.01055 -0.03978,-0.0113 -0.09454,-0.0025 -0.0554,0.0088 -0.09364,0.0078 -0.118372,-0.0035 -0.02009,-0.009 -0.05917,-0.01456 -0.08688,-0.01206 -0.02775,0.0025 -0.03798,0.0083 -0.02281,0.01306 0.01512,0.0048 0.0059,0.01381 -0.02063,0.02009 -0.02648,0.0063 -0.0436,0.0065 -0.03813,0 0.01392,-0.01532 -0.101708,-0.0043 -0.141946,0.01331 -0.01819,0.008 -0.052,0.01281 -0.07521,0.0103 -0.05566,-0.0055 -0.03943,0.01306 0.02155,0.02461 0.03113,0.006 0.03777,0.01256 0.01873,0.01934 -0.03923,0.01381 -0.152754,0.0088 -0.139222,-0.006 0.006,-0.0065 -0.0175,-0.0095 -0.05219,-0.0068 -0.104521,0.0085 -0.18742,-0.01105 -0.231543,-0.05517 -0.03296,-0.03279 -0.02848,-0.04444 0.02101,-0.05489 z m -0.444363,-0.537949 c 0.01145,-0.0075 0.02076,-0.03882 0.02082,-0.06978 2.8e-5,-0.03096 0.03104,-0.07513 0.06891,-0.09816 0.05553,-0.03375 0.05893,-0.04731 0.01759,-0.07018 -0.03672,-0.02034 -0.03883,-0.03131 -0.0074,-0.03885 0.07352,-0.01758 -0.0052,-0.08515 -0.129271,-0.110937 -0.12975,-0.02697 -0.140137,-0.0617 -0.01807,-0.06029 0.104246,0 0.182681,0.01281 0.195915,0.0292 0.0059,0.0073 0.06093,0.0236 0.12239,0.03623 0.117398,0.02436 0.159455,0.0502 0.109998,0.06752 -0.01617,0.0055 -0.01661,0.01431 -9.49e-4,0.01933 0.01576,0.0048 0.01601,0.01005 2.46e-4,0.0113 -0.03682,0.0033 -0.06927,0.06619 -0.04792,0.0925 0.0119,0.01456 -0.01073,0.02335 -0.07791,0.02996 -0.05208,0.005 -0.07303,0.01029 -0.04662,0.0113 0.0594,0.0025 0.08869,0.03312 0.03602,0.03777 -0.02113,0.0025 -0.02196,0.0108 -0.0019,0.02009 0.02927,0.01331 0.01807,0.01707 -0.05594,0.01883 -0.05091,0 -0.09732,0.0075 -0.103069,0.01381 -0.0058,0.0063 0.01196,0.0095 0.03989,0.007 0.05488,-0.0048 0.111693,0.01557 0.13974,0.05002 0.02022,0.02486 -0.01946,0.03134 -0.137864,0.0221 -0.06278,-0.0048 -0.08577,-0.0025 -0.09893,0.0118 -0.01386,0.01456 -0.02009,0.01456 -0.0321,0 -0.0082,-0.0098 -0.0057,-0.02385 0.0058,-0.03119 z m -1.326885,-1.7292 c 0.01797,-0.0018 0.04637,0.0013 0.06303,0.0066 0.01743,0.0054 0.005,0.0086 -0.02898,0.0074 -0.06629,-0.0022 -0.08394,-0.0095 -0.03405,-0.01391 z m 2.052577,2.432745 c 0.01914,-0.0025 0.03913,0.0025 0.04456,0.009 0.0054,0.0065 -0.0084,0.0103 -0.03059,0.008 -0.02224,-0.0025 -0.04225,-0.0063 -0.04451,-0.009 -0.0019,-0.0028 0.01152,-0.0065 0.03053,-0.008 z m -1.78422,-2.326377 c 0.01329,-0.0046 0.03012,-10e-4 0.03732,0.0077 0.0072,0.0089 -0.0019,0.01467 -0.02063,0.01286 -0.01851,-0.002 -0.03531,-0.0053 -0.03727,-0.0077 -0.0019,-0.0025 0.0073,-0.0082 0.02063,-0.01283 z m 0.798713,0.943997 c 0.01788,0.0103 0.02983,0.02586 0.02692,0.03443 -0.0032,0.0085 -0.01775,1.76e-4 -0.03245,-0.01883 -0.0149,-0.01883 -0.01199,-0.02599 0.0059,-0.01557 z m 0.644919,0.78049 c 0.01645,-0.0058 0.02594,-0.0025 0.02243,0.0095 -0.007,0.02185 -0.02882,0.0277 -0.0422,0.0113 -0.005,-0.006 0.004,-0.01532 0.01984,-0.02084 z m -1.332296,-1.671144 c 0.01601,0.007 0.02648,0.01991 0.02325,0.02863 -0.0032,0.0087 -0.01636,0.003 -0.02914,-0.01276 -0.01284,-0.01574 -0.01019,-0.02287 0.0059,-0.01585 z m 2.635326,3.187576 c 0.02019,0.0025 0.06935,-0.0043 0.109232,-0.01431 l 0.07252,-0.01783 -0.07857,0.0063 c -0.126677,0.01005 -0.139067,-0.03812 -0.02136,-0.08319 0.05426,-0.02084 0.08612,-0.04168 0.0708,-0.04646 -0.01541,-0.0048 -0.01234,-0.0085 0.0065,-0.0083 0.04179,2.51e-4 0.626315,-0.211478 0.681619,-0.247109 0.02164,-0.01406 0.03918,-0.04115 0.03883,-0.06042 -2.47e-4,-0.01933 0.02949,-0.04314 0.06631,-0.05306 0.03677,-0.0098 0.06211,-0.02411 0.0562,-0.03126 -0.0059,-0.0073 0.01114,-0.01858 0.03793,-0.02486 0.02677,-0.0063 0.03319,-0.01657 0.01427,-0.02235 -0.01892,-0.006 -0.01636,-0.01708 0.0054,-0.02461 0.02199,-0.0078 0.03592,-0.01883 0.03116,-0.02486 -0.0155,-0.01908 0.144366,-0.09489 0.284095,-0.134742 0.118593,-0.03383 0.136697,-0.0466 0.14255,-0.100541 0.0052,-0.04809 -9.49e-4,-0.0581 -0.02898,-0.04517 -0.05631,0.02627 -0.05987,-0.0025 -0.004,-0.03099 0.03265,-0.01657 0.05799,-0.02134 0.07355,-0.01356 0.01395,0.007 0.04335,0 0.07132,-0.01984 0.02623,-0.01758 0.03129,-0.02637 0.01139,-0.01984 -0.02297,0.0075 -0.03431,0.006 -0.03097,-0.0045 0.0032,-0.009 0.0428,-0.02674 0.08861,-0.03915 0.119524,-0.03234 0.309307,-0.133435 0.291529,-0.155307 -0.0096,-0.0118 0.0058,-0.01783 0.0423,-0.01657 0.03157,0 0.06346,0.0095 0.07089,0.01858 0.0078,0.0095 0.02756,0.0118 0.04692,0.005 0.02091,-0.0073 0.02816,-0.0058 0.01917,0.004 -0.0078,0.0085 -0.03107,0.01381 -0.05185,0.0118 -0.02072,-0.0025 -0.02904,0.0068 -0.01851,0.01984 0.01053,0.01306 0.02784,0.02285 0.03843,0.02185 0.04863,-0.0043 0.35723,-0.132882 0.373239,-0.155506 0.0099,-0.01406 0.042,-0.02461 0.07186,-0.0236 0.0621,0.0025 0.100712,-0.03904 0.07095,-0.07568 -0.01107,-0.01356 -0.0717,-0.03674 -0.134559,-0.05123 -0.06289,-0.01456 -0.120308,-0.0337 -0.127585,-0.04266 -0.0072,-0.009 -0.03306,-0.01482 -0.05722,-0.01331 -0.09874,0.0068 0.08863,-0.02986 0.212882,-0.04163 0.09486,-0.009 0.150058,-0.0226 0.188613,-0.04681 0.03637,-0.02285 0.109039,-0.04171 0.218268,-0.05695 0.182107,-0.02541 0.211857,-0.03576 0.322997,-0.112143 0.0424,-0.02918 0.08526,-0.05368 0.09521,-0.05444 0.10267,-0.008 0.125842,-0.01507 0.139899,-0.04289 0.009,-0.01758 0.03063,-0.03337 0.04822,-0.03493 0.06128,-0.0055 0.27104,-0.112997 0.256528,-0.131553 -0.01107,-0.01406 -0.0045,-0.01557 0.02563,-0.0065 0.02211,0.0068 0.06018,0.0075 0.0846,0.0025 0.02439,-0.0058 0.06341,-0.008 0.08665,-0.005 0.06831,0.0085 0.163616,0.05399 0.168358,0.0801 0.0025,0.01331 0.03169,0.06317 0.06512,0.110835 0.05128,0.0732 0.05155,0.102775 0.0019,0.190084 -0.03235,0.05685 -0.0984,0.133837 -0.146749,0.171051 -0.08833,0.068 -0.10217,0.09931 -0.03394,0.07686 0.02129,-0.007 0.02806,-0.0065 0.01623,0 -0.01126,0.007 -0.03223,0.01406 -0.04666,0.01532 -0.01446,0.0025 -0.09398,0.04748 -0.17679,0.102702 -0.08385,0.0559 -0.200572,0.113648 -0.263482,0.130347 -0.06388,0.01683 -0.150381,0.06006 -0.199173,0.09928 -0.04742,0.03814 -0.09154,0.06981 -0.09805,0.07038 -0.0065,0 -0.0081,-0.01582 -0.0035,-0.03626 0.01509,-0.06755 -0.03502,-0.06074 -0.08746,0.0118 -0.0436,0.06037 -0.07543,0.07744 -0.20688,0.110887 -0.08606,0.02185 -0.278622,0.09833 -0.431676,0.171303 -0.151969,0.07247 -0.339069,0.161407 -0.415761,0.197643 -0.0767,0.03623 -0.211231,0.103957 -0.298939,0.150485 -0.08772,0.04655 -0.242762,0.113171 -0.344543,0.148024 -0.101768,0.03488 -0.247843,0.08975 -0.324611,0.121909 -0.131448,0.05512 -0.381117,0.129493 -0.547946,0.163191 -0.07358,0.01482 -0.07411,0.01456 -0.03974,-0.01984 0.03421,-0.0343 0.03336,-0.03478 -0.05009,-0.0274 -0.04666,0.004 -0.09977,0.0048 -0.117932,0 -0.04018,-0.0075 -0.05358,-0.007 -0.273525,0.01029 -0.09688,0.0078 -0.179,0.0085 -0.184461,0.0025 -0.0054,-0.0068 0.0067,-0.01054 0.02686,-0.0085 z m 3.385,-1.077891 c 0.02224,-0.0103 0.03527,-0.02461 0.02892,-0.03166 -0.0063,-0.007 -0.02636,0 -0.04446,0.01381 -0.04225,0.03435 -0.03576,0.04171 0.01547,0.01783 z m -4.041814,0.08193 c 0.07684,-0.006 0.136713,-0.01482 0.132891,-0.01959 -0.004,-0.0048 0.0256,-0.0085 0.06524,-0.0088 0.05979,-1.25e-4 0.06829,0.004 0.04953,0.02436 -0.0125,0.01356 -0.03531,0.02335 -0.05077,0.02185 -0.01544,-0.0025 -0.03085,0.0058 -0.03411,0.01607 -0.0035,0.01029 -0.02382,0.02034 -0.04546,0.02235 -0.02177,0.0025 -0.03672,-0.005 -0.0334,-0.01582 0.005,-0.01507 -0.0051,-0.01582 -0.04681,-0.0028 -0.04004,0.0123 -0.06737,0.01205 -0.11225,-0.0025 -0.08019,-0.02461 -0.08274,-0.02335 0.07513,-0.03583 z m 0.527571,0.549623 c 0.102034,-0.03003 0.192204,-0.05333 0.200367,-0.05178 0.02436,0.0048 -0.209438,0.08761 -0.259189,0.09201 -0.02522,0.0025 -0.05956,0.0118 -0.07631,0.0216 -0.01958,0.0113 -0.03395,0.01306 -0.04044,0.005 -0.0055,-0.0068 0.07352,-0.03684 0.175562,-0.06687 z m -0.356534,-0.387571 c 0.02022,-0.0025 0.03126,0.0028 0.02455,0.01005 -0.0067,0.0073 -0.01905,0.01381 -0.02743,0.01456 -0.0084,0 -0.01949,-0.0038 -0.02455,-0.01005 -0.0052,-0.0063 0.0072,-0.01306 0.02743,-0.01456 z m 0.205793,0.165928 c -0.0082,-0.05 0.02683,-0.07164 0.185414,-0.114553 0.08319,-0.0226 0.182291,-0.06016 0.22021,-0.08367 0.03792,-0.0236 0.07397,-0.03651 0.08014,-0.0289 0.01297,0.01607 -0.134157,0.09786 -0.183747,0.102224 -0.05178,0.0045 -0.285227,0.09858 -0.275258,0.110836 0.01883,0.0231 0.120103,0 0.188974,-0.04457 0.03968,-0.02526 0.07581,-0.04141 0.0803,-0.03588 0.0045,0.0055 0.0292,0 0.05474,-0.01381 0.02914,-0.01482 0.06716,-0.02185 0.10155,-0.01833 0.04275,0.0043 0.04094,0.0083 -0.0085,0.01883 -0.03491,0.0073 -0.08311,0.02604 -0.107106,0.04148 -0.04757,0.03066 -0.05485,0.03018 0.196706,0.0123 0.03868,-0.0028 0.0765,0.0025 0.08407,0.01206 0.0076,0.0093 -0.01411,0.01858 -0.04823,0.02084 -0.03411,0.0025 -0.05628,0.0108 -0.04928,0.01933 0.0097,0.01206 -0.0099,0.01482 -0.08287,0.01255 -0.05256,-0.0025 -0.09277,0 -0.08935,0.005 0.0035,0.0045 -0.01478,0.0025 -0.04043,-0.0058 -0.03316,-0.01005 -0.05441,-0.0098 -0.07375,0 -0.01936,0.01105 0.0032,0.02335 0.07682,0.04221 0.05715,0.01456 0.08772,0.02411 0.06782,0.02084 -0.0199,-0.0033 -0.05337,0.0025 -0.07442,0.0118 -0.02974,0.01381 -0.04807,0.01482 -0.0825,0.004 -0.0243,-0.0075 -0.07208,-0.0113 -0.106115,-0.0083 -0.06504,0.0058 -0.105479,-0.0231 -0.115158,-0.08186 z m 0.506057,0.114202 c 0.06547,-0.02235 0.174325,-0.0634 0.241901,-0.09125 0.06757,-0.02787 0.125308,-0.04769 0.128288,-0.04399 0.0086,0.01055 -0.103448,0.06072 -0.242699,0.108653 -0.105672,0.03638 -0.115793,0.04432 -0.05825,0.04578 0.0797,0.0025 0.05664,0.0123 -0.0827,0.03696 -0.09326,0.01657 -0.09513,0.01607 -0.04275,-0.0068 0.0441,-0.01933 0.04405,-0.0216 -2.34e-4,-0.0118 -0.09218,0.02059 -0.06894,0.0053 0.05644,-0.03757 z m 0.414907,-0.09328 c 0.01212,-0.01557 0.05811,-0.0515 0.102233,-0.0796 0.0441,-0.02812 0.07012,-0.05025 0.05777,-0.04914 -0.01234,0 -0.0091,-0.0075 0.0066,-0.01883 0.01598,-0.01155 0.04722,-0.01908 0.0694,-0.01683 0.02224,0.0025 0.04822,-0.0043 0.05785,-0.01456 0.0097,-0.01029 0.02136,-0.01331 0.02613,-0.007 0.005,0.0063 -0.06818,0.05971 -0.162049,0.118645 -0.1723,0.108149 -0.198003,0.119071 -0.157892,0.06717 z m -0.241747,-0.370328 c 0.02702,0.0028 0.06534,-0.0028 0.08521,-0.01205 0.04687,-0.02185 0.112861,0.0045 0.07109,0.02828 -0.02107,0.01206 -0.01085,0.01482 0.03923,0.01029 0.05272,-0.0045 0.04852,-10e-5 -0.01883,0.02034 -0.04757,0.01456 -0.09674,0.02436 -0.10928,0.02185 -0.01256,-0.0025 -0.0045,-0.006 0.01769,-0.008 0.02224,-0.0025 0.03602,-0.009 0.03059,-0.01557 -0.0054,-0.0065 -0.02287,-0.0075 -0.03878,-0.0025 -0.01591,0.0055 -0.03299,0.005 -0.03797,0 -0.005,-0.0063 -0.02689,-0.01933 -0.04857,-0.0291 -0.02756,-0.01255 -0.02465,-0.01657 0.0096,-0.01306 z m 0.236919,0.301148 c 0.0093,-0.0053 0.03309,-0.01105 0.05277,-0.01281 0.02177,-0.0025 0.02405,0.0035 0.0058,0.01406 -0.01655,0.0095 -0.04028,0.01532 -0.05277,0.01281 -0.0125,-0.0025 -0.01512,-0.0088 -0.0059,-0.01406 z m -0.02082,-0.178157 c 0.03818,-0.0118 0.06273,-0.01431 0.06873,-0.007 0.0051,0.0063 -0.01747,0.01984 -0.05014,0.02983 -0.03817,0.0118 -0.06273,0.01431 -0.06873,0.007 -0.0051,-0.0063 0.0175,-0.01984 0.05014,-0.02983 z m -0.0016,-0.0735 c 0.02974,-0.0025 0.04858,0 0.04195,0.0085 -0.0067,0.0073 -0.02689,0.01456 -0.04481,0.01632 -0.01794,0.0025 -0.03682,-0.0025 -0.04195,-0.0085 -0.0052,-0.0063 0.01509,-0.01356 0.04481,-0.01632 z m 0.195538,-0.01984 c 0.12432,-0.05652 0.219748,-0.08422 0.233195,-0.06765 0.0045,0.0058 -0.01873,0.01607 -0.05189,0.0231 -0.03309,0.007 -0.09072,0.03013 -0.127937,0.05143 -0.05622,0.03214 -0.155867,0.06152 -0.166064,0.04899 -0.0016,-0.0025 0.04923,-0.02694 0.112693,-0.05582 z m -0.01275,-0.119223 c 0.02689,-0.01255 0.04355,-0.01456 0.05036,-0.0063 0.0056,0.0068 0.06235,-0.01733 0.126101,-0.05373 0.09539,-0.05454 0.132442,-0.06636 0.209197,-0.06677 0.13914,0 0.208539,-0.02059 0.217888,-0.0625 0.0064,-0.0285 1.45e-4,-0.03458 -0.02616,-0.02536 -0.04928,0.01732 -0.153529,0.0277 -0.141124,0.01406 0.0058,-0.0063 0.02949,-0.01205 0.05285,-0.01281 0.06988,-0.0025 0.150504,-0.02868 0.137482,-0.04472 -0.0067,-0.0083 0.0524,-0.04364 0.131309,-0.07867 0.07892,-0.035 0.239567,-0.115958 0.357009,-0.179865 0.117442,-0.06391 0.234026,-0.118018 0.259087,-0.120226 0.06266,-0.0055 0.134274,-0.05447 0.09268,-0.06333 -0.01857,-0.004 -0.01256,-0.0053 0.01348,-0.003 0.02604,0.0025 0.05282,-0.0025 0.05959,-0.0095 0.02063,-0.0226 0.07591,-0.02059 0.06855,0.0025 -0.0062,0.01933 0.0032,0.01808 0.08081,-0.01029 0.149064,-0.05424 0.285907,-0.120704 0.274906,-0.133511 -0.0058,-0.0068 -0.01936,-0.0033 -0.03012,0.008 -0.01085,0.01105 -0.02465,0.01431 -0.03063,0.0073 -0.01721,-0.01984 0.06634,-0.05278 0.111263,-0.04397 0.06153,0.01205 -0.161027,0.178008 -0.308706,0.23011 -0.150279,0.05301 -0.214116,0.105337 -0.184319,0.151089 0.02284,0.03513 -0.100199,0.138409 -0.186702,0.156665 -0.03069,0.0065 -0.09471,0.04017 -0.142208,0.07485 -0.08714,0.06363 -0.143959,0.07824 -0.108308,0.02787 0.0336,-0.04748 -0.133651,-0.01959 -0.284826,0.04731 -0.07398,0.03279 -0.187043,0.07568 -0.251253,0.09532 -0.06422,0.01958 -0.09408,0.03392 -0.06636,0.03177 0.03677,-0.0028 0.03602,0.0025 -0.0025,0.01783 -0.0578,0.0236 -0.159154,0.02684 -0.138643,0.0043 0.0075,-0.0083 -9.49e-4,-0.009 -0.0212,-0.0025 -0.0186,0.0065 -0.01955,0.01632 -0.0019,0.02185 0.02044,0.0063 0.0025,0.0095 -0.04988,0.0088 -0.04495,0 -0.09668,0.0053 -0.114863,0.01306 -0.09359,0.04048 -0.239016,0.04432 -0.152564,0.004 z m 0.507892,0.07239 c 0.02183,-0.01858 0.03475,-0.02159 0.04385,-0.0098 0.01778,0.0231 -0.01604,0.05461 -0.04822,0.04462 -0.01468,-0.0045 -0.01275,-0.02009 0.0045,-0.03473 z m 0.01807,-0.08809 c 0.01598,-0.0055 0.03329,-0.0048 0.03873,0.0025 0.0054,0.0065 -0.0058,0.01356 -0.0248,0.01532 -0.01911,0.0025 -0.03652,0 -0.03878,-0.0025 -0.0019,-0.0028 0.0089,-0.0095 0.02487,-0.01532 z m 0.177216,-0.08317 c 0.06126,-0.0055 0.07061,0.02009 0.01205,0.03295 -0.02063,0.0045 -0.0441,0 -0.0522,-0.01005 -0.0081,-0.01004 0.01,-0.02034 0.04019,-0.02285 z m -2.470142,-3.083042 c 0.02863,-0.0026 0.05831,0.0031 0.06598,0.0126 0.0077,0.0094 -0.0095,0.01923 -0.03808,0.02177 -0.0286,0.0025 -0.05832,-0.0031 -0.06599,-0.01255 -0.0077,-0.0094 0.0095,-0.01926 0.03807,-0.02177 z m 3.36665,2.359533 c 0.05211,-0.0501 0.05994,-0.07907 0.03021,-0.111965 l -0.04018,-0.04434 -0.05563,0.03817 c -0.03063,0.02109 -0.05954,0.03335 -0.06432,0.02747 -0.0045,-0.0058 0.0094,-0.01908 0.03148,-0.02941 0.02208,-0.01029 0.02753,-0.0226 0.01215,-0.02742 -0.01541,-0.0048 -0.0064,-0.009 0.0205,-0.0095 0.02667,0 0.04129,-0.006 0.03251,-0.0123 -0.0087,-0.0063 0.01357,-0.01482 0.04963,-0.01909 0.03622,-0.004 0.06955,-0.0028 0.07434,0.003 0.005,0.006 -0.01582,0.01281 -0.04576,0.01557 -0.04807,0.0043 -0.04686,0.0063 0.01035,0.01733 0.09485,0.01808 0.07891,0.111364 -0.0312,0.182402 -0.106932,0.069 -0.115946,0.05795 -0.02446,-0.02996 z m 0.239133,-0.302754 c 0.04119,-0.01532 0.08367,-0.02599 0.09442,-0.02386 0.01076,0.0025 -0.01414,0.01607 -0.05531,0.03139 -0.0412,0.01532 -0.08367,0.02599 -0.09442,0.02386 -0.01076,-0.0025 0.01414,-0.01607 0.05531,-0.03139 z m 0.108846,-0.08944 c 0.02319,-0.0108 0.04551,-0.01557 0.04958,-0.01055 0.004,0.005 0.03833,-0.007 0.07614,-0.02672 l 0.06873,-0.03583 -0.02499,0.03244 c -0.04214,0.05459 -0.08002,0.07131 -0.14866,0.06556 -0.05703,-0.0048 -0.05897,-0.007 -0.02075,-0.02486 z m -0.604263,-0.842185 c 0.04074,-0.0031 0.05129,-0.001 0.02658,0.0051 -0.02234,0.0055 -0.05262,0.0078 -0.06728,0.0049 -0.01465,-0.0028 0.0035,-0.0073 0.04064,-0.01005 z m 0.738094,0.725407 0.06152,-0.04226 -0.04441,0.04382 c -0.02443,0.0241 -0.05112,0.0444 -0.05936,0.04512 -0.02597,0.0025 -0.02091,-0.0033 0.04224,-0.04668 z m 0.101689,-0.106141 c 0.0427,-0.01029 0.04622,-0.0088 0.02136,0.009 -0.03381,0.02436 -0.05222,0.02812 -0.06418,0.01331 -0.0045,-0.0055 0.01471,-0.01582 0.04279,-0.02235 z m 0.02446,0.0352 c 0.03983,-0.0095 0.04425,-0.0068 0.02794,0.01758 -0.02787,0.04161 -0.03471,0.04369 -0.05618,0.01733 -0.01054,-0.01306 0.0019,-0.02868 0.02825,-0.03493 z m 0.06825,-0.0751 c 0.01699,-0.01732 0.02196,-0.01758 0.03596,0 0.0089,0.01055 0.0032,0.02386 -0.01266,0.02946 -0.03657,0.01281 -0.04888,-0.0025 -0.02325,-0.02863 z m 1.117692,1.096653 c 0.06582,-0.03362 0.151757,-0.131879 0.141275,-0.161483 -0.004,-0.01155 0.004,-0.02059 0.01766,-0.02009 0.01383,0 0.04059,0 0.05973,-0.0025 0.123412,-0.0108 -0.0052,0.150185 -0.161268,0.201987 -0.107185,0.03556 -0.141301,0.02486 -0.05732,-0.01808 z M 41.9025,17.867414 c 0.0032,-0.0088 0.02797,-0.01783 0.05502,-0.02009 0.02702,-0.0025 0.0426,-0.0123 0.03466,-0.0221 -0.008,-0.0098 -0.02752,-0.01331 -0.04345,-0.0078 -0.01591,0.0055 -0.03285,0.0053 -0.03772,0 -0.0097,-0.01206 0.06191,-0.03204 0.138794,-0.03885 0.02708,-0.0025 0.05363,0 0.05905,0.0078 0.0054,0.0068 -0.0084,0.01029 -0.03069,0.008 -0.02234,-0.0025 -0.04466,0.009 -0.04968,0.02513 -0.0051,0.01607 -0.03421,0.04191 -0.06481,0.05748 -0.05369,0.02729 -0.07343,0.02436 -0.06113,-0.0088 z m -0.847974,-1.182266 c 0.0167,0.0074 0.02351,0.01735 0.01493,0.0222 -0.0084,0.0048 -0.02215,-0.001 -0.03044,-0.01343 -0.0089,-0.01351 -0.0032,-0.01692 0.01538,-0.0088 z m 1.257914,1.259559 c 0.03974,-0.05075 0.07593,-0.08814 0.08048,-0.08304 0.01601,0.01783 -0.068,0.147096 -0.1074,0.16545 -0.05578,0.02599 -0.05426,0.02134 0.02692,-0.08241 z m -0.151567,-0.218992 c 0.04441,-0.0106 0.04943,-0.0096 0.02465,0.0047 -0.01718,0.0099 -0.04229,0.0159 -0.05586,0.01331 -0.01351,-0.0025 2.47e-4,-0.01067 0.0312,-0.01801 z m -0.478691,-0.602808 c 0.01427,-0.01459 0.03072,-0.0059 0.05964,0.03155 0.03041,0.03934 0.02838,0.04685 -0.0085,0.03143 -0.06478,-0.02713 -0.07448,-0.03907 -0.05116,-0.06298 z m 0.124805,0.10249 c 0.0032,-0.05136 0.0268,-0.0531 0.06604,-0.0048 0.02136,0.02629 0.01481,0.03961 -0.02107,0.04277 -0.02863,0.0025 -0.05102,0.004 -0.04968,0.0034 0.0016,-5.06e-4 0.0035,-0.01928 0.0046,-0.04133 z m 0.110272,-0.02739 c 0.01674,0.0074 0.02351,0.01735 0.0149,0.0222 -0.0084,0.0048 -0.02215,-10e-4 -0.03044,-0.01343 -0.0089,-0.01351 -0.0032,-0.01692 0.01528,-0.0087 z m 1.044639,0.219938 c -0.0019,-0.02172 0.0097,-0.04891 0.02566,-0.06041 0.01598,-0.0115 0.01471,-0.02745 -0.0032,-0.03545 -0.01762,-0.008 -0.01797,-0.02598 -2.46e-4,-0.03999 0.0192,-0.01552 0.0084,-0.05428 -0.02753,-0.0994 -0.04345,-0.0548 -0.04601,-0.07152 -0.0094,-0.06453 0.0273,0.0052 0.06106,0.024 0.07521,0.04183 0.01421,0.0178 0.0418,0.0365 0.06144,0.04152 0.104758,0.0268 0.199933,0.146037 0.10926,0.137071 -0.02063,-0.002 -0.02702,0.0092 -0.01427,0.02491 0.01278,0.01574 0.008,0.03397 -0.01063,0.04049 -0.02205,0.0077 -0.03179,0.0052 -0.02784,-0.0071 0.0035,-0.01045 -0.01212,-0.02466 -0.03431,-0.03154 -0.02825,-0.0088 -0.05317,0.0067 -0.08319,0.05142 -0.04476,0.06678 -0.0553,0.06699 -0.06105,0.001 z m 0.292659,0.03845 c 0.01857,-0.0065 0.01734,-0.02134 -0.0025,-0.03298 -0.02003,-0.01165 -0.03391,-0.02907 -0.03094,-0.03876 0.01168,-0.03682 0.07445,-0.0081 0.165178,0.07558 0.05174,0.0477 0.118303,0.108957 0.147875,0.136147 0.05842,0.05361 0.109476,0.178969 0.08975,0.220175 -0.0067,0.01406 -0.01392,0.03621 -0.01598,0.04919 -0.0077,0.04884 -0.0427,0.01255 -0.102756,-0.106543 -0.05678,-0.112544 -0.143752,-0.207529 -0.245096,-0.267649 -0.02164,-0.01283 -0.0243,-0.02863 -0.0054,-0.03516 z m -0.334102,-0.68839 c 0.02022,-0.0018 0.03126,0.0028 0.02455,0.01012 -0.0067,0.0074 -0.01905,0.01394 -0.02749,0.01469 -0.0084,7.6e-4 -0.01949,-0.0038 -0.02455,-0.01012 -0.0051,-0.0063 0.0072,-0.01291 0.02743,-0.01469 z"
     fill="#ffffff"
     fill-opacity="0.18"
     stroke-width="0.0206337"
     id="path932" />
  <path
     d="m 31.973336,12.761152 c -8.717031,0 -15.819235,2.343683 -15.819235,5.220347 0,2.876665 7.102204,5.220348 15.819235,5.220348 8.717031,0 15.819235,-2.343683 15.819235,-5.220348 0,-2.876664 -7.102204,-5.220347 -15.819235,-5.220347 z m 0,1.082257 c 6.944644,0 12.539591,1.846389 12.539591,4.137995 0,2.291701 -5.595263,4.13768 -12.539591,4.13768 -6.944644,0 -12.538326,-1.845979 -12.538326,-4.13768 0,-2.2917 5.593998,-4.137995 12.538326,-4.137995 z"
     color="#000000"
     fill="#ffffff"
     fill-opacity="0.15"
     stroke-width="0.356059"
     style="-inkscape-stroke:none"
     id="path934" />
</svg>
