<?xml version="1.0" encoding="UTF-8" standalone="no"?>
<svg
   width="24mm"
   height="24mm"
   version="1.1"
   viewBox="0 0 24 24"
   id="svg936"
   sodipodi:docname="osgs-logo-24.svg"
   inkscape:version="1.1.1 (3bf5ae0d25, 2021-09-20)"
   xmlns:inkscape="http://www.inkscape.org/namespaces/inkscape"
   xmlns:sodipodi="http://sodipodi.sourceforge.net/DTD/sodipodi-0.dtd"
   xmlns="http://www.w3.org/2000/svg"
   xmlns:svg="http://www.w3.org/2000/svg">
  <sodipodi:namedview
     id="namedview938"
     pagecolor="#ffffff"
     bordercolor="#666666"
     borderopacity="1.0"
     inkscape:pageshadow="2"
     inkscape:pageopacity="0.0"
     inkscape:pagecheckerboard="0"
     inkscape:document-units="mm"
     showgrid="false"
     inkscape:zoom="1.1530263"
     inkscape:cx="359.05512"
     inkscape:cy="359.05512"
     inkscape:window-width="1920"
     inkscape:window-height="1043"
     inkscape:window-x="0"
     inkscape:window-y="0"
     inkscape:window-maximized="1"
     inkscape:current-layer="svg936" />
  <defs
     id="defs910">
    <filter
       id="filter1207"
       x="-0.021599999"
       y="-0.043199135"
       width="1.0432"
       height="1.0863983"
       color-interpolation-filters="sRGB">
      <feGaussianBlur
         stdDeviation="0.9"
         id="feGaussianBlur898" />
    </filter>
    <filter
       id="filter1211"
       x="-0.021599999"
       y="-0.043199135"
       width="1.0432"
       height="1.0863983"
       color-interpolation-filters="sRGB">
      <feGaussianBlur
         stdDeviation="0.9"
         id="feGaussianBlur901" />
    </filter>
    <filter
       id="filter1215"
       x="-0.021599999"
       y="-0.043199135"
       width="1.0432"
       height="1.0863983"
       color-interpolation-filters="sRGB">
      <feGaussianBlur
         stdDeviation="0.9"
         id="feGaussianBlur904" />
    </filter>
    <filter
       id="filter1219"
       x="-0.012"
       y="-0.012"
       width="1.024"
       height="1.024"
       color-interpolation-filters="sRGB">
      <feGaussianBlur
         stdDeviation="0.9"
         id="feGaussianBlur907" />
    </filter>
  </defs>
  <circle
     cx="95"
     cy="96.419998"
     r="90"
     fill-opacity="0.2"
     filter="url(#filter1219)"
     stop-color="#000000"
     style="mix-blend-mode:normal"
     id="circle912"
     transform="matrix(0.10377288,0,0,0.10377288,2.545285,2.3309749)" />
  <circle
     cx="12.403709"
     cy="11.817892"
     fill="#ebebeb"
     stop-color="#000000"
     id="circle914"
     r="9.3395596"
     style="stroke-width:0.103773" />
  <path
     d="m 94.92,148.92 c -27.608,0 -50,-7.4666 -50,-16.667 v -16.667 c 0,-9.2 22.392,-16.667 50,-16.667 27.604,0 50,7.4667 50,16.667 v 16.667 c 0,9.2 -22.396,16.667 -50,16.667 z"
     fill-opacity="0.2"
     filter="url(#filter1215)"
     stroke-width="0.13021"
     style="mix-blend-mode:normal"
     id="path916"
     transform="matrix(0.10377288,0,0,0.10377288,2.545285,2.3309749)" />
  <path
     d="m 12.401841,17.265968 c -2.8649619,0 -5.1886442,-0.77483 -5.1886442,-1.729582 v -1.729583 c 0,-0.95471 2.3236823,-1.729583 5.1886442,-1.729583 2.864546,0 5.188644,0.774842 5.188644,1.729583 v 1.729583 c 0,0.95471 -2.324098,1.729582 -5.188644,1.729582 z"
     fill="#8a8b8b"
     stroke-width="0.0135123"
     id="path918" />
  <path
     d="m 12.401841,12.077117 c -2.8591505,0 -5.1886442,0.768718 -5.1886442,1.712252 0,0.943534 2.3294937,1.712253 5.1886442,1.712253 2.85915,0 5.188644,-0.768719 5.188644,-1.712253 0,-0.943534 -2.329494,-1.712252 -5.188644,-1.712252 z"
     color="#000000"
     fill="#ffffff"
     fill-opacity="0.15"
     stroke-width="0.116786"
     style="-inkscape-stroke:none"
     id="path920" />
  <path
     d="m 94.92,118.92 c -27.608,0 -50,-7.4666 -50,-16.667 V 85.586 c 0,-9.2 22.392,-16.667 50,-16.667 27.604,0 50,7.4667 50,16.667 v 16.667 c 0,9.2 -22.396,16.667 -50,16.667 z"
     fill-opacity="0.2"
     filter="url(#filter1211)"
     stroke-width="0.13021"
     style="mix-blend-mode:normal"
     id="path922"
     transform="matrix(0.10377288,0,0,0.10377288,2.545285,2.3309749)" />
  <path
     d="m 12.395303,14.152782 c -2.8649615,0 -5.1886438,-0.774831 -5.1886438,-1.729583 v -1.729582 c 0,-0.9547108 2.3236823,-1.7295831 5.1886438,-1.7295831 2.864547,0 5.188644,0.7748411 5.188644,1.7295831 v 1.729582 c 0,0.954711 -2.324097,1.729583 -5.188644,1.729583 z"
     fill="#eeb248"
     stroke-width="0.0135123"
     id="path924" />
  <path
     d="M 16.083495,9.4710684 C 15.745704,9.3596058 15.375152,9.2667082 14.97188,9.1923965 14.573859,9.1180848 14.158851,9.0623691 13.726813,9.0252081 13.299995,8.9880469 12.861326,8.969482 12.410973,8.969482 c -0.445155,0 -0.883813,0.018565 -1.31584,0.055726 -0.426818,0.037161 -0.841827,0.092877 -1.2450674,0.1671884 -0.3980207,0.074312 -0.7659163,0.16723 -1.1037281,0.278703 -0.3377912,0.1114727 -0.620562,0.2332812 -0.848385,0.3654881 -0.2225721,0.1322168 -0.3914831,0.2691975 -0.506692,0.4109095 -0.1099783,0.141712 -0.1662336,0.286476 -0.1688592,0.434238 0.00262,0.147772 0.060234,0.292079 0.1728338,0.43293 0.1125935,0.142584 0.281432,0.279543 0.5066297,0.410888 0.2251974,0.133079 0.5066815,0.255354 0.8444727,0.366827 0.3377908,0.111473 0.7069837,0.203914 1.1076716,0.277364 0.4006359,0.07518 0.8157789,0.130941 1.2452749,0.167241 0.429443,0.03802 0.86668,0.05701 1.311793,0.057 0.450395,1.1e-5 0.88898,-0.01858 1.31584,-0.05574 0.432058,-0.03716 0.847139,-0.0929 1.245171,-0.16721 0.403261,-0.07432 0.77373,-0.167188 1.111511,-0.278661 0.337791,-0.111473 0.617988,-0.233323 0.84056,-0.36554 0.227813,-0.132207 0.396651,-0.269166 0.50663,-0.410878 0.115219,-0.141723 0.171536,-0.286455 0.168921,-0.434227 0.0026,-0.147762 -0.05356,-0.292495 -0.168786,-0.434217 C 17.320945,10.105805 17.151972,9.9688044 16.924159,9.8365876 16.701577,9.7043807 16.421452,9.5825515 16.083661,9.4710684 Z M 15.164399,9.5877608 13.836833,10.025869 C 13.705913,9.9757573 13.582756,9.9238811 13.467537,9.8703138 13.352328,9.8167357 13.2476,9.7605739 13.153333,9.7018072 c 0.144016,-0.021605 0.299841,-0.042785 0.467434,-0.063519 0.167594,-0.020743 0.339068,-0.037607 0.514507,-0.050568 0.178063,-0.013822 0.353471,-0.021562 0.526294,-0.023298 0.175438,-0.00105 0.343125,0.00695 0.502852,0.023337 z m 0.565563,0.1866355 c 0.04975,0.050984 0.07192,0.1058588 0.06668,0.164615 -0.0026,0.057895 -0.02214,0.1162257 -0.0588,0.1749927 -0.03666,0.05876 -0.08769,0.116215 -0.153158,0.172387 -0.06284,0.05531 -0.128388,0.106284 -0.196473,0.152941 -0.178064,-0.03111 -0.349539,-0.06609 -0.514506,-0.104977 -0.162353,-0.03802 -0.319455,-0.07864 -0.471337,-0.12184 z M 13.982115,9.3272182 c -0.193775,0.013832 -0.38233,0.031101 -0.565635,0.051835 -0.183294,0.020746 -0.36528,0.04537 -0.545959,0.073886 -0.02618,-0.034567 -0.04191,-0.069995 -0.04715,-0.1062946 -0.0026,-0.03715 0.01695,-0.072153 0.05886,-0.1049974 0.185919,0.00602 0.370542,0.01598 0.553846,0.029805 0.185919,0.014694 0.367968,0.033301 0.546032,0.055767 z m 2.537351,0.8373538 c 0.06546,0.05962 0.119141,0.119661 0.161034,0.180139 0.04713,0.06049 0.08116,0.121871 0.102106,0.184083 -0.102124,0.01469 -0.209559,0.02071 -0.322153,0.01812 -0.109978,-0.0018 -0.217342,-0.007 -0.32208,-0.01556 0.08641,-0.05963 0.161035,-0.119682 0.22388,-0.180171 0.06284,-0.06049 0.115302,-0.12267 0.157206,-0.186615 z M 12.057439,9.2364896 c -0.0288,0.057895 -0.03524,0.1162152 -0.01953,0.1749714 0.01833,0.057895 0.05222,0.1149285 0.101965,0.1711007 -0.251379,0.051845 -0.494768,0.1071664 -0.730436,0.1659226 -0.233053,0.059628 -0.46099,0.1226803 -0.683562,0.1892196 L 9.6064785,9.5682932 C 9.9547403,9.4723758 10.337081,9.3963519 10.75348,9.3401796 c 0.416348,-0.056162 0.85101,-0.090718 1.30401,-0.10369 z m 4.736921,1.5632344 c -0.03928,0.149496 -0.143995,0.292941 -0.314203,0.430336 -0.170209,0.137395 -0.400647,0.263542 -0.691314,0.37847 l -1.119399,-0.3694 c 0.201621,-0.07346 0.39276,-0.148655 0.573449,-0.225561 0.180679,-0.07691 0.348231,-0.157247 0.502718,-0.241075 0.170208,0.01643 0.343177,0.02766 0.518615,0.03371 0.178064,0.007 0.354696,0.0048 0.530134,-0.0064 z M 12.450324,9.8301743 c 0.112593,0.069995 0.23819,0.1364926 0.376975,0.1995757 0.138786,0.06308 0.285521,0.124476 0.440018,0.184104 l -0.852349,0.281276 -1.123445,-0.370739 c 0.180679,-0.05444 0.366598,-0.106263 0.557748,-0.1555242 0.19115,-0.049251 0.391577,-0.095481 0.601063,-0.1386925 z m 2.545133,0.8399067 c -0.13093,0.06912 -0.271023,0.135268 -0.42028,0.198351 -0.149256,0.06307 -0.306306,0.124424 -0.471264,0.184052 l -1.123341,-0.370718 0.852349,-0.281277 c 0.180679,0.05098 0.366598,0.09936 0.557748,0.145168 0.19115,0.0458 0.392728,0.08726 0.60483,0.124424 z M 9.0408657,9.7549806 10.160263,10.124391 c -0.2016199,0.07345 -0.3926969,0.148676 -0.5733757,0.225582 -0.1806788,0.07691 -0.3482929,0.157226 -0.5027901,0.241043 -0.1702083,-0.01642 -0.344256,-0.0272 -0.5223201,-0.03238 -0.1754384,-0.006 -0.3509182,-0.0044 -0.5263671,0.0052 C 8.074689,10.414341 8.1794674,10.270875 8.349676,10.133479 8.5198842,9.996077 8.7501872,9.8699307 9.0408447,9.7549918 Z m 1.6850633,0.5560664 1.123446,0.37075 -0.856189,0.282542 c -0.178064,-0.05185 -0.362831,-0.100701 -0.553981,-0.146496 -0.191149,-0.0458 -0.392656,-0.08724 -0.6047572,-0.124403 0.1309199,-0.06913 0.2709512,-0.135247 0.4202072,-0.19833 0.149267,-0.06308 0.306307,-0.124435 0.471264,-0.184063 z m 1.689008,0.557385 1.123341,0.370719 c -0.180678,0.05444 -0.366588,0.106263 -0.557748,0.155514 -0.191149,0.04926 -0.391503,0.09547 -0.60099,0.138671 -0.112594,-0.06999 -0.238262,-0.136513 -0.377038,-0.199596 -0.138786,-0.06307 -0.286683,-0.124009 -0.443785,-0.182765 z m 1.688904,0.557354 1.119398,0.369411 c -0.348262,0.09592 -0.730468,0.171941 -1.146794,0.228103 -0.416348,0.05617 -0.851083,0.09075 -1.304114,0.103711 0.03404,-0.0579 0.04061,-0.116205 0.01967,-0.174961 -0.01833,-0.05791 -0.05242,-0.11496 -0.102175,-0.171132 0.25662,-0.05011 0.500082,-0.105402 0.73051,-0.165892 0.233053,-0.05963 0.460917,-0.122701 0.683499,-0.18924 z m -3.676362,-0.274791 -1.3275669,0.438109 c -0.049751,-0.05271 -0.073406,-0.108028 -0.07079,-0.165922 0.00523,-0.05703 0.02747,-0.114514 0.066749,-0.172409 0.041895,-0.05877 0.094357,-0.1158 0.1572058,-0.171101 0.062845,-0.05531 0.1269659,-0.106709 0.192426,-0.154237 0.1780638,0.03111 0.348189,0.06569 0.5105417,0.10371 0.1623524,0.03802 0.3195894,0.07865 0.4714714,0.12185 z m 0.565562,0.186636 c 0.13092,0.05012 0.253943,0.101988 0.369161,0.155566 0.117835,0.05444 0.223911,0.111006 0.318179,0.169772 -0.141401,0.02247 -0.297154,0.04452 -0.467362,0.06612 -0.167593,0.02073 -0.340427,0.03715 -0.518481,0.04925 -0.178064,0.0121 -0.35619,0.01899 -0.534243,0.02071 -0.1754388,0.0011 -0.3403443,-0.0068 -0.4948412,-0.02332 z M 8.6913585,10.832112 c -0.086412,0.05963 -0.1610349,0.119681 -0.2238795,0.18017 -0.062845,0.06049 -0.1151672,0.122712 -0.1570605,0.186657 -0.068084,-0.05876 -0.1244755,-0.118841 -0.168994,-0.180192 -0.041897,-0.06049 -0.07206,-0.121393 -0.090388,-0.182744 0.099504,-0.01383 0.2042874,-0.01987 0.314266,-0.01814 0.1125935,0.0011 0.2213162,0.0056 0.3260545,0.01425 z M 11.95927,11.91052 c 0.02618,0.03456 0.04191,0.06999 0.04715,0.106284 0.0078,0.03716 -0.01044,0.07263 -0.05496,0.106336 -0.188534,-0.007 -0.375741,-0.01774 -0.56166,-0.03243 -0.180679,-0.01469 -0.361317,-0.03283 -0.541985,-0.05444 0.193765,-0.01382 0.382195,-0.03113 0.565489,-0.05188 0.183295,-0.02073 0.365281,-0.04536 0.54597,-0.07388 z"
     fill="#ffffff"
     fill-opacity="0.15"
     stroke-width="0.13615"
     id="path926" />
  <path
     d="m 94.92,88.92 c -27.608,0 -50,-7.4666 -50,-16.667 V 55.586 c 0,-9.2 22.392,-16.667 50,-16.667 27.604,0 50,7.4667 50,16.667 v 16.667 c 0,9.2 -22.396,16.667 -50,16.667 z"
     fill-opacity="0.2"
     filter="url(#filter1207)"
     stroke-width="0.13021"
     style="mix-blend-mode:normal"
     id="path928"
     transform="matrix(0.10377288,0,0,0.10377288,2.545285,2.3309749)" />
  <path
     d="m 12.395615,11.039803 c -2.8649623,0 -5.1886446,-0.774841 -5.1886446,-1.7295828 V 7.5806378 c 0,-0.9547108 2.3236823,-1.7295827 5.1886446,-1.7295827 2.864546,0 5.188644,0.7748408 5.188644,1.7295827 v 1.7295824 c 0,0.9547108 -2.324098,1.7295828 -5.188644,1.7295828 z"
     fill="#54a2cc"
     stroke-width="0.0135123"
     id="path930" />
  <path
     d="m 9.3640974,8.2154164 c 0.00197,-0.00577 0.00464,-0.00651 0.00942,-0.00262 0.00985,0.00799 0.00601,-0.023448 -0.00571,-0.046551 -0.00801,-0.015813 -0.0046,-0.023258 0.016344,-0.035663 0.015422,-0.00913 0.029234,-0.02745 0.033091,-0.043906 0.00364,-0.015524 0.012556,-0.029657 0.019801,-0.031396 0.019116,-0.00461 0.080845,-0.00108 0.1193282,0.00684 0.040756,0.00834 0.061508,0.007 0.063043,-0.0042 6.56e-4,-0.00469 0.00844,-0.00824 0.017364,-0.00791 0.021602,8.2e-4 0.056476,-0.035736 0.056103,-0.058698 -3.28e-4,-0.021438 0.015636,-0.040364 0.030313,-0.035909 0.0057,0.00174 0.033103,0.00239 0.060888,0.00157 0.045808,-0.00148 0.05079,-0.00246 0.053408,-0.011277 0.00164,-0.00527 -0.0022,-0.012841 -0.00837,-0.016718 -0.039038,-0.024501 -0.049608,-0.038347 -0.035973,-0.047126 0.010775,-0.00692 0.00898,-0.014898 -0.00772,-0.033809 -0.01206,-0.013589 -0.030028,-0.027608 -0.040042,-0.031133 -0.010033,-0.00354 -0.016574,-0.00733 -0.01453,-0.00852 0.00203,-0.00115 -0.00948,-0.010411 -0.025715,-0.020533 -0.017712,-0.011096 -0.030041,-0.023967 -0.030999,-0.032367 -8.2e-4,-0.00766 -0.014514,-0.02928 -0.03032,-0.048016 l -0.028696,-0.034073 0.034254,-0.038883 c 0.0215,-0.024403 0.042189,-0.040077 0.055565,-0.042094 0.029234,-0.00445 0.076083,-0.030868 0.072419,-0.040883 -0.00259,-0.00708 0.00479,-0.00889 0.05359,-0.013218 0.046484,-0.00412 0.063208,-0.00371 0.093612,0.00239 0.041415,0.00831 0.1214454,0.00626 0.1301624,-0.00329 0.0036,-0.00387 0.02176,-0.00131 0.06098,0.00878 0.03076,0.00791 0.06518,0.016242 0.07649,0.018565 0.0311,0.00634 0.07079,0.022255 0.09096,0.036379 0.02159,0.015114 0.06347,0.027585 0.07686,0.022888 0.01336,-0.00469 0.09184,0.01022 0.09877,0.018755 0.0031,0.00387 0.02239,0.0099 0.04285,0.013464 0.0452,0.0079 0.07244,0.00174 0.06905,-0.015609 -0.0027,-0.013737 0.04134,-0.023002 0.08461,-0.017797 0.01489,0.0018 0.04587,0.00157 0.06884,0 0.0497,-0.00437 0.06003,-8.2e-4 0.06511,0.022697 0.0093,0.043174 0.02993,0.050216 0.103313,0.035267 0.02961,-0.00601 0.04084,-0.011076 0.04049,-0.01821 -6.56e-4,-0.014222 0.02908,-0.015262 0.04033,-0.00141 0.005,0.00618 0.01428,0.010808 0.02053,0.010253 0.0063,-8.2e-4 0.01401,0.00223 0.01722,0.00618 0.0091,0.01124 0.02779,0.018004 0.04538,0.016446 0.01064,-9.184e-4 0.01196,-0.00412 0.0039,-0.0094 -0.0067,-0.00437 -0.02235,-0.016134 -0.03482,-0.026082 -0.02242,-0.017905 -0.02235,-0.018053 0.0055,-0.013326 0.0217,0.00371 0.02865,0.00354 0.0302,-8.2e-4 0.0016,-0.00445 0.0049,-0.00469 0.01719,-0.00125 0.0084,0.0023 0.01993,0.00256 0.02573,8.2e-4 0.006,-0.00213 0.01261,-0.00115 0.01532,0.00213 0.0076,0.00937 0.03409,0.00428 0.05203,-0.010073 0.02114,-0.016875 0.06369,-0.018925 0.120128,-0.00577 0.04519,0.010519 0.04735,0.013556 0.0075,0.010476 -0.02203,-0.00174 -0.02625,-9.84e-4 -0.02245,0.00371 0.0053,0.00659 -0.0039,0.00807 -0.0321,0.00511 -0.01387,-0.00141 -0.02812,0.00164 -0.04866,0.010394 -0.01598,0.00684 -0.03433,0.01289 -0.04078,0.013458 -0.0065,8.2e-4 -0.01456,0.00502 -0.01801,0.00991 -0.0051,0.00725 -0.01007,0.00829 -0.02676,0.00577 -0.01353,-0.00207 -0.02329,-0.00148 -0.02873,0.00157 -0.01313,0.00749 0.01168,0.015219 0.05825,0.018027 0.03018,0.0018 0.04794,0.00577 0.05989,0.013418 0.01099,0.007 0.02177,0.00967 0.0306,0.00758 0.0075,-0.0018 0.02978,-0.00577 0.04954,-0.00891 0.02848,-0.00445 0.03998,-0.00437 0.05553,8.2e-4 0.01718,0.00535 0.01628,0.00675 -0.0071,0.011054 -0.01471,0.00272 -0.023,0.00675 -0.01844,0.00906 0.01442,0.00725 0.04112,0.00346 0.06689,-0.00937 l 0.02492,-0.012428 -0.03144,-0.00643 c -0.03963,-0.00807 -0.03747,-0.017682 0.006,-0.026397 0.05617,-0.011267 0.07942,-0.011664 0.133981,-0.0023 0.02895,0.00494 0.071,0.00858 0.09345,0.00799 0.02245,-8.2e-4 0.04484,0 0.04975,0.00174 0.0049,0.00157 0.0227,0.00157 0.03951,1.64e-5 0.02391,-0.00213 0.02621,-0.00321 0.01054,-0.00486 -0.02764,-0.00295 -0.01096,-0.00404 0.0284,-0.0019 0.01789,9.84e-4 0.03367,0.00321 0.03508,0.00494 0.0015,0.00174 0.009,0.00262 0.01685,0.0019 0.02426,-0.00213 0.10918,0.018161 0.117181,0.028017 0.0041,0.00511 0.0028,0.00969 -0.0031,0.010197 -0.0065,8.2e-4 -0.0028,0.00527 0.0099,0.012182 0.01127,0.00618 0.02547,0.017394 0.03157,0.024898 0.01968,0.024222 -0.03198,0.033471 -0.07374,0.013202 l -0.02148,-0.01042 -0.01503,0.011582 c -0.0083,0.00634 -0.01242,0.014694 -0.0092,0.018489 0.0047,0.00568 0.0069,0.00577 0.01181,8.2e-4 0.0033,-0.00354 0.0024,-0.00749 -0.002,-0.00888 -0.0044,-0.00141 -0.0051,-0.00279 -0.0015,-0.00305 0.0037,0 0.01509,0.0033 0.02538,0.00799 0.01544,0.00708 0.02196,0.00758 0.03698,0.00295 0.0131,-0.00403 0.02548,-0.00469 0.04398,-0.0023 0.02288,0.00295 0.0276,0.00207 0.04244,-0.00799 0.01458,-0.00989 0.01907,-0.010755 0.03551,-0.00692 0.01856,0.00437 0.01798,0.00502 -0.0075,0.00824 -0.0071,9.184e-4 -0.01333,0.00412 -0.01389,0.00708 -6.56e-4,0.00362 0.0077,0.00445 0.02529,0.00239 0.06818,-0.00807 0.111556,-0.00969 0.109761,-0.00412 -0.0019,0.00609 0.03384,0.00911 0.04819,0.00412 0.0048,-0.00164 0.0101,-0.00125 0.01188,9.184e-4 0.0074,0.00913 0.02539,0.00108 0.01892,-0.00848 -0.0044,-0.00643 -0.003,-0.00807 0.0035,-0.00437 0.0058,0.00338 0.01488,0.00577 0.02016,0.00527 0.0053,-8.2e-4 0.02573,0.00412 0.04544,0.010286 0.01969,0.00609 0.03795,0.00992 0.04056,0.00843 0.0026,-0.00148 -0.0021,-0.00395 -0.01019,-0.00552 -0.01697,-0.00321 -0.02441,-0.02172 -0.0092,-0.023061 0.0055,-8.2e-4 0.01972,-0.00725 0.03163,-0.015104 0.01925,-0.012634 0.02312,-0.01354 0.03467,-0.00807 0.0072,0.00338 0.0113,0.00899 0.0091,0.012503 -0.0075,0.01251 -0.0023,0.029149 0.0079,0.025564 0.0054,-0.0019 0.0065,-0.00758 0.0024,-0.012628 -0.0041,-0.00502 -0.0023,-0.00962 0.0039,-0.010171 0.0063,-8.2e-4 0.013,9.84e-4 0.01499,0.00346 0.002,0.00246 0.0082,8.2e-4 0.01379,-0.0042 0.01,-0.00854 0.01061,-0.00859 0.04264,-0.00354 0.01786,0.00279 0.02509,0.00305 0.01603,8.2e-4 -0.03249,-0.00905 -0.01856,-0.024534 0.02082,-0.02316 0.01084,0 0.01315,-0.00115 0.0064,-0.0042 -0.0065,-0.00295 -8.1e-5,-0.0079 0.01676,-0.012972 0.01502,-0.00453 0.03347,-0.012073 0.04099,-0.016826 0.0075,-0.00478 0.01996,-0.00799 0.02766,-0.00725 0.0077,8.2e-4 0.01552,-0.00354 0.01739,-0.00966 0.003,-0.00961 0.0063,-0.010601 0.02597,-0.00758 0.0124,0.0019 0.03376,0.0019 0.04744,3.31e-5 0.02762,-0.00379 0.03292,-0.00272 0.05658,0.011729 0.01247,0.00758 0.01234,0.0096 -6.56e-4,0.00847 -0.0093,-8.2e-4 -0.0118,0 -0.0055,9.183e-4 0.01644,0.00346 0.04554,0.0018 0.0498,-0.00289 0.002,-0.00213 0.01868,-0.00535 0.03709,-0.00692 0.02197,-0.00197 0.03191,-0.00486 0.02894,-0.00852 -0.0025,-0.00305 0.0078,-0.00783 0.02274,-0.010568 0.02066,-0.00379 0.03293,-0.00338 0.05067,0.00148 0.02922,0.00807 0.05146,0.00659 0.03594,-0.00239 -0.0071,-0.00412 -0.006,-0.00659 0.0026,-0.00634 0.0078,0 0.01995,-0.00461 0.02705,-0.010739 0.0071,-0.00609 0.0075,-0.010624 10e-4,-0.01004 -0.0066,8.2e-4 -0.01455,-0.00223 -0.0178,-0.00618 -0.0065,-0.00791 0.04077,-0.02932 0.07298,-0.033019 0.01113,-0.00125 0.02096,-0.00312 0.02182,-0.00412 8.2e-4,-9.84e-4 0.0054,-0.00758 0.01,-0.014642 0.0047,-0.00717 0.01757,-0.013638 0.02938,-0.014694 0.02436,-0.00213 0.03298,-0.017955 0.01805,-0.033035 -0.01175,-0.011851 -0.01367,-0.04048 -0.0033,-0.04823 0.03736,-0.027804 0.04449,-0.034543 0.04123,-0.038973 -0.0021,-0.00282 6.23e-4,-0.00876 0.0062,-0.013212 0.009,-0.00728 0.01219,-0.00767 0.0322,-0.00385 0.01223,0.00233 0.03068,0.00348 0.04104,0.00256 0.01036,-9.184e-4 0.01799,-1.659e-4 0.01695,0.00154 -10e-4,0.00174 -0.0052,0.00891 -0.0092,0.015908 -0.004,0.007 -0.01154,0.014429 -0.01669,0.016511 -0.0054,0.0022 -0.0013,0.00308 0.0098,0.00216 0.01056,-9.184e-4 0.02505,0.00141 0.03222,0.00511 0.01085,0.0056 0.01731,0.00568 0.03869,8.2e-4 0.03727,-0.00888 0.04861,-0.00906 0.04747,-8.2e-4 -6.23e-4,0.00437 0.02088,0.014307 0.05356,0.024701 0.04485,0.014264 0.05255,0.018423 0.04328,0.023334 -0.0075,0.00395 -0.0061,0.00783 0.004,0.01148 0.0084,0.00305 0.01432,0.00907 0.01317,0.013435 -0.0023,0.00862 0.04123,0.019568 0.06495,0.016364 0.03857,-0.00519 0.06371,-0.00453 0.07484,0.0019 0.0067,0.00387 0.0187,0.00601 0.02657,0.00469 0.0081,-0.00131 0.01521,0 0.01631,0.00396 0.0011,0.00346 0.01142,0.00774 0.02298,0.00954 0.01158,0.00174 0.02231,0.00478 0.02385,0.00667 0.0015,0.0019 0.01634,0.00717 0.03286,0.011696 0.01653,0.00453 0.03651,0.012205 0.0444,0.017049 0.01404,0.00862 0.01392,0.00864 -0.0056,0.00157 -0.01264,-0.00461 -0.03558,-0.00675 -0.06291,-0.00601 -0.07186,0.00197 -0.132787,-0.0018 -0.152089,-0.00945 -0.115541,-0.045661 -0.144888,-0.054407 -0.173955,-0.051846 -0.0024,0 0.01099,0.00535 0.0298,0.011457 0.03389,0.010978 0.03398,0.011086 0.01163,0.013064 -0.01247,0.00108 -0.02359,0.00494 -0.02472,0.00848 -0.0024,0.00733 0.04141,0.024751 0.06341,0.025187 0.0095,0 0.01481,0.0042 0.01517,0.011572 3.12e-4,0.00618 -0.0034,0.010535 -0.0082,0.00961 -0.01399,-0.00272 -0.03307,0.00872 -0.02704,0.016151 0.003,0.00371 -0.0032,0.012907 -0.01386,0.020408 -0.01761,0.012428 -0.01702,0.015567 0.0066,0.034954 0.01425,0.011719 0.03042,0.026791 0.03592,0.033504 0.01078,0.013146 0.01448,0.013753 0.0361,0.00585 0.01026,-0.00371 0.01001,-0.00478 -8.2e-4,-0.00387 -0.0082,8.2e-4 -0.01305,-8.2e-4 -0.01073,-0.00338 0.0027,-0.00295 0.0115,-0.00272 0.02408,8.2e-4 0.01851,0.00494 0.01994,0.00469 0.02109,-0.00362 0.0013,-0.01 0.04028,-0.015508 0.07084,-0.01003 0.01478,0.00262 0.01387,0.00164 -0.0045,-0.00461 -0.01275,-0.00445 -0.02943,-0.00894 -0.03705,-0.010073 -0.0076,-0.00115 -8e-5,-0.00207 0.01669,-0.00197 0.01679,3.28e-5 0.03993,0.00148 0.05143,0.00329 0.0115,0.00174 0.04241,0.00354 0.06872,0.00395 0.02824,0 0.04334,0.00239 0.03687,0.00461 -0.01836,0.00643 0.01247,0.015475 0.04999,0.014678 0.0223,-8.2e-4 0.03117,8.2e-4 0.02394,0.0033 -0.0063,0.00223 -0.0064,0.0056 -3.11e-4,0.00749 0.02361,0.00733 -0.0065,0.00428 -0.08264,-0.00834 -0.0435,-0.00725 -0.08318,-0.012775 -0.08819,-0.012336 -0.01802,0.00157 -0.0011,0.00993 0.03467,0.017089 0.04263,0.00853 0.09905,0.039442 0.12075,0.066169 0.01252,0.015419 0.01119,0.021067 -0.0074,0.031652 -0.01754,0.00999 -0.01981,0.016728 -0.01005,0.029897 0.0069,0.00935 0.01188,0.020893 0.01098,0.025656 -0.0015,0.00749 0.004,0.00848 0.04171,0.00725 0.04681,-0.00157 0.09382,0.00437 0.100594,0.012743 0.0061,0.00749 -0.02479,0.031593 -0.04244,0.033158 -0.0082,8.2e-4 -0.01772,-0.00213 -0.02112,-0.00634 -0.0034,-0.0042 -0.01465,-0.0079 -0.02495,-0.00829 -0.01032,0 -0.01696,-0.00262 -0.01476,-0.00502 0.0026,-0.00279 -0.0081,-0.0023 -0.02947,0.00131 -0.02872,0.00494 -0.03432,0.00469 -0.03953,-0.00174 -0.0088,-0.010824 -0.04761,-0.00239 -0.06157,0.013359 -0.01148,0.012962 -0.02616,0.013763 -0.03577,0.00197 -0.0031,-0.00379 -0.01032,-0.00643 -0.01615,-0.00593 -0.01214,0.00108 -0.02912,0.025318 -0.023,0.032845 0.0023,0.00279 -0.0039,0.00577 -0.01363,0.00659 -0.0098,9.184e-4 -0.01302,0.00305 -0.0073,0.00486 0.0058,0.0018 0.01947,0.00141 0.03043,-9.84e-4 0.01113,-0.00239 0.02137,-0.00246 0.0232,0 0.0055,0.00675 0.02441,0.00262 0.02554,-0.0056 8.2e-4,-0.00659 0.05008,-0.018892 0.06458,-0.016177 0.0027,8.2e-4 -0.0017,0.00659 -0.0096,0.013572 -0.01849,0.01621 -0.01489,0.028529 0.0078,0.026866 0.0095,-8.2e-4 0.03162,-8.2e-4 0.04915,0 0.01753,9.184e-4 0.04224,0.0019 0.0549,0.00207 0.01567,0 0.02306,0.00289 0.02315,0.00834 8.2e-5,0.00882 0.01125,0.00941 0.02536,0.00131 0.0088,-0.00502 0.01681,0.00486 0.03506,0.043593 0.0097,0.020615 -0.01077,0.042226 -0.06669,0.070443 -0.0301,0.015196 -0.05892,0.028142 -0.06402,0.028769 -0.0051,8.2e-4 -0.01402,0.00354 -0.01984,0.00643 -0.0058,0.00289 -0.01673,0.00815 -0.02427,0.011736 -0.0141,0.00667 -0.0015,0.01493 0.01442,0.00938 0.0049,-0.00174 0.01099,-8.2e-4 0.01361,0.00279 0.0061,0.00749 -0.02519,0.02558 -0.04354,0.02522 -0.02287,0 -0.02949,-0.00708 -0.01521,-0.015268 0.01585,-0.00906 0.002,-0.014766 -0.02916,-0.012008 -0.02512,0.00223 -0.0921,0.035604 -0.08617,0.042943 0.0042,0.00527 0.04412,0.00749 0.127734,0.00717 0.04504,0 0.06077,0.00197 0.08919,0.012221 l 0.0345,0.012444 -0.03004,0.013326 c -0.01652,0.00733 -0.0437,0.020418 -0.06039,0.02909 -0.03379,0.017551 -0.04755,0.020424 -0.05483,0.011457 -0.0037,-0.00453 -0.0114,-0.00486 -0.03056,-0.00131 -0.01587,0.00289 -0.02931,0.00312 -0.03519,8.2e-4 -0.0069,-0.00305 -0.0086,-0.00272 -0.0062,0.00115 0.0027,0.0042 -0.0027,0.00437 -0.02423,8.2e-4 -0.01521,-0.00256 -0.04365,-0.00371 -0.06325,-0.00246 -0.01962,0.00115 -0.03984,0.00141 -0.04496,0 -0.02096,-0.00403 -0.03693,0.00131 -0.03461,0.011529 0.0013,0.00593 0.0019,0.015262 0.0013,0.020647 -0.0011,0.00871 0.0015,0.00931 0.02267,0.00535 0.01313,-0.00246 0.02163,-0.00321 0.01886,-0.00164 -0.0069,0.00395 0.04041,0.013589 0.05862,0.011975 0.0081,-8.2e-4 0.04184,-0.00174 0.07497,-0.0023 0.04495,-8.2e-4 0.06389,9.184e-4 0.07469,0.00651 0.01438,0.00741 0.0486,0.013458 0.06813,0.011985 0.01679,-0.00125 0.03751,0.00708 0.03659,0.014717 -0.001,0.0089 0.03401,0.010771 0.05123,0.00272 0.0087,-0.00404 0.02453,-0.00568 0.05328,-0.00552 0.03328,0 0.03591,8.2e-4 0.01413,0.00295 -0.02367,0.00239 -0.02487,0.00396 -0.0106,0.013507 0.01402,0.00936 0.01249,0.01167 -0.01165,0.017561 -0.05617,0.013713 -0.260864,0.013877 -0.362333,0 -0.0075,-9.84e-4 -0.0476,-0.00305 -0.08906,-0.00453 -0.12707,-0.00453 -0.131989,-0.00486 -0.134448,-0.0079 -0.0029,-0.00362 0.11415,-0.013474 0.135112,-0.011382 0.03717,0.00371 0.156614,8.2e-4 0.220486,-0.00568 0.06492,-0.00642 0.06595,-0.00667 0.01415,-0.00354 -0.04661,0.00289 -0.06526,0.00164 -0.112739,-0.00741 -0.03129,-0.00593 -0.05594,-0.00956 -0.05478,-0.00799 0.0011,0.00157 -0.0031,0.00131 -0.0096,-8.2e-4 -0.0064,-0.0019 -0.02843,-0.00371 -0.04886,-0.00403 -0.02791,-8.2e-4 -0.03885,-0.00295 -0.04402,-0.00979 -0.0037,-0.00502 -0.01323,-0.00988 -0.02097,-0.010824 -0.0087,-0.00108 -0.0076,-0.00239 0.0028,-0.00338 0.01362,-0.00131 0.01251,-0.00207 -0.0055,-0.00371 -0.0244,-0.00223 -0.02808,-0.014816 -0.0039,-0.013202 0.0081,8.2e-4 0.0051,-8.2e-4 -0.0068,-0.00246 -0.01186,-0.0019 -0.03885,-0.00885 -0.05997,-0.015485 -0.02111,-0.00659 -0.04024,-0.010188 -0.04251,-0.0079 -0.0064,0.00651 -0.04449,0.016974 -0.06959,0.019191 -0.01739,0.00157 -0.02597,-8.2e-4 -0.03626,-0.00988 -0.01012,-0.00893 -0.01819,-0.011185 -0.03232,-0.00906 -0.0131,0.00197 -0.01823,9.184e-4 -0.01681,-0.00354 0.0011,-0.00362 -0.004,-0.00585 -0.01218,-0.00511 -0.0078,8.2e-4 -0.03227,-0.00239 -0.05434,-0.00684 -0.03849,-0.00774 -0.04245,-0.00766 -0.09655,8.2e-4 -0.03103,0.00486 -0.06391,0.00854 -0.07307,0.00824 -0.0092,0 -0.02606,0.00346 -0.03754,0.00844 -0.0227,0.0098 -0.148779,0.045785 -0.165663,0.047275 -0.0057,8.2e-4 -0.01074,0.00279 -0.01114,0.00511 -4.92e-4,0.0023 -0.01973,0.00609 -0.04292,0.00847 -0.03961,0.00403 -0.04157,0.00502 -0.03235,0.016374 0.0054,0.00667 0.0038,0.014858 -0.0035,0.01826 -0.0073,0.00338 -0.01147,0.0084 -0.0093,0.011109 0.0022,0.00272 -0.0055,0.00692 -0.01697,0.00935 -0.01155,0.00246 -0.01774,0.00543 -0.01377,0.00667 0.004,0.00125 -0.0011,0.00321 -0.01152,0.00437 -0.01028,0.00115 -0.02891,0.00428 -0.04136,0.00692 -0.02573,0.00543 -0.06818,-0.0019 -0.08524,-0.014717 -0.0056,-0.0042 -0.0193,-0.010781 -0.03046,-0.014612 -0.07153,-0.024528 -0.124008,-0.063763 -0.116765,-0.087294 0.0019,-0.00618 -8.2e-4,-0.011916 -0.006,-0.012815 -0.0052,-9.183e-4 -0.01001,8.2e-4 -0.01071,0.00354 -0.0025,0.010112 -0.06425,0.011375 -0.09859,0.00197 -0.01959,-0.00535 -0.02806,-0.00983 -0.02132,-0.0113 0.0063,-0.00131 -0.0038,-0.00552 -0.0229,-0.00954 -0.01875,-0.00387 -0.04323,-0.010755 -0.05438,-0.015229 -0.01414,-0.00568 -0.04993,-0.00953 -0.118104,-0.012759 -0.123147,-0.00585 -0.228186,-0.019552 -0.238553,-0.03114 -0.0052,-0.00568 -0.01882,-0.00887 -0.04204,-0.00965 -0.07091,-0.00239 -0.139077,-0.022697 -0.151094,-0.045019 -0.0049,-0.00917 -0.01441,-0.013218 -0.03739,-0.015987 -0.01694,-0.00207 -0.03363,-0.00207 -0.03711,-4.95e-5 -0.0035,0.00197 4.92e-4,0.01476 0.0087,0.028375 0.0083,0.013615 0.01593,0.021513 0.0171,0.017541 0.0019,-0.00675 0.0034,-0.00684 0.02143,-0.00125 0.01554,0.00478 0.0168,0.00717 0.0064,0.012024 -0.01056,0.00494 -0.0094,0.00692 0.006,0.010502 0.02766,0.00651 0.09437,0.00862 0.140726,0.00453 0.03721,-0.0033 0.03968,-0.00289 0.03231,0.00511 -0.0067,0.00725 -0.0026,0.00992 0.02588,0.016833 0.05102,0.012372 0.07447,0.023439 0.06025,0.028424 -0.0065,0.0023 -0.01613,0.00371 -0.02144,0.00312 -0.0053,-8.2e-4 -0.0113,9.184e-4 -0.01333,0.00305 -0.002,0.00223 -0.01401,0.00403 -0.02664,0.00412 -0.01264,2.46e-5 -0.02485,0.00207 -0.02712,0.00461 -0.0023,0.00246 -0.01095,0.00445 -0.01927,0.0042 -0.0083,0 -0.03874,9.839e-4 -0.06761,0.00262 -0.02887,0.00164 -0.07709,0.00115 -0.107156,-0.00108 -0.03006,-0.00223 -0.0592,-0.00246 -0.06476,-8.2e-4 -0.0099,0.00346 -0.227875,-0.00973 -0.269447,-0.016308 -0.01155,-0.0018 -0.03989,-0.00461 -0.06299,-0.00626 -0.0503,-0.00346 -0.05518,-0.00791 -0.03786,-0.034344 0.01102,-0.01681 0.009,-0.024833 -0.01173,-0.047522 -0.01965,-0.021464 -0.02207,-0.029287 -0.01133,-0.036584 0.0091,-0.00618 0.0085,-0.015426 -0.0018,-0.027814 -0.0086,-0.010187 -0.01206,-0.021051 -0.0078,-0.024124 0.0096,-0.00692 0.0022,-0.032055 -0.0083,-0.028375 -0.0042,0.00148 -0.01358,5.77e-5 -0.02078,-0.00312 -0.01082,-0.00486 -0.01498,-0.00321 -0.0238,0.00917 -0.0059,0.00827 -0.0087,0.017807 -0.0062,0.021192 0.0024,0.00338 -0.0013,0.00885 -0.0084,0.012165 -0.0084,0.00395 -0.0076,0.00953 0.0023,0.01616 0.01203,0.00799 0.0103,0.012733 -0.0082,0.022451 -0.0185,0.00971 -0.02024,0.014438 -0.0083,0.022435 0.0087,0.00577 0.01185,0.015212 0.0073,0.022022 -0.0096,0.014389 -0.0061,0.020352 0.0089,0.015098 0.0072,-0.00256 0.01043,-0.00174 0.0091,0.00239 -0.0011,0.00346 0.01369,0.016439 0.03271,0.028916 0.02231,0.01457 0.03134,0.023835 0.02535,0.025944 -0.01681,0.00593 0.02148,0.022048 0.05862,0.024734 0.0199,0.00141 0.03898,0.00379 0.0424,0.00519 0.0083,0.00338 0.16144,0.020893 0.190911,0.021802 0.01774,8.2e-4 0.02126,0.00213 0.0148,0.00684 -0.0047,0.00338 -0.0036,0.00717 0.0024,0.00843 0.006,0.00131 0.0033,0.00164 -0.0061,8.2e-4 -0.0094,-8.2e-4 -0.02192,8.2e-4 -0.02794,0.00312 -0.006,0.00256 -0.03361,0.00717 -0.0613,0.010181 -0.0277,0.00305 -0.05294,0.00643 -0.05609,0.00758 -0.01256,0.00437 -0.1576,0.00684 -0.205771,0.00346 -0.07621,-0.00535 -0.29761,-0.010286 -0.351074,-0.00783 -0.0441,0.00207 -0.04545,0.00246 -0.0246,0.00774 0.01214,0.00305 0.01689,0.00478 0.01059,0.00379 -0.0063,-9.84e-4 -0.01922,0.0023 -0.02869,0.00733 -0.01231,0.00651 -0.01308,0.012231 -0.0028,0.020129 0.0079,0.00609 0.01152,0.011309 0.0079,0.011637 -0.0036,0 -0.01264,0.00659 -0.02008,0.013976 -0.01786,0.017682 -0.04748,0.017791 -0.159852,8.2e-4 -0.04746,-0.00725 -0.111223,-0.016875 -0.141691,-0.021356 l -0.05539,-0.00815 0.0017,0.012165 c 0.0027,0.019427 -0.02318,0.021562 -0.08872,0.00725 -0.04073,-0.00887 -0.06775,-0.011942 -0.09067,-0.010322 -0.0331,0.00239 -0.1316781,-0.010558 -0.2273673,-0.029756 C 9.7368779,8.3771853 9.6294481,8.344635 9.5615286,8.3161309 9.5270458,8.3016531 9.4778421,8.2820829 9.4521728,8.2726363 9.3984143,8.252845 9.3602093,8.2286885 9.364162,8.2169767 Z M 10.710447,7.9454929 c 0.0058,0.0018 0.02121,0.00131 0.03424,-0.00108 0.03423,-0.00626 0.07269,0.00346 0.09364,0.023678 0.03,0.028982 0.09537,0.062577 0.128824,0.066218 0.01666,0.0018 0.03708,0.00758 0.04539,0.012743 0.02619,0.016341 0.05552,0.021316 0.09945,0.016843 0.04326,-0.00437 0.110528,-0.021317 0.106159,-0.026686 -0.0015,-0.0018 -0.02171,-0.00643 -0.04497,-0.010329 -0.02737,-0.00453 -0.04521,-0.010624 -0.05058,-0.01723 -0.0055,-0.00684 -0.01586,-0.010197 -0.03103,-0.010165 -0.01342,2.46e-5 -0.02863,-0.0042 -0.03711,-0.01027 -0.0079,-0.00568 -0.02088,-0.013366 -0.02882,-0.017089 -0.01053,-0.00494 -0.01026,-0.0056 0.001,-0.00256 0.0118,0.00321 0.01502,9.84e-4 0.01374,-0.00927 -0.001,-0.00741 0.0022,-0.011555 0.0071,-0.00922 0.0048,0.0023 0.01374,0.00379 0.01984,0.0033 0.0061,-8.2e-4 0.0076,-0.00207 0.0034,-0.00338 -0.0042,-0.00131 -0.0031,-0.00626 0.0025,-0.011054 0.0065,-0.0056 0.01165,-0.00684 0.01432,-0.00354 0.0023,0.00279 0.0063,0.00387 0.009,0.0023 0.0083,-0.00469 -0.03228,-0.016275 -0.05117,-0.014602 -0.01124,9.84e-4 -0.01714,-8.2e-4 -0.01591,-0.00461 0.0011,-0.00338 -0.003,-0.00577 -0.009,-0.00527 -0.01091,9.84e-4 -0.01124,0.00478 -0.0015,0.016866 0.0038,0.00478 -0.0025,0.00634 -0.02632,0.00684 -0.01725,0 -0.03979,0.00148 -0.05007,0.00246 -0.01555,0.00157 -0.0186,0 -0.01805,-0.010525 3.28e-4,-0.00684 -0.0035,-0.013737 -0.0087,-0.015337 -0.0051,-0.00157 6.56e-4,-0.00478 0.0129,-0.00708 0.01224,-0.0023 0.02092,-0.00577 0.01931,-0.00774 -0.0044,-0.00543 0.01663,-0.015773 0.03991,-0.019496 0.01657,-0.00262 0.01877,-0.00766 0.01071,-0.024734 -0.0098,-0.020788 0.0026,-0.044251 0.0244,-0.04618 0.0059,-8.2e-4 0.0062,-0.00239 6.56e-4,-0.00412 -0.03652,-0.011359 -0.07275,0.012808 -0.07302,0.048683 -8.1e-5,0.01106 -0.0044,0.02231 -0.0097,0.025013 -0.0068,0.00346 -0.009,0.00272 -0.0077,-0.00262 0.0026,-0.010962 -0.01336,-0.014133 -0.03412,-0.00675 -0.01455,0.00511 -0.02307,0.00552 -0.04462,0.0018 -0.01467,-0.00246 -0.03575,-0.00371 -0.04688,-0.00272 -0.01377,0.00125 -0.01957,0 -0.01815,-0.00478 0.0011,-0.00362 -0.0013,-0.01064 -0.0053,-0.015642 -0.004,-0.00502 -0.0023,-0.00954 0.004,-0.010089 0.0063,-8.2e-4 0.01458,0.00279 0.01848,0.00741 0.0091,0.010798 0.05676,0.022855 0.07042,0.017823 0.0057,-0.00213 0.01306,-0.015839 0.01629,-0.030514 0.0032,-0.014678 0.01199,-0.030851 0.01948,-0.035942 0.02516,-0.017105 0.02372,-0.0205 -0.01178,-0.027804 -0.0232,-0.00478 -0.03812,-0.011588 -0.04563,-0.020828 -0.0093,-0.011408 -0.01568,-0.013556 -0.03787,-0.012667 -0.01582,8.2e-4 -0.03828,-0.00312 -0.05509,-0.00922 -0.03165,-0.011473 -0.06518,-0.016951 -0.08146,-0.01331 -0.0277,0.00618 -0.08962,-0.012116 -0.104977,-0.031015 -0.01247,-0.01537 -0.03332,-0.018893 -0.0417,-0.00708 -0.0087,0.012247 0.0076,0.028703 0.0429,0.043387 0.017,0.00708 0.05548,0.030612 0.08552,0.052315 0.07938,0.05734 0.08175,0.05948 0.06621,0.05981 -0.0076,0 -0.02368,0.00346 -0.03575,0.00725 -0.01608,0.00511 -0.02209,0.00577 -0.0225,0.0023 -3.28e-4,-0.00256 -0.0085,-0.00486 -0.01814,-0.00519 -0.01221,0 -0.01387,0.00125 -0.0055,0.00502 0.0067,0.00305 0.0072,0.00593 0.0011,0.00651 -0.0061,8.2e-4 -0.0022,0.01186 0.0086,0.025161 0.01081,0.01331 0.01605,0.025459 0.01166,0.026997 -0.009,0.00312 0.02559,0.041764 0.04193,0.046846 z m 0.08511,-0.1540925 c 0.01924,-0.00141 0.03374,0 0.03633,0.00295 0.006,0.00733 -0.05001,0.011844 -0.06032,0.00486 -0.0058,-0.00395 0.001,-0.00609 0.02398,-0.00783 z m 0.131906,0.1632347 c 0.0057,0.00279 0.01904,0.00979 0.02974,0.015491 0.0181,0.00961 0.01787,0.00994 -0.0034,0.00453 -0.01257,-0.00321 -0.02594,-0.010165 -0.02974,-0.015491 -0.0038,-0.00535 -0.0023,-0.00741 0.0034,-0.00453 z m 0.04066,-0.00387 c 0.02816,-0.00585 0.04183,-0.00601 0.0401,-8.2e-4 -0.0011,0.00346 -0.0015,0.00692 -6.56e-4,0.00783 6.56e-4,8.2e-4 -0.0064,0.00223 -0.01578,0.00305 -0.01338,0.00115 -0.03455,-0.00807 -0.0236,-0.010296 z m -0.112557,-0.164854 c 0.0061,-0.00213 0.01764,-0.00272 0.02558,-0.00115 0.0096,0.0018 0.01071,0.00403 0.0033,0.00667 -0.0061,0.00213 -0.01764,0.00262 -0.02557,0.00115 -0.0096,-0.0018 -0.01072,-0.00404 -0.0033,-0.00667 z m 0.276772,0.243223 c 0.04069,0.00725 0.04146,0.011191 0.0016,0.00815 -0.01494,-0.00115 -0.02938,-0.00486 -0.03213,-0.00825 -0.0041,-0.00502 0.0017,-0.00494 0.03055,0 z m 0.02301,-0.070451 c 0.0054,-8.2e-4 0.0048,-0.00312 -0.0013,-0.00593 -0.0061,-0.00279 -0.01552,-0.00469 -0.02093,-0.0042 -0.0054,8.2e-4 -0.0048,0.00312 0.0013,0.00593 0.0061,0.00279 0.01554,0.00469 0.02093,0.0042 z m 0.0887,0.013162 c 0.04216,0.00766 0.07405,0.016974 0.09353,0.027361 0.03398,0.018118 0.09,0.032029 0.118789,0.029483 0.02731,-0.00239 0.02602,-0.00733 -0.0093,-0.035168 -0.02651,-0.020893 -0.0361,-0.024849 -0.06942,-0.028605 -0.04345,-0.00486 -0.04794,-0.00708 -0.03178,-0.015659 0.01577,-0.00835 -0.0074,-0.022081 -0.03795,-0.022543 -0.03081,-8.2e-4 -0.120626,0.00774 -0.133369,0.012241 -0.02191,0.00766 0.0076,0.021651 0.06951,0.032878 z m 0.178998,-0.00362 c 0.02262,0.00577 0.0482,0.00519 0.04316,-0.00108 -0.0018,-0.00213 0.0037,-0.0033 0.01208,-0.00246 0.0095,9.184e-4 0.01089,0 0.0036,-0.00213 -0.0064,-0.00197 -0.02883,-0.00486 -0.04976,-0.00643 -0.04234,-0.00305 -0.04649,0.00239 -0.0091,0.012001 z M 11.287782,7.7648259 c -0.0069,0.00395 6.56e-4,0.00766 0.0296,0.01434 0.02144,0.00494 0.03816,0.011562 0.03716,0.014711 -0.001,0.0033 0.0077,0.00577 0.02047,0.00585 0.02741,0 0.09929,-0.00799 0.112842,-0.012775 0.01213,-0.00428 0.09441,0.00783 0.09997,0.014701 0.0022,0.00272 0.01246,0.00519 0.0228,0.00552 0.02839,9.84e-4 0.01684,-0.00634 -0.02524,-0.016059 -0.02063,-0.00478 -0.03935,-0.010912 -0.0416,-0.013681 -0.0023,-0.00279 -0.0097,-0.00791 -0.01644,-0.011326 -0.0095,-0.00486 -0.0088,-0.00527 0.0032,-0.00207 0.01328,0.00362 0.02127,0.00289 0.05425,-0.00527 0.04682,-0.011539 0.05076,-0.018515 0.01032,-0.018309 -0.04113,0 -0.08264,0.00667 -0.07516,0.011713 0.009,0.00601 -0.03266,0.013572 -0.05567,0.010079 -0.01163,-0.00174 -0.03265,-8.2e-4 -0.05152,0.00246 -0.02756,0.00469 -0.03968,0.00387 -0.08919,-0.00585 -0.05571,-0.010985 -0.09912,-0.014924 -0.05066,-0.00461 0.01793,0.00387 0.02178,0.00659 0.01485,0.010525 z m 0.147493,0.00667 c 0.01036,0 0.01936,0.00131 0.02002,0.00213 6.56e-4,8.2e-4 -0.0065,0.00213 -0.01587,0.00295 -0.0094,8.2e-4 -0.0184,0 -0.02002,-0.00213 -0.0016,-0.00197 0.0055,-0.00338 0.01587,-0.00295 z m 0.193484,0.3420771 c 0.01522,0.00568 0.04397,0.011496 0.0639,0.01293 0.03267,0.00239 0.03751,0.0018 0.04922,-0.00577 0.01428,-0.00919 0.01119,-0.019601 -0.0042,-0.014209 -0.0053,0.0019 -0.0034,-0.00502 0.0045,-0.015255 0.01,-0.013136 0.0095,-0.023366 -0.0017,-0.034566 l -0.01595,-0.015905 0.04654,-0.00289 c 0.09267,-0.00577 0.03477,-0.021569 -0.06211,-0.016951 -0.0418,0.00197 -0.05055,0.00387 -0.05923,0.012552 -0.0056,0.0056 -0.0048,0.01886 0.0017,0.029444 0.0065,0.010584 0.0092,0.019339 0.006,0.01946 -0.01804,8.2e-4 -0.05808,0.01517 -0.05641,0.020434 8.2e-5,0 0.01257,0.00502 0.02778,0.010689 z M 11.497974,7.8036461 c 0.0094,-8.2e-4 0.01501,-0.00403 0.01249,-0.00717 -0.0079,-0.00978 -0.02779,-0.00461 -0.02942,0.00766 -5.2e-5,8.2e-4 0.0075,0 0.01693,-8.2e-4 z m 0.283414,0.2889349 c 0.0094,-8.2e-4 0.01509,-0.00395 0.01267,-0.00692 -0.0051,-0.00626 -0.02478,-0.00908 -0.03255,-0.00461 -0.0099,0.00568 0.0027,0.013061 0.01989,0.011546 z m -0.0979,-0.3394833 c 0.04384,-8.2e-4 0.05346,-0.00437 0.02733,-0.010443 -0.02891,-0.00675 -0.09583,0.00115 -0.07211,0.00853 0.0043,0.00131 0.02449,0.00223 0.04477,0.0019 z m 0.683552,0.085021 c 0.02314,-0.00552 0.02721,-0.025292 0.006,-0.028959 -0.0126,-0.00213 -0.01356,-0.00131 -0.0039,0.0033 0.0087,0.0042 0.0061,0.00966 -0.0081,0.016777 -0.02247,0.011293 -0.01991,0.015071 0.006,0.00886 z m 0.357196,-0.1086604 c 0.0052,-0.0018 0.0078,-0.00535 0.0057,-0.00782 -0.0023,-0.00272 -0.0064,-0.0018 -0.01025,0.00213 -0.0083,0.00847 -0.0072,0.00977 0.0046,0.0056 z M 13.8152,8.4119726 c 0.0063,-8.2e-4 0.0086,-0.00437 0.0053,-0.00851 -0.0034,-0.00412 -0.01122,-0.00708 -0.01747,-0.00651 -0.0063,8.2e-4 -0.0086,0.00437 -0.0053,0.00851 0.0034,0.00412 0.01122,0.00708 0.01748,0.00651 z M 13.137823,7.5480114 c 0.0052,-0.0018 0.0081,-0.00502 0.0064,-0.00708 -0.0017,-0.00207 -0.0073,-0.00223 -0.01254,0 -0.0052,0.0018 -0.0081,0.00502 -0.0064,0.00708 0.0017,0.00207 0.0073,0.00223 0.01252,0 z m -4.3786966,-0.4683788 0.032645,-0.020998 -0.023245,0.019106 c -0.020218,0.01662 -0.039541,0.027847 -0.041446,0.024085 -3.28e-4,-6.56e-4 0.014088,-0.01064 0.032046,-0.022192 z m 0.5768109,-6.56e-4 c 4.92e-4,-0.00226 1.663e-4,-0.00893 -6.56e-4,-0.014842 -8.2e-4,-0.00591 0.017761,-0.024173 0.041273,-0.040587 0.023507,-0.016416 0.04195,-0.030828 0.040972,-0.032032 -9.839e-4,-0.00118 0.00773,-0.00844 0.019368,-0.016069 0.036802,-0.024157 0.051635,-0.046164 0.03391,-0.050308 -0.02112,-0.00493 0.010017,-0.059646 0.032811,-0.057656 0.00852,7.216e-4 0.010775,3.28e-4 0.00501,-9.183e-4 -0.028336,-0.00606 0.089723,-0.083596 0.1549535,-0.1017647 0.034576,-0.00963 0.038481,-0.020657 0.00443,-0.012493 -0.026312,0.00631 -0.022068,-0.00348 0.00796,-0.018322 0.01598,-0.00791 0.061726,-0.025912 0.1016498,-0.040009 0.03992,-0.014097 0.07096,-0.027627 0.068976,-0.030067 -0.00385,-0.00474 0.031202,-0.017804 0.1029917,-0.038353 0.024491,-0.00701 0.039305,-0.012415 0.032926,-0.012011 -0.00639,3.28e-4 -0.024367,0.00461 -0.039971,0.00932 -0.040843,0.012372 -0.046045,0.00848 -0.00697,-0.00522 0.018174,-0.00638 0.033564,-0.013123 0.034189,-0.015002 6.56e-4,-0.00187 0.022313,-0.011122 0.048198,-0.020546 0.02923,-0.010637 0.03705,-0.015229 0.02064,-0.012119 -0.01453,0.00276 -0.03854,0.00698 -0.053351,0.00939 -0.028909,0.0047 -0.028139,0.00437 0.083893,-0.035598 0.0247,-0.00881 0.04471,-0.016259 0.04448,-0.016547 -0.0024,-0.00302 -0.0976,0.011749 -0.1452197,0.022497 -0.081035,0.018296 -0.084419,0.017951 -0.021162,-0.00213 0.08544,-0.027125 0.3139957,-0.075132 0.4439197,-0.09324 0.05528,-0.00771 0.114566,-0.00654 0.111784,0.0022 -0.0011,0.00338 0.0043,0.00566 0.01201,0.00505 0.0077,-6.56e-4 0.0063,0.00144 -0.0031,0.00454 -0.0093,0.00312 -0.0128,0.00696 -0.0076,0.00856 0.0052,0.00161 -8.1e-5,0.00256 -0.01231,0.00216 -0.01678,-5.904e-4 -0.01877,5.904e-4 -0.0089,0.00506 0.007,0.00321 0.0079,0.00533 0.0018,0.00475 -0.01697,-0.00167 -0.03673,0.031596 -0.0206,0.034671 0.0086,0.00164 0.0047,0.00593 -0.0107,0.011618 -0.03598,0.013297 -0.05316,0.035419 -0.03147,0.040491 0.01318,0.00308 0.01404,0.00517 0.0037,0.00889 -0.0098,0.00349 -0.0095,0.00451 10e-4,0.00364 0.01092,-9.184e-4 0.01196,0.00138 0.0042,0.00916 -0.01374,0.013773 0.02247,0.050569 0.05608,0.056974 0.02175,0.00414 0.03678,0.00298 0.160921,-0.012467 0.125306,-0.015596 0.171298,-0.018866 0.192125,-0.013674 0.0042,0.00105 0.03279,0.00285 0.06353,0.004 0.03074,0.00115 0.07276,0.00418 0.09338,0.00672 0.02062,0.00253 0.06485,0.00436 0.09828,0.00406 0.06907,-6.56e-4 0.09185,0.00566 0.06481,0.017941 -0.02142,0.00974 -0.02108,0.01333 0.0011,0.011372 0.03509,-0.00312 0.0344,0.00897 -0.0018,0.031196 -0.02089,0.012838 -0.04895,0.026719 -0.06235,0.030848 -0.01445,0.00445 -0.01806,0.00764 -0.0089,0.00782 0.0085,1.66e-4 0.01933,0.00479 0.02408,0.010279 0.0062,0.00727 0.0216,0.011329 0.05655,0.01498 0.05633,0.00589 0.08108,0.00308 0.08712,-0.00992 0.0024,-0.00517 0.013,-0.010181 0.02351,-0.011112 0.01053,-9.184e-4 0.02714,-0.00361 0.03695,-0.00596 0.01193,-0.00285 0.01633,-0.00262 0.01328,7.216e-4 -0.0031,0.00341 0.0079,0.00373 0.03482,9.84e-4 0.02167,-0.0022 0.04926,-0.00249 0.06135,-6.56e-4 0.01209,0.00184 0.03761,0.0018 0.05671,-8.23e-5 0.02482,-0.00246 0.03791,-0.00157 0.0459,0.00305 0.0062,0.00357 0.0277,0.0072 0.04789,0.00807 0.02019,8.856e-4 0.03793,0.00308 0.0394,0.0049 0.0015,0.0018 0.01991,0.00177 0.04096,-5.45e-5 0.0708,-0.00626 0.160121,-0.00643 0.214664,-3.28e-4 0.04296,0.00474 0.0689,0.00479 0.125472,1.66e-4 0.06006,-0.00486 0.09068,-0.00452 0.194076,0.00223 0.1433,0.00933 0.234745,0.022169 0.225903,0.031701 -0.0098,0.010565 0.01041,0.019945 0.08093,0.037521 0.03715,0.00926 0.06905,0.018706 0.07091,0.020992 0.0061,0.00757 0.08727,0.028768 0.104333,0.02726 0.01163,-0.00102 0.01252,-0.00325 0.0029,-0.0073 -0.0076,-0.00321 -0.0279,-0.012729 -0.04505,-0.021179 -0.01715,-0.00845 -0.03479,-0.015944 -0.03923,-0.016659 -0.01201,-0.00194 -0.02657,-0.013753 -0.01793,-0.014517 0.0041,-3.28e-4 0.02976,0.00402 0.05698,0.00975 0.03509,0.00738 0.04724,0.012021 0.04177,0.015947 -0.0055,0.00391 0.0078,0.00912 0.04522,0.01783 0.02911,0.00676 0.05412,0.014281 0.05556,0.016711 0.0017,0.00295 -4.92e-4,0.00305 -0.0069,1.66e-4 -0.0053,-0.0023 -0.01693,-0.00353 -0.02596,-0.00272 -0.01387,0.00121 -0.01213,0.00298 0.01138,0.011526 0.01529,0.00553 0.03835,0.019352 0.05124,0.030694 0.02296,0.020198 0.05548,0.031881 0.08218,0.02952 0.0074,-6.56e-4 0.01542,8.855e-4 0.01788,0.00345 0.0024,0.00256 0.01843,0.018135 0.0355,0.034631 0.03475,0.03361 0.03168,0.046545 -0.01942,0.081694 -0.01478,0.010161 -0.02594,0.023376 -0.0248,0.029365 0.0011,0.00599 -0.0022,0.011263 -0.0073,0.011716 -0.0052,4.264e-4 0.0028,0.00604 0.01769,0.012398 0.03177,0.013576 0.04442,0.026394 0.02753,0.027886 -0.0069,6.56e-4 -0.005,0.00847 0.0045,0.018725 0.0091,0.00971 0.01512,0.020723 0.01366,0.024439 -0.0017,0.00432 0.0047,0.00703 0.01757,0.00748 0.0112,3.28e-4 0.01855,0.00269 0.01638,0.00508 -0.0022,0.00243 -5.25e-4,0.010876 0.0037,0.018824 0.0042,0.00795 0.0064,0.017758 0.0048,0.021799 -0.0041,0.010319 0.03551,0.038831 0.06055,0.0436 0.01148,0.0022 0.02528,0.00803 0.03066,0.012989 0.0056,0.00518 0.01489,0.00779 0.02177,0.00614 0.01425,-0.00342 0.08829,0.00864 0.08048,0.013107 -0.003,0.00171 -0.01597,0.00418 -0.02886,0.00552 -0.01733,0.00177 -0.01378,0.00249 0.01344,0.00276 0.02028,1.663e-4 0.0444,-0.00121 0.05359,-0.00315 0.0194,-0.00408 0.145717,0.00233 0.165683,0.00838 0.01026,0.00312 0.01267,0.00298 0.0099,-6.56e-4 -0.002,-0.00259 0.0013,-0.00515 0.0074,-0.00568 0.0061,-5.904e-4 0.01018,0.00167 0.0091,0.00492 -0.0017,0.00544 0.04241,0.017269 0.109854,0.029447 0.01522,0.00276 0.02254,0.00546 0.01625,0.00601 -0.0063,5.904e-4 -0.02474,-0.00187 -0.04097,-0.00544 -0.08699,-0.019024 -0.200063,-0.031114 -0.214384,-0.022924 -0.0027,0.00154 0.0059,0.00741 0.01895,0.013058 0.02094,0.009 0.02184,0.011076 0.0075,0.016974 -0.009,0.0037 -0.01173,0.00816 -0.0061,0.00993 0.0057,0.00177 0.003,0.00816 -0.006,0.014219 -0.01994,0.013507 -0.05548,0.015511 -0.100151,0.00564 -0.03144,-0.00694 -0.0655,-0.00395 -0.04096,0.0036 0.02072,0.00638 0.02739,0.014091 0.02093,0.024078 l -0.0063,0.00966 -0.03327,-0.0059 c -0.02198,-0.00389 -0.02967,-0.00716 -0.02268,-0.00961 0.007,-0.00246 0.0061,-0.00416 -0.0029,-0.00506 -0.0075,-7.216e-4 -0.02007,0.00583 -0.02804,0.014596 -0.01328,0.014593 -0.01618,0.015488 -0.03451,0.010621 -0.01101,-0.00292 -0.02622,-0.00384 -0.0338,-0.00203 -0.0076,0.00184 -0.02886,3.28e-4 -0.04728,-0.00337 -0.01842,-0.00366 -0.03808,-0.00627 -0.04368,-0.00577 -0.0056,4.92e-4 -0.01503,-0.00506 -0.02096,-0.012359 -0.0059,-0.00729 -0.03173,-0.022166 -0.05734,-0.033052 -0.02561,-0.010886 -0.04866,-0.022382 -0.05123,-0.025541 -0.0026,-0.00315 -0.01134,-0.00516 -0.01945,-0.00443 -0.02056,0.0018 -0.08319,-0.0021 -0.08596,-0.00535 -0.0013,-0.00148 -0.0097,-9.184e-4 -0.01876,0.00125 -0.0131,0.00315 -0.01625,0.00216 -0.0153,-0.00479 10e-4,-0.00712 -0.0021,-0.00796 -0.01646,-0.0045 -0.012,0.00285 -0.01616,0.00259 -0.01298,-9.184e-4 0.0027,-0.00298 -0.002,-0.00453 -0.01116,-0.00372 -0.0087,7.216e-4 -0.02526,-0.00194 -0.03681,-0.00599 -0.01157,-0.00407 -0.03408,-0.0087 -0.05007,-0.010309 -0.02573,-0.00259 -0.02689,-0.00243 -0.01007,0.00154 0.02247,0.00529 0.0354,0.030126 0.02131,0.040936 -0.0088,0.00672 -0.0074,0.0066 0.01469,-0.00141 0.0449,-0.01618 0.07421,-0.00197 0.03833,0.018604 -0.01988,0.011385 -0.02236,0.011775 -0.04961,0.00777 -0.01577,-0.00233 -0.03604,-0.00858 -0.04503,-0.013907 -0.0158,-0.00937 -0.07079,-0.015294 -0.07307,-0.00787 -6.56e-4,0.002 -0.0077,0.00422 -0.01583,0.00493 -0.01073,9.184e-4 -0.01688,-0.00343 -0.02266,-0.016078 -0.0049,-0.010699 -0.01494,-0.01902 -0.02619,-0.021644 -0.01017,-0.00236 -0.01772,-0.00806 -0.01706,-0.012851 0.0011,-0.00809 0.003,-0.00838 0.03363,-0.00506 0.01783,0.00194 0.04887,0.00187 0.06895,-1.66e-4 0.02005,-0.00207 0.04734,-0.00385 0.0606,-0.00404 0.01326,-1.66e-4 0.0171,-5.904e-4 0.0086,-7.216e-4 -0.0085,-1.663e-4 -0.01695,-0.00213 -0.01871,-0.00427 -0.0017,-0.00216 -0.01272,-0.00213 -0.02434,5.45e-5 -0.01165,0.0022 -0.02242,0.00243 -0.02393,5.904e-4 -0.0015,-0.00187 -0.0082,-0.00292 -0.01481,-0.00233 -0.0066,5.904e-4 -0.0071,0.00259 -0.0011,0.00447 0.007,0.00216 8.2e-4,0.00377 -0.01702,0.00443 -0.01537,5.904e-4 -0.02836,-0.00112 -0.02887,-0.00375 -0.0011,-0.00607 -0.05576,-0.00596 -0.07904,1.659e-4 -0.01676,0.0044 -0.01659,0.00461 0.0036,0.00443 0.01163,-8.24e-5 0.02254,0.00148 0.02419,0.00352 0.0017,0.00203 -0.0015,0.00325 -0.0071,0.00269 -0.02823,-0.00279 -0.05266,0.028834 -0.03708,0.04802 0.0079,0.00978 -0.0056,0.015127 -0.03264,0.012867 -0.01777,-0.00148 -0.01835,-0.00318 -0.0047,-0.013697 0.01419,-0.010932 0.01328,-0.012969 -0.01018,-0.022999 -0.01419,-0.00605 -0.03611,-0.012575 -0.04877,-0.014494 -0.01265,-0.0019 -0.02551,-0.00656 -0.02856,-0.010322 -0.003,-0.00376 -0.01254,-0.00752 -0.02107,-0.00837 -0.01045,-0.00102 -0.01147,3.28e-4 -0.0032,0.00407 0.0068,0.00308 0.0074,0.00604 0.0013,0.00658 -0.02304,0.00203 0.0035,0.018561 0.03233,0.020155 0.02002,0.00112 0.03294,0.00522 0.04144,0.013212 0.02038,0.019125 0.0089,0.025869 -0.05542,0.032557 -0.03276,0.0034 -0.05848,0.00433 -0.06025,0.00213 -0.0017,-0.0021 -0.03613,-0.00563 -0.0765,-0.00786 -0.07278,-0.00402 -0.09816,-0.00781 -0.09266,-0.013854 0.0016,-0.00171 -0.01473,-0.00276 -0.03623,-0.00233 -0.06938,0.00144 -0.07905,8.2e-4 -0.09109,-0.0062 -0.0065,-0.00377 -0.007,-0.0073 -8.2e-4,-0.00784 0.006,-5.904e-4 0.0065,-0.00239 0.001,-0.0041 -0.01417,-0.00441 0.0172,-0.00656 0.03792,-0.00262 0.0094,0.0018 0.01954,0.00184 0.02256,8.23e-5 0.0083,-0.00475 -0.02651,-0.01149 -0.05857,-0.011322 -0.01747,8.23e-5 -0.03329,-0.00318 -0.04106,-0.00848 -0.0091,-0.00618 -0.0079,-0.00846 0.0042,-0.00804 0.0093,3.28e-4 0.01532,-0.00131 0.01348,-0.00357 -0.0018,-0.0023 -0.01,-0.00384 -0.01802,-0.00343 -0.0081,3.28e-4 0.005,-0.00216 0.02892,-0.00568 0.03317,-0.00487 0.05164,-0.00535 0.07735,-0.00197 0.02395,0.00315 0.04383,0.00285 0.06834,-0.00102 0.04283,-0.00678 0.06417,-0.00144 0.03069,0.00765 -0.01628,0.00443 -0.02323,0.010821 -0.02058,0.018945 0.0048,0.014747 0.02186,0.019391 0.03542,0.00965 0.01354,-0.00973 0.03245,-0.010676 0.03262,-0.00164 8.1e-5,0.00408 0.01267,0.010663 0.02797,0.014609 0.0243,0.00626 0.02813,0.00628 0.03005,1.66e-4 0.0013,-0.00418 0.01045,-0.00683 0.0228,-0.00664 0.01598,2.493e-4 0.01646,-1.659e-4 0.0022,-0.00197 -0.0111,-0.00138 -0.01793,-0.00558 -0.01727,-0.010591 6.56e-4,-0.00457 -0.005,-0.00892 -0.01251,-0.00967 -0.0088,-8.855e-4 -0.0098,-0.00523 -0.0028,-0.012241 0.0085,-0.00852 0.01499,-0.010256 0.02996,-0.00798 0.01399,0.00213 0.01819,0.00177 0.01567,-0.00131 -0.0019,-0.00233 -0.0073,-0.00393 -0.01204,-0.00356 -0.0047,3.28e-4 -0.03073,-0.00292 -0.05776,-0.0073 -0.04135,-0.00669 -0.04485,-0.00803 -0.02202,-0.00838 0.01628,-2.493e-4 0.02905,-0.00289 0.03192,-0.00668 0.0086,-0.011171 0.04211,-0.00605 0.04883,0.00745 0.0034,0.00681 0.0074,0.00955 0.0091,0.00609 0.0016,-0.00346 0.02085,-0.01681 0.04274,-0.029654 0.02189,-0.012848 0.04083,-0.029359 0.04209,-0.036696 0.002,-0.011516 -0.0018,-0.014117 -0.02741,-0.019004 -0.01634,-0.00312 -0.0309,-0.00714 -0.03237,-0.00894 -0.0015,-0.0018 -0.01984,-0.00292 -0.04084,-0.00249 -0.021,4.264e-4 -0.04923,-0.00105 -0.06275,-0.00335 -0.01353,-0.0023 -0.04592,-0.00325 -0.07202,-0.00213 -0.04042,0.00171 -0.04979,5.904e-4 -0.06327,-0.00806 -0.0087,-0.00554 -0.02155,-0.00916 -0.02852,-0.00805 -0.007,0.00112 -0.01358,-8.528e-4 -0.01464,-0.00439 -0.002,-0.00674 -0.03619,-0.00996 -0.05094,-0.00479 -0.01229,0.00432 -0.0051,0.010581 0.02451,0.021215 0.03237,0.011641 0.03555,0.015518 0.01424,0.017403 -0.02622,0.00233 -0.01985,0.020418 0.01033,0.029307 0.01442,0.00425 0.03137,0.00727 0.0377,0.0067 0.0077,-6.56e-4 0.0096,0.00174 0.0056,0.00728 -0.0042,0.00598 -8.2e-4,0.00932 0.01237,0.011992 0.01004,0.00203 0.02275,0.00809 0.0283,0.013477 0.0089,0.00864 0.0054,0.010404 -0.03033,0.015203 -0.02222,0.00298 -0.05209,0.00455 -0.06643,0.00341 -0.01432,-0.00112 -0.03153,-0.00112 -0.03826,-1.18e-5 -0.0067,0.00112 -0.01876,-0.00187 -0.02672,-0.00659 -0.01471,-0.00873 -0.05575,-0.012077 -0.07316,-0.00597 -0.0053,0.00184 -0.0048,0.00924 10e-4,0.016436 l 0.01063,0.013077 -0.03892,-0.00679 c -0.02141,-0.00373 -0.0441,-0.00634 -0.05043,-0.00579 -0.0063,5.904e-4 -0.03071,-0.00236 -0.05418,-0.0065 -0.03226,-0.00566 -0.04915,-0.00631 -0.06921,-0.00266 -0.0146,0.00269 -0.03525,0.00427 -0.0459,0.00354 -0.01064,-7.216e-4 -0.02958,-0.00144 -0.0421,-0.00161 -0.01252,-1.659e-4 -0.02814,-0.00343 -0.03471,-0.00725 -0.0066,-0.00381 -0.01575,-0.0056 -0.02037,-0.00398 -0.0046,0.00161 -0.0111,-3.28e-4 -0.01437,-0.00438 -0.007,-0.00863 -0.04571,-0.011165 -0.05273,-0.00345 -0.0038,0.00416 -0.0097,0.00461 -0.02676,0.00203 -0.01206,-0.00184 -0.0209,-0.00207 -0.01965,-5.904e-4 0.0013,0.00154 -0.0071,0.00138 -0.01859,-3.28e-4 -0.02614,-0.00397 -0.03444,-0.013061 -0.01364,-0.014898 0.0086,-7.216e-4 0.02085,-0.00592 0.02717,-0.011457 0.0063,-0.00554 0.01231,-0.00833 0.0133,-0.00621 0.0043,0.00931 0.01109,0.00913 0.03622,-9.184e-4 0.01469,-0.00588 0.02979,-0.010958 0.03351,-0.011286 0.0037,-3.28e-4 0.01433,0.0087 0.02356,0.02006 0.01885,0.023209 0.03474,0.025046 0.04769,0.0055 0.006,-0.0091 0.02576,-0.017722 0.06352,-0.027762 0.03013,-0.00801 0.05555,-0.0178 0.0565,-0.021756 10e-4,-0.00396 0.0071,-0.011286 0.01362,-0.016292 0.0066,-0.00502 3.28e-4,-0.00325 -0.01392,0.00392 -0.03247,0.016364 -0.06362,0.021618 -0.07555,0.012739 -0.02001,-0.014894 -0.02855,-0.016377 -0.05634,-0.00975 -0.03336,0.00795 -0.03881,0.00842 -0.03383,0.00295 0.0022,-0.00239 -0.0013,-0.00389 -0.0079,-0.00333 -0.0065,5.904e-4 -0.01161,0.00543 -0.01135,0.010798 3.28e-4,0.00624 -0.0059,0.00953 -0.0172,0.00914 -0.02565,-9.184e-4 -0.02491,-0.00325 0.0084,-0.027348 0.01658,-0.011969 0.03053,-0.023914 0.03101,-0.026538 4.26e-4,-0.00272 0.01029,-0.00444 0.02262,-0.00402 0.01806,6.56e-4 0.02074,0.00239 0.01577,0.010404 -0.0033,0.00529 0.01275,-0.00167 0.03568,-0.015485 0.04197,-0.025311 0.04743,-0.037089 0.01592,-0.034305 -0.0235,0.00207 -0.02735,-0.00529 -0.0055,-0.010509 0.03791,-0.00906 0.0711,-0.036328 0.06034,-0.049575 -0.0028,-0.00344 0.0027,-0.00535 0.01427,-0.00495 0.02759,9.512e-4 0.01885,-0.00432 -0.02262,-0.013674 -0.03803,-0.00857 -0.04367,-0.015413 -0.0118,-0.014307 0.01224,4.264e-4 0.01506,-9.184e-4 0.0083,-0.00402 -0.0061,-0.00276 0.001,-0.00848 0.01758,-0.014041 0.03722,-0.012533 0.07836,-0.04064 0.07162,-0.048933 -0.003,-0.00366 -0.01772,-0.00921 -0.03275,-0.012316 -0.05616,-0.011598 -0.0902,-0.030209 -0.06891,-0.037673 0.01422,-0.005 0.103887,0.00859 0.120055,0.018174 0.01707,0.010115 0.06201,0.014684 0.07446,0.00757 0.0057,-0.00328 0.01795,-0.00432 0.03782,-0.00321 0.01775,9.84e-4 0.04563,-0.00108 0.07049,-0.00521 0.02262,-0.00375 0.04587,-0.00687 0.05169,-0.00692 0.0058,-5.44e-5 0.0062,-0.0021 8.2e-4,-0.00455 -0.01038,-0.00471 0.0052,-0.00619 0.12184,-0.011568 0.07553,-0.00348 0.157932,-0.023265 0.14798,-0.03552 -0.0035,-0.00432 -0.0025,-0.013681 0.0023,-0.020834 0.01598,-0.024118 -0.04274,-0.050946 -0.117035,-0.053444 -0.0762,-0.00256 -0.176009,0.01314 -0.175729,0.027647 8.1e-5,0.00793 -0.01883,0.012851 -0.07337,0.019027 -0.06828,0.00773 -0.08789,0.0047 -0.06273,-0.00968 0.0069,-0.00392 0.0092,-0.011247 0.0051,-0.016262 -0.0041,-0.00502 -0.0029,-0.00952 0.0027,-0.01001 0.0055,-4.92e-4 0.01,-0.00431 0.0099,-0.00851 -8e-5,-0.0071 -0.0057,-0.00698 -0.08214,0.00167 -0.0451,0.00513 -0.09591,0.00938 -0.112905,0.00947 -0.02872,1.659e-4 -0.03182,-0.00125 -0.04381,-0.019634 -0.01211,-0.018578 -0.01517,-0.019949 -0.05092,-0.022199 -0.04773,-0.00302 -0.08095,8.23e-5 -0.151114,0.014268 -0.03566,0.00719 -0.0655,0.010866 -0.08338,0.010263 -0.03051,-0.00102 -0.07186,0.014061 -0.0751,0.027401 -0.001,0.00391 -0.02182,0.012697 -0.04637,0.019542 -0.02456,0.00684 -0.04872,0.015363 -0.05368,0.018932 -0.005,0.00357 -0.01672,0.00717 -0.02611,0.008 -0.01387,0.00121 -0.01527,1.66e-4 -0.0075,-0.00539 0.01147,-0.00824 -0.0023,-0.0074 -0.03038,0.00184 -0.0113,0.00372 -0.01644,0.00958 -0.01161,0.013185 0.0061,0.00455 0.0039,0.0058 -0.0075,0.00416 -0.02108,-0.00305 -0.107197,0.00649 -0.15294,0.016934 -0.07608,0.017364 -0.08201,0.019217 -0.07542,0.023593 0.0037,0.00249 -3.28e-4,0.00464 -0.0089,0.00481 -0.0086,1.66e-4 -0.02468,0.00386 -0.0357,0.00819 -0.01101,0.00433 -0.02532,0.00832 -0.03177,0.00886 -0.0065,5.903e-4 -0.0054,-0.00134 0.0024,-0.00418 0.0085,-0.00312 0.0087,-0.00469 4.92e-4,-0.00401 -0.0075,6.56e-4 -0.01854,0.0056 -0.02455,0.011053 -0.0094,0.00856 -0.01671,0.00878 -0.02063,6.56e-4 -0.0011,-0.00246 -0.13258,0.010909 -0.183865,0.018712 -0.01791,0.00272 -0.05401,0.012979 -0.08022,0.022786 -0.02622,0.00981 -0.06877,0.022487 -0.09457,0.028178 -0.04626,0.010201 -0.146122,0.019667 -0.176113,0.016692 -0.0085,-8.2e-4 -0.028194,0.00233 -0.043838,0.00703 -0.015652,0.0047 -0.032517,0.00778 -0.037492,0.00683 -0.005,-9.512e-4 -0.00747,1.66e-4 -0.00559,0.00253 0.00371,0.00456 -0.1021189,0.046059 -0.1218918,0.047806 -0.01333,0.00118 -0.035596,0.012001 -0.097663,0.047473 -0.023596,0.013484 -0.065346,0.032262 -0.092787,0.041727 -0.027437,0.00947 -0.056529,0.023091 -0.064648,0.030277 -0.029415,0.026043 -0.1014682,0.020969 -0.1099475,-0.00774 -0.00269,-0.00915 -0.00743,-0.024573 -0.010529,-0.034272 -0.00308,-0.0097 -0.00365,-0.019804 -0.00131,-0.022451 0.00243,-0.00266 -0.013727,-0.00874 -0.03586,-0.01353 -0.029119,-0.00631 -0.044475,-0.013176 -0.055581,-0.024859 -0.0084,-0.00888 -0.014944,-0.017991 -0.014468,-0.020247 z M 10.408223,6.5071568 c 0.0073,-0.0034 0.01085,-0.00892 0.0079,-0.012261 -0.0037,-0.00418 -0.0081,-0.00269 -0.014,0.00475 -0.01109,0.013897 -0.01014,0.015075 0.0061,0.00751 z m 0.523752,0.329541 c 0.01148,3.28e-4 0.01708,-0.00151 0.01435,-0.00487 -0.0025,-0.00302 -0.01216,-0.00483 -0.02155,-0.00401 -0.0094,8.2e-4 -0.01583,0.00302 -0.01433,0.00487 0.0015,0.00184 0.01121,0.00365 0.02155,0.00401 z m 1.336802,0.4822016 c 0.0051,-0.011526 0.0021,-0.015203 -0.0091,-0.011267 -0.0052,0.0018 -0.0061,0.007 -0.002,0.011486 0.0072,0.00787 0.0076,0.00786 0.01117,-1.663e-4 z m 0.442041,-0.4142198 c 0.02248,0.00499 0.02355,0.00484 0.02591,-0.00358 0.0026,-0.00933 -0.04042,-0.024186 -0.06459,-0.022291 -0.01754,0.00138 0.0093,0.019362 0.03868,0.025869 z m -2.110429,1.6159515 c 0.0042,-0.00148 0.01915,-0.0018 0.03313,-8.2e-4 0.03843,0.00295 0.0493,8.2e-4 0.04879,-0.0097 -6.56e-4,-0.012411 0.02682,-0.012575 0.124984,-8.199e-4 0.04261,0.00511 0.08732,0.00774 0.105516,0.00609 0.01736,-0.00157 0.03569,-0.00148 0.04071,4.95e-5 0.005,0.00157 0.01819,0.00115 0.02927,-9.183e-4 0.02497,-0.00469 0.04758,0.0056 0.04997,0.022773 0.0013,0.00979 -0.002,0.01148 -0.01795,0.00906 -0.01079,-0.00164 -0.01837,-0.00148 -0.01684,8.2e-4 0.0015,0.0019 -0.0061,0.00437 -0.01685,0.00552 -0.01077,0.00115 -0.06215,0.00717 -0.114139,0.013376 l -0.09452,0.011257 -0.07717,-0.013054 c -0.06562,-0.011103 -0.07907,-0.015121 -0.08989,-0.026866 -0.007,-0.00758 -0.0093,-0.015022 -0.005,-0.016505 z M 9.561934,6.6817755 c 0.02724,-0.011421 0.1177614,-0.041802 0.1269764,-0.042617 0.010742,-9.511e-4 -0.06245,0.029431 -0.073577,0.030546 -0.00526,5.904e-4 -0.021808,0.00585 -0.036802,0.011857 -0.031976,0.012782 -0.047037,0.012979 -0.016577,1.659e-4 z m 0.733301,0.8930381 c 0.0099,0.0019 0.0158,0.00461 0.01325,0.00601 -0.0026,0.00148 -0.01063,-5.77e-5 -0.01791,-0.00338 -0.01053,-0.00478 -0.0096,-0.00535 0.0047,-0.00262 z m 0.967402,1.0427101 c 0.0063,-8.2e-4 0.01282,8.2e-4 0.0146,0.00295 0.0018,0.00223 -0.0028,0.00338 -0.01001,0.00262 -0.0073,-8.2e-4 -0.01386,-0.00207 -0.0146,-0.00295 -6.56e-4,-9.184e-4 0.0038,-0.00213 0.01001,-0.00262 z m 0.198787,-0.2632718 c 0.01662,0.00115 0.02795,0.00346 0.02515,0.00502 -0.0028,0.00157 -0.01639,8.199e-4 -0.03023,-0.00213 -0.02405,-0.00486 -0.02382,-0.00494 0.0051,-0.00289 z m 0.521988,0.4735883 c 0.02048,-0.00207 0.102728,0.00272 0.09745,0.00568 -0.0019,0.00108 -0.02865,8.2e-4 -0.05943,-9.184e-4 -0.03078,-0.00157 -0.04789,-0.00379 -0.03801,-0.00478 z M 11.044911,7.6005183 c 0.0046,-0.00164 0.0162,-0.00115 0.02573,0.00108 0.0095,0.00223 0.02666,0.0023 0.03809,0 0.0143,-0.00272 0.0223,-0.00197 0.0257,0.00213 0.0027,0.00338 0.0095,0.00568 0.01511,0.00519 0.01963,-0.00174 0.03184,0.0091 0.01872,0.016603 -0.0094,0.00535 -0.01777,0.00675 -0.02862,0.00469 -0.0084,-0.00157 -0.0247,-0.00207 -0.03612,-0.00108 -0.03019,0.00272 -0.07937,-0.021471 -0.05858,-0.028752 z m -0.406914,-0.639656 c 0.0099,0.00187 0.01582,0.00458 0.01325,0.00605 -0.0026,0.00144 -0.01063,-5.45e-5 -0.01789,-0.00338 -0.01053,-0.0048 -0.0096,-0.00535 0.0047,-0.00266 z m 0.04469,0.00745 c 0.01236,4.264e-4 0.02039,0.00197 0.01781,0.00343 -0.0026,0.00148 -0.01269,0.00112 -0.02249,-7.216e-4 -0.01415,-0.00272 -0.01321,-0.00328 0.0047,-0.00269 z m 0.559066,0.6447931 c 0.01056,-9.84e-4 0.02373,0 0.02928,0.00141 0.01277,0.00395 -0.0023,0.00527 -0.02845,0.00256 -0.01725,-0.0018 -0.01736,-0.00239 -8.2e-4,-0.00387 z m 0.118644,0.029706 c 0.0059,-8.199e-4 0.01525,8.2e-4 0.02079,0.00213 0.0056,0.00174 0.0021,0.00387 -0.0077,0.00469 -0.0098,9.184e-4 -0.01911,-8.23e-5 -0.02079,-0.00213 -0.0017,-0.00207 0.0018,-0.0042 0.0077,-0.00469 z M 10.842958,6.9501962 c 0.014,-0.00336 0.01516,-0.00285 0.007,0.00298 -0.01109,0.00796 -0.01713,0.00923 -0.02105,0.00441 -0.0015,-0.00184 0.0048,-0.00516 0.01402,-0.00737 z m 0.556275,0.6569758 c 0.0094,-8.2e-4 0.0184,0 0.02002,0.00213 0.0016,0.00197 -0.0055,0.00338 -0.01587,0.00295 -0.01036,0 -0.01936,-0.00131 -0.02002,-0.00213 -6.56e-4,-8.2e-4 0.0065,-0.00213 0.01587,-0.00295 z M 10.870988,6.9402442 c 0.0033,-0.00194 0.01678,-0.00437 0.02987,-0.00544 0.02197,-0.00184 0.02248,-0.00154 0.0066,0.00373 -0.01846,0.00614 -0.04653,0.00746 -0.0365,0.00174 z m 0.587541,0.5930828 c 0.0051,-0.00387 0.0234,-0.00783 0.04115,-0.00891 0.01844,-0.00108 0.03053,-0.00379 0.02854,-0.00634 -0.0021,-0.00272 0.0028,-0.00262 0.01216,0 0.02169,0.00651 0.02319,0.010024 0.0049,0.011637 -0.0086,8.2e-4 -0.01315,0.00437 -0.01016,0.00791 0.02031,0.024583 0.01937,0.027476 -0.0097,0.030038 -0.04333,0.00387 -0.08738,-0.01886 -0.06697,-0.0345 z M 10.971782,6.9186102 c 0.0091,3.28e-4 0.03239,-0.00552 0.05187,-0.012962 0.01949,-0.00745 0.03851,-0.012946 0.04226,-0.012231 0.0038,7.215e-4 0.02483,-0.00276 0.04684,-0.00775 0.0242,-0.00548 0.04378,-0.00788 0.04955,-0.00609 0.0053,0.00164 -0.001,0.0039 -0.01389,0.00504 -0.01288,0.00115 -0.02197,0.00386 -0.02019,0.00605 0.0018,0.0022 -0.004,0.00348 -0.01291,0.00285 -0.0089,-6.56e-4 -0.0049,5.904e-4 0.009,0.00262 0.01595,0.00236 0.02143,0.00502 0.01506,0.00726 -0.0055,0.00194 -0.01079,0.00262 -0.01168,0.00154 -8.2e-4,-0.00112 -0.01415,0.00115 -0.02947,0.00501 -0.04316,0.010873 -0.133535,0.019529 -0.138599,0.013281 -0.0023,-0.00285 0.0032,-0.0049 0.01224,-0.00459 z m 0.499169,0.4688665 c 0.01259,-0.00112 0.03106,-0.00491 0.04103,-0.00843 0.01423,-0.00504 0.02587,-0.00592 0.0544,-0.00414 0.01995,0.00125 0.04349,0.0021 0.05229,0.0019 0.0088,-2.49e-4 0.02648,0.00128 0.03927,0.0033 0.01278,0.00203 0.03303,0.00392 0.04499,0.00425 0.02945,7.216e-4 0.08736,0.019581 0.08621,0.027998 -4.26e-4,0.00374 0.0053,0.00741 0.01288,0.00817 0.0076,7.216e-4 0.01168,-0.00128 0.0091,-0.00448 -0.0026,-0.00321 -3.28e-4,-0.00625 0.0052,-0.00674 0.01692,-0.00151 0.04662,0.00735 0.04195,0.012487 -0.0026,0.00285 0.002,0.00376 0.01123,0.0022 0.0086,-0.00144 0.04299,0.00256 0.07642,0.0089 0.07454,0.014176 0.104645,0.015101 0.126572,0.00389 0.01373,-0.00702 0.02009,-0.00786 0.03834,-0.00508 0.04192,0.00636 0.05823,0.015104 0.05002,0.02681 -0.0057,0.00812 -0.0039,0.010972 0.007,0.011195 0.01891,3.28e-4 0.02833,0.02643 0.01328,0.036674 -0.0061,0.00412 -0.0085,0.00888 -0.0054,0.010542 0.013,0.007 -0.0022,0.029913 -0.02123,0.032029 -0.04212,0.00469 -0.04698,0.00593 -0.05656,0.014041 -0.0094,0.0079 -0.01178,0.0079 -0.0492,-8.2e-4 -0.02239,-0.00519 -0.05219,-0.0083 -0.06912,-0.00725 -0.01636,9.84e-4 -0.03092,0 -0.03233,-0.00141 -0.0015,-0.00174 -0.0068,-0.00164 -0.01204,0 -0.0052,0.0018 -0.01206,0 -0.01519,-0.00346 -0.0041,-0.00494 -0.0071,-0.00527 -0.01105,-0.00115 -0.0092,0.00972 -0.09816,0.00157 -0.107436,-0.00983 -0.0018,-0.0023 -0.0073,-0.00272 -0.01221,-0.00108 -0.0049,0.00174 -0.01347,0.00164 -0.01909,-8.23e-5 -0.0056,-0.00174 -0.02216,-0.00213 -0.03672,-8.2e-4 -0.03955,0.00354 -0.0857,-0.015937 -0.09529,-0.040126 -0.0049,-0.012297 -0.01257,-0.019148 -0.02262,-0.020142 -0.01,-9.84e-4 -0.01816,-0.00819 -0.02374,-0.020874 -0.0069,-0.015695 -0.0142,-0.020772 -0.03854,-0.026784 -0.01652,-0.00409 -0.0319,-0.00973 -0.0342,-0.012546 -0.0023,-0.00282 -0.0085,-0.00475 -0.01373,-0.00428 -0.0099,8.855e-4 -0.04932,-0.013267 -0.05441,-0.019532 -0.0016,-0.00197 0.0074,-0.0045 0.02,-0.0056 z m 0.242008,0.1396266 c 0.0098,-8.2e-4 0.01311,-0.00295 0.0075,-0.00478 -0.0056,-0.00174 -0.01422,-0.0018 -0.01908,-8.24e-5 -0.01316,0.00461 -0.0084,0.00659 0.01161,0.00486 z m -0.58777,-0.6038959 c 0.01336,-0.00102 0.01682,-3.28e-4 0.0087,0.00167 -0.0073,0.0018 -0.01726,0.00256 -0.02207,0.00161 -0.0048,-9.184e-4 0.0011,-0.00239 0.01333,-0.00329 z m 0.04153,-0.016065 c 0.0066,-5.904e-4 0.01025,9.184e-4 0.0081,0.00332 -0.0022,0.00239 -0.0062,0.00457 -0.009,0.00482 -0.0028,1.659e-4 -0.0064,-0.00125 -0.0081,-0.00332 -0.0017,-0.00207 0.0024,-0.00423 0.009,-0.00482 z m 0.243898,0.3075312 c 0.0035,-0.00197 0.01959,-0.0047 0.0358,-0.00606 0.02587,-0.00216 0.02739,-0.00177 0.01239,0.00321 -0.01879,0.00624 -0.0583,0.00859 -0.04818,0.00285 z m -0.209109,-0.325152 c 0.01715,-0.00758 0.10837,-0.020703 0.103025,-0.014829 -0.0024,0.00262 0.0025,0.00285 0.01195,6.56e-4 0.0088,-0.0021 0.02367,-0.00272 0.03308,-0.00131 0.0094,0.00138 0.04448,2.489e-4 0.07794,-0.00249 0.03346,-0.00272 0.06516,-0.00455 0.07045,-0.00402 0.0053,5.904e-4 0.0283,-0.00405 0.05113,-0.010184 0.03019,-0.0081 0.04102,-0.00964 0.03975,-0.00563 -0.0049,0.015413 -0.148613,0.033077 -0.330215,0.040585 -0.05439,0.00226 -0.06698,0.00164 -0.05709,-0.00272 z m 0.01769,0.023045 c 0.0073,7.216e-4 0.01385,0.00207 0.0146,0.00298 6.56e-4,9.184e-4 -0.0038,0.0021 -0.01001,0.00266 -0.0063,5.904e-4 -0.01285,-8.2e-4 -0.01463,-0.00298 -0.0018,-0.0022 0.0027,-0.00338 0.01005,-0.00266 z m 0.01312,-0.052486 c 0.0035,-0.00197 0.0222,-0.00493 0.04155,-0.00657 0.02978,-0.00253 0.03255,-0.00213 0.01809,0.00269 -0.01886,0.00627 -0.0698,0.00958 -0.05965,0.00388 z m 0.827641,0.9244919 c 0.0066,-0.0023 0.01593,-0.00346 0.02069,-0.00256 0.01292,0.00246 0.001,0.00749 -0.01707,0.00708 -0.01259,0 -0.01331,-0.00115 -0.0036,-0.00453 z M 11.362233,6.9019113 c 0.002,-1.663e-4 0.01137,0.00148 0.02087,0.00373 0.01318,0.00308 0.01409,0.00481 0.0038,0.00727 -0.008,0.00194 -0.01646,4.264e-4 -0.02087,-0.00372 -0.0041,-0.00383 -0.0058,-0.0071 -0.0038,-0.00727 z m 1.265303,1.536565 c 0.0099,-0.00239 0.0317,-8.2e-4 0.05814,0.00486 0.03501,0.00717 0.04059,0.00988 0.03259,0.015622 -0.0058,0.00412 -0.0241,0.00774 -0.04568,0.0089 -0.03286,0.0018 -0.03712,8.2e-4 -0.04848,-0.011811 -0.0084,-0.00931 -0.0073,-0.015029 0.0034,-0.0176 z M 12.005802,7.6329289 c 0.01392,-0.00733 0.03222,-0.013904 0.04067,-0.014642 0.02025,-0.0018 0.07028,0.010024 0.07752,0.018299 0.0064,0.00749 -0.02162,0.011529 -0.03613,0.00519 -0.0065,-0.00279 -0.01437,-8.2e-4 -0.0243,0.00675 -0.009,0.00667 -0.01882,0.00962 -0.02545,0.00758 -0.0059,-0.0018 -0.0053,-0.00527 0.0011,-0.00758 0.008,-0.00289 8.2e-5,-0.00395 -0.02343,-0.00321 l -0.0354,9.84e-4 z M 11.42319,6.9224478 c 0.0056,-0.00197 0.01322,-0.00295 0.017,-0.00223 0.0038,7.216e-4 -8.3e-5,0.00302 -0.0089,0.00508 -0.01799,0.00432 -0.02328,0.00246 -0.0081,-0.00285 z m 0.720069,0.8362019 c 0.0089,-8.2e-4 0.0168,-0.00279 0.01762,-0.00461 8.2e-4,-0.00174 0.0196,-0.00882 0.0417,-0.015764 0.04123,-0.01293 0.150575,-0.026453 0.142553,-0.017623 -0.0022,0.00239 -0.01773,0.0056 -0.03453,0.00717 -0.0369,0.00338 -0.106637,0.021736 -0.120522,0.031743 -0.0055,0.00395 -0.008,0.01083 -0.0055,0.015212 0.0062,0.010929 -0.01,0.011398 -0.03283,9.184e-4 -0.02567,-0.011746 -0.0275,-0.015419 -0.0085,-0.017098 z M 11.868365,7.2012545 c 0.0052,-0.0018 0.0103,-0.00285 0.0113,-0.00226 0.0169,0.010096 0.01733,0.012982 0.0019,0.012447 -0.02055,-7.216e-4 -0.02669,-0.00547 -0.01318,-0.010204 z m 0.379352,0.4582712 c 0.01094,0 0.01647,0.00213 0.01229,0.00387 -0.0042,0.00174 -0.01019,0.00502 -0.01336,0.00733 -0.0032,0.0023 -0.0087,8.2e-4 -0.01229,-0.00387 -0.0047,-0.00577 -10e-4,-0.00783 0.01336,-0.00733 z m 0.0382,0.00262 c 0.02172,-0.00593 0.02529,-0.00577 0.03078,9.84e-4 0.0039,0.00486 0.01026,0.00626 0.01717,0.00379 0.0069,-0.00239 0.0092,-0.0019 0.0063,0.00131 -0.0026,0.00279 -0.01088,0.00453 -0.01849,0.00371 -0.0076,-8.2e-4 -0.01606,0.00115 -0.01886,0.0042 -0.0037,0.00412 -0.0097,0.00387 -0.02325,-9.184e-4 -0.01531,-0.00543 -0.0143,-0.00749 0.0063,-0.013094 z M 11.967259,7.2629561 c 0.0063,-5.904e-4 0.01282,8.199e-4 0.0146,0.00298 0.0018,0.0022 -0.0028,0.00338 -0.01002,0.00266 -0.0073,-7.216e-4 -0.01387,-0.00207 -0.01461,-0.00298 -6.56e-4,-9.184e-4 0.0038,-0.0021 0.01004,-0.00266 z m 0.430419,0.5046476 c 0.0055,0.00239 0.0077,0.00568 0.0049,0.00725 -0.0028,0.00157 -0.0073,0 -0.01,-0.00437 -0.0029,-0.00445 -10e-4,-0.00552 0.005,-0.00289 z M 12.021294,7.2622814 c 0.0084,-0.00391 0.01471,-0.00478 0.01673,-0.0023 0.0037,0.00454 -0.01359,0.011742 -0.02361,0.00983 -0.0036,-6.56e-4 -4.92e-4,-0.00409 0.0069,-0.00754 z m 0.173,0.2040278 c 6.56e-4,-0.00669 -0.0029,-0.019568 -0.0077,-0.028611 -0.0115,-0.021497 -0.0095,-0.022635 0.05208,-0.029152 0.01662,-0.00174 0.02435,-0.00441 0.01835,-0.00628 -0.006,-0.00187 -0.02592,-7.215e-4 -0.04737,0.00262 -0.03262,0.00516 -0.03774,0.00492 -0.04342,-0.00207 -0.0057,-0.00701 8.2e-5,-0.00851 0.05045,-0.012959 0.05054,-0.00447 0.05762,-0.00413 0.06342,0.00302 0.0036,0.00441 0.01724,0.00941 0.03032,0.01108 0.0131,0.00167 0.02108,0.0046 0.01777,0.00649 -0.0033,0.0019 -0.0142,0.0022 -0.02422,6.56e-4 -0.02109,-0.00321 -0.03676,0.00144 -0.03963,0.011755 -0.0015,0.00526 0.0037,0.00671 0.01926,0.00534 0.02662,-0.00236 0.0672,0.015786 0.05954,0.026617 -0.01028,0.014524 -0.07006,0.038718 -0.102827,0.041617 -0.02789,0.00246 -0.03332,0.00141 -0.03971,-0.00758 -0.004,-0.00574 -0.0069,-0.015895 -0.0063,-0.022589 z m 0.128315,-0.00318 c 0.0026,-0.00148 -0.0034,-0.00419 -0.01324,-0.00605 -0.01424,-0.00269 -0.01519,-0.00213 -0.0047,0.00266 0.0073,0.00333 0.01535,0.00485 0.01789,0.00338 z m 0.176341,0.1997836 c 0.0051,-0.00543 0.0084,-0.00535 0.01982,0 0.0075,0.00371 0.03011,0.0093 0.05015,0.012444 0.02773,0.00437 0.03411,0.00708 0.02673,0.011267 -0.0074,0.0042 -0.01534,0.00445 -0.03331,0.00108 -0.01298,-0.00246 -0.03092,-0.00387 -0.03986,-0.00305 -0.01835,0.00164 -0.03294,-0.011985 -0.02353,-0.021956 z M 12.312325,7.4176337 c 0.01379,-0.00121 0.03737,0.00799 0.03051,0.011913 -0.0025,0.00141 -0.01308,-4.264e-4 -0.02358,-0.00413 -0.01323,-0.00465 -0.01535,-0.00703 -0.007,-0.00777 z M 11.682403,6.625722 c 0.0057,-0.002 0.01721,-0.0023 0.02564,-6.56e-4 0.01081,0.00207 0.008,0.00338 -0.0096,0.00447 -0.0284,0.00177 -0.03045,0.00128 -0.01603,-0.00377 z m 0.61392,0.7570959 c 0.0063,-5.904e-4 0.01336,0.00144 0.01577,0.00441 0.0024,0.00298 8.1e-5,0.00691 -0.0051,0.00874 -0.0052,0.00184 -0.01231,-1.66e-4 -0.01575,-0.00441 -0.0035,-0.00425 -0.0011,-0.00819 0.0051,-0.00874 z m 0.03134,0.012323 c -10e-4,-0.00864 0.0018,-0.00889 0.03678,-0.00336 0.03733,0.0059 0.03888,0.00976 0.0051,0.012743 -0.03137,0.00276 -0.0407,6.56e-4 -0.04189,-0.00938 z m -0.02153,-0.047831 c 0.0058,-0.00203 0.02248,-5.904e-4 0.03713,0.00318 0.0244,0.00628 0.0256,0.00759 0.01423,0.015422 -0.0068,0.0047 -0.01811,0.00906 -0.0251,0.00968 -0.01665,0.00148 -0.03987,-0.023527 -0.02629,-0.02829 z m 0.05548,0.069991 c 0.0066,-5.904e-4 0.01025,9.184e-4 0.0081,0.00332 -0.0022,0.00243 0.0015,0.0039 0.0081,0.00332 0.0066,-5.904e-4 0.01498,0.00253 0.01854,0.0069 0.0054,0.00666 0.003,0.00745 -0.01438,0.0048 -0.02386,-0.00362 -0.03836,-0.016738 -0.02027,-0.018335 z m 0.817616,0.9483801 c 0.0049,-0.00174 0.01092,0 0.01336,0.00461 0.0024,0.00428 3.11e-4,0.00807 -0.0045,0.00854 -0.01257,0.00115 -0.01961,-0.00938 -0.0088,-0.013162 z M 12.430604,7.3836986 c 0.03705,-0.00405 0.04434,-0.00328 0.07946,0.00859 0.02129,0.00718 0.03735,0.013822 0.03574,0.014743 -0.0016,9.184e-4 -0.01542,0.00398 -0.03066,0.00677 -0.02027,0.00373 -0.03097,0.00361 -0.03978,-3.28e-4 -0.0071,-0.00321 -0.0066,-0.00494 0.0011,-0.00417 0.0073,7.216e-4 0.0034,-0.00262 -0.0086,-0.00743 -0.01858,-0.00744 -0.02301,-0.00772 -0.02981,-0.00194 -0.0068,0.00575 -0.01109,0.00538 -0.02813,-0.00246 -0.01953,-0.00898 -0.01891,-0.00939 0.02065,-0.01373 z m -8e-5,0.034263 c 0.0091,-0.00519 0.02134,-0.00497 0.03359,6.56e-4 0.0066,0.00298 0.0059,0.00468 -0.0016,0.00392 -0.0072,-7.216e-4 -0.01168,4.92e-4 -0.0099,0.00269 0.0018,0.0022 -0.0019,0.00443 -0.0081,0.00499 -0.0128,0.00115 -0.02247,-0.00731 -0.01396,-0.012185 z m 0.814026,0.9884055 c 0.01341,-9.84e-4 0.01682,0 0.0087,0.00164 -0.0073,0.0018 -0.01726,0.00256 -0.02202,0.00164 -0.0048,-9.184e-4 0.0011,-0.00239 0.01333,-0.0033 z m 0.02198,0.00577 c 0.0063,-8.2e-4 0.01285,8.2e-4 0.01463,0.00295 0.0018,0.00223 -0.0027,0.00338 -0.01005,0.00262 -0.0073,-8.2e-4 -0.01385,-0.00207 -0.0146,-0.00295 -6.23e-4,-9.184e-4 0.0038,-0.00213 0.01001,-0.00262 z M 12.844678,7.6378213 c 0.0065,-0.017561 0.05569,-0.01966 0.0533,-0.0023 -8.2e-4,0.00543 -0.01017,0.00859 -0.02946,0.00974 -0.01559,9.184e-4 -0.02808,0.00157 -0.02773,0.00148 3.28e-4,-4.95e-5 0.0021,-0.00412 0.0039,-0.00897 z m 0.657578,0.8017803 c 0.0094,-8.2e-4 0.01839,8.24e-5 0.02002,0.00213 0.0016,0.00197 -0.0055,0.00338 -0.01587,0.00295 -0.01036,0 -0.01936,-0.00131 -0.02002,-0.00213 -6.24e-4,-8.2e-4 0.0065,-0.00213 0.01586,-0.00295 z m 0.04745,0.00585 c 0.0052,-0.0018 0.01094,-0.00157 0.0127,8.2e-4 0.0018,0.00213 -0.0019,0.00445 -0.0081,0.00502 -0.0063,8.2e-4 -0.01198,0 -0.01272,-8.2e-4 -6.23e-4,-9.184e-4 0.003,-0.00312 0.0081,-0.00502 z M 12.902422,7.6109705 c 0.01085,-0.00502 0.01417,-0.00511 0.01822,-8.23e-5 0.0027,0.00338 -0.0027,0.00675 -0.01213,0.00758 -0.0094,8.2e-4 -0.01759,9.184e-4 -0.01822,8.23e-5 -6.56e-4,-8.2e-4 0.0048,-0.0042 0.01211,-0.00758 z m 0.02969,0.02661 c 0.01793,-0.00207 0.02147,-0.00141 0.01427,0.00272 -0.0063,0.00362 -0.01444,0.00453 -0.02383,0.00272 -0.0094,-0.0018 -0.0061,-0.00362 0.0096,-0.00543 z m 0.657837,0.812334 c 0.0073,8.2e-4 0.01387,0.00207 0.01462,0.00295 6.23e-4,9.184e-4 -0.0038,0.00213 -0.01003,0.00262 -0.0063,8.2e-4 -0.01282,-8.199e-4 -0.0146,-0.00295 -0.0018,-0.00213 0.0028,-0.00338 0.01001,-0.00262 z M 13.03666,7.4984837 c 0.0063,-8.2e-4 0.01353,0.00164 0.01613,0.00486 0.0026,0.00321 -0.0011,0.00527 -0.0085,0.00453 -0.0073,-8.2e-4 -0.01453,-0.00289 -0.01611,-0.00486 -0.0016,-0.00197 0.0023,-0.00396 0.0085,-0.00453 z m 0.914032,0.9376707 c 0.0094,-8.2e-4 0.01593,-0.00289 0.01453,-0.00461 -0.0028,-0.00346 0.0912,-0.020828 0.133078,-0.024528 0.01498,-0.00131 0.05097,-0.00886 0.07998,-0.016751 0.02901,-0.00791 0.06506,-0.016052 0.08012,-0.018151 0.01506,-0.00207 0.03244,-0.00651 0.03861,-0.00983 0.01285,-0.00692 0.03548,-0.00997 0.03014,-0.00412 -0.0035,0.00387 0.04873,-0.0042 0.0832,-0.01293 0.01059,-0.00272 0.01906,-0.00279 0.02108,0 0.0018,0.0023 -0.0044,0.00486 -0.01384,0.00568 -0.0095,8.2e-4 -0.02482,0.00387 -0.03412,0.00675 -0.02969,0.00926 -0.159073,0.038034 -0.210243,0.046764 -0.02721,0.00461 -0.06107,0.011208 -0.07526,0.014586 -0.02897,0.00692 -0.160495,0.023694 -0.162851,0.020795 -8.2e-4,-0.00108 0.0062,-0.00256 0.01554,-0.00338 z M 12.975214,7.1835197 c 0.0039,-0.00236 0.0068,-0.00788 0.0064,-0.01228 -3.11e-4,-0.00527 0.0031,-0.00395 0.01043,0.00388 0.006,0.00653 0.0071,0.013261 0.0022,0.014966 -0.01204,0.00422 -0.02783,-0.00121 -0.01907,-0.00656 z m 1.025473,1.2065674 c 0.0031,-0.00174 0.01369,-0.00387 0.02366,-0.00461 0.01486,-0.00125 0.01496,0 6.23e-4,0.00437 -0.01779,0.00593 -0.0344,0.00609 -0.02424,0 z M 13.255889,7.4244908 c 0.0066,6.559e-4 0.01209,0.0048 0.01216,0.00923 8.2e-5,0.01106 -0.007,0.010703 -0.01638,-8.2e-4 -0.0043,-0.00529 -0.0024,-0.00908 0.0042,-0.00842 z m 0.750745,0.921119 c 0.0036,-0.00461 0.01935,-0.00875 0.04048,-0.010617 0.02486,-0.00223 0.03459,-0.00527 0.03449,-0.010962 -8.1e-5,-0.00437 0.01491,-0.012956 0.03331,-0.019148 0.0184,-0.00618 0.03339,-0.014602 0.03332,-0.018689 -8e-5,-0.00412 0.0096,-0.01046 0.02154,-0.01415 0.01191,-0.00371 0.02643,-0.013343 0.03224,-0.021464 0.0058,-0.00815 0.01493,-0.015137 0.02025,-0.015606 0.0053,-8.2e-4 0.0015,-0.00338 -0.0085,-0.00643 -0.01465,-0.00453 -0.0147,-0.00895 -8.1e-5,-0.022681 0.0099,-0.0094 0.01633,-0.019099 0.01433,-0.021562 -0.002,-0.00246 0.0032,-0.00511 0.01152,-0.00585 0.0096,-8.2e-4 0.0069,0.00684 -0.0073,0.021018 -0.02645,0.026299 -0.02616,0.02727 0.009,0.029979 0.019,0.00148 0.03595,4.92e-5 0.05754,-0.00478 0.02344,-0.00527 0.02939,-0.0056 0.02551,-0.00157 -0.0028,0.00295 -0.0049,0.00618 -0.0047,0.00733 8.2e-5,0.00108 -0.0011,0.00519 -0.003,0.00912 -0.0044,0.0094 0.02875,0.016052 0.05674,0.011391 0.02135,-0.00354 0.02145,-0.00346 0.0047,0.00412 -0.0094,0.00428 -0.01537,0.010824 -0.01331,0.014563 0.002,0.00371 10e-4,0.01065 -0.0022,0.01537 -0.0033,0.00469 -0.0015,0.0119 0.0041,0.015954 0.01217,0.00891 -0.02218,0.021513 -0.08543,0.03132 -0.02382,0.00371 -0.04774,0.00877 -0.05314,0.011283 -0.0054,0.00246 -0.03152,0.00899 -0.05802,0.014396 -0.04156,0.00848 -0.05068,0.00927 -0.06618,0.0056 -0.0099,-0.0023 -0.02363,-0.00279 -0.03055,-0.00115 -0.0069,0.00164 -0.02602,0 -0.04245,-0.00312 -0.02244,-0.00461 -0.0284,-0.00799 -0.024,-0.013687 z M 13.228856,7.3068432 c 0.0093,-0.00223 0.02387,-0.00334 0.03235,-0.00246 0.0085,8.856e-4 0.01888,0.00131 0.02308,9.84e-4 0.0042,-3.28e-4 0.01315,5.904e-4 0.01989,0.00197 0.0071,0.00151 0.0054,0.00197 -0.0042,0.00112 -0.009,-8.2e-4 -0.01486,4.264e-4 -0.01297,0.00279 0.0021,0.00266 -0.007,0.00412 -0.02424,0.00392 -0.04002,-4.264e-4 -0.05339,-0.00371 -0.03396,-0.00837 z m 0.09948,0.085285 c 0.0063,-5.904e-4 0.01283,8.199e-4 0.01462,0.00298 0.0018,0.0022 -0.0027,0.00338 -0.01003,0.00266 -0.0073,-7.216e-4 -0.01386,-0.00207 -0.0146,-0.00298 -8.2e-4,-9.184e-4 0.0038,-0.0021 0.01001,-0.00266 z m 0.661987,0.6784877 c 0.004,-0.011211 0.02053,-0.00967 0.0427,0.00395 0.01819,0.011201 0.01034,0.020211 -0.01678,0.019263 -0.02325,-8.2e-4 -0.03138,-0.00807 -0.02592,-0.023252 z m -0.12367,-0.31108 c 0.02393,-0.00453 0.04449,-0.011408 0.04569,-0.01518 0.0015,-0.00486 0.0067,-0.00601 0.01747,-0.00395 0.01007,0.0019 0.01351,0.0056 0.01001,0.010863 -0.0029,0.00437 -0.0013,0.00982 0.0035,0.012116 0.0048,0.0023 -0.0023,0.00967 -0.01578,0.016364 -0.01353,0.00667 -0.01814,0.01167 -0.01026,0.011044 0.02054,-0.00164 0.02383,0.00609 0.0033,0.00791 -0.0094,8.2e-4 -0.01921,-8.199e-4 -0.02182,-0.00312 -0.01712,-0.016587 -0.02723,-0.021513 -0.05004,-0.024436 -0.02391,-0.00305 -0.02265,-0.00387 0.01779,-0.011604 z m 0.266468,0.3524126 c 0.01134,-0.00239 0.01638,-0.00568 0.01124,-0.00725 -0.01471,-0.00461 -0.0027,-0.00412 0.02953,0.00108 0.01907,0.00305 0.03185,0.0086 0.03581,0.015517 0.0038,0.00675 0.01295,0.010807 0.02455,0.010886 0.01409,8.24e-5 0.0143,0 0.0011,-0.00197 -0.01226,-0.00148 -0.008,-0.00295 0.01417,-0.00511 0.04202,-0.00396 0.06233,-0.00783 0.06876,-0.0133 0.0032,-0.00272 0.007,-0.00256 0.0096,8.2e-4 0.0029,0.00346 0.01328,0.00346 0.03376,4.1e-5 0.01625,-0.00272 0.03854,-0.00395 0.04959,-0.00272 0.01652,0.0018 0.01723,0.00246 0.004,0.00362 -0.0198,0.0018 -0.0026,0.00552 0.0214,0.00461 0.0096,0 0.0161,-0.0023 0.0145,-0.0042 -0.0016,-0.00197 0.01114,-0.00108 0.02823,0.0019 0.01712,0.00295 0.03528,0.00511 0.04035,0.00461 0.0051,0 0.0113,0.00174 0.01382,0.00478 0.0025,0.00312 -0.0037,0.00634 -0.01389,0.00725 -0.01503,0.00131 -0.01501,0.00246 6.8e-5,0.00593 0.01542,0.00362 0.01363,0.00552 -0.01066,0.011316 -0.01891,0.00453 -0.03639,0.00626 -0.04964,0.00494 -0.02776,-0.00279 -0.06186,0.013005 -0.05338,0.024691 l 0.0065,0.00885 -0.01768,-0.00774 c -0.01996,-0.00878 -0.0072,-0.024436 0.02782,-0.033981 0.01104,-0.00305 0.01714,-0.00741 0.01354,-0.00979 -0.0036,-0.00239 -0.0015,-0.00478 0.0048,-0.00527 0.0063,-8.2e-4 0.0095,-0.00329 0.0072,-0.00609 -0.0028,-0.00346 -0.01305,-0.00371 -0.03101,-8.2e-4 -0.01817,0.00289 -0.03071,0.00256 -0.03883,-0.00115 -0.0066,-0.00295 -0.01941,-0.00478 -0.0285,-0.00396 -0.0091,8.2e-4 -0.01246,0.00272 -0.0075,0.00428 0.005,0.00157 0.0019,0.00453 -0.0068,0.00659 -0.0087,0.00207 -0.0143,0.00213 -0.01251,0 0.0046,-0.00502 -0.03336,-0.00141 -0.04656,0.00437 -0.006,0.00262 -0.01706,0.0042 -0.02467,0.00338 -0.01826,-0.0018 -0.01293,0.00428 0.0071,0.00807 0.01021,0.00197 0.01239,0.00412 0.0061,0.00634 -0.01287,0.00453 -0.0501,0.00289 -0.04566,-0.00197 0.002,-0.00213 -0.0057,-0.00312 -0.01712,-0.00223 -0.03428,0.00279 -0.06147,-0.00362 -0.07595,-0.018096 -0.01081,-0.010755 -0.0093,-0.014576 0.0069,-0.018004 z M 13.987372,7.9355034 c 0.0038,-0.00246 0.0068,-0.012733 0.0068,-0.022888 9e-6,-0.010155 0.01018,-0.024642 0.0226,-0.032196 0.01821,-0.01107 0.01933,-0.015518 0.0058,-0.023019 -0.01204,-0.00667 -0.01274,-0.01027 -0.0024,-0.012743 0.02412,-0.00577 -0.0017,-0.027929 -0.0424,-0.036387 -0.04256,-0.00885 -0.04596,-0.020237 -0.0059,-0.019775 0.03419,0 0.05992,0.0042 0.06426,0.00958 0.0019,0.00239 0.01999,0.00774 0.04014,0.011883 0.03851,0.00799 0.0523,0.016465 0.03608,0.022146 -0.0053,0.0018 -0.0054,0.00469 -3.11e-4,0.00634 0.0052,0.00157 0.0053,0.0033 8e-5,0.00371 -0.01208,0.00108 -0.02272,0.02171 -0.01572,0.03034 0.0039,0.00478 -0.0035,0.00766 -0.02555,0.00983 -0.01708,0.00164 -0.02395,0.00338 -0.01529,0.00371 0.01948,8.199e-4 0.02909,0.010863 0.01182,0.012388 -0.0069,8.2e-4 -0.0072,0.00354 -6.23e-4,0.00659 0.0096,0.00437 0.0059,0.0056 -0.01835,0.00618 -0.0167,0 -0.03192,0.00246 -0.03381,0.00453 -0.0019,0.00207 0.0039,0.00312 0.01308,0.0023 0.018,-0.00157 0.03663,0.00511 0.04583,0.016406 0.0066,0.00815 -0.0064,0.010279 -0.04522,0.00725 -0.02059,-0.00157 -0.02813,-8.2e-4 -0.03245,0.00387 -0.0045,0.00478 -0.0066,0.00478 -0.01053,0 -0.0027,-0.00321 -0.0019,-0.00782 0.0019,-0.01023 z M 13.552159,7.3683329 c 0.0059,-5.904e-4 0.01521,4.264e-4 0.02067,0.00216 0.0057,0.00177 0.0016,0.00282 -0.0095,0.00243 -0.02174,-7.216e-4 -0.02753,-0.00312 -0.01117,-0.00456 z m 0.673237,0.7979304 c 0.0063,-8.2e-4 0.01284,8.2e-4 0.01462,0.00295 0.0018,0.00213 -0.0028,0.00338 -0.01003,0.00262 -0.0073,-8.2e-4 -0.01386,-0.00207 -0.0146,-0.00295 -6.23e-4,-9.184e-4 0.0038,-0.00213 0.01001,-0.00262 z M 13.640179,7.4032212 c 0.0044,-0.00151 0.0099,-3.28e-4 0.01224,0.00253 0.0024,0.00292 -6.23e-4,0.00481 -0.0068,0.00422 -0.0061,-6.56e-4 -0.01158,-0.00174 -0.01222,-0.00253 -6.23e-4,-8.2e-4 0.0024,-0.00269 0.0068,-0.00421 z m 0.261975,0.3096271 c 0.0059,0.00338 0.0098,0.00848 0.0088,0.011293 -10e-4,0.00279 -0.0058,5.78e-5 -0.01064,-0.00618 -0.0049,-0.00618 -0.0039,-0.00852 0.0019,-0.00511 z m 0.211531,0.2559976 c 0.0054,-0.0019 0.0085,-8.2e-4 0.0074,0.00312 -0.0023,0.00717 -0.0095,0.00909 -0.01384,0.00371 -0.0016,-0.00197 0.0013,-0.00502 0.0065,-0.00684 z M 13.676697,7.4207175 c 0.0053,0.0023 0.0087,0.00653 0.0076,0.00939 -0.001,0.00285 -0.0054,9.84e-4 -0.0096,-0.00419 -0.0042,-0.00516 -0.0033,-0.0075 0.0019,-0.0052 z m 0.864376,1.0455118 c 0.0066,8.2e-4 0.02275,-0.00141 0.03583,-0.00469 l 0.02379,-0.00585 -0.02577,0.00207 c -0.04155,0.0033 -0.04561,-0.012503 -0.007,-0.027286 0.0178,-0.00684 0.02825,-0.013671 0.02322,-0.015239 -0.0051,-0.00157 -0.004,-0.00279 0.0021,-0.00272 0.01371,8.23e-5 0.205429,-0.069364 0.223569,-0.081051 0.0071,-0.00461 0.01285,-0.013497 0.01274,-0.019818 -8.1e-5,-0.00634 0.0097,-0.01415 0.02175,-0.017403 0.01206,-0.00321 0.02037,-0.00791 0.01843,-0.010253 -0.0019,-0.00239 0.0037,-0.00609 0.01244,-0.00815 0.0088,-0.00207 0.01089,-0.00543 0.0047,-0.00733 -0.0062,-0.00197 -0.0054,-0.0056 0.0018,-0.00807 0.0072,-0.00256 0.01178,-0.00618 0.01022,-0.00815 -0.0051,-0.00626 0.04735,-0.031124 0.09318,-0.044195 0.0389,-0.011096 0.04484,-0.015285 0.04676,-0.032977 0.0017,-0.015773 -3.11e-4,-0.019056 -0.0095,-0.014816 -0.01847,0.00862 -0.01964,-8.199e-4 -0.0013,-0.010165 0.01071,-0.00543 0.01902,-0.007 0.02412,-0.00445 0.0046,0.0023 0.01422,0 0.02339,-0.00651 0.0086,-0.00577 0.01026,-0.00865 0.0037,-0.00651 -0.0075,0.00246 -0.01125,0.00197 -0.01016,-0.00148 10e-4,-0.00295 0.01404,-0.00877 0.02906,-0.012841 0.0392,-0.010607 0.101452,-0.043766 0.09562,-0.05094 -0.0031,-0.00387 0.0019,-0.00585 0.01387,-0.00543 0.01036,0 0.02081,0.00312 0.02325,0.00609 0.0026,0.00312 0.009,0.00387 0.01539,0.00164 0.0069,-0.00239 0.0092,-0.0019 0.0063,0.00131 -0.0026,0.00279 -0.01019,0.00453 -0.01701,0.00387 -0.0068,-8.2e-4 -0.0095,0.00223 -0.0061,0.00651 0.0035,0.00428 0.0091,0.00749 0.01261,0.00717 0.01595,-0.00141 0.11717,-0.043585 0.122421,-0.051005 0.0032,-0.00461 0.01377,-0.00807 0.02357,-0.00774 0.02037,8.2e-4 0.03303,-0.012805 0.02327,-0.024823 -0.0036,-0.00445 -0.02352,-0.01205 -0.04413,-0.016803 -0.02063,-0.00478 -0.03946,-0.011053 -0.04185,-0.013992 -0.0024,-0.00295 -0.01084,-0.00486 -0.01877,-0.00437 -0.03239,0.00223 0.02907,-0.00979 0.06982,-0.013655 0.03111,-0.00295 0.04922,-0.00741 0.06186,-0.015353 0.01193,-0.00749 0.03576,-0.013681 0.07159,-0.018679 0.05973,-0.00833 0.06949,-0.011729 0.105942,-0.036783 0.01391,-0.00957 0.02797,-0.017607 0.03123,-0.017856 0.03368,-0.00262 0.04128,-0.00494 0.04589,-0.014068 0.003,-0.00577 0.01005,-0.010945 0.01582,-0.011457 0.0201,-0.0018 0.0889,-0.037063 0.08414,-0.043149 -0.0036,-0.00461 -0.0015,-0.00511 0.0084,-0.00213 0.0073,0.00223 0.01974,0.00246 0.02775,8.2e-4 0.008,-0.0019 0.0208,-0.00262 0.02842,-0.00164 0.02241,0.00279 0.05367,0.017708 0.05522,0.026272 8.2e-4,0.00437 0.01039,0.020719 0.02136,0.036353 0.01682,0.024009 0.01691,0.03371 6.23e-4,0.062347 -0.01061,0.018647 -0.03228,0.043898 -0.04813,0.056104 -0.02897,0.022304 -0.03351,0.032573 -0.01113,0.02521 0.007,-0.0023 0.0092,-0.00213 0.0053,0 -0.0037,0.0023 -0.01057,0.00461 -0.0153,0.00502 -0.0047,8.2e-4 -0.03082,0.015573 -0.05799,0.033686 -0.0275,0.018335 -0.06579,0.037276 -0.08642,0.042753 -0.02095,0.00552 -0.04932,0.019699 -0.06533,0.032564 -0.01555,0.01251 -0.03002,0.022897 -0.03216,0.023084 -0.0021,0 -0.0027,-0.00519 -0.0011,-0.011893 0.005,-0.022156 -0.01149,-0.019922 -0.02869,0.00387 -0.0143,0.019801 -0.02474,0.0254 -0.06786,0.036371 -0.02823,0.00717 -0.09139,0.032252 -0.141588,0.056187 -0.04984,0.02377 -0.111213,0.052941 -0.136368,0.064826 -0.02516,0.011883 -0.06928,0.034097 -0.09805,0.049358 -0.02877,0.015268 -0.07963,0.03712 -0.113008,0.048551 -0.03338,0.011441 -0.08129,0.029438 -0.106471,0.039986 -0.04311,0.018079 -0.125005,0.042473 -0.179724,0.053526 -0.02413,0.00486 -0.02431,0.00478 -0.01304,-0.00651 0.01122,-0.01125 0.01094,-0.011408 -0.01643,-0.00899 -0.0153,0.00131 -0.03272,0.00157 -0.03868,0 -0.01318,-0.00246 -0.01757,-0.0023 -0.08972,0.00338 -0.03178,0.00256 -0.05871,0.00279 -0.0605,8.2e-4 -0.0018,-0.00223 0.0022,-0.00346 0.0088,-0.00279 z m 1.110266,-0.3535438 c 0.0073,-0.00338 0.01157,-0.00807 0.0095,-0.010384 -0.0021,-0.0023 -0.0086,0 -0.01458,0.00453 -0.01386,0.011267 -0.01173,0.013681 0.0051,0.00585 z m -1.325698,0.026873 c 0.0252,-0.00197 0.04484,-0.00486 0.04359,-0.00643 -0.0013,-0.00157 0.0084,-0.00279 0.0214,-0.00289 0.01961,-4.1e-5 0.0224,0.00131 0.01625,0.00799 -0.0041,0.00445 -0.01158,0.00766 -0.01665,0.00717 -0.0051,-8.2e-4 -0.01012,0.0019 -0.01119,0.00527 -0.0011,0.00338 -0.0078,0.00667 -0.01491,0.00733 -0.0071,8.2e-4 -0.01204,-0.00164 -0.01096,-0.00519 0.0016,-0.00494 -0.0017,-0.00519 -0.01535,-9.184e-4 -0.01313,0.00403 -0.0221,0.00395 -0.03682,-8.2e-4 -0.0263,-0.00807 -0.02714,-0.00766 0.02464,-0.011752 z m 0.173041,0.1802741 c 0.03347,-0.00985 0.06304,-0.017492 0.06572,-0.016984 0.008,0.00157 -0.06869,0.028736 -0.08501,0.030179 -0.0083,8.2e-4 -0.01954,0.00387 -0.02503,0.00708 -0.0064,0.00371 -0.01113,0.00428 -0.01326,0.00164 -0.0018,-0.00223 0.02411,-0.012083 0.05758,-0.021933 z M 14.38174,8.1927106 c 0.0066,-8.2e-4 0.01025,9.184e-4 0.0081,0.0033 -0.0022,0.00239 -0.0062,0.00453 -0.009,0.00478 -0.0028,0 -0.0064,-0.00125 -0.0081,-0.0033 -0.0017,-0.00207 0.0024,-0.00428 0.009,-0.00478 z m 0.0675,0.054424 c -0.0027,-0.0164 0.0088,-0.023498 0.06082,-0.037573 0.02729,-0.00741 0.05979,-0.019732 0.07223,-0.027443 0.01244,-0.00774 0.02426,-0.011975 0.02629,-0.00948 0.0043,0.00527 -0.044,0.032098 -0.06027,0.033529 -0.01698,0.00148 -0.09355,0.032334 -0.09028,0.036354 0.0062,0.00758 0.03939,0 0.06198,-0.014619 0.01301,-0.00829 0.02487,-0.013582 0.02634,-0.011769 0.0015,0.0018 0.0096,0 0.01796,-0.00453 0.0096,-0.00486 0.02203,-0.00717 0.03331,-0.00601 0.01402,0.00141 0.01343,0.00272 -0.0028,0.00618 -0.01145,0.00239 -0.02726,0.00854 -0.03513,0.013605 -0.0156,0.010056 -0.01799,0.0099 0.06452,0.00403 0.01269,-9.184e-4 0.02509,8.2e-4 0.02758,0.00396 0.0025,0.00305 -0.0046,0.00609 -0.01582,0.00684 -0.01119,8.2e-4 -0.01846,0.00354 -0.01616,0.00634 0.0032,0.00396 -0.0032,0.00486 -0.02718,0.00412 -0.01724,-8.2e-4 -0.03043,0 -0.02931,0.00164 0.0011,0.00148 -0.0048,8.2e-4 -0.01326,-0.0019 -0.01088,-0.0033 -0.01785,-0.00321 -0.02419,0 -0.0064,0.00362 0.001,0.00766 0.0252,0.013845 0.01874,0.00478 0.02877,0.00791 0.02224,0.00684 -0.0065,-0.00108 -0.0175,8.2e-4 -0.02441,0.00387 -0.0098,0.00453 -0.01577,0.00486 -0.02706,0.00131 -0.008,-0.00246 -0.02364,-0.00371 -0.03481,-0.00272 -0.02133,0.0019 -0.0346,-0.00758 -0.03777,-0.02685 z m 0.165985,0.037458 c 0.02147,-0.00733 0.05718,-0.020795 0.07934,-0.02993 0.02216,-0.00914 0.0411,-0.015642 0.04208,-0.014429 0.0028,0.00346 -0.03393,0.019916 -0.0796,0.035638 -0.03466,0.011933 -0.03798,0.014537 -0.0191,0.015016 0.02614,8.2e-4 0.01858,0.00403 -0.02713,0.012123 -0.03059,0.00543 -0.0312,0.00527 -0.01402,-0.00223 0.01446,-0.00634 0.01445,-0.00708 -7.6e-5,-0.00387 -0.03024,0.00675 -0.02261,0.00174 0.01851,-0.012323 z m 0.136088,-0.030595 c 0.004,-0.00511 0.01906,-0.016892 0.03353,-0.026108 0.01446,-0.00922 0.023,-0.016482 0.01895,-0.016118 -0.004,0 -0.003,-0.00246 0.0022,-0.00618 0.0052,-0.00379 0.01549,-0.00626 0.02276,-0.00552 0.0073,8.2e-4 0.01582,-0.00141 0.01897,-0.00478 0.0032,-0.00338 0.007,-0.00437 0.0086,-0.0023 0.0016,0.00207 -0.02236,0.019585 -0.05315,0.038915 -0.05651,0.035472 -0.06495,0.039055 -0.05179,0.022032 z m -0.07929,-0.121466 c 0.0089,9.184e-4 0.02143,-9.184e-4 0.02795,-0.00395 0.01537,-0.00717 0.03702,0.00148 0.02332,0.00928 -0.0069,0.00396 -0.0036,0.00486 0.01287,0.00338 0.01729,-0.00148 0.01591,-3.28e-5 -0.0062,0.00667 -0.0156,0.00478 -0.03173,0.00799 -0.03584,0.00717 -0.0041,-8.2e-4 -0.0015,-0.00197 0.0058,-0.00262 0.0073,-8.2e-4 0.01181,-0.00295 0.01003,-0.00511 -0.0018,-0.00213 -0.0075,-0.00246 -0.01272,-8.2e-4 -0.0052,0.0018 -0.01082,0.00164 -0.01245,0 -0.0016,-0.00207 -0.0088,-0.00634 -0.01593,-0.00954 -0.009,-0.00412 -0.0081,-0.00543 0.0031,-0.00428 z m 0.07771,0.098775 c 0.0031,-0.00174 0.01085,-0.00362 0.01731,-0.0042 0.0071,-8.2e-4 0.0079,0.00115 0.0019,0.00461 -0.0054,0.00312 -0.01321,0.00502 -0.01731,0.0042 -0.0041,-8.2e-4 -0.005,-0.00289 -0.0019,-0.00461 z m -0.0068,-0.058435 c 0.01252,-0.00387 0.02058,-0.00469 0.02254,-0.0023 0.0017,0.00207 -0.0057,0.00651 -0.01645,0.00978 -0.01252,0.00387 -0.02057,0.00469 -0.02254,0.0023 -0.0017,-0.00207 0.0057,-0.00651 0.01644,-0.00978 z m -5.24e-4,-0.024108 c 0.0098,-8.2e-4 0.01593,0 0.01376,0.00279 -0.0022,0.00239 -0.0088,0.00478 -0.0147,0.00535 -0.0059,8.2e-4 -0.01208,-8.2e-4 -0.01376,-0.00279 -0.0017,-0.00207 0.005,-0.00445 0.0147,-0.00535 z m 0.06414,-0.00651 c 0.04078,-0.018538 0.07208,-0.027624 0.07649,-0.022189 0.0015,0.0019 -0.0061,0.00527 -0.01702,0.00758 -0.01085,0.0023 -0.02976,0.00988 -0.04196,0.016869 -0.01844,0.010542 -0.05112,0.020178 -0.05447,0.016068 -5.24e-4,-8.2e-4 0.01615,-0.00884 0.03696,-0.018309 z m -0.0042,-0.039105 c 0.0088,-0.00412 0.01429,-0.00478 0.01652,-0.00207 0.0018,0.00223 0.02045,-0.00568 0.04136,-0.017623 0.03129,-0.017889 0.04344,-0.021766 0.06862,-0.0219 0.04564,0 0.0684,-0.00675 0.07147,-0.0205 0.0021,-0.00935 4.8e-5,-0.011342 -0.0086,-0.00832 -0.01616,0.00568 -0.05036,0.00909 -0.04629,0.00461 0.0019,-0.00207 0.0097,-0.00395 0.01733,-0.0042 0.02292,-8.2e-4 0.04936,-0.00941 0.04509,-0.014668 -0.0022,-0.00272 0.01719,-0.014314 0.04307,-0.025803 0.02589,-0.01148 0.07858,-0.038034 0.117098,-0.058995 0.03852,-0.020962 0.07676,-0.038709 0.08498,-0.039434 0.02055,-0.0018 0.04404,-0.017866 0.0304,-0.020772 -0.0061,-0.00131 -0.0041,-0.00174 0.0044,-9.84e-4 0.0085,8.2e-4 0.01733,-8.2e-4 0.01955,-0.00312 0.0068,-0.00741 0.0249,-0.00675 0.02248,8.2e-4 -0.002,0.00634 10e-4,0.00593 0.02651,-0.00338 0.04889,-0.017791 0.09378,-0.03959 0.09017,-0.043791 -0.0019,-0.00223 -0.0063,-0.00108 -0.0099,0.00262 -0.0036,0.00362 -0.0081,0.00469 -0.01005,0.00239 -0.0056,-0.00651 0.02176,-0.017312 0.03649,-0.014422 0.02018,0.00395 -0.05282,0.058386 -0.101254,0.075475 -0.04929,0.017387 -0.07023,0.03455 -0.06046,0.049557 0.0075,0.011522 -0.03287,0.045398 -0.06124,0.051385 -0.01007,0.00213 -0.03106,0.013176 -0.04664,0.02455 -0.02858,0.02087 -0.04722,0.025662 -0.03552,0.00914 0.01102,-0.015573 -0.04384,-0.00643 -0.09342,0.015517 -0.02426,0.010755 -0.06135,0.024823 -0.08241,0.031265 -0.02106,0.00642 -0.03086,0.011126 -0.02177,0.010421 0.01206,-9.184e-4 0.01181,8.2e-4 -8.2e-4,0.00585 -0.01896,0.00774 -0.0522,0.0088 -0.04547,0.00141 0.0025,-0.00272 -3.12e-4,-0.00295 -0.007,-8.2e-4 -0.0061,0.00213 -0.0064,0.00535 -6.23e-4,0.00717 0.0067,0.00207 8.2e-4,0.00312 -0.01636,0.00289 -0.01474,0 -0.03171,0.00174 -0.03767,0.00428 -0.0307,0.013277 -0.0784,0.014537 -0.05004,0.00131 z m 0.166587,0.023744 c 0.0072,-0.00609 0.0114,-0.00708 0.01438,-0.00321 0.0058,0.00758 -0.0053,0.017912 -0.01581,0.014635 -0.0048,-0.00148 -0.0042,-0.00659 0.0015,-0.011391 z m 0.0059,-0.028893 c 0.0052,-0.0018 0.01092,-0.00157 0.0127,8.2e-4 0.0018,0.00213 -0.0019,0.00445 -0.0081,0.00502 -0.0063,8.2e-4 -0.01198,0 -0.01272,-8.2e-4 -6.23e-4,-9.184e-4 0.0029,-0.00312 0.0082,-0.00502 z m 0.05813,-0.027279 c 0.02009,-0.0018 0.02316,0.00659 0.004,0.010807 -0.0068,0.00148 -0.01446,0 -0.01712,-0.0033 -0.0027,-0.00329 0.0033,-0.00667 0.01318,-0.00749 z M 14.222771,7.0594973 c 0.0094,-8.528e-4 0.01913,0.00102 0.02164,0.00413 0.0025,0.00308 -0.0031,0.00631 -0.01249,0.00714 -0.0094,8.2e-4 -0.01913,-0.00102 -0.02164,-0.00412 -0.0025,-0.00308 0.0031,-0.00632 0.01249,-0.00714 z m 1.104248,0.7739171 c 0.01709,-0.016433 0.01966,-0.025935 0.0099,-0.036724 l -0.01318,-0.014543 -0.01825,0.01252 c -0.01005,0.00692 -0.01953,0.010939 -0.0211,0.00901 -0.0015,-0.0019 0.0031,-0.00626 0.01032,-0.00965 0.0072,-0.00338 0.009,-0.00741 0.004,-0.00899 -0.0051,-0.00157 -0.0021,-0.00295 0.0067,-0.00312 0.0087,0 0.01354,-0.00197 0.01066,-0.00403 -0.0029,-0.00207 0.0045,-0.00486 0.01628,-0.00626 0.01188,-0.00131 0.02281,-9.184e-4 0.02438,9.84e-4 0.0016,0.00197 -0.0052,0.0042 -0.01501,0.00511 -0.01577,0.00141 -0.01537,0.00207 0.0034,0.00568 0.03111,0.00593 0.02588,0.036527 -0.01023,0.059827 -0.03507,0.022632 -0.03803,0.019007 -0.008,-0.00983 z m 0.07843,-0.099302 c 0.01351,-0.00502 0.02744,-0.00852 0.03097,-0.00783 0.0035,8.2e-4 -0.0046,0.00527 -0.01814,0.010296 -0.01351,0.00502 -0.02744,0.00852 -0.03097,0.00783 -0.0035,-8.2e-4 0.0046,-0.00527 0.01814,-0.010296 z m 0.0357,-0.029336 c 0.0076,-0.00354 0.01493,-0.00511 0.01626,-0.00346 0.0013,0.00164 0.01257,-0.0023 0.02497,-0.00876 l 0.02254,-0.011752 -0.0082,0.01064 c -0.01382,0.017905 -0.02625,0.023389 -0.04876,0.021503 -0.01871,-0.00157 -0.01934,-0.0023 -0.0068,-0.00815 z m -0.19819,-0.2762333 c 0.01336,-0.00102 0.01682,-3.28e-4 0.0087,0.00167 -0.0073,0.0018 -0.01726,0.00256 -0.02207,0.00161 -0.0048,-9.184e-4 0.0011,-0.00239 0.01333,-0.0033 z m 0.242092,0.2379306 0.02018,-0.013861 -0.01457,0.014373 c -0.008,0.0079 -0.01677,0.014563 -0.01947,0.014799 -0.0085,8.2e-4 -0.0069,-0.00108 0.01385,-0.015311 z m 0.03335,-0.034814 c 0.01401,-0.00338 0.01516,-0.00289 0.007,0.00295 -0.01109,0.00799 -0.01713,0.00922 -0.02105,0.00437 -0.0015,-0.0018 0.0048,-0.00519 0.01404,-0.00733 z m 0.008,0.011545 c 0.01306,-0.00312 0.01451,-0.00223 0.0092,0.00577 -0.0091,0.013648 -0.01139,0.01433 -0.01843,0.00568 -0.0035,-0.00428 6.23e-4,-0.00941 0.0093,-0.011457 z m 0.02239,-0.024633 c 0.0056,-0.00568 0.0072,-0.00577 0.01179,0 0.0029,0.00346 0.0011,0.00783 -0.0042,0.00966 -0.01199,0.0042 -0.01603,-8.2e-4 -0.0076,-0.00939 z m 0.366598,0.3596977 c 0.02159,-0.011027 0.04978,-0.043256 0.04634,-0.052966 -0.0013,-0.00379 0.0013,-0.00675 0.0058,-0.00659 0.0045,0 0.01331,0 0.01959,-8.2e-4 0.04048,-0.00354 -0.0017,0.04926 -0.0529,0.066251 -0.03516,0.011664 -0.04635,0.00815 -0.0188,-0.00593 z M 15.65234,7.5258881 c 10e-4,-0.00289 0.0092,-0.00585 0.01805,-0.00659 0.0089,-8.2e-4 0.01397,-0.00403 0.01137,-0.00725 -0.0026,-0.00321 -0.009,-0.00437 -0.01425,-0.00256 -0.0052,0.0018 -0.01078,0.00174 -0.01237,0 -0.0032,-0.00396 0.02031,-0.010509 0.04552,-0.012743 0.0089,-8.2e-4 0.01759,0 0.01937,0.00256 0.0018,0.00223 -0.0028,0.00338 -0.01007,0.00262 -0.0073,-8.199e-4 -0.01465,0.00295 -0.01629,0.00824 -0.0017,0.00527 -0.01122,0.013746 -0.02126,0.018853 -0.01761,0.00895 -0.02408,0.00799 -0.02005,-0.00289 z M 15.374208,7.1381097 c 0.0055,0.00243 0.0077,0.00569 0.0049,0.00728 -0.0028,0.00157 -0.0073,-3.28e-4 -0.01,-0.0044 -0.0029,-0.00443 -0.001,-0.00555 0.005,-0.00289 z m 0.41259,0.4131301 c 0.01304,-0.016646 0.02491,-0.02891 0.0264,-0.027237 0.0053,0.00585 -0.0223,0.048247 -0.03523,0.054267 -0.0183,0.00852 -0.0178,0.007 0.0088,-0.02703 z m -0.04971,-0.071828 c 0.01457,-0.00348 0.01621,-0.00315 0.0081,0.00154 -0.0056,0.00325 -0.01387,0.00522 -0.01832,0.00437 -0.0044,-8.2e-4 8.1e-5,-0.0035 0.01023,-0.00591 z m -0.157012,-0.197719 c 0.0047,-0.00479 0.01008,-0.00194 0.01956,0.010348 0.01,0.012903 0.0093,0.015367 -0.0028,0.010309 -0.02125,-0.0089 -0.02443,-0.012815 -0.01678,-0.020657 z m 0.04094,0.033616 c 0.001,-0.016846 0.0088,-0.017417 0.02166,-0.00157 0.007,0.00862 0.0049,0.012992 -0.0069,0.014028 -0.0094,8.2e-4 -0.01673,0.00131 -0.01629,0.00112 5.25e-4,-1.66e-4 0.0011,-0.00632 0.0015,-0.013556 z m 0.03617,-0.00898 c 0.0055,0.00243 0.0077,0.00569 0.0049,0.00728 -0.0028,0.00157 -0.0073,-3.28e-4 -0.01,-0.0044 -0.0029,-0.00443 -0.001,-0.00555 0.005,-0.00285 z m 0.342638,0.072139 c -6.23e-4,-0.00712 0.0032,-0.016042 0.0084,-0.019814 0.0052,-0.00377 0.0048,-0.009 -10e-4,-0.011627 -0.0058,-0.00262 -0.0059,-0.00852 -8.1e-5,-0.013117 0.0063,-0.00509 0.0028,-0.017804 -0.009,-0.032603 -0.01425,-0.017974 -0.01509,-0.023458 -0.0031,-0.021165 0.009,0.00171 0.02003,0.00787 0.02467,0.01372 0.0047,0.00584 0.01371,0.011972 0.02015,0.013618 0.03436,0.00879 0.06558,0.0479 0.03584,0.044959 -0.0068,-6.559e-4 -0.0089,0.00302 -0.0047,0.00817 0.0042,0.00516 0.0026,0.011142 -0.0035,0.013281 -0.0072,0.00253 -0.01043,0.00171 -0.0091,-0.00233 0.0011,-0.00343 -0.004,-0.00809 -0.01125,-0.010345 -0.0093,-0.00289 -0.01744,0.0022 -0.02729,0.016866 -0.01468,0.021904 -0.01814,0.021972 -0.02002,3.28e-4 z m 0.09599,0.012611 c 0.0061,-0.00213 0.0057,-0.007 -8.2e-4,-0.010817 -0.0066,-0.00382 -0.01112,-0.00953 -0.01015,-0.012713 0.0038,-0.012077 0.02442,-0.00266 0.05418,0.02479 0.01697,0.015645 0.0388,0.035737 0.0485,0.044656 0.01916,0.017584 0.03591,0.058701 0.02944,0.072216 -0.0022,0.00461 -0.0046,0.011877 -0.0052,0.016134 -0.0025,0.016019 -0.01401,0.00412 -0.0337,-0.034946 -0.01862,-0.036914 -0.04715,-0.068069 -0.08039,-0.087788 -0.0071,-0.00421 -0.008,-0.00939 -0.0018,-0.011532 z M 15.986225,7.1652864 c 0.0066,-5.904e-4 0.01025,9.184e-4 0.0081,0.00332 -0.0022,0.00243 -0.0062,0.00457 -0.009,0.00482 -0.0028,2.493e-4 -0.0064,-0.00125 -0.0081,-0.00332 -0.0017,-0.00207 0.0024,-0.00423 0.009,-0.00482 z"
     fill="#ffffff"
     fill-opacity="0.18"
     stroke-width="0.00676777"
     id="path932" />
  <path
     d="m 12.395615,5.8510551 c -2.8591508,0 -5.1886446,0.7687184 -5.1886446,1.7122524 0,0.9435343 2.3294938,1.7122527 5.1886446,1.7122527 2.85915,0 5.188644,-0.7687184 5.188644,-1.7122527 0,-0.943534 -2.329494,-1.7122524 -5.188644,-1.7122524 z m 0,0.3549758 c 2.277814,0 4.112934,0.6056081 4.112934,1.3572454 0,0.7516685 -1.835223,1.3571421 -4.112934,1.3571421 -2.277815,0 -4.1125199,-0.6054736 -4.1125199,-1.3571421 0,-0.7516682 1.8348079,-1.3572454 4.1125199,-1.3572454 z"
     color="#000000"
     fill="#ffffff"
     fill-opacity="0.15"
     stroke-width="0.116786"
     style="-inkscape-stroke:none"
     id="path934" />
</svg>
